<svg width="24" height="24" viewBox="0 0 24 24" fill="none" xmlns="http://www.w3.org/2000/svg">
<path d="M10.998 13.996V15.496H4.25C4.05161 15.4963 3.8614 15.5751 3.72102 15.7153C3.58064 15.8555 3.50153 16.0456 3.501 16.244V16.822C3.501 17.358 3.692 17.876 4.041 18.283C5.294 19.751 7.261 20.497 9.999 20.497C11.1043 20.497 12.086 20.376 12.944 20.134L14.114 21.326C12.9327 21.7733 11.561 21.997 9.999 21.997C6.853 21.997 4.466 21.092 2.899 19.257C2.31925 18.5785 2.00049 17.7155 2 16.823V16.245C2.00053 15.6486 2.23782 15.0768 2.65972 14.6553C3.08162 14.2338 3.65361 13.997 4.25 13.997L10.998 13.996ZM15 7C14.9999 5.67378 14.4729 4.40194 13.535 3.46426C12.5972 2.52658 11.3252 1.99987 9.999 2C8.67278 2.00013 7.40094 2.5271 6.46326 3.46497C5.52558 4.40284 4.99887 5.67478 4.999 7.001C4.999 8.32722 5.52584 9.59911 6.46361 10.5369C7.40139 11.4747 8.67329 12.0015 9.9995 12.0015C11.3257 12.0015 12.5976 11.4747 13.5354 10.5369C14.4732 9.59911 15 8.32621 15 7ZM6.497 7C6.497 6.07161 6.8658 5.18124 7.52227 4.52477C8.17874 3.8683 9.06911 3.4995 9.9975 3.4995C10.9259 3.4995 11.8163 3.8683 12.4727 4.52477C13.1292 5.18124 13.498 6.07161 13.498 7C13.498 7.92826 13.1293 8.8185 12.4729 9.47487C11.8165 10.1313 10.9263 10.5 9.998 10.5C9.06974 10.5 8.1795 10.1313 7.52313 9.47487C6.86675 8.8185 6.497 7.92826 6.497 7ZM16.572 22.4L12.572 18.328C12.2056 17.9548 11.9999 17.453 11.999 16.93V13.994C12.0001 13.4641 12.2114 12.9563 12.5866 12.582C12.9617 12.2078 13.4701 11.9977 14 11.998L16.918 11.996C17.4456 11.9945 17.9524 12.2015 18.328 12.572L22.404 16.587C22.5917 16.7712 22.741 16.9907 22.8434 17.233C22.9457 17.4752 22.999 17.7353 23.0003 17.9983C23.0015 18.2613 22.9505 18.5219 22.8504 18.765C22.7503 19.0082 22.603 19.2291 22.417 19.415L19.423 22.412C19.2354 22.5993 19.0126 22.7476 18.7674 22.8484C18.5223 22.9492 18.2596 23.0006 17.9945 22.9995C17.7294 22.9983 17.4672 22.9448 17.2229 22.8419C16.9786 22.739 16.757 22.5889 16.571 22.4M14.995 15.996C15.2602 15.996 15.5146 15.8906 15.7021 15.7031C15.8896 15.5156 15.995 15.2612 15.995 14.996C15.995 14.7308 15.8896 14.4764 15.7021 14.2889C15.5146 14.1014 15.2602 13.996 14.995 13.996C14.7298 13.996 14.4754 14.1014 14.2879 14.2889C14.1004 14.4764 13.995 14.7308 13.995 14.996C13.995 15.2612 14.1004 15.5156 14.2879 15.7031C14.4754 15.8906 14.7298 15.996 14.995 15.996Z" fill="white"/>
</svg>
