<svg width="16" height="20" viewBox="0 0 16 20" fill="none" xmlns="http://www.w3.org/2000/svg">
<path d="M16 20V15C16 13.115 16 12.172 15.414 11.586C14.828 11 13.886 11 12 11L8 20L4 11C2.114 11 1.172 11 0.586 11.586C-5.96046e-08 12.172 0 13.115 0 15V20" stroke="white" stroke-width="1.5" stroke-linecap="round" stroke-linejoin="round"/>
<path d="M8 13L7.5 17L8 18.5L8.5 17L8 13ZM8 13L7 11H9L8 13ZM11.5 4.5V3.5C11.5 2.57174 11.1313 1.6815 10.4749 1.02513C9.8185 0.368749 8.92826 0 8 0C7.07174 0 6.1815 0.368749 5.52513 1.02513C4.86875 1.6815 4.5 2.57174 4.5 3.5V4.5C4.5 4.95963 4.59053 5.41475 4.76642 5.83939C4.94231 6.26403 5.20012 6.64987 5.52513 6.97487C5.85013 7.29988 6.23597 7.55769 6.66061 7.73358C7.08525 7.90947 7.54037 8 8 8C8.45963 8 8.91475 7.90947 9.33939 7.73358C9.76403 7.55769 10.1499 7.29988 10.4749 6.97487C10.7999 6.64987 11.0577 6.26403 11.2336 5.83939C11.4095 5.41475 11.5 4.95963 11.5 4.5Z" stroke="white" stroke-width="1.5" stroke-linecap="round" stroke-linejoin="round"/>
</svg>
