<svg width="24" height="24" viewBox="0 0 24 24" fill="none" xmlns="http://www.w3.org/2000/svg">
<g clip-path="url(#clip0_570_3532)">
<path d="M9.25756 6.89243H14.7412C14.9225 6.89243 15.0694 6.74548 15.0694 6.56422C15.0694 5.28837 14.2871 4.19206 13.1771 3.72898C13.5954 3.38684 13.863 2.86695 13.863 2.28565C13.863 1.25768 13.0267 0.421387 11.9987 0.421387C10.9707 0.421387 10.1344 1.25768 10.1344 2.28565C10.1344 2.86704 10.4021 3.38693 10.8205 3.72907C9.71112 4.19225 8.92929 5.28847 8.92929 6.56417C8.92929 6.74543 9.07624 6.89239 9.25751 6.89239L9.25756 6.89243ZM10.7909 2.2857C10.7909 1.6197 11.3328 1.07787 11.9988 1.07787C12.6648 1.07787 13.2066 1.6197 13.2066 2.2857C13.2066 2.9517 12.6648 3.49353 11.9988 3.49353C11.3328 3.49353 10.7909 2.9517 10.7909 2.2857ZM11.9988 4.14997C13.2187 4.14997 14.2302 5.05948 14.3908 6.23604H9.60799C9.76854 5.05948 10.7795 4.14997 11.9988 4.14997ZM5.09707 19.0228C5.51534 18.6807 5.7829 18.1608 5.7829 17.5795C5.7829 16.5515 4.9466 15.7152 3.91863 15.7152C2.89067 15.7152 2.05437 16.5515 2.05437 17.5795C2.05437 18.1608 2.32193 18.6806 2.7402 19.0228C1.6302 19.4859 0.8479 20.5822 0.8479 21.858C0.8479 22.0393 0.994854 22.1862 1.17612 22.1862H6.66115C6.84242 22.1862 6.98937 22.0393 6.98937 21.858C6.98937 20.5822 6.20707 19.4859 5.09707 19.0228ZM2.71085 17.5795C2.71085 16.9135 3.25268 16.3716 3.91868 16.3716C4.58468 16.3716 5.12651 16.9135 5.12651 17.5795C5.12651 18.2455 4.58468 18.7873 3.91868 18.7873C3.25268 18.7873 2.71085 18.2455 2.71085 17.5795ZM1.52656 21.5298C1.6872 20.3532 2.69871 19.4437 3.91863 19.4437C5.13856 19.4437 6.15007 20.3532 6.31071 21.5298H1.52656ZM21.2597 19.0292C21.6781 18.6868 21.9457 18.1665 21.9457 17.5848C21.9457 16.5568 21.1094 15.7205 20.0815 15.7205C19.0535 15.7205 18.2172 16.5568 18.2172 17.5848C18.2172 18.1666 18.4849 18.687 18.9034 19.0294C17.7939 19.4923 17.012 20.5881 17.012 21.8633C17.012 22.0446 17.1589 22.1915 17.3402 22.1915H22.8239C23.0052 22.1915 23.1522 22.0446 23.1522 21.8633C23.1522 20.588 22.3698 19.4921 21.2597 19.0292H21.2597ZM18.8737 17.5848C18.8737 16.9188 19.4155 16.3769 20.0815 16.3769C20.7475 16.3769 21.2893 16.9188 21.2893 17.5848C21.2893 18.2508 20.7475 18.7939 20.0815 18.7939C19.4155 18.7939 18.8737 18.2515 18.8737 17.5848ZM17.6907 21.5351C17.8513 20.3592 18.8622 19.4503 20.0815 19.4503C21.3008 19.4503 22.3129 20.3592 22.4735 21.5351H17.6907ZM15.7441 5.48422C15.8232 5.32118 16.0195 5.25303 16.1826 5.33206C17.782 6.10742 19.1344 7.31037 20.0938 8.81089C21.0793 10.3524 21.6003 12.1389 21.6003 13.9773C21.6003 14.2835 21.5855 14.5961 21.5563 14.9062C21.5404 15.0762 21.3973 15.2037 21.2299 15.2037C21.2197 15.2037 21.2093 15.2032 21.1988 15.2022C21.0184 15.1853 20.8858 15.0252 20.9029 14.8447C20.9301 14.555 20.9439 14.2632 20.9439 13.9773C20.9439 10.5708 18.9626 7.40923 15.8963 5.92273C15.7332 5.84365 15.6651 5.64734 15.7442 5.48426L15.7441 5.48422ZM16.4274 16.3837C16.5968 16.0725 16.7327 15.7449 16.8328 15.4059L17.5771 15.2176C17.9697 15.119 18.2439 14.7674 18.2439 14.3625V13.5919C18.2439 13.1884 17.9704 12.8364 17.5771 12.7355L16.8329 12.5483C16.7328 12.2089 16.597 11.8809 16.4273 11.5693L16.8209 10.9099C17.0289 10.5612 16.9736 10.1187 16.688 9.83525L16.1427 9.28854C15.8566 9.00251 15.4139 8.94762 15.066 9.15504L14.4066 9.54861C14.0951 9.37906 13.7672 9.24317 13.4276 9.14309L13.2401 8.39736C13.1396 8.00572 12.7876 7.73215 12.3841 7.73215H11.6134C11.2085 7.73215 10.8569 8.00637 10.7584 8.39848L10.5701 9.14323C10.231 9.2434 9.9034 9.3792 9.5922 9.54865L8.93271 9.15509C8.58499 8.94767 8.14235 9.00256 7.85623 9.28864L7.31229 9.83389C7.02392 10.1201 6.96893 10.5631 7.17771 10.9097L7.57029 11.5692C7.4006 11.8808 7.26467 12.2089 7.16459 12.5485L6.42059 12.7358C6.02248 12.8375 5.75501 13.1815 5.75501 13.592V14.3626C5.75501 14.768 6.02937 15.1197 6.4212 15.2176L7.16463 15.4059C7.26485 15.745 7.4007 16.0727 7.57024 16.3841L7.1786 17.0421C6.96945 17.3894 7.02406 17.8325 7.3114 18.1198L7.85618 18.6646C8.14268 18.9511 8.58551 19.0066 8.93281 18.7994L9.5922 18.4059C9.90345 18.5753 10.231 18.7112 10.5702 18.8113L10.7582 19.5538C10.8564 19.9467 11.2081 20.221 11.6134 20.221H12.3841C12.7945 20.221 13.1386 19.9535 13.2405 19.5544L13.4275 18.8114C13.7672 18.7112 14.0951 18.5754 14.4066 18.4058L15.0661 18.7994C15.4134 19.0066 15.8561 18.9511 16.1427 18.6646L16.6874 18.1198C16.9735 17.8337 17.0283 17.3911 16.8209 17.0432L16.4273 16.3838L16.4274 16.3837ZM15.7656 16.5557L16.2572 17.3795C16.3122 17.4717 16.2989 17.58 16.2233 17.6556L15.6785 18.2004C15.6024 18.2765 15.4939 18.2902 15.4024 18.2357L14.5786 17.744C14.4749 17.6823 14.3458 17.6823 14.2422 17.744C13.8782 17.9612 13.4858 18.1238 13.0758 18.2272C12.9587 18.2568 12.8673 18.3482 12.8378 18.4653L12.6042 19.3931C12.5776 19.4973 12.4912 19.5646 12.3841 19.5646H11.6134C11.5066 19.5646 11.4208 19.4979 11.3948 19.3937L11.1596 18.4649C11.13 18.3481 11.0388 18.2569 10.9219 18.2273C10.5125 18.1237 10.1204 17.9611 9.75659 17.7441C9.70484 17.7132 9.64662 17.6977 9.58845 17.6977C9.53028 17.6977 9.47206 17.7132 9.42026 17.7441L8.59657 18.2357C8.50474 18.2904 8.39642 18.2765 8.32034 18.2004L7.77556 17.6556C7.69967 17.5797 7.68607 17.4718 7.74181 17.3793L8.23212 16.5554C8.29371 16.4519 8.29367 16.3229 8.23198 16.2194C8.01485 15.8555 7.85224 15.4634 7.74874 15.0541C7.71917 14.9373 7.62795 14.846 7.51113 14.8165L6.58137 14.581C6.47815 14.5552 6.41145 14.4695 6.41145 14.3626V13.592C6.41145 13.4849 6.47876 13.3984 6.58193 13.3722L7.51071 13.1383C7.62781 13.1088 7.71926 13.0174 7.74879 12.9003C7.8521 12.4905 8.01471 12.0981 8.23198 11.7338C8.29367 11.6303 8.29371 11.5014 8.23212 11.3978L7.74092 10.5725C7.68612 10.4816 7.69938 10.3745 7.77612 10.2984L8.32034 9.75284C8.39585 9.67728 8.50428 9.66392 8.59643 9.71886L9.42021 10.2105C9.52385 10.2723 9.65299 10.2723 9.75654 10.2105C10.1204 9.9934 10.5125 9.83084 10.9219 9.72729C11.0388 9.69772 11.13 9.60645 11.1596 9.48959L11.3949 8.55893C11.4205 8.45703 11.5083 8.38859 11.6134 8.38859H12.3841C12.491 8.38859 12.5775 8.45604 12.6039 8.55898L12.8377 9.48912C12.8672 9.60631 12.9586 9.69781 13.0758 9.72734C13.4857 9.83075 13.8782 9.99326 14.2421 10.2105C14.3458 10.2723 14.475 10.2723 14.5785 10.2105L15.4023 9.71886C15.4944 9.66397 15.6028 9.67718 15.6784 9.75284L16.2241 10.2998C16.2991 10.3742 16.312 10.4817 16.2572 10.5737L15.7655 11.3975C15.7038 11.5011 15.7038 11.6302 15.7655 11.7338C15.9828 12.098 16.1454 12.4905 16.2487 12.9003C16.2783 13.0174 16.3698 13.1089 16.4869 13.1383L17.4155 13.3718C17.52 13.3985 17.5874 13.485 17.5874 13.592V14.3626C17.5874 14.4677 17.519 14.5555 17.4166 14.5812L16.4865 14.8165C16.3696 14.846 16.2784 14.9373 16.2488 15.0542C16.1453 15.4635 15.9827 15.8555 15.7655 16.2195C15.7038 16.3231 15.7038 16.4522 15.7655 16.5558L15.7656 16.5557ZM2.44273 14.9078C2.41254 14.6037 2.39726 14.2906 2.39726 13.9772C2.39726 12.1397 2.91813 10.3538 3.90359 8.81248C4.8626 7.31257 6.21462 6.10953 7.81339 5.33342C7.97637 5.25434 8.17277 5.32226 8.25195 5.48534C8.33107 5.64842 8.26306 5.84478 8.10003 5.9239C4.98734 7.43487 3.0537 10.5207 3.0537 13.9772C3.0537 14.269 3.0679 14.5602 3.09593 14.843C3.11379 15.0234 2.98207 15.1841 2.80174 15.202C2.79073 15.203 2.77976 15.2036 2.76898 15.2036C2.60224 15.2036 2.45951 15.0772 2.44273 14.9077V14.9078ZM13.9374 11.3795H10.0602C9.69673 11.3795 9.40104 11.6752 9.40104 12.0386V15.9159C9.40104 16.2792 9.69673 16.5749 10.0602 16.5749H13.9374C14.3008 16.5749 14.5965 16.2792 14.5965 15.9159V12.0386C14.5965 11.6752 14.3008 11.3795 13.9374 11.3795ZM11.5869 12.0359H12.4107V12.8597H11.5869V12.0359ZM13.9374 15.9185L10.0575 15.9158L10.0602 12.0359H10.9305V13.0803C10.9305 13.3206 11.126 13.5162 11.3663 13.5162H12.6313C12.8716 13.5162 13.0671 13.3206 13.0671 13.0803V12.0359H13.9374L13.94 12.0386L13.9374 15.9185V15.9185ZM16.229 22.2382C16.306 22.4023 16.2353 22.5977 16.0712 22.6747C14.7916 23.2745 13.4215 23.5787 11.9988 23.5787C10.5762 23.5787 9.20876 23.2746 7.92785 22.6747C7.7637 22.5979 7.69296 22.4024 7.76984 22.2383C7.84671 22.0742 8.0419 22.0034 8.20629 22.0803C9.3994 22.639 10.6754 22.9223 11.9988 22.9223C13.3222 22.9223 14.6008 22.639 15.7926 22.0803C15.9568 22.0034 16.1521 22.0741 16.2291 22.2382H16.229Z" fill="#383838" fill-opacity="0.6"/>
</g>
<defs>
<clipPath id="clip0_570_3532">
<rect width="24" height="24" fill="white"/>
</clipPath>
</defs>
</svg>
