<svg width="20" height="20" viewBox="0 0 20 20" fill="none" xmlns="http://www.w3.org/2000/svg">
<path d="M9.16651 10.8332H4.99984C4.76373 10.8332 4.56595 10.7532 4.40651 10.5932C4.24706 10.4332 4.16706 10.2354 4.16651 9.99984C4.16595 9.76428 4.24595 9.56651 4.40651 9.40651C4.56706 9.24651 4.76484 9.16651 4.99984 9.16651H9.16651V4.99984C9.16651 4.76373 9.24651 4.56595 9.40651 4.40651C9.56651 4.24706 9.76428 4.16706 9.99984 4.16651C10.2354 4.16595 10.4335 4.24595 10.594 4.40651C10.7546 4.56706 10.8343 4.76484 10.8332 4.99984V9.16651H14.9998C15.236 9.16651 15.434 9.24651 15.594 9.40651C15.754 9.56651 15.8337 9.76428 15.8332 9.99984C15.8326 10.2354 15.7526 10.4335 15.5932 10.594C15.4337 10.7546 15.236 10.8343 14.9998 10.8332H10.8332V14.9998C10.8332 15.236 10.7532 15.434 10.5932 15.594C10.4332 15.754 10.2354 15.8337 9.99984 15.8332C9.76428 15.8326 9.56651 15.7526 9.40651 15.5932C9.24651 15.4337 9.16651 15.236 9.16651 14.9998V10.8332Z" fill="white"/>
</svg>
