<svg width="18" height="16" viewBox="0 0 18 16" fill="none" xmlns="http://www.w3.org/2000/svg">
<path d="M4 16H14M6 12V16M12 12V16M0 1C0 0.734784 0.105357 0.48043 0.292893 0.292893C0.48043 0.105357 0.734784 0 1 0H17C17.2652 0 17.5196 0.105357 17.7071 0.292893C17.8946 0.48043 18 0.734784 18 1V11C18 11.2652 17.8946 11.5196 17.7071 11.7071C17.5196 11.8946 17.2652 12 17 12H1C0.734784 12 0.48043 11.8946 0.292893 11.7071C0.105357 11.5196 0 11.2652 0 11V1Z" stroke="#1A85C8" stroke-width="2" stroke-linecap="round" stroke-linejoin="round"/>
<path d="M4 6H6L8 9L10 3L11 6H14" stroke="#1A85C8" stroke-width="2" stroke-linecap="round" stroke-linejoin="round"/>
</svg>
