<svg width="24" height="24" viewBox="0 0 24 24" fill="none" xmlns="http://www.w3.org/2000/svg">
<path d="M23.0909 21.9635H22.7272C22.7272 20.2181 21.8545 18.5453 20.2909 17.3453C21.8181 16.1453 22.6909 14.4726 22.7272 12.7272H23.0909C23.309 12.7272 23.4545 12.5817 23.4545 12.3635C23.4545 12.1453 23.309 11.9999 23.0909 11.9999C21.7818 11.9999 21.6363 11.9999 19.3818 11.9999V3.78171C19.3818 3.63625 19.309 3.52716 19.2 3.45443L14.0727 0.399889C14 0.363525 13.9272 0.363525 13.8909 0.363525H0.909047C0.690865 0.363525 0.54541 0.50898 0.54541 0.727162V23.2726C0.54541 23.4908 0.690865 23.6363 0.909047 23.6363H18.9818C19.2 23.6363 19.3454 23.4908 19.3454 23.2726V22.6908H23.0545C23.2727 22.6908 23.4181 22.5453 23.4181 22.3272C23.4181 22.109 23.2727 21.9635 23.0909 21.9635ZM19.7454 16.8363C18.3272 15.7453 17.5272 14.2544 17.4909 12.7272H21.9636C22 14.2908 21.1636 15.7453 19.7454 16.8363ZM14.2545 1.38171L17.6727 3.41807H14.2545V1.38171ZM18.6181 22.909H1.27268V1.0908H13.4909V3.78171C13.4909 3.99989 13.6363 4.14534 13.8545 4.14534H18.6181V11.9999C18.5454 11.9999 16.2909 11.9999 16.4363 11.9999C16.2181 11.9999 16.0727 12.1453 16.0727 12.3635C16.0727 12.5817 16.2181 12.7272 16.4363 12.7272H16.8C16.8 14.4726 17.6727 16.1453 19.2363 17.3453C17.709 18.5453 16.8363 20.2181 16.8 21.9635H16.4363C16.2181 21.9635 16.0727 22.109 16.0727 22.3272C16.0727 22.5453 16.2181 22.6908 16.4363 22.6908C16.4727 22.6908 18.6545 22.6908 18.6181 22.6908V22.909ZM17.5272 21.9635C17.5272 20.3999 18.3272 18.9453 19.7818 17.8544C21.2 18.9453 22 20.4363 22.0363 21.9635C21.4545 21.9635 18.9454 21.9635 17.5272 21.9635Z" fill="#BAAA03"/>
<path d="M3.01818 5.78163H11.8182C12.0364 5.78163 12.1818 5.63617 12.1818 5.41799V2.5089C12.1818 2.29072 12.0364 2.14526 11.8182 2.14526H3.01818C2.8 2.14526 2.65454 2.29072 2.65454 2.5089V5.41799C2.65454 5.59981 2.8 5.78163 3.01818 5.78163ZM3.38181 2.87254H11.4545V5.05435H3.38181V2.87254Z" fill="#BAAA03"/>
<path d="M6.18184 8.18164H3.09093C2.87275 8.18164 2.72729 8.3271 2.72729 8.54528V11.5635C2.72729 11.7816 2.87275 11.9271 3.09093 11.9271H6.18184C6.40002 11.9271 6.54548 11.7816 6.54548 11.5635V8.54528C6.54548 8.36346 6.40002 8.18164 6.18184 8.18164ZM5.8182 11.1998H3.45457V8.90891H5.8182V11.1998Z" fill="#BAAA03"/>
<path d="M6.18184 12.8362H3.09093C2.87275 12.8362 2.72729 12.9816 2.72729 13.1998V16.218C2.72729 16.4362 2.87275 16.5816 3.09093 16.5816H6.18184C6.40002 16.5816 6.54548 16.4362 6.54548 16.218V13.1998C6.54548 12.9816 6.40002 12.8362 6.18184 12.8362ZM5.8182 15.818H3.45457V13.5271H5.8182V15.818Z" fill="#BAAA03"/>
<path d="M6.18184 17.4543H3.09093C2.87275 17.4543 2.72729 17.5998 2.72729 17.818V20.8362C2.72729 21.0543 2.87275 21.1998 3.09093 21.1998H6.18184C6.40002 21.1998 6.54548 21.0543 6.54548 20.8362V17.818C6.54548 17.5998 6.40002 17.4543 6.18184 17.4543ZM5.8182 20.4362H3.45457V18.1816H5.8182V20.4362Z" fill="#BAAA03"/>
<path d="M4.25439 10.8C4.32712 10.8363 4.39985 10.8727 4.47257 10.8727C4.58167 10.8727 4.65439 10.8363 4.72712 10.7636L5.56348 9.89089C5.70894 9.74543 5.70894 9.52725 5.56348 9.3818C5.41803 9.23634 5.19985 9.23634 5.05439 9.3818L4.43621 10.0363L4.21803 9.89089C4.07257 9.7818 3.81803 9.81816 3.70894 9.96361C3.59985 10.1091 3.63621 10.3636 3.78167 10.4727L4.25439 10.8Z" fill="#BAAA03"/>
<path d="M4.25439 15.4181C4.32712 15.4545 4.39985 15.4909 4.47257 15.4909C4.58167 15.4909 4.65439 15.4545 4.72712 15.3818L5.56348 14.5091C5.70894 14.3636 5.70894 14.1454 5.56348 14C5.41803 13.8545 5.19985 13.8545 5.05439 14L4.43621 14.6545L4.21803 14.5091C4.07257 14.4 3.81803 14.4363 3.70894 14.5818C3.59985 14.7272 3.63621 14.9818 3.78167 15.0909L4.25439 15.4181Z" fill="#BAAA03"/>
<path d="M4.25438 20.0363C4.32711 20.0727 4.39983 20.109 4.47256 20.109C4.58165 20.109 4.65438 20.0727 4.72711 19.9999L5.56347 19.1272C5.70892 18.9818 5.70892 18.7636 5.56347 18.6181C5.41802 18.4727 5.19983 18.4727 5.05438 18.6181L4.39983 19.2727L4.18165 19.1272C4.0362 19.0181 3.78165 19.0545 3.67256 19.1999C3.56347 19.3454 3.59983 19.5999 3.74529 19.709L4.25438 20.0363Z" fill="#BAAA03"/>
<path d="M7.70898 8.90905C7.70898 9.12723 7.85444 9.27268 8.07262 9.27268H16.7999C17.0181 9.27268 17.1635 9.12723 17.1635 8.90905C17.1635 8.69086 17.0181 8.54541 16.7999 8.54541H8.07262C7.8908 8.54541 7.70898 8.69086 7.70898 8.90905Z" fill="#BAAA03"/>
<path d="M16.8363 10.8362H8.109C7.89082 10.8362 7.74536 10.9816 7.74536 11.1998C7.74536 11.418 7.89082 11.5635 8.109 11.5635H16.8363C17.0545 11.5635 17.1999 11.418 17.1999 11.1998C17.1999 10.9816 17.0181 10.8362 16.8363 10.8362Z" fill="#BAAA03"/>
<path d="M8.07262 13.8908H15.6363C15.8544 13.8908 15.9999 13.7454 15.9999 13.5272C15.9999 13.309 15.8544 13.1636 15.6363 13.1636H8.07262C7.85444 13.1636 7.70898 13.309 7.70898 13.5272C7.70898 13.7454 7.8908 13.8908 8.07262 13.8908Z" fill="#BAAA03"/>
<path d="M7.70898 15.8544C7.70898 16.0725 7.85444 16.218 8.07262 16.218H16.7999C17.0181 16.218 17.1635 16.0725 17.1635 15.8544C17.1635 15.6362 17.0181 15.4907 16.7999 15.4907H8.07262C7.8908 15.4907 7.70898 15.6362 7.70898 15.8544Z" fill="#BAAA03"/>
<path d="M16.8363 17.7817H8.109C7.89082 17.7817 7.74536 17.9272 7.74536 18.1454C7.74536 18.3636 7.89082 18.509 8.109 18.509H16.8363C17.0545 18.509 17.1999 18.3636 17.1999 18.1454C17.1999 17.9272 17.0181 17.7817 16.8363 17.7817Z" fill="#BAAA03"/>
<path d="M15.5999 20.1089H8.07262C7.85444 20.1089 7.70898 20.2543 7.70898 20.4725C7.70898 20.6907 7.85444 20.8362 8.07262 20.8362H15.5999C15.8181 20.8362 15.9635 20.6907 15.9635 20.4725C15.9635 20.2543 15.8181 20.1089 15.5999 20.1089Z" fill="#BAAA03"/>
</svg>
