<svg width="22" height="19" viewBox="0 0 22 19" fill="none" xmlns="http://www.w3.org/2000/svg">
<path d="M11.8777 0C8.86496 0 5.99795 1.4578 4.2 3.88747C2.93657 3.98465 1.67314 4.32481 0.506901 5.00512C0.263935 5.15089 0.166748 5.39386 0.166748 5.58824V5.63683V13.4118C0.166748 13.6547 0.312528 13.8977 0.506901 14.0435C1.67314 14.6752 2.93657 15.0153 4.2 15.1125C5.99795 17.5422 8.81636 19 11.8777 19C17.1258 19 21.3534 14.7238 21.3534 9.5243C21.3534 4.22762 17.1258 0 11.8777 0ZM7.94168 12.9258C5.94936 13.8491 3.61688 13.8491 1.62455 12.9258C1.62455 12.7315 1.62455 12.4885 1.62455 12.2941C2.49923 12.6343 3.56828 12.9744 4.8803 12.9744C5.6578 12.9744 6.72685 12.8772 7.94168 12.3913V12.9258ZM7.94168 10.7877C6.77544 11.3708 5.6578 11.468 4.8803 11.468C3.4711 11.468 2.35345 11.0307 1.62455 10.6419C1.62455 10.399 1.62455 10.156 1.62455 9.91304C2.45064 10.2532 3.51969 10.5448 4.83171 10.5448C5.6092 10.5448 6.72685 10.4476 7.94168 9.96164V10.7877ZM7.94168 8.35806C6.72685 8.94118 5.6092 9.08696 4.83171 9.08696C3.4711 9.08696 2.40204 8.69821 1.62455 8.30946C1.62455 8.0179 1.62455 7.77494 1.62455 7.48338C2.49923 7.82353 3.56828 8.16368 4.8803 8.16368C5.6578 8.16368 6.72685 8.0665 7.94168 7.58056V8.35806ZM4.8803 6.70588C3.56828 6.70588 2.49923 6.31714 1.77033 5.97698C3.71406 5.05371 5.99795 5.05371 7.94168 6.02558C6.72685 6.6087 5.6578 6.70588 4.8803 6.70588ZM11.8777 17.4936C9.64245 17.4936 7.55294 16.5703 6.04654 14.9668C7.067 14.821 8.08746 14.4808 9.01074 13.9949C9.2537 13.8977 9.35089 13.6061 9.35089 13.3632C9.35089 10.7877 9.35089 8.16368 9.35089 5.58824C9.35089 5.34527 9.20511 5.1023 9.01074 4.95652C8.08746 4.422 7.067 4.08184 6.04654 3.93606C7.55294 2.33248 9.64245 1.40921 11.8777 1.40921C16.2997 1.40921 19.8956 5.00512 19.8956 9.42711C19.8956 13.8977 16.2997 17.4936 11.8777 17.4936Z" fill="#6945FB"/>
<path d="M12.6066 9.28136C12.6066 7.96934 12.6066 6.60872 12.6066 5.2967C12.6066 4.37343 11.1488 4.37343 11.1488 5.2967V8.40668V9.62151C11.1974 10.156 11.7805 10.4962 12.1207 10.8363C12.558 11.2251 12.9468 11.5652 13.3841 11.954C13.6757 12.197 14.113 12.2456 14.4046 11.954C14.6475 11.711 14.6961 11.1765 14.4046 10.9335C13.8214 10.399 13.2383 9.81589 12.6066 9.28136Z" fill="#6945FB"/>
</svg>
