<svg width="24" height="24" viewBox="0 0 24 24" fill="none" xmlns="http://www.w3.org/2000/svg">
<path d="M3.03094 6.53054H4.39547C4.55062 6.53054 4.67672 6.65663 4.67672 6.81179C4.67672 6.96694 4.55062 7.09304 4.39547 7.09304H3.31219V8.68397H4.90312V7.85147C4.90312 7.69632 5.02922 7.57022 5.18437 7.57022C5.33953 7.57022 5.46562 7.69632 5.46562 7.85147V8.96522C5.46562 9.12038 5.33953 9.24647 5.18437 9.24647H3.03094C2.87578 9.24647 2.74969 9.12038 2.74969 8.96522V6.81179C2.74969 6.65663 2.87578 6.53054 3.03094 6.53054ZM7.15453 7.57069H11.3316C11.4867 7.57069 11.6128 7.4446 11.6128 7.28944C11.6128 7.13429 11.4867 7.00819 11.3316 7.00819H7.15453C6.99938 7.00819 6.87328 7.13429 6.87328 7.28944C6.87328 7.4446 6.99891 7.57069 7.15453 7.57069ZM3.93656 7.55897C3.82687 7.44929 3.64875 7.44929 3.53859 7.55897C3.42891 7.66866 3.42891 7.84679 3.53859 7.95694L3.88453 8.30288C3.9375 8.35538 4.00875 8.38538 4.08328 8.38538H4.08656C4.16203 8.38444 4.23422 8.35304 4.28672 8.29866L5.40797 7.12491C5.51531 7.01241 5.51109 6.83476 5.39906 6.72741C5.28703 6.62007 5.10891 6.62429 5.00156 6.73632L4.07906 7.70147L3.93656 7.55897ZM6.10359 8.75054H11.3311C11.4862 8.75054 11.6123 8.62444 11.6123 8.46929C11.6123 8.31413 11.4862 8.18804 11.3311 8.18804H6.10359C5.94844 8.18804 5.82234 8.31413 5.82234 8.46929C5.82234 8.62444 5.94844 8.75054 6.10359 8.75054ZM3.03094 13.2252H5.18437C5.33953 13.2252 5.46562 13.0991 5.46562 12.944V11.8302C5.46562 11.6751 5.33953 11.549 5.18437 11.549C5.02922 11.549 4.90312 11.6751 4.90312 11.8302V12.6627H3.31219V11.0718H4.39547C4.55062 11.0718 4.67672 10.9457 4.67672 10.7905C4.67672 10.6354 4.55062 10.5093 4.39547 10.5093H3.03094C2.87578 10.5093 2.74969 10.6354 2.74969 10.7905V12.944C2.74969 13.0991 2.87578 13.2252 3.03094 13.2252ZM11.3316 10.9869H7.15453C6.99938 10.9869 6.87328 11.113 6.87328 11.2682C6.87328 11.4233 6.99938 11.5494 7.15453 11.5494H11.3316C11.4867 11.5494 11.6128 11.4233 11.6128 11.2682C11.6128 11.113 11.4867 10.9869 11.3316 10.9869ZM5.00109 10.7151L4.07906 11.6798L3.93656 11.5373C3.82687 11.4276 3.64875 11.4276 3.53859 11.5373C3.42891 11.6469 3.42891 11.8251 3.53859 11.9352L3.88453 12.2812C3.9375 12.3337 4.00875 12.3637 4.08328 12.3637H4.08656C4.16203 12.3627 4.23422 12.3313 4.28672 12.2769L5.40797 11.1041C5.51531 10.9916 5.51109 10.814 5.39906 10.7066C5.28656 10.5988 5.10844 10.6026 5.00109 10.7151ZM6.10359 12.7293H11.3311C11.4862 12.7293 11.6123 12.6032 11.6123 12.448C11.6123 12.2929 11.4862 12.1668 11.3311 12.1668H6.10359C5.94844 12.1668 5.82234 12.2929 5.82234 12.448C5.82234 12.6032 5.94844 12.7293 6.10359 12.7293ZM5.18437 15.5273C5.02922 15.5273 4.90312 15.6533 4.90312 15.8085V16.641H3.31219V15.0501H4.39547C4.55062 15.0501 4.67672 14.924 4.67672 14.7688C4.67672 14.6137 4.55062 14.4876 4.39547 14.4876H3.03094C2.87578 14.4876 2.74969 14.6137 2.74969 14.7688V16.9223C2.74969 17.0774 2.87578 17.2035 3.03094 17.2035H5.18437C5.33953 17.2035 5.46562 17.0774 5.46562 16.9223V15.8085C5.46562 15.6533 5.33953 15.5273 5.18437 15.5273ZM7.15453 14.9652C6.99938 14.9652 6.87328 15.0913 6.87328 15.2465C6.87328 15.4016 6.99938 15.5277 7.15453 15.5277H10.0284C10.1836 15.5277 10.3097 15.4016 10.3097 15.2465C10.3097 15.0913 10.1836 14.9652 10.0284 14.9652H7.15453ZM5.00109 14.6933L4.07906 15.658L3.93656 15.5155C3.82687 15.4058 3.64875 15.4058 3.53859 15.5155C3.42891 15.6252 3.42891 15.8033 3.53859 15.9135L3.88453 16.2594C3.9375 16.3124 4.00875 16.3419 4.08328 16.3419H4.08656C4.16203 16.341 4.23422 16.3096 4.28672 16.2552L5.40797 15.0824C5.51531 14.9699 5.51109 14.7923 5.39906 14.6849C5.28656 14.5771 5.10844 14.5813 5.00109 14.6933ZM6.10359 16.7076H10.4695C10.6247 16.7076 10.7508 16.5815 10.7508 16.4263C10.7508 16.2712 10.6247 16.1451 10.4695 16.1451H6.10359C5.94844 16.1451 5.82234 16.2712 5.82234 16.4263C5.82234 16.5815 5.94844 16.7076 6.10359 16.7076ZM15.6066 12.959C15.6066 12.1049 16.3013 11.4102 17.1553 11.4102C18.0094 11.4102 18.7041 12.1049 18.7041 12.959C18.7041 13.813 18.0094 14.5077 17.1553 14.5077C16.3013 14.5082 15.6066 13.813 15.6066 12.959ZM16.1691 12.959C16.1691 13.5027 16.6116 13.9452 17.1553 13.9452C17.6991 13.9452 18.1416 13.5027 18.1416 12.959C18.1416 12.4152 17.6991 11.9727 17.1553 11.9727C16.6116 11.9727 16.1691 12.4152 16.1691 12.959ZM23.2969 13.0035C23.2969 13.1587 23.1708 13.2848 23.0156 13.2848H22.5394C22.2811 13.2848 22.0641 13.4352 21.9736 13.6771L21.4683 15.0262L19.5544 20.1388V21.1794C19.5544 21.584 19.2253 21.913 18.8208 21.913H18.1378C18.0183 22.2908 17.6644 22.566 17.2472 22.566C16.83 22.566 16.4761 22.2913 16.3566 21.913H15.5062C15.3867 22.2908 15.0328 22.566 14.6156 22.566C14.1984 22.566 13.8445 22.2913 13.725 21.913H13.0636C12.9084 21.913 12.7823 21.7869 12.7823 21.6318C12.7823 21.4766 12.9084 21.3505 13.0636 21.3505H13.725C13.8445 20.9727 14.1984 20.6976 14.6156 20.6976C15.0328 20.6976 15.3867 20.9723 15.5062 21.3505H16.3566C16.4761 20.9727 16.83 20.6976 17.2472 20.6976C17.6644 20.6976 18.0183 20.9723 18.1378 21.3505H18.8208C18.915 21.3505 18.9919 21.2737 18.9919 21.1794V20.369H13.0214C12.907 20.369 12.8048 20.2996 12.7617 20.1941V20.2007H0.984375C0.829219 20.2007 0.703125 20.0746 0.703125 19.9194V3.81413C0.703125 3.65897 0.829219 3.53288 0.984375 3.53288H3.73266V3.01866C3.73266 2.86351 3.85875 2.73741 4.01391 2.73741H5.62078C5.75391 1.99679 6.40266 1.43335 7.18125 1.43335C7.95984 1.43335 8.60859 1.99679 8.74172 2.73741H10.3486C10.5037 2.73741 10.6298 2.86351 10.6298 3.01866V3.53241H13.3781C13.5333 3.53241 13.6594 3.65851 13.6594 3.81366V14.6465H14.3827C14.4014 14.5555 14.4459 14.4688 14.5162 14.398L14.8439 14.0704C14.8027 13.9851 14.7661 13.8969 14.7347 13.8074H14.2716C13.9997 13.8074 13.7789 13.5866 13.7789 13.3148V12.6032C13.7789 12.3313 14.0002 12.1105 14.2716 12.1105H14.7347C14.7661 12.0215 14.8027 11.9333 14.8439 11.8476L14.5162 11.5199C14.4234 11.4271 14.3723 11.3033 14.3723 11.1716C14.3723 11.0399 14.4234 10.9162 14.5167 10.8233L15.0197 10.3204C15.1125 10.2276 15.2363 10.176 15.368 10.176C15.4997 10.176 15.6234 10.2271 15.7162 10.3204L16.0439 10.648C16.1292 10.6068 16.2173 10.5702 16.3069 10.5388V10.0757C16.3069 9.80382 16.5281 9.58304 16.7995 9.58304H17.5111C17.783 9.58304 18.0037 9.80382 18.0037 10.0757V10.5388C18.0933 10.5702 18.1814 10.6068 18.2667 10.648L18.5944 10.3204C18.6872 10.2276 18.8109 10.176 18.9427 10.176C19.0744 10.176 19.1981 10.2271 19.2909 10.3204L19.7939 10.8238C19.8867 10.9166 19.9378 11.0404 19.9378 11.1721C19.9378 11.3038 19.8867 11.4276 19.7939 11.5204L19.4662 11.848C19.5075 11.9333 19.5441 12.0215 19.5755 12.111H20.0386C20.3105 12.111 20.5312 12.3318 20.5312 12.6037V13.3152C20.5312 13.5871 20.31 13.8079 20.0386 13.8079H19.5755C19.5441 13.8969 19.5075 13.9851 19.4662 14.0708L19.7939 14.3985C19.8642 14.4688 19.9088 14.556 19.9275 14.6469H21.0094L21.4462 13.4802C21.6187 13.0199 22.0472 12.7227 22.5389 12.7227H23.0156C23.1708 12.7223 23.2969 12.8483 23.2969 13.0035ZM14.9869 21.6323C14.9869 21.4274 14.82 21.2605 14.6152 21.2605C14.4103 21.2605 14.2434 21.4274 14.2434 21.6323C14.2434 21.8371 14.4103 22.004 14.6152 22.004C14.8205 22.004 14.9869 21.8371 14.9869 21.6323ZM17.6189 21.6323C17.6189 21.4274 17.452 21.2605 17.2472 21.2605C17.0423 21.2605 16.8755 21.4274 16.8755 21.6323C16.8755 21.8371 17.0423 22.004 17.2472 22.004C17.452 22.004 17.6189 21.8371 17.6189 21.6323ZM15.277 14.4327L15.0633 14.6465H19.2469L19.0331 14.4327C18.8822 14.2818 18.8456 14.0521 18.9422 13.8618C18.9877 13.7723 19.0261 13.679 19.0575 13.5843C19.1241 13.3813 19.3125 13.2454 19.5258 13.2454H19.9692V12.6735H19.5258C19.3125 12.6735 19.1245 12.5371 19.0575 12.3346C19.0261 12.2399 18.9877 12.1462 18.9422 12.0571C18.8456 11.8663 18.8822 11.6371 19.0331 11.4862L19.3467 11.1726L18.9422 10.768L18.6286 11.0816C18.4777 11.2326 18.248 11.2691 18.0577 11.1726C17.9686 11.1276 17.8748 11.0887 17.7797 11.0573C17.5772 10.9907 17.4408 10.8027 17.4408 10.589V10.1455H16.8689V10.589C16.8689 10.8023 16.7325 10.9902 16.53 11.0573C16.4348 11.0887 16.3416 11.1271 16.2525 11.1726C16.0617 11.2691 15.8325 11.2326 15.6816 11.0816L15.368 10.768L14.9634 11.1726L15.277 11.4862C15.428 11.6371 15.4645 11.8668 15.368 12.0571C15.3225 12.1466 15.2841 12.2399 15.2527 12.3346C15.1861 12.5376 14.9977 12.6735 14.7844 12.6735H14.3409V13.2454H14.7844C14.9977 13.2454 15.1856 13.3818 15.2527 13.5843C15.2841 13.6794 15.3225 13.7727 15.368 13.8623C15.4645 14.0526 15.428 14.2818 15.277 14.4327ZM10.6298 4.09538V4.37944H12.5869C12.742 4.37944 12.8681 4.50554 12.8681 4.66069V14.6469H13.0969V4.09538H10.6298ZM4.29516 4.71976H10.0669V3.29991H8.48484C8.32969 3.29991 8.20359 3.17382 8.20359 3.01866C8.20359 2.45476 7.74469 1.99585 7.18078 1.99585C6.61688 1.99585 6.15797 2.45476 6.15797 3.01866C6.15797 3.17382 6.03188 3.29991 5.87672 3.29991H4.29516V4.71976ZM4.01391 5.28226C3.85875 5.28226 3.73266 5.15616 3.73266 5.00101V4.94194H2.05687V18.7926H12.2358L10.8258 15.0266C10.7934 14.9404 10.8056 14.8433 10.8581 14.7679C10.9106 14.6924 10.9969 14.6469 11.0892 14.6469H12.3052V4.94147H10.6294V5.00054C10.6294 5.15569 10.5033 5.28179 10.3481 5.28179L4.01391 5.28226ZM1.26562 19.6391H12.5527L12.4462 19.3551H1.77562C1.62047 19.3551 1.49437 19.229 1.49437 19.0738V4.66022C1.49437 4.50507 1.62047 4.37897 1.77562 4.37897H3.73266V4.09491H1.26562V19.6391ZM20.7994 15.209H11.4952L12.2006 17.0938H15.2077C15.3628 17.0938 15.4889 17.2199 15.4889 17.3751C15.4889 17.5302 15.3628 17.6563 15.2077 17.6563H12.4111L13.2164 19.8074H19.0781L19.8834 17.6563H17.1234C16.9683 17.6563 16.8422 17.5302 16.8422 17.3751C16.8422 17.2199 16.9683 17.0938 17.1234 17.0938H20.0939L20.7994 15.209Z" fill="#383838" fill-opacity="0.6"/>
</svg>
