<svg width="17" height="17" viewBox="0 0 17 17" fill="none" xmlns="http://www.w3.org/2000/svg">
<path d="M6.30659 5.64001L7.83325 4.10668V10.5C7.83325 10.6768 7.90349 10.8464 8.02851 10.9714C8.15354 11.0964 8.32311 11.1667 8.49992 11.1667C8.67673 11.1667 8.8463 11.0964 8.97132 10.9714C9.09635 10.8464 9.16659 10.6768 9.16659 10.5V4.10668L10.6933 5.64001C10.7552 5.7025 10.829 5.75209 10.9102 5.78594C10.9914 5.81979 11.0786 5.83721 11.1666 5.83721C11.2546 5.83721 11.3417 5.81979 11.423 5.78594C11.5042 5.75209 11.5779 5.7025 11.6399 5.64001C11.7024 5.57804 11.752 5.5043 11.7858 5.42306C11.8197 5.34182 11.8371 5.25469 11.8371 5.16668C11.8371 5.07867 11.8197 4.99153 11.7858 4.91029C11.752 4.82906 11.7024 4.75532 11.6399 4.69335L8.97325 2.02668C8.90985 1.96599 8.83509 1.91841 8.75325 1.88668C8.59094 1.82 8.40889 1.82 8.24659 1.88668C8.16475 1.91841 8.08999 1.96599 8.02659 2.02668L5.35992 4.69335C5.29776 4.7555 5.24845 4.8293 5.21481 4.91051C5.18117 4.99173 5.16386 5.07877 5.16386 5.16668C5.16386 5.25459 5.18117 5.34163 5.21481 5.42285C5.24845 5.50406 5.29776 5.57785 5.35992 5.64001C5.42208 5.70217 5.49587 5.75148 5.57709 5.78512C5.6583 5.81876 5.74535 5.83607 5.83325 5.83607C5.92116 5.83607 6.0082 5.81876 6.08942 5.78512C6.17063 5.75148 6.24443 5.70217 6.30659 5.64001ZM14.4999 9.83335C14.3231 9.83335 14.1535 9.90358 14.0285 10.0286C13.9035 10.1536 13.8333 10.3232 13.8333 10.5V13.1667C13.8333 13.3435 13.763 13.5131 13.638 13.6381C13.513 13.7631 13.3434 13.8333 13.1666 13.8333H3.83325C3.65644 13.8333 3.48687 13.7631 3.36185 13.6381C3.23682 13.5131 3.16659 13.3435 3.16659 13.1667V10.5C3.16659 10.3232 3.09635 10.1536 2.97132 10.0286C2.8463 9.90358 2.67673 9.83335 2.49992 9.83335C2.32311 9.83335 2.15354 9.90358 2.02851 10.0286C1.90349 10.1536 1.83325 10.3232 1.83325 10.5V13.1667C1.83325 13.6971 2.04397 14.2058 2.41904 14.5809C2.79411 14.956 3.30282 15.1667 3.83325 15.1667H13.1666C13.697 15.1667 14.2057 14.956 14.5808 14.5809C14.9559 14.2058 15.1666 13.6971 15.1666 13.1667V10.5C15.1666 10.3232 15.0963 10.1536 14.9713 10.0286C14.8463 9.90358 14.6767 9.83335 14.4999 9.83335Z" fill="#383838" fill-opacity="0.6"/>
</svg>
