<svg width="22" height="19" viewBox="0 0 22 19" fill="none" xmlns="http://www.w3.org/2000/svg">
<path d="M12.211 0C9.19821 0 6.3312 1.4578 4.53325 3.88747C3.26982 3.98465 2.00639 4.32481 0.840153 5.00512C0.597187 5.15089 0.5 5.39386 0.5 5.58824V5.63683V13.4118C0.5 13.6547 0.64578 13.8977 0.840153 14.0435C2.00639 14.6752 3.26982 15.0153 4.53325 15.1125C6.3312 17.5422 9.14962 19 12.211 19C17.4591 19 21.6867 14.7238 21.6867 9.5243C21.6867 4.22762 17.4591 0 12.211 0ZM8.27494 12.9258C6.28261 13.8491 3.95013 13.8491 1.9578 12.9258C1.9578 12.7315 1.9578 12.4885 1.9578 12.2941C2.83248 12.6343 3.90153 12.9744 5.21355 12.9744C5.99105 12.9744 7.0601 12.8772 8.27494 12.3913V12.9258ZM8.27494 10.7877C7.1087 11.3708 5.99105 11.468 5.21355 11.468C3.80435 11.468 2.6867 11.0307 1.9578 10.6419C1.9578 10.399 1.9578 10.156 1.9578 9.91304C2.78389 10.2532 3.85294 10.5448 5.16496 10.5448C5.94245 10.5448 7.0601 10.4476 8.27494 9.96164V10.7877ZM8.27494 8.35806C7.0601 8.94118 5.94245 9.08696 5.16496 9.08696C3.80435 9.08696 2.73529 8.69821 1.9578 8.30946C1.9578 8.0179 1.9578 7.77494 1.9578 7.48338C2.83248 7.82353 3.90153 8.16368 5.21355 8.16368C5.99105 8.16368 7.0601 8.0665 8.27494 7.58056V8.35806ZM5.21355 6.70588C3.90153 6.70588 2.83248 6.31714 2.10358 5.97698C4.04731 5.05371 6.3312 5.05371 8.27494 6.02558C7.0601 6.6087 5.99105 6.70588 5.21355 6.70588ZM12.211 17.4936C9.9757 17.4936 7.88619 16.5703 6.3798 14.9668C7.40026 14.821 8.42072 14.4808 9.34399 13.9949C9.58696 13.8977 9.68414 13.6061 9.68414 13.3632C9.68414 10.7877 9.68414 8.16368 9.68414 5.58824C9.68414 5.34527 9.53836 5.1023 9.34399 4.95652C8.42072 4.422 7.40026 4.08184 6.3798 3.93606C7.88619 2.33248 9.9757 1.40921 12.211 1.40921C16.633 1.40921 20.2289 5.00512 20.2289 9.42711C20.2289 13.8977 16.633 17.4936 12.211 17.4936Z" fill="#6945FB"/>
<path d="M12.94 9.28136C12.94 7.96934 12.94 6.60872 12.94 5.2967C12.94 4.37343 11.4822 4.37343 11.4822 5.2967V8.40668V9.62151C11.5308 10.156 12.1139 10.4962 12.454 10.8363C12.8914 11.2251 13.2801 11.5652 13.7175 11.954C14.009 12.197 14.4464 12.2456 14.7379 11.954C14.9809 11.711 15.0295 11.1765 14.7379 10.9335C14.1548 10.399 13.5717 9.81589 12.94 9.28136Z" fill="#6945FB"/>
</svg>
