<svg width="21" height="20" viewBox="0 0 21 20" fill="none" xmlns="http://www.w3.org/2000/svg">
<path d="M4.66699 2C4.66699 2.53043 4.45628 3.03914 4.08121 3.41421C3.70613 3.78929 3.19743 4 2.66699 4C2.13656 4 1.62785 3.78929 1.25278 3.41421C0.877706 3.03914 0.666992 2.53043 0.666992 2C0.666992 1.46957 0.877706 0.960859 1.25278 0.585786C1.62785 0.210714 2.13656 0 2.66699 0C3.19743 0 3.70613 0.210714 4.08121 0.585786C4.45628 0.960859 4.66699 1.46957 4.66699 2ZM20.667 2C20.667 2.53043 20.4563 3.03914 20.0812 3.41421C19.7061 3.78929 19.1974 4 18.667 4C18.1366 4 17.6279 3.78929 17.2528 3.41421C16.8777 3.03914 16.667 2.53043 16.667 2C16.667 1.46957 16.8777 0.960859 17.2528 0.585786C17.6279 0.210714 18.1366 0 18.667 0C19.1974 0 19.7061 0.210714 20.0812 0.585786C20.4563 0.960859 20.667 1.46957 20.667 2ZM20.667 18C20.667 18.5304 20.4563 19.0391 20.0812 19.4142C19.7061 19.7893 19.1974 20 18.667 20C18.1366 20 17.6279 19.7893 17.2528 19.4142C16.8777 19.0391 16.667 18.5304 16.667 18C16.667 17.4696 16.8777 16.9609 17.2528 16.5858C17.6279 16.2107 18.1366 16 18.667 16C19.1974 16 19.7061 16.2107 20.0812 16.5858C20.4563 16.9609 20.667 17.4696 20.667 18ZM4.66699 18C4.66699 18.5304 4.45628 19.0391 4.08121 19.4142C3.70613 19.7893 3.19743 20 2.66699 20C2.13656 20 1.62785 19.7893 1.25278 19.4142C0.877706 19.0391 0.666992 18.5304 0.666992 18C0.666992 17.4696 0.877706 16.9609 1.25278 16.5858C1.62785 16.2107 2.13656 16 2.66699 16C3.19743 16 3.70613 16.2107 4.08121 16.5858C4.45628 16.9609 4.66699 17.4696 4.66699 18Z" stroke="#BAAA03" stroke-width="1.5"/>
<path d="M15.167 7C15.167 6.534 15.167 6.301 15.091 6.117C14.9893 5.87246 14.7947 5.67826 14.55 5.577C14.366 5.5 14.133 5.5 13.667 5.5H7.66699C7.20099 5.5 6.96799 5.5 6.78399 5.576C6.53945 5.67771 6.34525 5.87227 6.24399 6.117C6.16699 6.301 6.16699 6.534 6.16699 7C6.16699 7.466 6.16699 7.699 6.24299 7.883C6.3447 8.12754 6.53926 8.32174 6.78399 8.423C6.96799 8.5 7.20099 8.5 7.66699 8.5H13.667C14.133 8.5 14.366 8.5 14.55 8.424C14.7945 8.32229 14.9887 8.12773 15.09 7.883C15.167 7.699 15.167 7.466 15.167 7ZM15.167 13C15.167 12.534 15.167 12.301 15.091 12.117C14.9893 11.8725 14.7947 11.6783 14.55 11.577C14.366 11.5 14.133 11.5 13.667 11.5H7.66699C7.20099 11.5 6.96799 11.5 6.78399 11.576C6.53945 11.6777 6.34525 11.8723 6.24399 12.117C6.16699 12.301 6.16699 12.534 6.16699 13C6.16699 13.466 6.16699 13.699 6.24299 13.883C6.3447 14.1275 6.53926 14.3217 6.78399 14.423C6.96799 14.5 7.20099 14.5 7.66699 14.5H13.667C14.133 14.5 14.366 14.5 14.55 14.424C14.7945 14.3223 14.9887 14.1277 15.09 13.883C15.167 13.699 15.167 13.466 15.167 13Z" stroke="#BAAA03" stroke-width="1.5" stroke-linecap="round" stroke-linejoin="round"/>
</svg>
