<svg width="20" height="20" viewBox="0 0 20 20" fill="none" xmlns="http://www.w3.org/2000/svg">
<path d="M4 2C4 2.53043 3.78929 3.03914 3.41421 3.41421C3.03914 3.78929 2.53043 4 2 4C1.46957 4 0.960859 3.78929 0.585786 3.41421C0.210714 3.03914 0 2.53043 0 2C0 1.46957 0.210714 0.960859 0.585786 0.585786C0.960859 0.210714 1.46957 0 2 0C2.53043 0 3.03914 0.210714 3.41421 0.585786C3.78929 0.960859 4 1.46957 4 2ZM20 2C20 2.53043 19.7893 3.03914 19.4142 3.41421C19.0391 3.78929 18.5304 4 18 4C17.4696 4 16.9609 3.78929 16.5858 3.41421C16.2107 3.03914 16 2.53043 16 2C16 1.46957 16.2107 0.960859 16.5858 0.585786C16.9609 0.210714 17.4696 0 18 0C18.5304 0 19.0391 0.210714 19.4142 0.585786C19.7893 0.960859 20 1.46957 20 2ZM20 18C20 18.5304 19.7893 19.0391 19.4142 19.4142C19.0391 19.7893 18.5304 20 18 20C17.4696 20 16.9609 19.7893 16.5858 19.4142C16.2107 19.0391 16 18.5304 16 18C16 17.4696 16.2107 16.9609 16.5858 16.5858C16.9609 16.2107 17.4696 16 18 16C18.5304 16 19.0391 16.2107 19.4142 16.5858C19.7893 16.9609 20 17.4696 20 18ZM4 18C4 18.5304 3.78929 19.0391 3.41421 19.4142C3.03914 19.7893 2.53043 20 2 20C1.46957 20 0.960859 19.7893 0.585786 19.4142C0.210714 19.0391 0 18.5304 0 18C0 17.4696 0.210714 16.9609 0.585786 16.5858C0.960859 16.2107 1.46957 16 2 16C2.53043 16 3.03914 16.2107 3.41421 16.5858C3.78929 16.9609 4 17.4696 4 18Z" stroke="#34C759" stroke-width="1.5"/>
<path d="M14.5 7C14.5 6.534 14.5 6.301 14.424 6.117C14.3223 5.87246 14.1277 5.67826 13.883 5.577C13.699 5.5 13.466 5.5 13 5.5H7C6.534 5.5 6.301 5.5 6.117 5.576C5.87246 5.67771 5.67826 5.87227 5.577 6.117C5.5 6.301 5.5 6.534 5.5 7C5.5 7.466 5.5 7.699 5.576 7.883C5.67771 8.12754 5.87227 8.32174 6.117 8.423C6.301 8.5 6.534 8.5 7 8.5H13C13.466 8.5 13.699 8.5 13.883 8.424C14.1275 8.32229 14.3217 8.12773 14.423 7.883C14.5 7.699 14.5 7.466 14.5 7ZM14.5 13C14.5 12.534 14.5 12.301 14.424 12.117C14.3223 11.8725 14.1277 11.6783 13.883 11.577C13.699 11.5 13.466 11.5 13 11.5H7C6.534 11.5 6.301 11.5 6.117 11.576C5.87246 11.6777 5.67826 11.8723 5.577 12.117C5.5 12.301 5.5 12.534 5.5 13C5.5 13.466 5.5 13.699 5.576 13.883C5.67771 14.1275 5.87227 14.3217 6.117 14.423C6.301 14.5 6.534 14.5 7 14.5H13C13.466 14.5 13.699 14.5 13.883 14.424C14.1275 14.3223 14.3217 14.1277 14.423 13.883C14.5 13.699 14.5 13.466 14.5 13Z" stroke="#34C759" stroke-width="1.5" stroke-linecap="round" stroke-linejoin="round"/>
</svg>
