<svg width="24" height="24" viewBox="0 0 24 24" fill="none" xmlns="http://www.w3.org/2000/svg">
<path fill-rule="evenodd" clip-rule="evenodd" d="M15.7581 13.1477H16.8439V9.19191H15.7581V13.1477ZM12.5801 13.1477H13.6658V8.22628H12.5801V13.1477ZM9.40199 13.1477H10.4878V10.172H9.40199V13.1477ZM18.2516 13.1477C18.4169 13.1477 18.551 13.2818 18.551 13.4472C18.551 13.6125 18.4169 13.7466 18.2516 13.7466H7.99433C7.82896 13.7466 7.69489 13.6125 7.69489 13.4472C7.69489 13.2818 7.82896 13.1477 7.99433 13.1477H8.80316V9.87258C8.80316 9.7072 8.93722 9.57314 9.1026 9.57314H10.7873C10.9527 9.57314 11.0867 9.7072 11.0867 9.87258V13.1477H11.9812V7.92684C11.9812 7.76147 12.1153 7.62741 12.2807 7.62741H13.9653C14.1307 7.62741 14.2648 7.76147 14.2648 7.92684V13.1477H15.1593V8.89247C15.1593 8.72709 15.2933 8.59303 15.4587 8.59303H17.1434C17.3088 8.59303 17.4428 8.72709 17.4428 8.89247V13.1477H18.2516H18.2516ZM10.171 7.38272C10.1132 7.32487 10.0332 7.28906 9.94485 7.28906C9.85653 7.28906 9.77657 7.32487 9.71867 7.38272C9.66078 7.44056 9.62502 7.52053 9.62502 7.60889C9.62502 7.69725 9.66083 7.77722 9.71867 7.83506C9.77652 7.89291 9.85649 7.92872 9.94485 7.92872C10.0332 7.92872 10.1132 7.89291 10.171 7.83506C10.2289 7.77722 10.2647 7.69725 10.2647 7.60889C10.2647 7.52053 10.2289 7.44056 10.171 7.38272ZM13.3491 4.85555C13.2913 4.7977 13.2112 4.76189 13.1229 4.76189C13.0346 4.76189 12.9546 4.7977 12.8968 4.85555C12.8389 4.91339 12.8031 4.99341 12.8031 5.08172C12.8031 5.17003 12.8389 5.25005 12.8968 5.30789C12.9546 5.36573 13.0346 5.40155 13.1229 5.40155C13.2113 5.40155 13.2912 5.36573 13.3491 5.30789C13.407 5.25005 13.4428 5.17008 13.4428 5.08172C13.4428 4.99336 13.4069 4.91339 13.3491 4.85555ZM16.5272 6.7635C16.4693 6.70566 16.3894 6.66984 16.301 6.66984C16.2126 6.66984 16.1327 6.70566 16.0748 6.7635C16.017 6.82134 15.9812 6.90131 15.9812 6.98967C15.9812 7.07803 16.017 7.158 16.0748 7.21584C16.1327 7.27369 16.2127 7.3095 16.301 7.3095C16.3893 7.3095 16.4693 7.27369 16.5272 7.21584C16.585 7.158 16.6208 7.07798 16.6208 6.98967C16.6208 6.90136 16.585 6.82139 16.5272 6.7635ZM7.87068 6.9517C7.72147 6.88064 7.6581 6.70205 7.72916 6.55284C7.80022 6.40364 7.97882 6.34027 8.12802 6.41133L9.28963 6.96502L9.2953 6.95925C9.46157 6.79298 9.69125 6.69014 9.94489 6.69014C10.1267 6.69014 10.2962 6.74297 10.4389 6.83414L12.2568 5.38856C12.2228 5.29261 12.2043 5.1893 12.2043 5.08167C12.2043 4.82803 12.3071 4.59834 12.4734 4.43208C12.6396 4.26581 12.8693 4.16297 13.123 4.16297C13.3766 4.16297 13.6063 4.26581 13.7725 4.43208C13.9388 4.59834 14.0416 4.82803 14.0416 5.08167C14.0416 5.1473 14.0347 5.21133 14.0217 5.27306L15.7098 6.2865C15.8696 6.15197 16.0759 6.07092 16.301 6.07092C16.4624 6.07092 16.6141 6.11259 16.746 6.18572L17.4345 5.56355C17.5565 5.45311 17.7451 5.46253 17.8556 5.58459C17.966 5.70666 17.9566 5.89519 17.8345 6.00567L17.1458 6.62803C17.1934 6.73898 17.2198 6.86123 17.2198 6.98962C17.2198 7.24327 17.1169 7.47295 16.9506 7.63922C16.7844 7.80548 16.5547 7.90833 16.301 7.90833C16.0474 7.90833 15.8177 7.80548 15.6515 7.63922C15.4852 7.47295 15.3823 7.24327 15.3823 6.98962C15.3823 6.924 15.3892 6.85997 15.4023 6.79823L13.7142 5.7848C13.5544 5.91928 13.3482 6.00038 13.123 6.00038C12.9411 6.00038 12.7716 5.9475 12.629 5.85633L10.8111 7.30191C10.8451 7.39791 10.8636 7.50122 10.8636 7.60884C10.8636 7.86248 10.7608 8.09217 10.5945 8.25844C10.4282 8.4247 10.1985 8.52755 9.94489 8.52755C9.69125 8.52755 9.46157 8.4247 9.2953 8.25844C9.12903 8.09217 9.02619 7.86253 9.02619 7.60884C9.02619 7.57383 9.02816 7.53923 9.03196 7.50525L7.87063 6.9517H7.87068ZM2.51966 21.8682C2.35428 21.8682 2.22022 21.7342 2.22022 21.5688C2.22022 21.4034 2.35428 21.2693 2.51966 21.2693H4.04835C4.21372 21.2693 4.34778 21.4034 4.34778 21.5688C4.34778 21.7342 4.21372 21.8682 4.04835 21.8682H2.51966ZM4.68852 15.1806V16.7137L5.10533 16.2097C5.11794 16.1939 5.13238 16.1791 5.1486 16.1657C5.27586 16.0605 5.46439 16.0783 5.56967 16.2055L5.99 16.7137V15.1805H4.68852V15.1806ZM6.58883 15.1806V17.5451C6.58883 17.7105 6.45477 17.8446 6.28939 17.8446C6.1911 17.8446 6.10386 17.7972 6.0493 17.724L5.33924 16.8654L4.61947 17.7357C4.51419 17.863 4.32566 17.8808 4.19839 17.7755C4.12696 17.7164 4.09002 17.631 4.08997 17.545H4.0896V15.1806H1.68964C1.66639 15.1806 1.64502 15.1903 1.62936 15.206C1.61371 15.2216 1.60396 15.243 1.60396 15.2662V22.5653C1.60396 22.5886 1.61371 22.61 1.62936 22.6256C1.64502 22.6413 1.66639 22.651 1.68964 22.651H8.98874C9.01199 22.651 9.03336 22.6413 9.04902 22.6256C9.06468 22.61 9.07442 22.5886 9.07442 22.5653V15.2662C9.07442 15.243 9.06468 15.2216 9.04902 15.206C9.03336 15.1903 9.01199 15.1806 8.98874 15.1806H6.58878L6.58883 15.1806ZM6.02689 3.55542H7.19464C7.27255 3.55542 7.34366 3.52331 7.39532 3.47166C7.44697 3.41995 7.47908 3.34889 7.47908 3.27098V1.79592L6.02689 3.55542ZM8.07796 1.34883H20.269C20.3469 1.34883 20.4179 1.38094 20.4696 1.43264C20.4732 1.43625 20.4769 1.43972 20.4806 1.44309C20.5258 1.49363 20.5534 1.56038 20.5534 1.63331V20.0233C20.5534 20.1011 20.5213 20.1722 20.4696 20.2239C20.4179 20.2756 20.3468 20.3077 20.2689 20.3077H9.6733V15.2662C9.6733 15.0777 9.59638 14.9065 9.47244 14.7825C9.3485 14.6587 9.17731 14.5817 8.98874 14.5817H5.69235V4.1543H7.19455C7.43778 4.1543 7.65871 4.05502 7.81864 3.89508C7.97858 3.73514 8.07786 3.51422 8.07786 3.27098V1.34883H8.07796ZM9.67335 21.909V20.9065H20.269C20.5122 20.9065 20.7331 20.8072 20.8931 20.6473C21.0531 20.4874 21.1523 20.2665 21.1523 20.0233V2.95012H22.1117C22.1896 2.95012 22.2607 2.98223 22.3123 3.03394C22.364 3.08564 22.3962 3.15675 22.3962 3.23461V21.6246C22.3962 21.7024 22.364 21.7735 22.3123 21.8252C22.2606 21.8769 22.1896 21.909 22.1117 21.909H9.67335ZM21.1523 2.35125H22.1117C22.355 2.35125 22.5759 2.45058 22.7358 2.61052C22.8958 2.7705 22.995 2.99147 22.995 3.23461V21.6246C22.995 21.8678 22.8957 22.0887 22.7358 22.2486C22.5758 22.4085 22.3549 22.5078 22.1117 22.5078H9.67335V22.5654C9.67335 22.754 9.59643 22.9252 9.47249 23.0491C9.34855 23.173 9.17736 23.25 8.98878 23.25H1.68969C1.50111 23.25 1.32988 23.173 1.20599 23.0491C1.08205 22.9252 1.00513 22.754 1.00513 22.5654V15.2663C1.00513 15.0777 1.08205 14.9065 1.20599 14.7826C1.32992 14.6587 1.50111 14.5817 1.68969 14.5817H5.09356V3.85486L5.09366 3.84727V3.84717V3.84684L5.09394 3.83958V3.83944L5.09441 3.83208V3.83184C5.09478 3.82692 5.0953 3.82205 5.09591 3.81722V3.81675C5.10439 3.75033 5.13458 3.69075 5.17916 3.64528L7.478 0.859969C7.53692 0.788297 7.62233 0.751172 7.70844 0.751125V0.75H20.269C20.5123 0.75 20.7331 0.849328 20.8931 1.00927C20.8995 1.01573 20.9056 1.02244 20.9114 1.02933C21.0606 1.18758 21.1523 1.40039 21.1523 1.63341V2.35125ZM10.9497 15.636H18.2516C18.4169 15.636 18.551 15.5019 18.551 15.3366C18.551 15.1712 18.4169 15.0371 18.2516 15.0371H10.9497C10.7843 15.0371 10.6503 15.1712 10.6503 15.3366C10.6503 15.5019 10.7843 15.636 10.9497 15.636ZM10.9497 17.4554H18.2516C18.4169 17.4554 18.551 17.3213 18.551 17.1559C18.551 16.9905 18.4169 16.8565 18.2516 16.8565H10.9497C10.7843 16.8565 10.6503 16.9905 10.6503 17.1559C10.6503 17.3213 10.7843 17.4554 10.9497 17.4554Z" fill="#383839" fill-opacity="0.6"/>
</svg>
