<svg width="16" height="17" viewBox="0 0 16 17" fill="none" xmlns="http://www.w3.org/2000/svg">
<path d="M13.9913 11.1667C13.994 11.0955 13.9852 11.0244 13.9653 10.956L12.632 6.956C12.5878 6.8233 12.503 6.70787 12.3896 6.62603C12.2761 6.5442 12.1399 6.50011 12 6.5H9.33333V7.83333H11.5193L12.6307 11.1667H3.36933L4.48067 7.83333H6.66667V6.5H4C3.86014 6.50011 3.72385 6.5442 3.61043 6.62603C3.49701 6.70787 3.4122 6.8233 3.368 6.956L2.03467 10.956C2.0148 11.0244 2.00603 11.0955 2.00867 11.1667C2 11.1667 2 14.5 2 14.5C2 14.6768 2.07024 14.8464 2.19526 14.9714C2.32029 15.0964 2.48986 15.1667 2.66667 15.1667H13.3333C13.5101 15.1667 13.6797 15.0964 13.8047 14.9714C13.9298 14.8464 14 14.6768 14 14.5C14 14.5 14 11.1667 13.9913 11.1667ZM10.6667 5.76933C10.8393 5.76933 11.012 5.706 11.138 5.58067C11.263 5.45565 11.3332 5.28611 11.3332 5.10933C11.3332 4.93256 11.263 4.76302 11.138 4.638L8 1.5L4.862 4.638C4.73702 4.76302 4.66681 4.93256 4.66681 5.10933C4.66681 5.28611 4.73702 5.45565 4.862 5.58067C4.988 5.70667 5.16067 5.76933 5.33333 5.76933C5.506 5.76933 5.67867 5.70667 5.80467 5.58067L7.33333 4.052V8.5C7.33333 8.67681 7.40357 8.84638 7.5286 8.9714C7.65362 9.09643 7.82319 9.16667 8 9.16667C8.17681 9.16667 8.34638 9.09643 8.4714 8.9714C8.59643 8.84638 8.66667 8.67681 8.66667 8.5V4.052L10.1953 5.58067C10.3214 5.70326 10.4908 5.77107 10.6667 5.76933Z" fill="#383838" fill-opacity="0.6"/>
</svg>
