<svg width="40" height="40" viewBox="0 0 40 40" fill="none" xmlns="http://www.w3.org/2000/svg">
<path d="M19.9689 4.86037C18.0079 4.86037 16.0079 5.25256 14.086 6.06975C6.38604 9.33615 2.80166 18.2112 6.06963 25.9143C6.44151 26.7815 6.88604 27.6096 7.39229 28.3752C6.40791 28.3987 5.56026 28.3362 4.89385 28.1877C3.86104 27.9612 3.33682 27.5783 3.15401 27.1487C2.97198 26.7112 3.05635 26.0705 3.6126 25.1643C3.74151 24.9612 3.89541 24.7424 4.07041 24.508C3.90635 23.9299 3.77666 23.3596 3.67588 22.7737C3.1587 23.3283 2.73057 23.883 2.39698 24.4221C1.71416 25.5237 1.40791 26.6799 1.84151 27.7033C2.27432 28.7268 3.31807 29.3049 4.58916 29.5783C5.65635 29.8127 6.94307 29.8596 8.41416 29.7502C12.5704 34.7033 19.6329 36.594 25.9064 33.9221C32.1798 31.258 35.7189 24.883 35.0548 18.4455C36.1564 17.4612 37.0235 16.5002 37.5939 15.5705C38.2892 14.4612 38.586 13.3049 38.1564 12.2893C37.7189 11.2658 36.6798 10.6877 35.4064 10.4065C34.7892 10.2737 34.086 10.1955 33.336 10.1877C33.6876 10.6643 34.0079 11.1565 34.3048 11.6799C34.5939 11.7112 34.8595 11.7502 35.0939 11.8049C36.1329 12.0237 36.6564 12.4143 36.836 12.844C37.0235 13.2737 36.9376 13.9221 36.3751 14.8205C36.0235 15.3987 35.4845 16.0549 34.7814 16.7502C34.8985 17.3205 34.9923 17.883 35.047 18.4455C34.8439 18.6252 34.6173 18.8127 34.4064 19.0002C34.0392 19.2971 33.6642 19.6018 33.2579 19.8987C34.1329 22.3987 32.9142 25.1955 30.4532 26.2424C28.3985 27.1174 26.0782 26.5237 24.672 24.9299C23.961 25.2658 23.2423 25.5862 22.5001 25.9065C17.6173 27.969 12.9376 29.2658 9.28135 29.6643C8.98448 29.6955 8.69541 29.719 8.42198 29.7502C8.05479 29.3127 7.72276 28.8596 7.39698 28.3752C7.92979 28.3596 8.50791 28.3205 9.11729 28.2502C12.586 27.8674 17.1642 26.6174 21.9454 24.5862C22.6017 24.3127 23.2501 24.0158 23.8829 23.7268C23.8517 23.6721 23.8282 23.6174 23.8048 23.5627C22.711 20.9924 23.922 18.0002 26.4923 16.9143C28.7032 15.969 31.2345 16.7502 32.586 18.6174C32.8985 18.3752 33.2032 18.1408 33.4845 17.9065C33.961 17.5158 34.3907 17.1252 34.7814 16.7502C34.5782 15.8518 34.297 14.9612 33.922 14.0862C31.4689 8.31272 25.8673 4.85022 19.9689 4.86037ZM28.461 17.9377C28.0001 17.9377 27.5157 18.0315 27.047 18.2268C25.1954 19.0158 24.3282 21.1408 25.1251 23.008C25.9064 24.8674 28.0392 25.719 29.8985 24.9299C31.7501 24.1487 32.6173 22.0158 31.8204 20.1565C31.2345 18.758 29.8907 17.9299 28.461 17.9377Z" fill="#2D2B2B"/>
</svg>
