<svg width="24" height="24" viewBox="0 0 24 24" fill="none" xmlns="http://www.w3.org/2000/svg">
<path d="M3.03094 6.53078H4.39547C4.55062 6.53078 4.67672 6.65688 4.67672 6.81203C4.67672 6.96719 4.55062 7.09328 4.39547 7.09328H3.31219V8.68422H4.90312V7.85172C4.90312 7.69656 5.02922 7.57047 5.18437 7.57047C5.33953 7.57047 5.46562 7.69656 5.46562 7.85172V8.96547C5.46562 9.12062 5.33953 9.24672 5.18437 9.24672H3.03094C2.87578 9.24672 2.74969 9.12062 2.74969 8.96547V6.81203C2.74969 6.65688 2.87578 6.53078 3.03094 6.53078ZM7.15453 7.57094H11.3316C11.4867 7.57094 11.6128 7.44484 11.6128 7.28969C11.6128 7.13453 11.4867 7.00844 11.3316 7.00844H7.15453C6.99938 7.00844 6.87328 7.13453 6.87328 7.28969C6.87328 7.44484 6.99891 7.57094 7.15453 7.57094ZM3.93656 7.55922C3.82687 7.44953 3.64875 7.44953 3.53859 7.55922C3.42891 7.66891 3.42891 7.84703 3.53859 7.95719L3.88453 8.30312C3.9375 8.35562 4.00875 8.38562 4.08328 8.38562H4.08656C4.16203 8.38469 4.23422 8.35328 4.28672 8.29891L5.40797 7.12516C5.51531 7.01266 5.51109 6.835 5.39906 6.72766C5.28703 6.62031 5.10891 6.62453 5.00156 6.73656L4.07906 7.70172L3.93656 7.55922ZM6.10359 8.75078H11.3311C11.4862 8.75078 11.6123 8.62469 11.6123 8.46953C11.6123 8.31437 11.4862 8.18828 11.3311 8.18828H6.10359C5.94844 8.18828 5.82234 8.31437 5.82234 8.46953C5.82234 8.62469 5.94844 8.75078 6.10359 8.75078ZM3.03094 13.2255H5.18437C5.33953 13.2255 5.46562 13.0994 5.46562 12.9442V11.8305C5.46562 11.6753 5.33953 11.5492 5.18437 11.5492C5.02922 11.5492 4.90312 11.6753 4.90312 11.8305V12.663H3.31219V11.072H4.39547C4.55062 11.072 4.67672 10.9459 4.67672 10.7908C4.67672 10.6356 4.55062 10.5095 4.39547 10.5095H3.03094C2.87578 10.5095 2.74969 10.6356 2.74969 10.7908V12.9442C2.74969 13.0994 2.87578 13.2255 3.03094 13.2255ZM11.3316 10.9872H7.15453C6.99938 10.9872 6.87328 11.1133 6.87328 11.2684C6.87328 11.4236 6.99938 11.5497 7.15453 11.5497H11.3316C11.4867 11.5497 11.6128 11.4236 11.6128 11.2684C11.6128 11.1133 11.4867 10.9872 11.3316 10.9872ZM5.00109 10.7153L4.07906 11.68L3.93656 11.5375C3.82687 11.4278 3.64875 11.4278 3.53859 11.5375C3.42891 11.6472 3.42891 11.8253 3.53859 11.9355L3.88453 12.2814C3.9375 12.3339 4.00875 12.3639 4.08328 12.3639H4.08656C4.16203 12.363 4.23422 12.3316 4.28672 12.2772L5.40797 11.1044C5.51531 10.9919 5.51109 10.8142 5.39906 10.7069C5.28656 10.5991 5.10844 10.6028 5.00109 10.7153ZM6.10359 12.7295H11.3311C11.4862 12.7295 11.6123 12.6034 11.6123 12.4483C11.6123 12.2931 11.4862 12.167 11.3311 12.167H6.10359C5.94844 12.167 5.82234 12.2931 5.82234 12.4483C5.82234 12.6034 5.94844 12.7295 6.10359 12.7295ZM5.18437 15.5275C5.02922 15.5275 4.90312 15.6536 4.90312 15.8087V16.6412H3.31219V15.0503H4.39547C4.55062 15.0503 4.67672 14.9242 4.67672 14.7691C4.67672 14.6139 4.55062 14.4878 4.39547 14.4878H3.03094C2.87578 14.4878 2.74969 14.6139 2.74969 14.7691V16.9225C2.74969 17.0777 2.87578 17.2037 3.03094 17.2037H5.18437C5.33953 17.2037 5.46562 17.0777 5.46562 16.9225V15.8087C5.46562 15.6536 5.33953 15.5275 5.18437 15.5275ZM7.15453 14.9655C6.99938 14.9655 6.87328 15.0916 6.87328 15.2467C6.87328 15.4019 6.99938 15.528 7.15453 15.528H10.0284C10.1836 15.528 10.3097 15.4019 10.3097 15.2467C10.3097 15.0916 10.1836 14.9655 10.0284 14.9655H7.15453ZM5.00109 14.6936L4.07906 15.6583L3.93656 15.5158C3.82687 15.4061 3.64875 15.4061 3.53859 15.5158C3.42891 15.6255 3.42891 15.8036 3.53859 15.9137L3.88453 16.2597C3.9375 16.3127 4.00875 16.3422 4.08328 16.3422H4.08656C4.16203 16.3412 4.23422 16.3098 4.28672 16.2555L5.40797 15.0827C5.51531 14.9702 5.51109 14.7925 5.39906 14.6852C5.28656 14.5773 5.10844 14.5816 5.00109 14.6936ZM6.10359 16.7078H10.4695C10.6247 16.7078 10.7508 16.5817 10.7508 16.4266C10.7508 16.2714 10.6247 16.1453 10.4695 16.1453H6.10359C5.94844 16.1453 5.82234 16.2714 5.82234 16.4266C5.82234 16.5817 5.94844 16.7078 6.10359 16.7078ZM15.6066 12.9592C15.6066 12.1052 16.3013 11.4105 17.1553 11.4105C18.0094 11.4105 18.7041 12.1052 18.7041 12.9592C18.7041 13.8133 18.0094 14.508 17.1553 14.508C16.3013 14.5084 15.6066 13.8133 15.6066 12.9592ZM16.1691 12.9592C16.1691 13.503 16.6116 13.9455 17.1553 13.9455C17.6991 13.9455 18.1416 13.503 18.1416 12.9592C18.1416 12.4155 17.6991 11.973 17.1553 11.973C16.6116 11.973 16.1691 12.4155 16.1691 12.9592ZM23.2969 13.0037C23.2969 13.1589 23.1708 13.285 23.0156 13.285H22.5394C22.2811 13.285 22.0641 13.4355 21.9736 13.6773L21.4683 15.0264L19.5544 20.1391V21.1797C19.5544 21.5842 19.2253 21.9133 18.8208 21.9133H18.1378C18.0183 22.2911 17.6644 22.5662 17.2472 22.5662C16.83 22.5662 16.4761 22.2916 16.3566 21.9133H15.5062C15.3867 22.2911 15.0328 22.5662 14.6156 22.5662C14.1984 22.5662 13.8445 22.2916 13.725 21.9133H13.0636C12.9084 21.9133 12.7823 21.7872 12.7823 21.632C12.7823 21.4769 12.9084 21.3508 13.0636 21.3508H13.725C13.8445 20.973 14.1984 20.6978 14.6156 20.6978C15.0328 20.6978 15.3867 20.9725 15.5062 21.3508H16.3566C16.4761 20.973 16.83 20.6978 17.2472 20.6978C17.6644 20.6978 18.0183 20.9725 18.1378 21.3508H18.8208C18.915 21.3508 18.9919 21.2739 18.9919 21.1797V20.3692H13.0214C12.907 20.3692 12.8048 20.2998 12.7617 20.1944V20.2009H0.984375C0.829219 20.2009 0.703125 20.0748 0.703125 19.9197V3.81437C0.703125 3.65922 0.829219 3.53312 0.984375 3.53312H3.73266V3.01891C3.73266 2.86375 3.85875 2.73766 4.01391 2.73766H5.62078C5.75391 1.99703 6.40266 1.43359 7.18125 1.43359C7.95984 1.43359 8.60859 1.99703 8.74172 2.73766H10.3486C10.5037 2.73766 10.6298 2.86375 10.6298 3.01891V3.53266H13.3781C13.5333 3.53266 13.6594 3.65875 13.6594 3.81391V14.6467H14.3827C14.4014 14.5558 14.4459 14.4691 14.5162 14.3983L14.8439 14.0706C14.8027 13.9853 14.7661 13.8972 14.7347 13.8077H14.2716C13.9997 13.8077 13.7789 13.5869 13.7789 13.315V12.6034C13.7789 12.3316 14.0002 12.1108 14.2716 12.1108H14.7347C14.7661 12.0217 14.8027 11.9336 14.8439 11.8478L14.5162 11.5202C14.4234 11.4273 14.3723 11.3036 14.3723 11.1719C14.3723 11.0402 14.4234 10.9164 14.5167 10.8236L15.0197 10.3206C15.1125 10.2278 15.2363 10.1762 15.368 10.1762C15.4997 10.1762 15.6234 10.2273 15.7162 10.3206L16.0439 10.6483C16.1292 10.607 16.2173 10.5705 16.3069 10.5391V10.0759C16.3069 9.80406 16.5281 9.58328 16.7995 9.58328H17.5111C17.783 9.58328 18.0037 9.80406 18.0037 10.0759V10.5391C18.0933 10.5705 18.1814 10.607 18.2667 10.6483L18.5944 10.3206C18.6872 10.2278 18.8109 10.1762 18.9427 10.1762C19.0744 10.1762 19.1981 10.2273 19.2909 10.3206L19.7939 10.8241C19.8867 10.9169 19.9378 11.0406 19.9378 11.1723C19.9378 11.3041 19.8867 11.4278 19.7939 11.5206L19.4662 11.8483C19.5075 11.9336 19.5441 12.0217 19.5755 12.1112H20.0386C20.3105 12.1112 20.5312 12.332 20.5312 12.6039V13.3155C20.5312 13.5873 20.31 13.8081 20.0386 13.8081H19.5755C19.5441 13.8972 19.5075 13.9853 19.4662 14.0711L19.7939 14.3988C19.8642 14.4691 19.9088 14.5562 19.9275 14.6472H21.0094L21.4462 13.4805C21.6187 13.0202 22.0472 12.723 22.5389 12.723H23.0156C23.1708 12.7225 23.2969 12.8486 23.2969 13.0037ZM14.9869 21.6325C14.9869 21.4277 14.82 21.2608 14.6152 21.2608C14.4103 21.2608 14.2434 21.4277 14.2434 21.6325C14.2434 21.8373 14.4103 22.0042 14.6152 22.0042C14.8205 22.0042 14.9869 21.8373 14.9869 21.6325ZM17.6189 21.6325C17.6189 21.4277 17.452 21.2608 17.2472 21.2608C17.0423 21.2608 16.8755 21.4277 16.8755 21.6325C16.8755 21.8373 17.0423 22.0042 17.2472 22.0042C17.452 22.0042 17.6189 21.8373 17.6189 21.6325ZM15.277 14.433L15.0633 14.6467H19.2469L19.0331 14.433C18.8822 14.282 18.8456 14.0523 18.9422 13.862C18.9877 13.7725 19.0261 13.6792 19.0575 13.5845C19.1241 13.3816 19.3125 13.2456 19.5258 13.2456H19.9692V12.6737H19.5258C19.3125 12.6737 19.1245 12.5373 19.0575 12.3348C19.0261 12.2402 18.9877 12.1464 18.9422 12.0573C18.8456 11.8666 18.8822 11.6373 19.0331 11.4864L19.3467 11.1728L18.9422 10.7683L18.6286 11.0819C18.4777 11.2328 18.248 11.2694 18.0577 11.1728C17.9686 11.1278 17.8748 11.0889 17.7797 11.0575C17.5772 10.9909 17.4408 10.803 17.4408 10.5892V10.1458H16.8689V10.5892C16.8689 10.8025 16.7325 10.9905 16.53 11.0575C16.4348 11.0889 16.3416 11.1273 16.2525 11.1728C16.0617 11.2694 15.8325 11.2328 15.6816 11.0819L15.368 10.7683L14.9634 11.1728L15.277 11.4864C15.428 11.6373 15.4645 11.867 15.368 12.0573C15.3225 12.1469 15.2841 12.2402 15.2527 12.3348C15.1861 12.5378 14.9977 12.6737 14.7844 12.6737H14.3409V13.2456H14.7844C14.9977 13.2456 15.1856 13.382 15.2527 13.5845C15.2841 13.6797 15.3225 13.773 15.368 13.8625C15.4645 14.0528 15.428 14.282 15.277 14.433ZM10.6298 4.09562V4.37969H12.5869C12.742 4.37969 12.8681 4.50578 12.8681 4.66094V14.6472H13.0969V4.09562H10.6298ZM4.29516 4.72H10.0669V3.30016H8.48484C8.32969 3.30016 8.20359 3.17406 8.20359 3.01891C8.20359 2.455 7.74469 1.99609 7.18078 1.99609C6.61688 1.99609 6.15797 2.455 6.15797 3.01891C6.15797 3.17406 6.03188 3.30016 5.87672 3.30016H4.29516V4.72ZM4.01391 5.2825C3.85875 5.2825 3.73266 5.15641 3.73266 5.00125V4.94219H2.05687V18.7928H12.2358L10.8258 15.0269C10.7934 14.9406 10.8056 14.8436 10.8581 14.7681C10.9106 14.6927 10.9969 14.6472 11.0892 14.6472H12.3052V4.94172H10.6294V5.00078C10.6294 5.15594 10.5033 5.28203 10.3481 5.28203L4.01391 5.2825ZM1.26562 19.6394H12.5527L12.4462 19.3553H1.77562C1.62047 19.3553 1.49437 19.2292 1.49437 19.0741V4.66047C1.49437 4.50531 1.62047 4.37922 1.77562 4.37922H3.73266V4.09516H1.26562V19.6394ZM20.7994 15.2092H11.4952L12.2006 17.0941H15.2077C15.3628 17.0941 15.4889 17.2202 15.4889 17.3753C15.4889 17.5305 15.3628 17.6566 15.2077 17.6566H12.4111L13.2164 19.8077H19.0781L19.8834 17.6566H17.1234C16.9683 17.6566 16.8422 17.5305 16.8422 17.3753C16.8422 17.2202 16.9683 17.0941 17.1234 17.0941H20.0939L20.7994 15.2092Z" fill="#383838" fill-opacity="0.6"/>
</svg>
