<svg width="24" height="24" viewBox="0 0 24 24" fill="none" xmlns="http://www.w3.org/2000/svg">
<g clip-path="url(#clip0_484_221)">
<path d="M24 15V24H12V15H15V12H21V15H24ZM16.5 15H19.5V13.5H16.5V15ZM22.5 19.5H21V21H19.5V19.5H16.5V21H15V19.5H13.5V22.5H22.5V19.5ZM22.5 16.5H13.5V18H22.5V16.5ZM18.3398 10.5C17.918 10.0234 17.418 9.65625 16.8398 9.39844C16.2617 9.14062 15.6484 9.00781 15 9C14.375 9 13.793 9.11719 13.2539 9.35156C12.7148 9.58594 12.2383 9.90625 11.8242 10.3125C11.4102 10.7188 11.0859 11.1992 10.8516 11.7539C10.6172 12.3086 10.5 12.8906 10.5 13.5C10.5 14.2188 10.3398 14.8945 10.0195 15.5273C9.69922 16.1602 9.24609 16.6914 8.66016 17.1211C9.01172 17.3008 9.33984 17.5078 9.64453 17.7422C9.94922 17.9766 10.2344 18.2422 10.5 18.5391V22.5C10.5 21.8828 10.3828 21.3008 10.1484 20.7539C9.91406 20.207 9.59375 19.7305 9.1875 19.3242C8.78125 18.918 8.30078 18.5938 7.74609 18.3516C7.19141 18.1094 6.60938 17.9922 6 18C5.375 18 4.79297 18.1172 4.25391 18.3516C3.71484 18.5859 3.23828 18.9062 2.82422 19.3125C2.41016 19.7188 2.08594 20.1992 1.85156 20.7539C1.61719 21.3086 1.5 21.8906 1.5 22.5H0C0 21.9297 0.078125 21.3789 0.234375 20.8477C0.390625 20.3164 0.613281 19.8125 0.902344 19.3359C1.19141 18.8594 1.54297 18.4375 1.95703 18.0703C2.37109 17.7031 2.83203 17.3867 3.33984 17.1211C2.76172 16.6992 2.3125 16.1719 1.99219 15.5391C1.67188 14.9062 1.50781 14.2266 1.5 13.5C1.5 12.8828 1.61719 12.3008 1.85156 11.7539C2.08594 11.207 2.40625 10.7305 2.8125 10.3242C3.21875 9.91797 3.69531 9.59375 4.24219 9.35156C4.78906 9.10938 5.375 8.99219 6 9C6.71875 9 7.39453 9.16016 8.02734 9.48047C8.66016 9.80078 9.19141 10.2539 9.62109 10.8398C9.91797 10.2539 10.2969 9.73047 10.7578 9.26953C11.2188 8.80859 11.7461 8.42578 12.3398 8.12109C11.7617 7.69922 11.3125 7.17188 10.9922 6.53906C10.6719 5.90625 10.5078 5.22656 10.5 4.5C10.5 3.88281 10.6172 3.30078 10.8516 2.75391C11.0859 2.20703 11.4062 1.73047 11.8125 1.32422C12.2188 0.917969 12.6953 0.59375 13.2422 0.351562C13.7891 0.109375 14.375 -0.0078125 15 0C15.6172 0 16.1992 0.117188 16.7461 0.351562C17.293 0.585938 17.7695 0.90625 18.1758 1.3125C18.582 1.71875 18.9062 2.19922 19.1484 2.75391C19.3906 3.30859 19.5078 3.89062 19.5 4.5C19.5 5.21875 19.3398 5.89453 19.0195 6.52734C18.6992 7.16016 18.2461 7.69141 17.6602 8.12109C18.1914 8.38672 18.6719 8.71875 19.1016 9.11719C19.5312 9.51562 19.8945 9.97656 20.1914 10.5H18.3398ZM6 16.5C6.41406 16.5 6.80078 16.4219 7.16016 16.2656C7.51953 16.1094 7.83984 15.8945 8.12109 15.6211C8.40234 15.3477 8.61719 15.0312 8.76562 14.6719C8.91406 14.3125 8.99219 13.9219 9 13.5C9 13.0859 8.92188 12.6992 8.76562 12.3398C8.60938 11.9805 8.39453 11.6602 8.12109 11.3789C7.84766 11.0977 7.53125 10.8828 7.17188 10.7344C6.8125 10.5859 6.42188 10.5078 6 10.5C5.58594 10.5 5.19922 10.5781 4.83984 10.7344C4.48047 10.8906 4.16016 11.1055 3.87891 11.3789C3.59766 11.6523 3.38281 11.9688 3.23438 12.3281C3.08594 12.6875 3.00781 13.0781 3 13.5C3 13.9141 3.07812 14.3008 3.23438 14.6602C3.39062 15.0195 3.60547 15.3398 3.87891 15.6211C4.15234 15.9023 4.46875 16.1172 4.82812 16.2656C5.1875 16.4141 5.57812 16.4922 6 16.5ZM12 4.5C12 4.91406 12.0781 5.30078 12.2344 5.66016C12.3906 6.01953 12.6055 6.33984 12.8789 6.62109C13.1523 6.90234 13.4688 7.11719 13.8281 7.26562C14.1875 7.41406 14.5781 7.49219 15 7.5C15.4141 7.5 15.8008 7.42188 16.1602 7.26562C16.5195 7.10938 16.8398 6.89453 17.1211 6.62109C17.4023 6.34766 17.6172 6.03125 17.7656 5.67188C17.9141 5.3125 17.9922 4.92188 18 4.5C18 4.08594 17.9219 3.69922 17.7656 3.33984C17.6094 2.98047 17.3945 2.66016 17.1211 2.37891C16.8477 2.09766 16.5312 1.88281 16.1719 1.73438C15.8125 1.58594 15.4219 1.50781 15 1.5C14.5859 1.5 14.1992 1.57812 13.8398 1.73438C13.4805 1.89062 13.1602 2.10547 12.8789 2.37891C12.5977 2.65234 12.3828 2.96875 12.2344 3.32812C12.0859 3.6875 12.0078 4.07812 12 4.5Z" fill="#383839" fill-opacity="0.6"/>
</g>
<defs>
<clipPath id="clip0_484_221">
<rect width="24" height="24" fill="white"/>
</clipPath>
</defs>
</svg>
