<svg width="24" height="24" viewBox="0 0 24 24" fill="none" xmlns="http://www.w3.org/2000/svg">
<path d="M2 6C2 5.73478 2.10536 5.48043 2.2929 5.29289C2.48043 5.10536 2.73479 5 3 5H21C21.2652 5 21.5196 5.10536 21.7071 5.29289C21.8946 5.48043 22 5.73478 22 6C22 6.26522 21.8946 6.51957 21.7071 6.70711C21.5196 6.89464 21.2652 7 21 7H3C2.73479 7 2.48043 6.89464 2.2929 6.70711C2.10536 6.51957 2 6.26522 2 6ZM2 12C2 11.7348 2.10536 11.4804 2.2929 11.2929C2.48043 11.1054 2.73479 11 3 11H21C21.2652 11 21.5196 11.1054 21.7071 11.2929C21.8946 11.4804 22 11.7348 22 12C22 12.2652 21.8946 12.5196 21.7071 12.7071C21.5196 12.8946 21.2652 13 21 13H3C2.73479 13 2.48043 12.8946 2.2929 12.7071C2.10536 12.5196 2 12.2652 2 12ZM18 18C18 17.7348 18.1054 17.4804 18.2929 17.2929C18.4804 17.1054 18.7348 17 19 17H21C21.2652 17 21.5196 17.1054 21.7071 17.2929C21.8946 17.4804 22 17.7348 22 18C22 18.2652 21.8946 18.5196 21.7071 18.7071C21.5196 18.8946 21.2652 19 21 19H19C18.7348 19 18.4804 18.8946 18.2929 18.7071C18.1054 18.5196 18 18.2652 18 18ZM14.035 17.128C13.972 17.1897 13.9265 17.267 13.903 17.352C13.8715 17.4817 13.8143 17.6038 13.7348 17.711C13.6554 17.8183 13.5552 17.9085 13.4403 17.9764C13.3255 18.0444 13.1981 18.0886 13.0659 18.1066C12.9336 18.1246 12.7991 18.1158 12.6702 18.081C12.5414 18.0462 12.4208 17.9859 12.3157 17.9037C12.2105 17.8215 12.1228 17.7191 12.0578 17.6025C11.9929 17.4859 11.9519 17.3575 11.9373 17.2248C11.9227 17.0922 11.9349 16.9579 11.973 16.83C12.0939 16.3838 12.3362 15.9798 12.673 15.663C13.103 15.263 13.705 15 14.469 15C16.08 15 17 16.25 17 17.364C17 17.747 16.934 18.38 16.534 18.948C16.566 18.988 16.5967 19.0297 16.626 19.073C16.874 19.441 17 19.879 17 20.363C17 21.196 16.732 21.903 16.187 22.389C15.663 22.855 15.015 23 14.469 23C13.978 23 13.437 22.914 12.956 22.593C12.462 22.263 12.159 21.77 11.983 21.207C11.9439 21.0816 11.9298 20.9497 11.9417 20.8189C11.9535 20.688 11.991 20.5608 12.052 20.4444C12.1752 20.2094 12.3867 20.033 12.64 19.954C12.8933 19.875 13.1676 19.8998 13.4026 20.023C13.6376 20.1462 13.814 20.3577 13.893 20.611C13.972 20.866 14.051 20.919 14.067 20.93C14.097 20.95 14.194 21 14.469 21C14.689 21 14.806 20.94 14.857 20.895C14.885 20.87 15 20.759 15 20.364C15 20.238 14.972 20.198 14.969 20.193C14.962 20.183 14.939 20.153 14.866 20.118C14.694 20.033 14.433 20 14.214 20C13.9488 20 13.6944 19.8946 13.5069 19.7071C13.3194 19.5196 13.214 19.2652 13.214 19C13.214 18.7348 13.3194 18.4804 13.5069 18.2929C13.6944 18.1054 13.9488 18 14.214 18C14.494 18 14.657 17.953 14.746 17.914C14.8038 17.8913 14.8545 17.8537 14.893 17.805C14.957 17.72 15 17.566 15 17.364C14.9908 17.2826 14.9541 17.2067 14.896 17.149C14.832 17.083 14.711 17 14.469 17C14.193 17 14.083 17.083 14.035 17.128ZM7.813 17.636C7.813 17.477 7.878 17.301 7.993 17.171C8.03342 17.1198 8.08449 17.0779 8.14268 17.0484C8.20088 17.0189 8.26479 17.0024 8.33 17C8.42387 16.9965 8.51713 17.0166 8.60118 17.0585C8.68524 17.1005 8.75739 17.1629 8.811 17.24C8.868 17.333 8.951 17.556 8.722 17.968C8.617 18.157 8.452 18.338 8.2 18.548C8.0642 18.6593 7.92548 18.767 7.784 18.871L7.72 18.918C7.587 19.017 7.44 19.127 7.297 19.24C6.612 19.784 5.812 20.586 5.812 22C5.812 22.2652 5.91736 22.5196 6.1049 22.7071C6.29243 22.8946 6.54679 23 6.812 23H9.831C10.0962 23 10.3506 22.8946 10.5381 22.7071C10.7256 22.5196 10.831 22.2652 10.831 22C10.831 21.7348 10.7256 21.4804 10.5381 21.2929C10.3506 21.1054 10.0962 21 9.831 21H8.31C8.38471 20.933 8.46141 20.8683 8.54 20.806C8.657 20.714 8.776 20.626 8.91 20.526L8.98 20.474C9.136 20.357 9.31 20.226 9.48 20.084C9.822 19.799 10.195 19.434 10.47 18.941C11 17.989 11.003 16.985 10.513 16.191C10.047 15.433 9.206 15 8.331 15C6.777 15 5.813 16.393 5.813 17.636C5.813 17.9012 5.91836 18.1556 6.1059 18.3431C6.29343 18.5306 6.54779 18.636 6.813 18.636C7.07822 18.636 7.33257 18.5306 7.52011 18.3431C7.70765 18.1556 7.813 17.9012 7.813 17.636ZM2.552 19.016C2.33287 19.1611 2.06542 19.2141 1.80751 19.1635C1.5496 19.1129 1.32198 18.9629 1.17386 18.7458C1.02575 18.5286 0.969064 18.262 1.01606 18.0034C1.06306 17.7448 1.20997 17.5151 1.425 17.364C2.035 16.934 2.478 16.25 2.572 15.797C2.6214 15.5537 2.75952 15.3375 2.95951 15.1904C3.15949 15.0433 3.40704 14.9759 3.654 15.0012C3.90096 15.0265 4.12968 15.1428 4.29566 15.3274C4.46163 15.512 4.55301 15.7517 4.552 16V22C4.552 22.2652 4.44665 22.5196 4.25911 22.7071C4.07157 22.8946 3.81722 23 3.552 23C3.28679 23 3.03243 22.8946 2.8449 22.7071C2.65736 22.5196 2.552 22.2652 2.552 22V19.016Z" fill="#6945FB"/>
</svg>
