<svg width="24" height="24" viewBox="0 0 24 24" fill="none" xmlns="http://www.w3.org/2000/svg">
<path d="M12.306 14.016C13.0447 14.0917 13.7291 14.4388 14.2268 14.99C14.7244 15.5412 14.9999 16.2574 15 17C15 18.542 14.06 19.818 12.796 20.66C11.526 21.508 9.826 22 8 22C6.174 22 4.474 21.508 3.204 20.66C1.938 19.82 1 18.542 1 17C1 16.2043 1.31607 15.4413 1.87868 14.8787C2.44129 14.3161 3.20435 14 4 14H12L12.306 14.016ZM20.006 14C20.8016 14 21.5647 14.3161 22.1273 14.8787C22.6899 15.4413 23.006 16.2043 23.006 17C23.006 18.39 22.142 19.422 21.04 20.056C19.944 20.686 18.51 21 17.006 21C16.4993 20.9987 16.0053 20.9613 15.524 20.888C16.39 19.864 17.002 18.556 17.002 17C16.9997 15.9172 16.646 14.8645 15.994 14H20.006ZM8.004 2.99199C8.6036 2.97962 9.19963 3.08707 9.75716 3.30804C10.3147 3.52901 10.8225 3.85906 11.2508 4.27883C11.6791 4.69859 12.0194 5.19964 12.2515 5.7526C12.4837 6.30556 12.6032 6.8993 12.6029 7.49903C12.6026 8.09875 12.4827 8.69239 12.25 9.24514C12.0173 9.79789 11.6767 10.2986 11.248 10.718C10.8193 11.1374 10.3112 11.467 9.75344 11.6875C9.19571 11.908 8.59958 12.0149 8 12.002C6.82164 11.9772 5.69991 11.4916 4.87532 10.6495C4.05073 9.80732 3.58893 8.67561 3.58893 7.49699C3.58893 6.31836 4.05073 5.18665 4.87532 4.3445C5.69991 3.50236 6.82164 3.01682 8 2.99199M17.5 4.99399C17.9596 4.99399 18.4148 5.08452 18.8394 5.26041C19.264 5.4363 19.6499 5.69411 19.9749 6.01911C20.2999 6.34412 20.5577 6.72995 20.7336 7.15459C20.9095 7.57923 21 8.03436 21 8.49399C21 8.95361 20.9095 9.40874 20.7336 9.83338C20.5577 10.258 20.2999 10.6439 19.9749 10.9689C19.6499 11.2939 19.264 11.5517 18.8394 11.7276C18.4148 11.9035 17.9596 11.994 17.5 11.994C16.5717 11.994 15.6815 11.6252 15.0251 10.9689C14.3687 10.3125 14 9.42224 14 8.49399C14 7.56573 14.3687 6.67549 15.0251 6.01911C15.6815 5.36273 16.5717 4.99399 17.5 4.99399Z" fill="#383839" fill-opacity="0.6"/>
</svg>
