<svg width="40" height="40" viewBox="0 0 40 40" fill="none" xmlns="http://www.w3.org/2000/svg">
<path d="M19.9689 4.86019C18.0079 4.86019 16.0079 5.25238 14.086 6.06957C6.38604 9.33597 2.80166 18.211 6.06963 25.9141C6.44151 26.7813 6.88604 27.6094 7.39229 28.375C6.40791 28.3985 5.56026 28.336 4.89385 28.1875C3.86104 27.961 3.33682 27.5782 3.15401 27.1485C2.97198 26.711 3.05635 26.0703 3.6126 25.1641C3.74151 24.961 3.89541 24.7422 4.07041 24.5078C3.90635 23.9297 3.77666 23.3594 3.67588 22.7735C3.1587 23.3282 2.73057 23.8828 2.39698 24.4219C1.71416 25.5235 1.40791 26.6797 1.84151 27.7032C2.27432 28.7266 3.31807 29.3047 4.58916 29.5782C5.65635 29.8125 6.94307 29.8594 8.41416 29.75C12.5704 34.7032 19.6329 36.5938 25.9064 33.9219C32.1798 31.2578 35.7189 24.8828 35.0548 18.4453C36.1564 17.461 37.0235 16.5 37.5939 15.5703C38.2892 14.461 38.586 13.3047 38.1564 12.2891C37.7189 11.2657 36.6798 10.6875 35.4064 10.4063C34.7892 10.2735 34.086 10.1953 33.336 10.1875C33.6876 10.6641 34.0079 11.1563 34.3048 11.6797C34.5939 11.711 34.8595 11.75 35.0939 11.8047C36.1329 12.0235 36.6564 12.4141 36.836 12.8438C37.0235 13.2735 36.9376 13.9219 36.3751 14.8203C36.0235 15.3985 35.4845 16.0547 34.7814 16.75C34.8985 17.3203 34.9923 17.8828 35.047 18.4453C34.8439 18.625 34.6173 18.8125 34.4064 19C34.0392 19.2969 33.6642 19.6016 33.2579 19.8985C34.1329 22.3985 32.9142 25.1953 30.4532 26.2422C28.3985 27.1172 26.0782 26.5235 24.672 24.9297C23.961 25.2657 23.2423 25.586 22.5001 25.9063C17.6173 27.9688 12.9376 29.2657 9.28135 29.6641C8.98448 29.6953 8.69541 29.7188 8.42198 29.75C8.05479 29.3125 7.72276 28.8594 7.39698 28.375C7.92979 28.3594 8.50791 28.3203 9.11729 28.25C12.586 27.8672 17.1642 26.6172 21.9454 24.586C22.6017 24.3125 23.2501 24.0157 23.8829 23.7266C23.8517 23.6719 23.8282 23.6172 23.8048 23.5625C22.711 20.9922 23.922 18 26.4923 16.9141C28.7032 15.9688 31.2345 16.75 32.586 18.6172C32.8985 18.375 33.2032 18.1407 33.4845 17.9063C33.961 17.5157 34.3907 17.125 34.7814 16.75C34.5782 15.8516 34.297 14.961 33.922 14.086C31.4689 8.31253 25.8673 4.85003 19.9689 4.86019ZM28.461 17.9375C28.0001 17.9375 27.5157 18.0313 27.047 18.2266C25.1954 19.0157 24.3282 21.1407 25.1251 23.0078C25.9064 24.8672 28.0392 25.7188 29.8985 24.9297C31.7501 24.1485 32.6173 22.0157 31.8204 20.1563C31.2345 18.7578 29.8907 17.9297 28.461 17.9375Z" fill="#2D2B2B"/>
</svg>
