<svg width="19" height="21" viewBox="0 0 19 21" fill="none" xmlns="http://www.w3.org/2000/svg">
<path d="M16 10V3.749C16.0001 3.67006 15.9845 3.59189 15.9543 3.51896C15.9241 3.44603 15.8798 3.37978 15.824 3.324L12.676 0.176C12.5636 0.0634461 12.4111 0.000140042 12.252 0H0.6C0.44087 0 0.288258 0.0632141 0.175736 0.175736C0.0632141 0.288258 0 0.44087 0 0.6V19.4C0 19.5591 0.0632141 19.7117 0.175736 19.8243C0.288258 19.9368 0.44087 20 0.6 20H9M4 8H12M4 4H8M4 12H7" stroke="#007AFF" stroke-width="1.5" stroke-linecap="round" stroke-linejoin="round"/>
<path d="M12 0V3.4C12 3.55913 12.0632 3.71174 12.1757 3.82426C12.2883 3.93679 12.4409 4 12.6 4H16M15.992 13.125L18.548 13.774C18.814 13.842 19.001 14.084 18.993 14.358C18.821 20.116 15.5 21 15.5 21C15.5 21 12.179 20.116 12.007 14.358C12.0043 14.2247 12.0468 14.0944 12.1276 13.9883C12.2084 13.8823 12.3227 13.8067 12.452 13.774L15.008 13.125C15.331 13.043 15.669 13.043 15.992 13.125Z" stroke="#007AFF" stroke-width="1.5" stroke-linecap="round" stroke-linejoin="round"/>
</svg>
