<svg width="23" height="23" viewBox="0 0 23 23" fill="none" xmlns="http://www.w3.org/2000/svg">
<path d="M22.49 20.235L21 18V12.75C21 10.75 17.2 8.61 15.75 7.5M17.68 14.043L14.032 11.12C13.7876 10.8756 13.4561 10.7383 13.1105 10.7383C12.7649 10.7383 12.4334 10.8756 12.189 11.12C11.9446 11.3644 11.8073 11.6959 11.8073 12.0415C11.8073 12.3871 11.9446 12.7186 12.189 12.963L15.722 16.95V19.45C15.722 20.631 17.41 22.495 17.41 22.495" stroke="#383839" stroke-opacity="0.6" stroke-width="1.5" stroke-linecap="round" stroke-linejoin="round"/>
<path d="M12.75 21H1.374C1.0095 20.9997 0.660021 20.8548 0.402375 20.5969C0.144728 20.3391 -9.63965e-08 19.9895 0 19.625V1.374C0 1.00959 0.14476 0.660111 0.402435 0.402436C0.66011 0.144761 1.00959 3.63934e-07 1.374 3.63934e-07H14.374C14.5546 -0.000131006 14.7334 0.0353043 14.9003 0.104283C15.0671 0.173262 15.2188 0.274434 15.3466 0.402021C15.4743 0.529609 15.5757 0.681114 15.645 0.847887C15.7142 1.01466 15.7499 1.19343 15.75 1.374V12.497" stroke="#383839" stroke-opacity="0.6" stroke-width="1.5" stroke-linecap="round" stroke-linejoin="round"/>
<path d="M9 3H12M12 3V6M12 3L3 11.25M4.49 15V18M7.49 12.75V18" stroke="#383839" stroke-opacity="0.6" stroke-width="1.5" stroke-linecap="round" stroke-linejoin="round"/>
</svg>
