<svg width="18" height="18" viewBox="0 0 18 18" fill="none" xmlns="http://www.w3.org/2000/svg">
<path fill-rule="evenodd" clip-rule="evenodd" d="M14.2164 5.53923C14.3386 5.43743 14.4963 5.38833 14.6547 5.40273C14.8131 5.41714 14.9593 5.49385 15.0612 5.61603L17.5608 8.61603C17.6582 8.73873 17.7037 8.89464 17.6876 9.05045C17.6716 9.20626 17.5952 9.34962 17.4749 9.4499C17.3546 9.55017 17.1998 9.59942 17.0436 9.58711C16.8875 9.5748 16.7423 9.50192 16.6392 9.38403L14.1396 6.38403C14.0378 6.2618 13.9887 6.10414 14.0031 5.94573C14.0175 5.78731 14.0942 5.6411 14.2164 5.53923Z" fill="#383839" fill-opacity="0.6"/>
<path fill-rule="evenodd" clip-rule="evenodd" d="M14.2164 12.4608C14.0942 12.3589 14.0175 12.2127 14.0031 12.0543C13.9887 11.8959 14.0378 11.7382 14.1396 11.616L16.6392 8.61598C16.6889 8.55331 16.7507 8.50121 16.8208 8.46276C16.891 8.42431 16.9681 8.40027 17.0477 8.39208C17.1273 8.38388 17.2077 8.39168 17.2843 8.41502C17.3608 8.43836 17.4319 8.47676 17.4933 8.52798C17.5548 8.5792 17.6054 8.64219 17.6421 8.71326C17.6789 8.78432 17.7011 8.86201 17.7074 8.94177C17.7136 9.02153 17.7039 9.10174 17.6788 9.17768C17.6536 9.25362 17.6135 9.32376 17.5608 9.38398L15.0612 12.384C14.9593 12.5061 14.8131 12.5829 14.6547 12.5973C14.4963 12.6117 14.3386 12.5626 14.2164 12.4608Z" fill="#383839" fill-opacity="0.6"/>
<path fill-rule="evenodd" clip-rule="evenodd" d="M16.8 9C16.8 9.15913 16.7368 9.31174 16.6243 9.42426C16.5117 9.53679 16.3591 9.6 16.2 9.6H7.2C7.04087 9.6 6.88826 9.53679 6.77574 9.42426C6.66321 9.31174 6.6 9.15913 6.6 9C6.6 8.84087 6.66321 8.68826 6.77574 8.57574C6.88826 8.46321 7.04087 8.4 7.2 8.4H16.2C16.3591 8.4 16.5117 8.46321 16.6243 8.57574C16.7368 8.68826 16.8 8.84087 16.8 9ZM0 0.6C0 0.44087 0.0632142 0.288258 0.175736 0.175736C0.288258 0.0632142 0.44087 0 0.6 0H11.4C11.5591 0 11.7117 0.0632142 11.8243 0.175736C11.9368 0.288258 12 0.44087 12 0.6C12 0.75913 11.9368 0.911742 11.8243 1.02426C11.7117 1.13679 11.5591 1.2 11.4 1.2H0.6C0.44087 1.2 0.288258 1.13679 0.175736 1.02426C0.0632142 0.911742 0 0.75913 0 0.6ZM0 17.4C0 17.2409 0.0632142 17.0883 0.175736 16.9757C0.288258 16.8632 0.44087 16.8 0.6 16.8H11.4C11.5591 16.8 11.7117 16.8632 11.8243 16.9757C11.9368 17.0883 12 17.2409 12 17.4C12 17.5591 11.9368 17.7117 11.8243 17.8243C11.7117 17.9368 11.5591 18 11.4 18H0.6C0.44087 18 0.288258 17.9368 0.175736 17.8243C0.0632142 17.7117 0 17.5591 0 17.4Z" fill="#383839" fill-opacity="0.6"/>
<path fill-rule="evenodd" clip-rule="evenodd" d="M11.4 0C11.5591 0 11.7117 0.0632142 11.8243 0.175736C11.9368 0.288258 12 0.44087 12 0.6V5.4C12 5.55913 11.9368 5.71174 11.8243 5.82426C11.7117 5.93679 11.5591 6 11.4 6C11.2409 6 11.0883 5.93679 10.9757 5.82426C10.8632 5.71174 10.8 5.55913 10.8 5.4V0.6C10.8 0.44087 10.8632 0.288258 10.9757 0.175736C11.0883 0.0632142 11.2409 0 11.4 0ZM11.4 12C11.5591 12 11.7117 12.0632 11.8243 12.1757C11.9368 12.2883 12 12.4409 12 12.6V17.4C12 17.5591 11.9368 17.7117 11.8243 17.8243C11.7117 17.9368 11.5591 18 11.4 18C11.2409 18 11.0883 17.9368 10.9757 17.8243C10.8632 17.7117 10.8 17.5591 10.8 17.4V12.6C10.8 12.4409 10.8632 12.2883 10.9757 12.1757C11.0883 12.0632 11.2409 12 11.4 12ZM0.6 0C0.75913 0 0.911742 0.0632142 1.02426 0.175736C1.13679 0.288258 1.2 0.44087 1.2 0.6V17.4C1.2 17.5591 1.13679 17.7117 1.02426 17.8243C0.911742 17.9368 0.75913 18 0.6 18C0.44087 18 0.288258 17.9368 0.175736 17.8243C0.0632142 17.7117 0 17.5591 0 17.4V0.6C0 0.44087 0.0632142 0.288258 0.175736 0.175736C0.288258 0.0632142 0.44087 0 0.6 0Z" fill="#383839" fill-opacity="0.6"/>
</svg>
