<svg width="18" height="20" viewBox="0 0 18 20" fill="none" xmlns="http://www.w3.org/2000/svg">
<path d="M0 8C0 4.229 -1.19209e-07 2.343 1.172 1.172C2.344 0.000999928 4.229 0 8 0H10C13.771 0 15.657 -1.19209e-07 16.828 1.172C17.999 2.344 18 4.229 18 8V12C18 15.771 18 17.657 16.828 18.828C15.656 19.999 13.771 20 10 20H8C4.229 20 2.343 20 1.172 18.828C0.000999928 17.656 0 15.771 0 12V8Z" stroke="#1A85C8" stroke-width="1.5"/>
<path d="M5 8H13M5 12H10" stroke="#1A85C8" stroke-width="1.5" stroke-linecap="round"/>
</svg>
