<svg width="24" height="24" viewBox="0 0 24 24" fill="none" xmlns="http://www.w3.org/2000/svg">
<path d="M2.75 12C2.75 9.54675 3.72455 7.19397 5.45926 5.45926C7.19397 3.72455 9.54675 2.75 12 2.75V1.25C6.062 1.25 1.25 6.062 1.25 12H2.75ZM6.709 19.577C4.315 17.902 2.75 15.137 2.75 12H1.25C1.25 15.65 3.075 18.865 5.85 20.806L6.709 19.577ZM7.135 15.845L6.414 19.675L7.888 19.953L8.608 16.123L7.135 15.845ZM5.75 12C5.75 13.494 6.277 14.865 7.151 15.938L8.313 14.991C7.62252 14.1474 7.24675 13.0901 7.25 12H5.75ZM12 5.75C10.3424 5.75 8.75269 6.40848 7.58058 7.58058C6.40848 8.75269 5.75 10.3424 5.75 12H7.25C7.25 10.7402 7.75045 9.53204 8.64124 8.64124C9.53204 7.75045 10.7402 7.25 12 7.25V5.75ZM18.25 12C18.25 10.3424 17.5915 8.75269 16.4194 7.58058C15.2473 6.40848 13.6576 5.75 12 5.75V7.25C13.2598 7.25 14.468 7.75045 15.3588 8.64124C16.2496 9.53204 16.75 10.7402 16.75 12H18.25ZM16.85 15.938C17.7584 14.8269 18.2532 13.4351 18.25 12H16.75C16.753 13.0898 16.3773 14.1467 15.687 14.99L16.85 15.938ZM17.586 19.675L16.865 15.845L15.391 16.123L16.111 19.953L17.586 19.675ZM21.25 12C21.25 13.4886 20.89 14.9551 20.2006 16.2745C19.5112 17.5938 18.513 18.7269 17.291 19.577L18.151 20.807C20.926 18.864 22.75 15.65 22.75 12H21.25ZM12 2.75C14.4533 2.75 16.806 3.72455 18.5407 5.45926C20.2754 7.19397 21.25 9.54675 21.25 12H22.75C22.75 6.062 17.938 1.25 12 1.25V2.75ZM15.75 12C15.75 11.0054 15.3549 10.0516 14.6517 9.34835C13.9484 8.64509 12.9946 8.25 12 8.25V9.75C12.5967 9.75 13.169 9.98705 13.591 10.409C14.0129 10.831 14.25 11.4033 14.25 12H15.75ZM13.905 15.228C14.4666 14.8968 14.9322 14.4248 15.2557 13.8588C15.5793 13.2927 15.7496 12.652 15.75 12H14.25C14.25 12.823 13.807 13.544 13.142 13.936L13.905 15.228ZM14.988 21.015L13.903 15.153L12.428 15.426L13.513 21.288L14.988 21.015ZM12 22.75C12.665 22.75 13.31 22.683 13.935 22.567L13.66 21.093C13.1127 21.1966 12.557 21.2491 12 21.25V22.75ZM10.063 22.566C10.688 22.683 11.334 22.75 12 22.75V21.25C11.4429 21.2485 10.8872 21.1953 10.34 21.091L10.063 22.566ZM10.098 15.153L9.013 21.014L10.488 21.287L11.573 15.426L10.098 15.153ZM8.25 12C8.25 13.377 8.994 14.578 10.096 15.228L10.858 13.936C10.521 13.7375 10.2415 13.4545 10.0472 13.115C9.85289 12.7755 9.75046 12.3912 9.75 12H8.25ZM12 8.25C11.0054 8.25 10.0516 8.64509 9.34835 9.34835C8.64509 10.0516 8.25 11.0054 8.25 12H9.75C9.75 11.4033 9.98705 10.831 10.409 10.409C10.831 9.98705 11.4033 9.75 12 9.75V8.25ZM11.573 15.426C11.695 14.764 11.314 14.206 10.858 13.936L10.096 15.228L10.106 15.236C10.1087 15.2393 10.1087 15.239 10.106 15.235C10.1014 15.2255 10.0984 15.2154 10.097 15.205C10.0947 15.1877 10.0957 15.1703 10.098 15.153L11.573 15.426ZM10.34 21.091C10.459 21.113 10.5 21.22 10.488 21.287L9.013 21.014C8.884 21.708 9.318 22.426 10.063 22.566L10.34 21.091ZM16.112 19.952C16.28 20.844 17.324 21.385 18.152 20.806L17.291 19.577C17.3197 19.5579 17.3538 19.5462 17.3881 19.5428C17.4225 19.5395 17.4571 19.5447 17.489 19.558C17.541 19.581 17.577 19.628 17.586 19.675L16.112 19.952ZM8.609 16.122C8.64545 15.9233 8.63783 15.719 8.58668 15.5236C8.53554 15.3282 8.44211 15.1464 8.313 14.991L7.151 15.938C7.144 15.93 7.125 15.898 7.135 15.845L8.609 16.122ZM13.142 13.936C12.686 14.206 12.305 14.764 12.428 15.426L13.903 15.153C13.9054 15.1706 13.9054 15.1884 13.903 15.206C13.9015 15.2161 13.8985 15.2258 13.894 15.235C13.8913 15.239 13.8913 15.2393 13.894 15.236L13.905 15.228L13.142 13.936ZM15.687 14.991C15.442 15.291 15.312 15.7 15.391 16.123L16.865 15.845C16.875 15.899 16.857 15.93 16.85 15.938L15.687 14.991ZM13.513 21.288C13.507 21.2427 13.519 21.1969 13.5465 21.1604C13.574 21.1239 13.6148 21.0997 13.66 21.093L13.935 22.567C14.68 22.428 15.116 21.71 14.988 21.015L13.513 21.288ZM5.85 20.806C6.677 21.385 7.719 20.844 7.888 19.953L6.414 19.676C6.41984 19.6501 6.43166 19.626 6.4485 19.6055C6.46534 19.585 6.48675 19.5687 6.511 19.558C6.54308 19.5447 6.57796 19.5396 6.61252 19.5431C6.64707 19.5465 6.68022 19.5576 6.709 19.577L5.85 20.806Z" fill="#34C759"/>
</svg>
