<svg width="24" height="24" viewBox="0 0 24 24" fill="none" xmlns="http://www.w3.org/2000/svg">
<path d="M12 22C9.68333 21.4167 7.77067 20.0873 6.262 18.012C4.75333 15.9367 3.99933 13.6327 4 11.1V5L12 2L20 5V11.1C20 12.5167 19.7583 13.8793 19.275 15.188C18.7917 16.4967 18.1 17.6507 17.2 18.65L14 15.45C13.7 15.6333 13.3793 15.771 13.038 15.863C12.6967 15.955 12.3507 16.0007 12 16C10.9 16 9.95833 15.6083 9.175 14.825C8.39167 14.0417 8 13.1 8 12C8 10.9 8.39167 9.95833 9.175 9.175C9.95833 8.39167 10.9 8 12 8C13.1 8 14.0417 8.39167 14.825 9.175C15.6083 9.95833 16 10.9 16 12C16 12.3667 15.9543 12.721 15.863 13.063C15.7717 13.405 15.634 13.734 15.45 14.05L16.95 15.55C17.2833 14.8667 17.5417 14.15 17.725 13.4C17.9083 12.65 18 11.8833 18 11.1V6.375L12 4.125L6 6.375V11.1C6 13.1167 6.56667 14.95 7.7 16.6C8.83333 18.25 10.2667 19.35 12 19.9C12.4333 19.7667 12.846 19.596 13.238 19.388C13.63 19.18 14.0173 18.934 14.4 18.65L15.8 20.05C15.25 20.5 14.6543 20.8917 14.013 21.225C13.3717 21.5583 12.7007 21.8167 12 22ZM12 14C12.55 14 13.021 13.8043 13.413 13.413C13.805 13.0217 14.0007 12.5507 14 12C13.9993 11.4493 13.8037 10.9787 13.413 10.588C13.0223 10.1973 12.5513 10.0013 12 10C11.4487 9.99867 10.978 10.1947 10.588 10.588C10.198 10.9813 10.002 11.452 10 12C9.998 12.548 10.194 13.019 10.588 13.413C10.982 13.807 11.4527 14.0027 12 14Z" fill="#383839" fill-opacity="0.6"/>
</svg>
