<svg width="19" height="19" viewBox="0 0 19 19" fill="none" xmlns="http://www.w3.org/2000/svg">
<path d="M9.49996 15.8333C7.7319 15.8333 6.23433 15.2198 5.00725 13.9927C3.78017 12.7656 3.16663 11.268 3.16663 9.49996C3.16663 7.73191 3.78017 6.23434 5.00725 5.00725C6.23433 3.78017 7.7319 3.16663 9.49996 3.16663C10.4104 3.16663 11.2812 3.35452 12.1125 3.7303C12.9437 4.10607 13.6562 4.64388 14.25 5.34371V3.9583C14.25 3.73399 14.326 3.5461 14.478 3.39463C14.63 3.24316 14.8178 3.16716 15.0416 3.16663C15.2654 3.1661 15.4536 3.2421 15.6061 3.39463C15.7586 3.54716 15.8343 3.73505 15.8333 3.9583V7.91663C15.8333 8.14093 15.7573 8.32909 15.6053 8.48109C15.4533 8.63309 15.2654 8.70882 15.0416 8.70829H11.0833C10.859 8.70829 10.6711 8.6323 10.5196 8.48029C10.3682 8.32829 10.2922 8.14041 10.2916 7.91663C10.2911 7.69285 10.3671 7.50496 10.5196 7.35296C10.6722 7.20096 10.86 7.12496 11.0833 7.12496H13.6166C13.1944 6.38607 12.6173 5.80552 11.8853 5.3833C11.1532 4.96107 10.3581 4.74996 9.49996 4.74996C8.18052 4.74996 7.05899 5.21177 6.13538 6.13538C5.21177 7.05899 4.74996 8.18052 4.74996 9.49996C4.74996 10.8194 5.21177 11.9409 6.13538 12.8645C7.05899 13.7882 8.18052 14.25 9.49996 14.25C10.3972 14.25 11.2187 14.0225 11.9644 13.5675C12.7102 13.1126 13.2873 12.5022 13.6958 11.7364C13.8013 11.5517 13.9499 11.4232 14.1415 11.3509C14.3331 11.2786 14.5276 11.2751 14.725 11.3406C14.9361 11.4066 15.0878 11.5451 15.1802 11.7562C15.2725 11.9673 15.2659 12.1652 15.1604 12.35C14.6194 13.4055 13.8475 14.25 12.8448 14.8833C11.842 15.5166 10.727 15.8333 9.49996 15.8333Z" fill="#383839" fill-opacity="0.6"/>
</svg>
