<svg width="24" height="24" viewBox="0 0 24 24" fill="none" xmlns="http://www.w3.org/2000/svg">
<g clip-path="url(#clip0_9_199)">
<path fill-rule="evenodd" clip-rule="evenodd" d="M12.2626 0.00302409C10.5166 -0.0349725 8.78341 0.308567 7.18396 1.00966C5.58451 1.71075 4.15736 2.7525 3.00214 4.06217C1.84692 5.37184 0.991474 6.91787 0.49553 8.59233C-0.000414222 10.2668 -0.124907 12.0293 0.130742 13.7569C0.386392 15.4844 1.01602 17.1353 1.97568 18.5944C2.93533 20.0534 4.20188 21.2855 5.68691 22.2044C7.17193 23.1234 8.83963 23.7071 10.5736 23.9149C12.3075 24.1227 14.0659 23.9496 15.7261 23.4075C16.0097 23.3148 16.2449 23.1133 16.3799 22.8471C16.515 22.581 16.5387 22.2722 16.4461 21.9885C16.3534 21.7049 16.1518 21.4697 15.8857 21.3346C15.6196 21.1996 15.3107 21.1758 15.0271 21.2685C13.223 21.8576 11.2863 21.9074 9.45435 21.4118C7.62243 20.9161 5.97497 19.8967 4.71401 18.4784C3.45306 17.0601 2.63343 15.3046 2.35565 13.4273C2.07786 11.5499 2.354 9.63232 3.15019 7.90963C3.94638 6.18694 5.22801 4.73406 6.8379 3.72917C8.4478 2.72427 10.316 2.21105 12.2133 2.25244C14.1106 2.29384 15.9546 2.88805 17.5192 3.9622C19.0837 5.03635 20.3008 6.54375 21.0211 8.29952C21.1342 8.57561 21.3525 8.79544 21.6277 8.91063C21.764 8.96767 21.9102 8.9973 22.0579 8.99784C22.2057 8.99838 22.3521 8.96982 22.4888 8.91377C22.6255 8.85773 22.7498 8.77531 22.8547 8.67122C22.9596 8.56713 23.0429 8.44341 23.0999 8.30711C23.157 8.17082 23.1866 8.02463 23.1871 7.87688C23.1877 7.72914 23.1591 7.58273 23.1031 7.44602C22.2166 5.28496 20.7187 3.42959 18.7931 2.10747C16.8674 0.785357 14.5978 0.0539723 12.2626 0.00302409ZM13.1251 5.62502C13.1251 5.32666 13.0065 5.04051 12.7956 4.82953C12.5846 4.61855 12.2984 4.50002 12.0001 4.50002C11.7017 4.50002 11.4155 4.61855 11.2046 4.82953C10.9936 5.04051 10.8751 5.32666 10.8751 5.62502V11.535L7.82406 14.5845C7.71353 14.6875 7.62487 14.8117 7.56339 14.9497C7.5019 15.0877 7.46883 15.2367 7.46617 15.3877C7.4635 15.5388 7.49129 15.6888 7.54787 15.8289C7.60445 15.969 7.68867 16.0963 7.7955 16.2031C7.90233 16.3099 8.02958 16.3941 8.16966 16.4507C8.30974 16.5073 8.45979 16.5351 8.61084 16.5324C8.76189 16.5297 8.91086 16.4967 9.04886 16.4352C9.18686 16.3737 9.31106 16.2851 9.41406 16.1745L12.7951 12.795L13.1251 12.465V5.62502ZM22.5001 22.5C22.5001 22.8978 22.342 23.2794 22.0607 23.5607C21.7794 23.842 21.3979 24 21.0001 24C20.6022 24 20.2207 23.842 19.9394 23.5607C19.6581 23.2794 19.5001 22.8978 19.5001 22.5C19.5001 22.1022 19.6581 21.7207 19.9394 21.4394C20.2207 21.1581 20.6022 21 21.0001 21C21.3979 21 21.7794 21.1581 22.0607 21.4394C22.342 21.7207 22.5001 22.1022 22.5001 22.5ZM22.1251 13.125C22.1251 12.8267 22.0065 12.5405 21.7956 12.3295C21.5846 12.1186 21.2984 12 21.0001 12C20.7017 12 20.4155 12.1186 20.2046 12.3295C19.9936 12.5405 19.8751 12.8267 19.8751 13.125V18.375C19.8751 18.6734 19.9936 18.9595 20.2046 19.1705C20.4155 19.3815 20.7017 19.5 21.0001 19.5C21.2984 19.5 21.5846 19.3815 21.7956 19.1705C22.0065 18.9595 22.1251 18.6734 22.1251 18.375V13.125Z" fill="#FF3B30"/>
</g>
<defs>
<clipPath id="clip0_9_199">
<rect width="24" height="24" fill="white"/>
</clipPath>
</defs>
</svg>
