<svg width="24" height="24" viewBox="0 0 24 24" fill="none" xmlns="http://www.w3.org/2000/svg">
<path d="M7.5 9.75H16.5V11.25H7.5V9.75ZM7.5 13.5H16.5V15H7.5V13.5Z" fill="#1A85C8"/>
<path d="M22.5 4.8105L21.4395 3.75L18.927 6.2625C18.5685 5.82973 18.1703 5.43149 17.7375 5.073L20.25 2.5605L19.1895 1.5L16.482 4.2075C14.769 3.21797 12.7773 2.82144 10.816 3.07943C8.85458 3.33742 7.03319 4.2355 5.63434 5.63434C4.2355 7.03319 3.33742 8.85458 3.07943 10.816C2.82144 12.7773 3.21797 14.769 4.2075 16.482L1.5 19.1895L2.5605 20.25L5.073 17.7375C5.43149 18.1703 5.82973 18.5685 6.2625 18.927L3.75 21.4395L4.8105 22.5L7.518 19.7925C9.231 20.782 11.2227 21.1786 13.184 20.9206C15.1454 20.6626 16.9668 19.7645 18.3657 18.3657C19.7645 16.9668 20.6626 15.1454 20.9206 13.184C21.1786 11.2227 20.782 9.231 19.7925 7.518L22.5 4.8105ZM12 19.5C10.5166 19.5 9.06659 19.0601 7.83322 18.236C6.59985 17.4119 5.63856 16.2406 5.0709 14.8701C4.50325 13.4997 4.35472 11.9917 4.64411 10.5368C4.9335 9.08197 5.64781 7.74559 6.6967 6.6967C7.74559 5.64781 9.08197 4.9335 10.5368 4.64411C11.9917 4.35472 13.4997 4.50325 14.8701 5.0709C16.2406 5.63856 17.4119 6.59985 18.236 7.83322C19.0601 9.06659 19.5 10.5166 19.5 12C19.498 13.9885 18.7072 15.895 17.3011 17.3011C15.895 18.7072 13.9885 19.498 12 19.5Z" fill="#1A85C8"/>
</svg>
