<svg width="20" height="20" viewBox="0 0 20 20" fill="none" xmlns="http://www.w3.org/2000/svg">
<path d="M9.16675 10.8332H5.00008C4.76397 10.8332 4.5662 10.7532 4.40675 10.5932C4.24731 10.4332 4.16731 10.2354 4.16675 9.99984C4.1662 9.76428 4.2462 9.56651 4.40675 9.40651C4.56731 9.24651 4.76508 9.16651 5.00008 9.16651H9.16675V4.99984C9.16675 4.76373 9.24675 4.56595 9.40675 4.40651C9.56675 4.24706 9.76453 4.16706 10.0001 4.16651C10.2356 4.16595 10.4337 4.24595 10.5943 4.40651C10.7548 4.56706 10.8345 4.76484 10.8334 4.99984V9.16651H15.0001C15.2362 9.16651 15.4343 9.24651 15.5943 9.40651C15.7543 9.56651 15.834 9.76428 15.8334 9.99984C15.8329 10.2354 15.7529 10.4335 15.5934 10.594C15.434 10.7546 15.2362 10.8343 15.0001 10.8332H10.8334V14.9998C10.8334 15.236 10.7534 15.434 10.5934 15.594C10.4334 15.754 10.2356 15.8337 10.0001 15.8332C9.76453 15.8326 9.56675 15.7526 9.40675 15.5932C9.24675 15.4337 9.16675 15.236 9.16675 14.9998V10.8332Z" fill="white"/>
</svg>
