<svg width="16" height="16" viewBox="0 0 16 16" fill="none" xmlns="http://www.w3.org/2000/svg">
<path d="M5.80659 5.13977L7.33325 3.60643V9.99977C7.33325 10.1766 7.40349 10.3461 7.52851 10.4712C7.65354 10.5962 7.82311 10.6664 7.99992 10.6664C8.17673 10.6664 8.3463 10.5962 8.47132 10.4712C8.59635 10.3461 8.66659 10.1766 8.66659 9.99977V3.60643L10.1933 5.13977C10.2552 5.20225 10.329 5.25185 10.4102 5.2857C10.4914 5.31954 10.5786 5.33697 10.6666 5.33697C10.7546 5.33697 10.8417 5.31954 10.923 5.2857C11.0042 5.25185 11.0779 5.20225 11.1399 5.13977C11.2024 5.07779 11.252 5.00406 11.2858 4.92282C11.3197 4.84158 11.3371 4.75444 11.3371 4.66644C11.3371 4.57843 11.3197 4.49129 11.2858 4.41005C11.252 4.32881 11.2024 4.25508 11.1399 4.1931L8.47325 1.52643C8.40985 1.46574 8.33509 1.41816 8.25325 1.38643C8.09094 1.31976 7.90889 1.31976 7.74659 1.38643C7.66475 1.41816 7.58999 1.46574 7.52659 1.52643L4.85992 4.1931C4.79776 4.25526 4.74845 4.32905 4.71481 4.41027C4.68117 4.49148 4.66386 4.57853 4.66386 4.66644C4.66386 4.75434 4.68117 4.84139 4.71481 4.9226C4.74845 5.00382 4.79776 5.07761 4.85992 5.13977C4.92208 5.20193 4.99587 5.25123 5.07709 5.28487C5.1583 5.31851 5.24535 5.33583 5.33325 5.33583C5.42116 5.33583 5.5082 5.31851 5.58942 5.28487C5.67063 5.25123 5.74443 5.20193 5.80659 5.13977ZM13.9999 9.3331C13.8231 9.3331 13.6535 9.40334 13.5285 9.52836C13.4035 9.65339 13.3333 9.82296 13.3333 9.99977V12.6664C13.3333 12.8432 13.263 13.0128 13.138 13.1378C13.013 13.2629 12.8434 13.3331 12.6666 13.3331H3.33325C3.15644 13.3331 2.98687 13.2629 2.86185 13.1378C2.73682 13.0128 2.66659 12.8432 2.66659 12.6664V9.99977C2.66659 9.82296 2.59635 9.65339 2.47132 9.52836C2.3463 9.40334 2.17673 9.3331 1.99992 9.3331C1.82311 9.3331 1.65354 9.40334 1.52851 9.52836C1.40349 9.65339 1.33325 9.82296 1.33325 9.99977V12.6664C1.33325 13.1969 1.54397 13.7056 1.91904 14.0806C2.29411 14.4557 2.80282 14.6664 3.33325 14.6664H12.6666C13.197 14.6664 13.7057 14.4557 14.0808 14.0806C14.4559 13.7056 14.6666 13.1969 14.6666 12.6664V9.99977C14.6666 9.82296 14.5963 9.65339 14.4713 9.52836C14.3463 9.40334 14.1767 9.3331 13.9999 9.3331Z" fill="#383838" fill-opacity="0.6"/>
</svg>
