<svg width="20" height="20" viewBox="0 0 20 20" fill="none" xmlns="http://www.w3.org/2000/svg">
<path fill-rule="evenodd" clip-rule="evenodd" d="M10.0003 13.1248C10.1661 13.1248 10.325 13.059 10.4422 12.9418C10.5595 12.8245 10.6253 12.6656 10.6253 12.4998V3.35565L12.0253 4.98981C12.1332 5.11579 12.2866 5.19376 12.452 5.20658C12.6173 5.21939 12.781 5.166 12.907 5.05815C13.0329 4.95029 13.1109 4.79681 13.1237 4.63147C13.1366 4.46612 13.0832 4.30246 12.9753 4.17648L10.4753 1.25981C10.4166 1.1912 10.3438 1.13612 10.2618 1.09834C10.1798 1.06057 10.0906 1.04102 10.0003 1.04102C9.91002 1.04102 9.82082 1.06057 9.73882 1.09834C9.65682 1.13612 9.58398 1.1912 9.5253 1.25981L7.0253 4.17648C6.9719 4.23886 6.9313 4.31114 6.90584 4.38921C6.88037 4.46728 6.87052 4.5496 6.87687 4.63147C6.88322 4.71334 6.90562 4.79316 6.94282 4.86637C6.98001 4.93958 7.03126 5.00474 7.09364 5.05815C7.15601 5.11155 7.2283 5.15215 7.30637 5.17761C7.38443 5.20308 7.46675 5.21292 7.54862 5.20658C7.63049 5.20023 7.71031 5.17783 7.78352 5.14063C7.85673 5.10344 7.9219 5.05219 7.9753 4.98981L9.3753 3.35648V12.4998C9.3753 12.8448 9.6553 13.1248 10.0003 13.1248Z" fill="white"/>
<path d="M13.3337 7.5C12.7487 7.5 12.4562 7.5 12.2453 7.64083C12.1547 7.70149 12.0768 7.77935 12.0162 7.87C11.8753 8.08083 11.8753 8.37333 11.8753 8.95833V12.5C11.8753 12.9973 11.6778 13.4742 11.3262 13.8258C10.9745 14.1775 10.4976 14.375 10.0003 14.375C9.50304 14.375 9.02613 14.1775 8.6745 13.8258C8.32287 13.4742 8.12533 12.9973 8.12533 12.5V8.95833C8.12533 8.37333 8.12533 8.08083 7.98449 7.87C7.92384 7.77935 7.84598 7.70149 7.75533 7.64083C7.54449 7.5 7.25199 7.5 6.66699 7.5C4.31033 7.5 3.13116 7.5 2.39949 8.2325C1.66699 8.96417 1.66699 10.1417 1.66699 12.4992V13.3325C1.66699 15.6908 1.66699 16.8683 2.39949 17.6008C3.13116 18.3333 4.31033 18.3333 6.66699 18.3333H13.3337C15.6903 18.3333 16.8695 18.3333 17.6012 17.6008C18.3328 16.8683 18.3337 15.69 18.3337 13.3333V12.5C18.3337 10.1425 18.3337 8.96417 17.6012 8.2325C16.8695 7.5 15.6903 7.5 13.3337 7.5Z" fill="white"/>
</svg>
