<svg width="23" height="24" viewBox="0 0 23 24" fill="none" xmlns="http://www.w3.org/2000/svg">
<path d="M22.5909 21.9635H22.2273C22.2273 20.2181 21.3546 18.5453 19.7909 17.3453C21.3182 16.1453 22.1909 14.4726 22.2273 12.7272H22.5909C22.8091 12.7272 22.9546 12.5817 22.9546 12.3635C22.9546 12.1453 22.8091 11.9999 22.5909 11.9999C21.2818 11.9999 21.1364 11.9999 18.8818 11.9999V3.78171C18.8818 3.63625 18.8091 3.52716 18.7 3.45443L13.5727 0.399889C13.5 0.363525 13.4273 0.363525 13.3909 0.363525H0.409108C0.190926 0.363525 0.0454712 0.50898 0.0454712 0.727162V23.2726C0.0454712 23.4908 0.190926 23.6363 0.409108 23.6363H18.4818C18.7 23.6363 18.8455 23.4908 18.8455 23.2726V22.6908H22.5546C22.7727 22.6908 22.9182 22.5453 22.9182 22.3272C22.9182 22.109 22.7727 21.9635 22.5909 21.9635ZM19.2455 16.8363C17.8273 15.7453 17.0273 14.2544 16.9909 12.7272H21.4637C21.5 14.2908 20.6637 15.7453 19.2455 16.8363ZM13.7546 1.38171L17.1727 3.41807H13.7546V1.38171ZM18.1182 22.909H0.772744V1.0908H12.9909V3.78171C12.9909 3.99989 13.1364 4.14534 13.3546 4.14534H18.1182V11.9999C18.0455 11.9999 15.7909 11.9999 15.9364 11.9999C15.7182 11.9999 15.5727 12.1453 15.5727 12.3635C15.5727 12.5817 15.7182 12.7272 15.9364 12.7272H16.3C16.3 14.4726 17.1727 16.1453 18.7364 17.3453C17.2091 18.5453 16.3364 20.2181 16.3 21.9635H15.9364C15.7182 21.9635 15.5727 22.109 15.5727 22.3272C15.5727 22.5453 15.7182 22.6908 15.9364 22.6908C15.9727 22.6908 18.1546 22.6908 18.1182 22.6908V22.909ZM17.0273 21.9635C17.0273 20.3999 17.8273 18.9453 19.2818 17.8544C20.7 18.9453 21.5 20.4363 21.5364 21.9635C20.9546 21.9635 18.4455 21.9635 17.0273 21.9635Z" fill="#BAAA03"/>
<path d="M2.51818 5.78163H11.3182C11.5364 5.78163 11.6818 5.63617 11.6818 5.41799V2.5089C11.6818 2.29072 11.5364 2.14526 11.3182 2.14526H2.51818C2.3 2.14526 2.15454 2.29072 2.15454 2.5089V5.41799C2.15454 5.59981 2.3 5.78163 2.51818 5.78163ZM2.88181 2.87254H10.9545V5.05435H2.88181V2.87254Z" fill="#BAAA03"/>
<path d="M5.68184 8.18164H2.59093C2.37275 8.18164 2.22729 8.3271 2.22729 8.54528V11.5635C2.22729 11.7816 2.37275 11.9271 2.59093 11.9271H5.68184C5.90002 11.9271 6.04548 11.7816 6.04548 11.5635V8.54528C6.04548 8.36346 5.90002 8.18164 5.68184 8.18164ZM5.3182 11.1998H2.95457V8.90891H5.3182V11.1998Z" fill="#BAAA03"/>
<path d="M5.68184 12.8362H2.59093C2.37275 12.8362 2.22729 12.9816 2.22729 13.1998V16.218C2.22729 16.4362 2.37275 16.5816 2.59093 16.5816H5.68184C5.90002 16.5816 6.04548 16.4362 6.04548 16.218V13.1998C6.04548 12.9816 5.90002 12.8362 5.68184 12.8362ZM5.3182 15.818H2.95457V13.5271H5.3182V15.818Z" fill="#BAAA03"/>
<path d="M5.68184 17.4543H2.59093C2.37275 17.4543 2.22729 17.5998 2.22729 17.818V20.8362C2.22729 21.0543 2.37275 21.1998 2.59093 21.1998H5.68184C5.90002 21.1998 6.04548 21.0543 6.04548 20.8362V17.818C6.04548 17.5998 5.90002 17.4543 5.68184 17.4543ZM5.3182 20.4362H2.95457V18.1816H5.3182V20.4362Z" fill="#BAAA03"/>
<path d="M3.75458 10.8C3.8273 10.8363 3.90003 10.8727 3.97276 10.8727C4.08185 10.8727 4.15458 10.8363 4.2273 10.7636L5.06367 9.89089C5.20912 9.74543 5.20912 9.52725 5.06367 9.3818C4.91821 9.23634 4.70003 9.23634 4.55458 9.3818L3.93639 10.0363L3.71821 9.89089C3.57276 9.7818 3.31821 9.81816 3.20912 9.96361C3.10003 10.1091 3.13639 10.3636 3.28185 10.4727L3.75458 10.8Z" fill="#BAAA03"/>
<path d="M3.75458 15.4181C3.8273 15.4545 3.90003 15.4909 3.97276 15.4909C4.08185 15.4909 4.15458 15.4545 4.2273 15.3818L5.06367 14.5091C5.20912 14.3636 5.20912 14.1454 5.06367 14C4.91821 13.8545 4.70003 13.8545 4.55458 14L3.93639 14.6545L3.71821 14.5091C3.57276 14.4 3.31821 14.4363 3.20912 14.5818C3.10003 14.7272 3.13639 14.9818 3.28185 15.0909L3.75458 15.4181Z" fill="#BAAA03"/>
<path d="M3.75456 20.0363C3.82729 20.0727 3.90002 20.109 3.97274 20.109C4.08184 20.109 4.15456 20.0727 4.22729 19.9999L5.06365 19.1272C5.20911 18.9818 5.20911 18.7636 5.06365 18.6181C4.9182 18.4727 4.70002 18.4727 4.55456 18.6181L3.90002 19.2727L3.68184 19.1272C3.53638 19.0181 3.28184 19.0545 3.17274 19.1999C3.06365 19.3454 3.10002 19.5999 3.24547 19.709L3.75456 20.0363Z" fill="#BAAA03"/>
<path d="M7.20911 8.90905C7.20911 9.12723 7.35456 9.27268 7.57274 9.27268H16.3C16.5182 9.27268 16.6637 9.12723 16.6637 8.90905C16.6637 8.69086 16.5182 8.54541 16.3 8.54541H7.57274C7.39092 8.54541 7.20911 8.69086 7.20911 8.90905Z" fill="#BAAA03"/>
<path d="M16.3364 10.8362H7.60912C7.39094 10.8362 7.24548 10.9816 7.24548 11.1998C7.24548 11.418 7.39094 11.5635 7.60912 11.5635H16.3364C16.5546 11.5635 16.7 11.418 16.7 11.1998C16.7 10.9816 16.5182 10.8362 16.3364 10.8362Z" fill="#BAAA03"/>
<path d="M7.57274 13.8908H15.1364C15.3546 13.8908 15.5 13.7454 15.5 13.5272C15.5 13.309 15.3546 13.1636 15.1364 13.1636H7.57274C7.35456 13.1636 7.20911 13.309 7.20911 13.5272C7.20911 13.7454 7.39092 13.8908 7.57274 13.8908Z" fill="#BAAA03"/>
<path d="M7.20911 15.8544C7.20911 16.0725 7.35456 16.218 7.57274 16.218H16.3C16.5182 16.218 16.6637 16.0725 16.6637 15.8544C16.6637 15.6362 16.5182 15.4907 16.3 15.4907H7.57274C7.39092 15.4907 7.20911 15.6362 7.20911 15.8544Z" fill="#BAAA03"/>
<path d="M16.3364 17.7817H7.60912C7.39094 17.7817 7.24548 17.9272 7.24548 18.1454C7.24548 18.3636 7.39094 18.509 7.60912 18.509H16.3364C16.5546 18.509 16.7 18.3636 16.7 18.1454C16.7 17.9272 16.5182 17.7817 16.3364 17.7817Z" fill="#BAAA03"/>
<path d="M15.1 20.1089H7.57274C7.35456 20.1089 7.20911 20.2543 7.20911 20.4725C7.20911 20.6907 7.35456 20.8362 7.57274 20.8362H15.1C15.3182 20.8362 15.4637 20.6907 15.4637 20.4725C15.4637 20.2543 15.3182 20.1089 15.1 20.1089Z" fill="#BAAA03"/>
</svg>
