<svg width="25" height="24" viewBox="0 0 25 24" fill="none" xmlns="http://www.w3.org/2000/svg">
<path d="M10.0908 6.89243H15.5745C15.7557 6.89243 15.9027 6.74548 15.9027 6.56422C15.9027 5.28837 15.1204 4.19206 14.0104 3.72898C14.4287 3.38684 14.6962 2.86695 14.6962 2.28565C14.6962 1.25768 13.8599 0.421387 12.832 0.421387C11.804 0.421387 10.9677 1.25768 10.9677 2.28565C10.9677 2.86704 11.2353 3.38693 11.6537 3.72907C10.5444 4.19225 9.76254 5.28847 9.76254 6.56417C9.76254 6.74543 9.9095 6.89239 10.0908 6.89239L10.0908 6.89243ZM11.6242 2.2857C11.6242 1.6197 12.166 1.07787 12.832 1.07787C13.498 1.07787 14.0398 1.6197 14.0398 2.2857C14.0398 2.9517 13.498 3.49353 12.832 3.49353C12.166 3.49353 11.6242 2.9517 11.6242 2.2857ZM12.832 4.14997C14.0519 4.14997 15.0634 5.05948 15.2241 6.23604H10.4412C10.6018 5.05948 11.6127 4.14997 12.832 4.14997ZM5.93032 19.0228C6.34859 18.6807 6.61615 18.1608 6.61615 17.5795C6.61615 16.5515 5.77986 15.7152 4.75189 15.7152C3.72392 15.7152 2.88762 16.5515 2.88762 17.5795C2.88762 18.1608 3.15518 18.6806 3.57345 19.0228C2.46345 19.4859 1.68115 20.5822 1.68115 21.858C1.68115 22.0393 1.82811 22.1862 2.00937 22.1862H7.4944C7.67567 22.1862 7.82262 22.0393 7.82262 21.858C7.82262 20.5822 7.04032 19.4859 5.93032 19.0228ZM3.54411 17.5795C3.54411 16.9135 4.08593 16.3716 4.75193 16.3716C5.41793 16.3716 5.95976 16.9135 5.95976 17.5795C5.95976 18.2455 5.41793 18.7873 4.75193 18.7873C4.08593 18.7873 3.54411 18.2455 3.54411 17.5795ZM2.35981 21.5298C2.52045 20.3532 3.53197 19.4437 4.75189 19.4437C5.97181 19.4437 6.98332 20.3532 7.14396 21.5298H2.35981ZM22.093 19.0292C22.5114 18.6868 22.779 18.1665 22.779 17.5848C22.779 16.5568 21.9427 15.7205 20.9147 15.7205C19.8867 15.7205 19.0504 16.5568 19.0504 17.5848C19.0504 18.1666 19.3182 18.687 19.7366 19.0294C18.6272 19.4923 17.8452 20.5881 17.8452 21.8633C17.8452 22.0446 17.9922 22.1915 18.1735 22.1915H23.6572C23.8384 22.1915 23.9854 22.0446 23.9854 21.8633C23.9854 20.588 23.203 19.4921 22.0929 19.0292H22.093ZM19.7069 17.5848C19.7069 16.9188 20.2488 16.3769 20.9148 16.3769C21.5808 16.3769 22.1226 16.9188 22.1226 17.5848C22.1226 18.2508 21.5808 18.7939 20.9148 18.7939C20.2488 18.7939 19.7069 18.2515 19.7069 17.5848ZM18.5239 21.5351C18.6845 20.3592 19.6954 19.4503 20.9148 19.4503C22.1341 19.4503 23.1462 20.3592 23.3068 21.5351H18.5239ZM16.5774 5.48422C16.6565 5.32118 16.8528 5.25303 17.0159 5.33206C18.6152 6.10742 19.9677 7.31037 20.927 8.81089C21.9126 10.3524 22.4336 12.1389 22.4336 13.9773C22.4336 14.2835 22.4187 14.5961 22.3896 14.9062C22.3736 15.0762 22.2306 15.2037 22.0632 15.2037C22.0529 15.2037 22.0426 15.2032 22.0321 15.2022C21.8516 15.1853 21.7191 15.0252 21.7361 14.8447C21.7633 14.555 21.7772 14.2632 21.7772 13.9773C21.7772 10.5708 19.7959 7.40923 16.7296 5.92273C16.5665 5.84365 16.4983 5.64734 16.5774 5.48426L16.5774 5.48422ZM17.2606 16.3837C17.4301 16.0725 17.566 15.7449 17.6661 15.4059L18.4103 15.2176C18.8029 15.119 19.0771 14.7674 19.0771 14.3625V13.5919C19.0771 13.1884 18.8036 12.8364 18.4104 12.7355L17.6661 12.5483C17.5661 12.2089 17.4302 11.8809 17.2606 11.5693L17.6541 10.9099C17.8621 10.5612 17.8069 10.1187 17.5212 9.83525L16.9759 9.28854C16.6898 9.00251 16.2471 8.94762 15.8993 9.15504L15.2398 9.54861C14.9284 9.37906 14.6004 9.24317 14.2609 9.14309L14.0734 8.39736C13.9728 8.00572 13.6208 7.73215 13.2173 7.73215H12.4467C12.0418 7.73215 11.6902 8.00637 11.5917 8.39848L11.4033 9.14323C11.0642 9.2434 10.7367 9.3792 10.4254 9.54865L9.76596 9.15509C9.41825 8.94767 8.97561 9.00256 8.68948 9.28864L8.14554 9.83389C7.85717 10.1201 7.80218 10.5631 8.01096 10.9097L8.40354 11.5692C8.23386 11.8808 8.09792 12.2089 7.99784 12.5485L7.25384 12.7358C6.85573 12.8375 6.58826 13.1815 6.58826 13.592V14.3626C6.58826 14.768 6.86262 15.1197 7.25445 15.2176L7.99789 15.4059C8.0981 15.745 8.23395 16.0727 8.4035 16.3841L8.01186 17.0421C7.8027 17.3894 7.85731 17.8325 8.14465 18.1198L8.68943 18.6646C8.97593 18.9511 9.41876 19.0066 9.76606 18.7994L10.4254 18.4059C10.7367 18.5753 11.0643 18.7112 11.4034 18.8113L11.5914 19.5538C11.6896 19.9467 12.0413 20.221 12.4467 20.221H13.2173C13.6278 20.221 13.9718 19.9535 14.0737 19.5544L14.2608 18.8114C14.6004 18.7112 14.9284 18.5754 15.2398 18.4058L15.8993 18.7994C16.2467 19.0066 16.6893 18.9511 16.9759 18.6646L17.5207 18.1198C17.8067 17.8337 17.8616 17.3911 17.6541 17.0432L17.2606 16.3838L17.2606 16.3837ZM16.5988 16.5557L17.0905 17.3795C17.1454 17.4717 17.1321 17.58 17.0565 17.6556L16.5117 18.2004C16.4357 18.2765 16.3272 18.2902 16.2357 18.2357L15.4118 17.744C15.3082 17.6823 15.1791 17.6823 15.0754 17.744C14.7115 17.9612 14.319 18.1238 13.909 18.2272C13.7919 18.2568 13.7006 18.3482 13.671 18.4653L13.4374 19.3931C13.4109 19.4973 13.3245 19.5646 13.2174 19.5646H12.4467C12.3398 19.5646 12.2541 19.4979 12.228 19.3937L11.9928 18.4649C11.9632 18.3481 11.872 18.2569 11.7552 18.2273C11.3457 18.1237 10.9536 17.9611 10.5898 17.7441C10.5381 17.7132 10.4799 17.6977 10.4217 17.6977C10.3635 17.6977 10.3053 17.7132 10.2535 17.7441L9.42982 18.2357C9.338 18.2904 9.22967 18.2765 9.15359 18.2004L8.60881 17.6556C8.53292 17.5797 8.51932 17.4718 8.57506 17.3793L9.06537 16.5554C9.12696 16.4519 9.12692 16.3229 9.06523 16.2194C8.8481 15.8555 8.6855 15.4634 8.582 15.0541C8.55242 14.9373 8.4612 14.846 8.34439 14.8165L7.41462 14.581C7.3114 14.5552 7.2447 14.4695 7.2447 14.3626V13.592C7.2447 13.4849 7.31201 13.3984 7.41518 13.3722L8.34396 13.1383C8.46106 13.1088 8.55251 13.0174 8.58204 12.9003C8.68536 12.4905 8.84796 12.0981 9.06523 11.7338C9.12692 11.6303 9.12696 11.5014 9.06537 11.3978L8.57417 10.5725C8.51937 10.4816 8.53264 10.3745 8.60937 10.2984L9.15359 9.75284C9.2291 9.67728 9.33753 9.66392 9.42968 9.71886L10.2535 10.2105C10.3571 10.2723 10.4862 10.2723 10.5898 10.2105C10.9537 9.9934 11.3457 9.83084 11.7551 9.72729C11.872 9.69772 11.9632 9.60645 11.9928 9.48959L12.2281 8.55893C12.2538 8.45703 12.3416 8.38859 12.4467 8.38859H13.2173C13.3243 8.38859 13.4107 8.45604 13.4371 8.55898L13.671 9.48912C13.7004 9.60631 13.7919 9.69781 13.909 9.72734C14.319 9.83075 14.7114 9.99326 15.0754 10.2105C15.179 10.2723 15.3082 10.2723 15.4118 10.2105L16.2356 9.71886C16.3277 9.66397 16.4361 9.67718 16.5117 9.75284L17.0574 10.2998C17.1323 10.3742 17.1453 10.4817 17.0904 10.5737L16.5988 11.3975C16.537 11.5011 16.537 11.6302 16.5988 11.7338C16.8161 12.098 16.9786 12.4905 17.082 12.9003C17.1115 13.0174 17.203 13.1089 17.3202 13.1383L18.2488 13.3718C18.3532 13.3985 18.4207 13.485 18.4207 13.592V14.3626C18.4207 14.4677 18.3522 14.5555 18.2499 14.5812L17.3197 14.8165C17.2029 14.846 17.1116 14.9373 17.082 15.0542C16.9785 15.4635 16.8159 15.8555 16.5988 16.2195C16.537 16.3231 16.537 16.4522 16.5988 16.5558L16.5988 16.5557ZM3.27598 14.9078C3.24579 14.6037 3.23051 14.2906 3.23051 13.9772C3.23051 12.1397 3.75139 10.3538 4.73684 8.81248C5.69586 7.31257 7.04787 6.10953 8.64664 5.33342C8.80962 5.25434 9.00603 5.32226 9.0852 5.48534C9.16432 5.64842 9.09631 5.84478 8.93328 5.9239C5.82059 7.43487 3.88695 10.5207 3.88695 13.9772C3.88695 14.269 3.90115 14.5602 3.92918 14.843C3.94704 15.0234 3.81532 15.1841 3.635 15.202C3.62398 15.203 3.61301 15.2036 3.60223 15.2036C3.4355 15.2036 3.29276 15.0772 3.27598 14.9077V14.9078ZM14.7707 11.3795H10.8934C10.53 11.3795 10.2343 11.6752 10.2343 12.0386V15.9159C10.2343 16.2792 10.53 16.5749 10.8934 16.5749H14.7707C15.134 16.5749 15.4297 16.2792 15.4297 15.9159V12.0386C15.4297 11.6752 15.134 11.3795 14.7707 11.3795ZM12.4201 12.0359H13.2439V12.8597H12.4201V12.0359ZM14.7707 15.9185L10.8908 15.9158L10.8934 12.0359H11.7637V13.0803C11.7637 13.3206 11.9592 13.5162 12.1996 13.5162H13.4645C13.7049 13.5162 13.9004 13.3206 13.9004 13.0803V12.0359H14.7707L14.7733 12.0386L14.7707 15.9185V15.9185ZM17.0623 22.2382C17.1392 22.4023 17.0686 22.5977 16.9044 22.6747C15.6249 23.2745 14.2547 23.5787 12.8321 23.5787C11.4094 23.5787 10.042 23.2746 8.76111 22.6747C8.59695 22.5979 8.52621 22.4024 8.60309 22.2383C8.67997 22.0742 8.87515 22.0034 9.03954 22.0803C10.2327 22.639 11.5086 22.9223 12.8321 22.9223C14.1555 22.9223 15.4341 22.639 16.6258 22.0803C16.79 22.0034 16.9854 22.0741 17.0623 22.2382H17.0623Z" fill="#34C759"/>
</svg>
