<svg width="25" height="24" viewBox="0 0 25 24" fill="none" xmlns="http://www.w3.org/2000/svg">
<path d="M9.42418 6.89243H14.9079C15.0891 6.89243 15.2361 6.74548 15.2361 6.56422C15.2361 5.28837 14.4538 4.19206 13.3438 3.72898C13.762 3.38684 14.0296 2.86695 14.0296 2.28565C14.0296 1.25768 13.1933 0.421387 12.1653 0.421387C11.1374 0.421387 10.3011 1.25768 10.3011 2.28565C10.3011 2.86704 10.5687 3.38693 10.9871 3.72907C9.87774 4.19225 9.09592 5.28847 9.09592 6.56417C9.09592 6.74543 9.24287 6.89239 9.42414 6.89239L9.42418 6.89243ZM10.9576 2.2857C10.9576 1.6197 11.4994 1.07787 12.1654 1.07787C12.8314 1.07787 13.3732 1.6197 13.3732 2.2857C13.3732 2.9517 12.8314 3.49353 12.1654 3.49353C11.4994 3.49353 10.9576 2.9517 10.9576 2.2857ZM12.1654 4.14997C13.3853 4.14997 14.3968 5.05948 14.5575 6.23604H9.77462C9.93517 5.05948 10.9461 4.14997 12.1654 4.14997ZM5.2637 19.0228C5.68196 18.6807 5.94953 18.1608 5.94953 17.5795C5.94953 16.5515 5.11323 15.7152 4.08526 15.7152C3.05729 15.7152 2.221 16.5515 2.221 17.5795C2.221 18.1608 2.48856 18.6806 2.90682 19.0228C1.79682 19.4859 1.01453 20.5822 1.01453 21.858C1.01453 22.0393 1.16148 22.1862 1.34275 22.1862H6.82778C7.00904 22.1862 7.15599 22.0393 7.15599 21.858C7.15599 20.5822 6.3737 19.4859 5.2637 19.0228ZM2.87748 17.5795C2.87748 16.9135 3.41931 16.3716 4.08531 16.3716C4.75131 16.3716 5.29314 16.9135 5.29314 17.5795C5.29314 18.2455 4.75131 18.7873 4.08531 18.7873C3.41931 18.7873 2.87748 18.2455 2.87748 17.5795ZM1.69318 21.5298C1.85382 20.3532 2.86534 19.4437 4.08526 19.4437C5.30518 19.4437 6.3167 20.3532 6.47734 21.5298H1.69318ZM21.4263 19.0292C21.8447 18.6868 22.1124 18.1665 22.1124 17.5848C22.1124 16.5568 21.2761 15.7205 20.2481 15.7205C19.2201 15.7205 18.3838 16.5568 18.3838 17.5848C18.3838 18.1666 18.6515 18.687 19.07 19.0294C17.9605 19.4923 17.1786 20.5881 17.1786 21.8633C17.1786 22.0446 17.3256 22.1915 17.5068 22.1915H22.9906C23.1718 22.1915 23.3188 22.0446 23.3188 21.8633C23.3188 20.588 22.5364 19.4921 21.4263 19.0292H21.4263ZM19.0403 17.5848C19.0403 16.9188 19.5821 16.3769 20.2481 16.3769C20.9141 16.3769 21.456 16.9188 21.456 17.5848C21.456 18.2508 20.9141 18.7939 20.2481 18.7939C19.5821 18.7939 19.0403 18.2515 19.0403 17.5848ZM17.8573 21.5351C18.0179 20.3592 19.0288 19.4503 20.2481 19.4503C21.4674 19.4503 22.4796 20.3592 22.6402 21.5351H17.8573ZM15.9107 5.48422C15.9899 5.32118 16.1861 5.25303 16.3493 5.33206C17.9486 6.10742 19.3011 7.31037 20.2604 8.81089C21.246 10.3524 21.7669 12.1389 21.7669 13.9773C21.7669 14.2835 21.7521 14.5961 21.723 14.9062C21.707 15.0762 21.564 15.2037 21.3966 15.2037C21.3863 15.2037 21.3759 15.2032 21.3654 15.2022C21.185 15.1853 21.0525 15.0252 21.0695 14.8447C21.0967 14.555 21.1105 14.2632 21.1105 13.9773C21.1105 10.5708 19.1292 7.40923 16.0629 5.92273C15.8999 5.84365 15.8317 5.64734 15.9108 5.48426L15.9107 5.48422ZM16.594 16.3837C16.7634 16.0725 16.8993 15.7449 16.9995 15.4059L17.7437 15.2176C18.1363 15.119 18.4105 14.7674 18.4105 14.3625V13.5919C18.4105 13.1884 18.137 12.8364 17.7437 12.7355L16.9995 12.5483C16.8994 12.2089 16.7636 11.8809 16.5939 11.5693L16.9875 10.9099C17.1955 10.5612 17.1402 10.1187 16.8546 9.83525L16.3093 9.28854C16.0232 9.00251 15.5805 8.94762 15.2327 9.15504L14.5732 9.54861C14.2617 9.37906 13.9338 9.24317 13.5942 9.14309L13.4067 8.39736C13.3062 8.00572 12.9542 7.73215 12.5507 7.73215H11.78C11.3752 7.73215 11.0236 8.00637 10.925 8.39848L10.7367 9.14323C10.3976 9.2434 10.07 9.3792 9.75882 9.54865L9.09934 9.15509C8.75162 8.94767 8.30898 9.00256 8.02285 9.28864L7.47892 9.83389C7.19054 10.1201 7.13556 10.5631 7.34434 10.9097L7.73692 11.5692C7.56723 11.8808 7.43129 12.2089 7.33121 12.5485L6.58721 12.7358C6.1891 12.8375 5.92164 13.1815 5.92164 13.592V14.3626C5.92164 14.768 6.19599 15.1197 6.58782 15.2176L7.33126 15.4059C7.43148 15.745 7.56732 16.0727 7.73687 16.3841L7.34523 17.0421C7.13607 17.3894 7.19068 17.8325 7.47803 18.1198L8.02281 18.6646C8.30931 18.9511 8.75214 19.0066 9.09943 18.7994L9.75882 18.4059C10.0701 18.5753 10.3976 18.7112 10.7368 18.8113L10.9248 19.5538C11.023 19.9467 11.3747 20.221 11.78 20.221H12.5507C12.9611 20.221 13.3052 19.9535 13.4071 19.5544L13.5941 18.8114C13.9338 18.7112 14.2617 18.5754 14.5732 18.4058L15.2327 18.7994C15.58 19.0066 16.0227 18.9511 16.3093 18.6646L16.8541 18.1198C17.1401 17.8337 17.1949 17.3911 16.9875 17.0432L16.5939 16.3838L16.594 16.3837ZM15.9322 16.5557L16.4238 17.3795C16.4788 17.4717 16.4655 17.58 16.3899 17.6556L15.8451 18.2004C15.769 18.2765 15.6605 18.2902 15.569 18.2357L14.7452 17.744C14.6416 17.6823 14.5125 17.6823 14.4088 17.744C14.0448 17.9612 13.6524 18.1238 13.2424 18.2272C13.1253 18.2568 13.0339 18.3482 13.0044 18.4653L12.7708 19.3931C12.7442 19.4973 12.6579 19.5646 12.5507 19.5646H11.7801C11.6732 19.5646 11.5875 19.4979 11.5614 19.3937L11.3262 18.4649C11.2966 18.3481 11.2054 18.2569 11.0886 18.2273C10.6791 18.1237 10.287 17.9611 9.92321 17.7441C9.87146 17.7132 9.81324 17.6977 9.75507 17.6977C9.6969 17.6977 9.63868 17.7132 9.58689 17.7441L8.7632 18.2357C8.67137 18.2904 8.56304 18.2765 8.48696 18.2004L7.94218 17.6556C7.86629 17.5797 7.8527 17.4718 7.90843 17.3793L8.39875 16.5554C8.46034 16.4519 8.46029 16.3229 8.3986 16.2194C8.18148 15.8555 8.01887 15.4634 7.91537 15.0541C7.88579 14.9373 7.79457 14.846 7.67776 14.8165L6.748 14.581C6.64478 14.5552 6.57807 14.4695 6.57807 14.3626V13.592C6.57807 13.4849 6.64539 13.3984 6.74856 13.3722L7.67734 13.1383C7.79443 13.1088 7.88589 13.0174 7.91542 12.9003C8.01873 12.4905 8.18134 12.0981 8.3986 11.7338C8.46029 11.6303 8.46034 11.5014 8.39875 11.3978L7.90754 10.5725C7.85275 10.4816 7.86601 10.3745 7.94275 10.2984L8.48696 9.75284C8.56248 9.67728 8.6709 9.66392 8.76306 9.71886L9.58684 10.2105C9.69048 10.2723 9.81962 10.2723 9.92317 10.2105C10.2871 9.9934 10.6791 9.83084 11.0885 9.72729C11.2054 9.69772 11.2966 9.60645 11.3262 9.48959L11.5615 8.55893C11.5871 8.45703 11.6749 8.38859 11.78 8.38859H12.5507C12.6577 8.38859 12.7441 8.45604 12.7705 8.55898L13.0044 9.48912C13.0338 9.60631 13.1252 9.69781 13.2424 9.72734C13.6524 9.83075 14.0448 9.99326 14.4088 10.2105C14.5124 10.2723 14.6416 10.2723 14.7452 10.2105L15.5689 9.71886C15.661 9.66397 15.7695 9.67718 15.8451 9.75284L16.3907 10.2998C16.4657 10.3742 16.4786 10.4817 16.4238 10.5737L15.9322 11.3975C15.8704 11.5011 15.8704 11.6302 15.9322 11.7338C16.1494 12.098 16.312 12.4905 16.4154 12.9003C16.4449 13.0174 16.5364 13.1089 16.6536 13.1383L17.5822 13.3718C17.6866 13.3985 17.7541 13.485 17.7541 13.592V14.3626C17.7541 14.4677 17.6856 14.5555 17.5832 14.5812L16.6531 14.8165C16.5362 14.846 16.445 14.9373 16.4154 15.0542C16.3119 15.4635 16.1493 15.8555 15.9322 16.2195C15.8704 16.3231 15.8704 16.4522 15.9322 16.5558L15.9322 16.5557ZM2.60935 14.9078C2.57917 14.6037 2.56389 14.2906 2.56389 13.9772C2.56389 12.1397 3.08476 10.3538 4.07021 8.81248C5.02923 7.31257 6.38125 6.10953 7.98001 5.33342C8.143 5.25434 8.3394 5.32226 8.41857 5.48534C8.4977 5.64842 8.42968 5.84478 8.26665 5.9239C5.15396 7.43487 3.22032 10.5207 3.22032 13.9772C3.22032 14.269 3.23453 14.5602 3.26256 14.843C3.28042 15.0234 3.1487 15.1841 2.96837 15.202C2.95735 15.203 2.94639 15.2036 2.9356 15.2036C2.76887 15.2036 2.62614 15.0772 2.60935 14.9077V14.9078ZM14.104 11.3795H10.2268C9.86335 11.3795 9.56767 11.6752 9.56767 12.0386V15.9159C9.56767 16.2792 9.86335 16.5749 10.2268 16.5749H14.104C14.4674 16.5749 14.7631 16.2792 14.7631 15.9159V12.0386C14.7631 11.6752 14.4674 11.3795 14.104 11.3795ZM11.7535 12.0359H12.5773V12.8597H11.7535V12.0359ZM14.104 15.9185L10.2242 15.9158L10.2268 12.0359H11.0971V13.0803C11.0971 13.3206 11.2926 13.5162 11.5329 13.5162H12.7979C13.0382 13.5162 13.2338 13.3206 13.2338 13.0803V12.0359H14.104L14.1067 12.0386L14.104 15.9185V15.9185ZM16.3957 22.2382C16.4726 22.4023 16.4019 22.5977 16.2378 22.6747C14.9582 23.2745 13.5881 23.5787 12.1654 23.5787C10.7428 23.5787 9.37539 23.2746 8.09448 22.6747C7.93032 22.5979 7.85959 22.4024 7.93646 22.2383C8.01334 22.0742 8.20853 22.0034 8.37292 22.0803C9.56603 22.639 10.842 22.9223 12.1654 22.9223C13.4889 22.9223 14.7675 22.639 15.9592 22.0803C16.1234 22.0034 16.3187 22.0741 16.3957 22.2382H16.3957Z" fill="#DD2222"/>
</svg>
