<svg width="20" height="21" viewBox="0 0 20 21" fill="none" xmlns="http://www.w3.org/2000/svg">
<path d="M9.16663 11.3334H4.99996C4.76385 11.3334 4.56607 11.2534 4.40663 11.0934C4.24718 10.9334 4.16718 10.7356 4.16663 10.5001C4.16607 10.2645 4.24607 10.0668 4.40663 9.90675C4.56718 9.74675 4.76496 9.66675 4.99996 9.66675H9.16663V5.50008C9.16663 5.26397 9.24663 5.0662 9.40663 4.90675C9.56663 4.74731 9.76441 4.66731 9.99996 4.66675C10.2355 4.6662 10.4336 4.7462 10.5941 4.90675C10.7547 5.06731 10.8344 5.26508 10.8333 5.50008V9.66675H15C15.2361 9.66675 15.4341 9.74675 15.5941 9.90675C15.7541 10.0668 15.8339 10.2645 15.8333 10.5001C15.8327 10.7356 15.7527 10.9337 15.5933 11.0943C15.4339 11.2548 15.2361 11.3345 15 11.3334H10.8333V15.5001C10.8333 15.7362 10.7533 15.9343 10.5933 16.0943C10.4333 16.2543 10.2355 16.334 9.99996 16.3334C9.76441 16.3329 9.56663 16.2529 9.40663 16.0934C9.24663 15.934 9.16663 15.7362 9.16663 15.5001V11.3334Z" fill="white"/>
</svg>
