<svg width="17" height="17" viewBox="0 0 17 17" fill="none" xmlns="http://www.w3.org/2000/svg">
<path d="M6.30671 5.64001L7.83337 4.10668V10.5C7.83337 10.6768 7.90361 10.8464 8.02864 10.9714C8.15366 11.0964 8.32323 11.1667 8.50004 11.1667C8.67685 11.1667 8.84642 11.0964 8.97145 10.9714C9.09647 10.8464 9.16671 10.6768 9.16671 10.5V4.10668L10.6934 5.64001C10.7553 5.7025 10.8291 5.75209 10.9103 5.78594C10.9916 5.81979 11.0787 5.83721 11.1667 5.83721C11.2547 5.83721 11.3419 5.81979 11.4231 5.78594C11.5043 5.75209 11.5781 5.7025 11.64 5.64001C11.7025 5.57804 11.7521 5.5043 11.786 5.42306C11.8198 5.34182 11.8372 5.25469 11.8372 5.16668C11.8372 5.07867 11.8198 4.99153 11.786 4.91029C11.7521 4.82906 11.7025 4.75532 11.64 4.69335L8.97337 2.02668C8.90997 1.96599 8.83521 1.91841 8.75337 1.88668C8.59107 1.82 8.40902 1.82 8.24671 1.88668C8.16487 1.91841 8.09011 1.96599 8.02671 2.02668L5.36004 4.69335C5.29788 4.7555 5.24857 4.8293 5.21493 4.91051C5.18129 4.99173 5.16398 5.07877 5.16398 5.16668C5.16398 5.25459 5.18129 5.34163 5.21493 5.42285C5.24857 5.50406 5.29788 5.57785 5.36004 5.64001C5.4222 5.70217 5.49599 5.75148 5.57721 5.78512C5.65842 5.81876 5.74547 5.83607 5.83337 5.83607C5.92128 5.83607 6.00833 5.81876 6.08954 5.78512C6.17076 5.75148 6.24455 5.70217 6.30671 5.64001ZM14.5 9.83335C14.3232 9.83335 14.1537 9.90358 14.0286 10.0286C13.9036 10.1536 13.8334 10.3232 13.8334 10.5V13.1667C13.8334 13.3435 13.7631 13.5131 13.6381 13.6381C13.5131 13.7631 13.3435 13.8333 13.1667 13.8333H3.83337C3.65656 13.8333 3.48699 13.7631 3.36197 13.6381C3.23695 13.5131 3.16671 13.3435 3.16671 13.1667V10.5C3.16671 10.3232 3.09647 10.1536 2.97145 10.0286C2.84642 9.90358 2.67685 9.83335 2.50004 9.83335C2.32323 9.83335 2.15366 9.90358 2.02864 10.0286C1.90361 10.1536 1.83337 10.3232 1.83337 10.5V13.1667C1.83337 13.6971 2.04409 14.2058 2.41916 14.5809C2.79423 14.956 3.30294 15.1667 3.83337 15.1667H13.1667C13.6971 15.1667 14.2058 14.956 14.5809 14.5809C14.956 14.2058 15.1667 13.6971 15.1667 13.1667V10.5C15.1667 10.3232 15.0965 10.1536 14.9714 10.0286C14.8464 9.90358 14.6769 9.83335 14.5 9.83335Z" fill="#383838" fill-opacity="0.6"/>
</svg>
