<svg width="25" height="24" viewBox="0 0 25 24" fill="none" xmlns="http://www.w3.org/2000/svg">
<path d="M3.66699 12H12.667V13.5H3.66699V12ZM2.16699 8.25H9.66699V9.75H2.16699V8.25Z" fill="#FFCC00"/>
<path d="M23.1062 12.4545L20.8562 7.2045C20.7984 7.06962 20.7023 6.95466 20.5798 6.87387C20.4573 6.79309 20.3138 6.75002 20.167 6.75H17.917V5.25C17.917 5.05109 17.838 4.86032 17.6973 4.71967C17.5567 4.57902 17.3659 4.5 17.167 4.5H5.167V6H16.417V15.417C16.0755 15.6157 15.7765 15.8799 15.5374 16.1945C15.2983 16.509 15.1236 16.8678 15.0235 17.25H10.3105C10.128 16.543 9.69383 15.9269 9.08949 15.517C8.48516 15.1072 7.75211 14.9319 7.02775 15.0239C6.30339 15.1159 5.63745 15.4689 5.15476 16.0168C4.67207 16.5647 4.40576 17.2698 4.40576 18C4.40576 18.7302 4.67207 19.4353 5.15476 19.9832C5.63745 20.5311 6.30339 20.8841 7.02775 20.9761C7.75211 21.0681 8.48516 20.8928 9.08949 20.483C9.69383 20.0731 10.128 19.457 10.3105 18.75H15.0235C15.1867 19.3937 15.5598 19.9646 16.0838 20.3724C16.6079 20.7802 17.253 21.0016 17.917 21.0016C18.581 21.0016 19.2261 20.7802 19.7502 20.3724C20.2742 19.9646 20.6473 19.3937 20.8105 18.75H22.417C22.6159 18.75 22.8067 18.671 22.9473 18.5303C23.088 18.3897 23.167 18.1989 23.167 18V12.75C23.167 12.6484 23.1463 12.5479 23.1062 12.4545ZM7.417 19.5C7.12033 19.5 6.83032 19.412 6.58364 19.2472C6.33697 19.0824 6.14471 18.8481 6.03118 18.574C5.91765 18.2999 5.88794 17.9983 5.94582 17.7074C6.0037 17.4164 6.14656 17.1491 6.35634 16.9393C6.56612 16.7296 6.83339 16.5867 7.12436 16.5288C7.41534 16.4709 7.71693 16.5006 7.99102 16.6142C8.26511 16.7277 8.49938 16.92 8.6642 17.1666C8.82903 17.4133 8.917 17.7033 8.917 18C8.917 18.3978 8.75896 18.7794 8.47766 19.0607C8.19635 19.342 7.81482 19.5 7.417 19.5ZM17.917 8.25H19.672L21.28 12H17.917V8.25ZM17.917 19.5C17.6203 19.5 17.3303 19.412 17.0836 19.2472C16.837 19.0824 16.6447 18.8481 16.5312 18.574C16.4176 18.2999 16.3879 17.9983 16.4458 17.7074C16.5037 17.4164 16.6466 17.1491 16.8563 16.9393C17.0661 16.7296 17.3334 16.5867 17.6244 16.5288C17.9153 16.4709 18.2169 16.5006 18.491 16.6142C18.7651 16.7277 18.9994 16.92 19.1642 17.1666C19.329 17.4133 19.417 17.7033 19.417 18C19.417 18.3978 19.259 18.7794 18.9777 19.0607C18.6964 19.342 18.3148 19.5 17.917 19.5ZM21.667 17.25H20.8105C20.6453 16.6076 20.2716 16.0381 19.7479 15.6309C19.2243 15.2238 18.5803 15.0018 17.917 15V13.5H21.667V17.25Z" fill="#FFCC00"/>
</svg>
