<svg width="24" height="24" viewBox="0 0 24 24" fill="none" xmlns="http://www.w3.org/2000/svg">
<g clip-path="url(#clip0_365_2705)">
<path d="M9.25731 6.89231H14.741C14.9222 6.89231 15.0692 6.74536 15.0692 6.56409C15.0692 5.28825 14.2869 4.19194 13.1769 3.72886C13.5952 3.38672 13.8627 2.86683 13.8627 2.28553C13.8627 1.25756 13.0264 0.421265 11.9985 0.421265C10.9705 0.421265 10.1342 1.25756 10.1342 2.28553C10.1342 2.86692 10.4018 3.38681 10.8202 3.72895C9.71087 4.19212 8.92905 5.28834 8.92905 6.56405C8.92905 6.74531 9.076 6.89227 9.25727 6.89227L9.25731 6.89231ZM10.7907 2.28558C10.7907 1.61958 11.3325 1.07775 11.9985 1.07775C12.6645 1.07775 13.2063 1.61958 13.2063 2.28558C13.2063 2.95158 12.6645 3.49341 11.9985 3.49341C11.3325 3.49341 10.7907 2.95158 10.7907 2.28558ZM11.9985 4.14984C13.2184 4.14984 14.23 5.05936 14.3906 6.23592H9.60775C9.7683 5.05936 10.7793 4.14984 11.9985 4.14984ZM5.09683 19.0227C5.51509 18.6805 5.78266 18.1606 5.78266 17.5793C5.78266 16.5514 4.94636 15.7151 3.91839 15.7151C2.89042 15.7151 2.05413 16.5514 2.05413 17.5793C2.05413 18.1606 2.32169 18.6805 2.73995 19.0227C1.62995 19.4858 0.847656 20.5821 0.847656 21.8579C0.847656 22.0392 0.994609 22.1861 1.17588 22.1861H6.66091C6.84217 22.1861 6.98912 22.0392 6.98912 21.8579C6.98912 20.5821 6.20683 19.4858 5.09683 19.0227ZM2.71061 17.5793C2.71061 16.9133 3.25244 16.3715 3.91844 16.3715C4.58444 16.3715 5.12627 16.9133 5.12627 17.5793C5.12627 18.2453 4.58444 18.7872 3.91844 18.7872C3.25244 18.7872 2.71061 18.2453 2.71061 17.5793ZM1.52631 21.5296C1.68695 20.3531 2.69847 19.4436 3.91839 19.4436C5.13831 19.4436 6.14983 20.3531 6.31047 21.5296H1.52631ZM21.2595 19.0291C21.6779 18.6867 21.9455 18.1664 21.9455 17.5846C21.9455 16.5567 21.1092 15.7204 20.0812 15.7204C19.0533 15.7204 18.217 16.5567 18.217 17.5846C18.217 18.1665 18.4847 18.6869 18.9031 19.0292C17.7937 19.4922 17.0117 20.588 17.0117 21.8632C17.0117 22.0445 17.1587 22.1914 17.34 22.1914H22.8237C23.005 22.1914 23.1519 22.0445 23.1519 21.8632C23.1519 20.5878 22.3695 19.4919 21.2594 19.0291H21.2595ZM18.8734 17.5846C18.8734 16.9186 19.4153 16.3768 20.0813 16.3768C20.7473 16.3768 21.2891 16.9186 21.2891 17.5846C21.2891 18.2506 20.7473 18.7938 20.0813 18.7938C19.4153 18.7938 18.8734 18.2514 18.8734 17.5846ZM17.6905 21.535C17.851 20.3591 18.862 19.4502 20.0813 19.4502C21.3006 19.4502 22.3127 20.3591 22.4733 21.535H17.6905ZM15.7439 5.48409C15.823 5.32106 16.0193 5.25291 16.1824 5.33194C17.7817 6.1073 19.1342 7.31025 20.0935 8.81077C21.0791 10.3523 21.6001 12.1388 21.6001 13.9771C21.6001 14.2834 21.5853 14.596 21.5561 14.9061C21.5401 15.0761 21.3971 15.2036 21.2297 15.2036C21.2194 15.2036 21.2091 15.2031 21.1986 15.2021C21.0181 15.1852 20.8856 15.0251 20.9026 14.8446C20.9298 14.5549 20.9437 14.263 20.9437 13.9771C20.9437 10.5707 18.9624 7.40911 15.8961 5.92261C15.733 5.84353 15.6648 5.64722 15.7439 5.48414L15.7439 5.48409ZM16.4271 16.3836C16.5966 16.0724 16.7325 15.7448 16.8326 15.4058L17.5768 15.2175C17.9694 15.1189 18.2436 14.7673 18.2436 14.3624V13.5918C18.2436 13.1883 17.9701 12.8363 17.5769 12.7353L16.8326 12.5482C16.7326 12.2087 16.5967 11.8808 16.4271 11.5692L16.8206 10.9097C17.0286 10.5611 16.9734 10.1186 16.6877 9.83512L16.1424 9.28842C15.8563 9.00239 15.4136 8.9475 15.0658 9.15492L14.4063 9.54848C14.0949 9.37894 13.7669 9.24305 13.4274 9.14297L13.2399 8.39723C13.1393 8.00559 12.7873 7.73203 12.3838 7.73203H11.6132C11.2083 7.73203 10.8567 8.00625 10.7582 8.39836L10.5698 9.14311C10.2307 9.24328 9.90316 9.37908 9.59195 9.54853L8.93247 9.15497C8.58475 8.94755 8.14211 9.00244 7.85598 9.28852L7.31205 9.83377C7.02367 10.1199 6.96869 10.563 7.17747 10.9095L7.57005 11.5691C7.40036 11.8807 7.26442 12.2088 7.16434 12.5484L6.42034 12.7357C6.02223 12.8373 5.75477 13.1814 5.75477 13.5919V14.3625C5.75477 14.7678 6.02912 15.1195 6.42095 15.2175L7.16439 15.4058C7.26461 15.7449 7.40045 16.0726 7.57 16.3839L7.17836 17.042C6.9692 17.3893 7.02381 17.8324 7.31116 18.1197L7.85594 18.6645C8.14244 18.951 8.58527 19.0065 8.93256 18.7993L9.59195 18.4058C9.9032 18.5752 10.2308 18.711 10.5699 18.8112L10.7579 19.5537C10.8561 19.9465 11.2078 20.2209 11.6132 20.2209H12.3838C12.7943 20.2209 13.1383 19.9534 13.2402 19.5542L13.4273 18.8113C13.7669 18.7111 14.0949 18.5753 14.4063 18.4057L15.0658 18.7993C15.4132 19.0065 15.8558 18.951 16.1424 18.6645L16.6872 18.1197C16.9732 17.8336 17.0281 17.391 16.8206 17.0431L16.4271 16.3837L16.4271 16.3836ZM15.7653 16.5556L16.257 17.3794C16.312 17.4715 16.2986 17.5799 16.223 17.6555L15.6782 18.2003C15.6022 18.2764 15.4937 18.2901 15.4022 18.2355L14.5783 17.7439C14.4747 17.6821 14.3456 17.6821 14.242 17.7439C13.878 17.9611 13.4855 18.1237 13.0755 18.2271C12.9584 18.2567 12.8671 18.3481 12.8375 18.4652L12.604 19.3929C12.5774 19.4971 12.491 19.5645 12.3839 19.5645H11.6132C11.5063 19.5645 11.4206 19.4978 11.3945 19.3935L11.1593 18.4648C11.1297 18.348 11.0385 18.2568 10.9217 18.2272C10.5122 18.1236 10.1201 17.961 9.75634 17.744C9.70459 17.7131 9.64637 17.6976 9.5882 17.6976C9.53003 17.6976 9.47181 17.7131 9.42002 17.744L8.59633 18.2355C8.5045 18.2903 8.39617 18.2764 8.32009 18.2003L7.77531 17.6555C7.69942 17.5796 7.68583 17.4717 7.74156 17.3791L8.23187 16.5553C8.29347 16.4518 8.29342 16.3228 8.23173 16.2193C8.01461 15.8553 7.852 15.4633 7.7485 15.054C7.71892 14.9371 7.6277 14.8459 7.51089 14.8163L6.58113 14.5809C6.47791 14.5551 6.4112 14.4694 6.4112 14.3625V13.5919C6.4112 13.4848 6.47852 13.3983 6.58169 13.372L7.51047 13.1382C7.62756 13.1086 7.71902 13.0172 7.74855 12.9001C7.85186 12.4904 8.01447 12.098 8.23173 11.7337C8.29342 11.6302 8.29347 11.5013 8.23187 11.3977L7.74067 10.5724C7.68587 10.4815 7.69914 10.3744 7.77588 10.2983L8.32009 9.75272C8.39561 9.67716 8.50403 9.6638 8.59619 9.71873L9.41997 10.2104C9.52361 10.2721 9.65275 10.2721 9.7563 10.2104C10.1202 9.99328 10.5122 9.83072 10.9216 9.72717C11.0385 9.69759 11.1297 9.60633 11.1593 9.48947L11.3946 8.55881C11.4203 8.45691 11.5081 8.38847 11.6132 8.38847H12.3838C12.4908 8.38847 12.5772 8.45592 12.6036 8.55886L12.8375 9.489C12.8669 9.60619 12.9584 9.69769 13.0755 9.72722C13.4855 9.83063 13.8779 9.99314 14.2419 10.2104C14.3455 10.2721 14.4747 10.2721 14.5783 10.2104L15.4021 9.71873C15.4942 9.66384 15.6026 9.67706 15.6782 9.75272L16.2239 10.2997C16.2988 10.3741 16.3118 10.4816 16.2569 10.5735L15.7653 11.3974C15.7035 11.501 15.7035 11.6301 15.7653 11.7337C15.9826 12.0979 16.1451 12.4904 16.2485 12.9001C16.278 13.0173 16.3695 13.1087 16.4867 13.1382L17.4153 13.3717C17.5197 13.3984 17.5872 13.4849 17.5872 13.5919V14.3625C17.5872 14.4676 17.5187 14.5554 17.4164 14.5811L16.4862 14.8163C16.3694 14.8459 16.2781 14.9371 16.2485 15.054C16.145 15.4634 15.9824 15.8554 15.7653 16.2194C15.7035 16.323 15.7035 16.4521 15.7653 16.5557L15.7653 16.5556ZM2.44248 14.9077C2.4123 14.6036 2.39702 14.2905 2.39702 13.9771C2.39702 12.1396 2.91789 10.3537 3.90334 8.81236C4.86236 7.31245 6.21438 6.10941 7.81314 5.3333C7.97613 5.25422 8.17253 5.32214 8.2517 5.48522C8.33083 5.6483 8.26281 5.84466 8.09978 5.92378C4.98709 7.43475 3.05345 10.5206 3.05345 13.977C3.05345 14.2688 3.06766 14.5601 3.09569 14.8429C3.11355 15.0233 2.98183 15.184 2.8015 15.2019C2.79048 15.2029 2.77952 15.2035 2.76873 15.2035C2.602 15.2035 2.45927 15.0771 2.44248 14.9076V14.9077ZM13.9372 11.3794H10.0599C9.69648 11.3794 9.4008 11.6751 9.4008 12.0385V15.9158C9.4008 16.2791 9.69648 16.5748 10.0599 16.5748H13.9372C14.3005 16.5748 14.5962 16.2791 14.5962 15.9158V12.0385C14.5962 11.6751 14.3005 11.3794 13.9372 11.3794ZM11.5866 12.0358H12.4104V12.8596H11.5866V12.0358ZM13.9372 15.9183L10.0573 15.9157L10.06 12.0358H10.9302V13.0802C10.9302 13.3205 11.1257 13.516 11.3661 13.516H12.631C12.8714 13.516 13.0669 13.3205 13.0669 13.0802V12.0358H13.9372L13.9398 12.0385L13.9372 15.9184V15.9183ZM16.2288 22.2381C16.3057 22.4022 16.2351 22.5976 16.0709 22.6746C14.7914 23.2744 13.4212 23.5786 11.9986 23.5786C10.5759 23.5786 9.20852 23.2745 7.92761 22.6746C7.76345 22.5977 7.69272 22.4023 7.76959 22.2382C7.84647 22.0741 8.04166 22.0033 8.20605 22.0801C9.39916 22.6389 10.6751 22.9222 11.9986 22.9222C13.322 22.9222 14.6006 22.6389 15.7923 22.0802C15.9565 22.0033 16.1519 22.074 16.2288 22.2381H16.2288Z" fill="#383839" fill-opacity="0.6"/>
</g>
<defs>
<clipPath id="clip0_365_2705">
<rect width="24" height="24" fill="white"/>
</clipPath>
</defs>
</svg>
