<svg width="24" height="24" viewBox="0 0 24 24" fill="none" xmlns="http://www.w3.org/2000/svg">
<path d="M3.03094 6.53063H4.39547C4.55062 6.53063 4.67672 6.65672 4.67672 6.81188C4.67672 6.96703 4.55062 7.09313 4.39547 7.09313H3.31219V8.68407H4.90312V7.85157C4.90312 7.69641 5.02922 7.57032 5.18437 7.57032C5.33953 7.57032 5.46562 7.69641 5.46562 7.85157V8.96532C5.46562 9.12047 5.33953 9.24657 5.18437 9.24657H3.03094C2.87578 9.24657 2.74969 9.12047 2.74969 8.96532V6.81188C2.74969 6.65672 2.87578 6.53063 3.03094 6.53063ZM7.15453 7.57078H11.3316C11.4867 7.57078 11.6128 7.44469 11.6128 7.28953C11.6128 7.13438 11.4867 7.00828 11.3316 7.00828H7.15453C6.99938 7.00828 6.87328 7.13438 6.87328 7.28953C6.87328 7.44469 6.99891 7.57078 7.15453 7.57078ZM3.93656 7.55907C3.82687 7.44938 3.64875 7.44938 3.53859 7.55907C3.42891 7.66875 3.42891 7.84688 3.53859 7.95703L3.88453 8.30297C3.9375 8.35547 4.00875 8.38547 4.08328 8.38547H4.08656C4.16203 8.38453 4.23422 8.35313 4.28672 8.29875L5.40797 7.125C5.51531 7.0125 5.51109 6.83485 5.39906 6.7275C5.28703 6.62016 5.10891 6.62438 5.00156 6.73641L4.07906 7.70157L3.93656 7.55907ZM6.10359 8.75063H11.3311C11.4862 8.75063 11.6123 8.62453 11.6123 8.46938C11.6123 8.31422 11.4862 8.18813 11.3311 8.18813H6.10359C5.94844 8.18813 5.82234 8.31422 5.82234 8.46938C5.82234 8.62453 5.94844 8.75063 6.10359 8.75063ZM3.03094 13.2253H5.18437C5.33953 13.2253 5.46562 13.0992 5.46562 12.9441V11.8303C5.46562 11.6752 5.33953 11.5491 5.18437 11.5491C5.02922 11.5491 4.90312 11.6752 4.90312 11.8303V12.6628H3.31219V11.0719H4.39547C4.55062 11.0719 4.67672 10.9458 4.67672 10.7906C4.67672 10.6355 4.55062 10.5094 4.39547 10.5094H3.03094C2.87578 10.5094 2.74969 10.6355 2.74969 10.7906V12.9441C2.74969 13.0992 2.87578 13.2253 3.03094 13.2253ZM11.3316 10.987H7.15453C6.99938 10.987 6.87328 11.1131 6.87328 11.2683C6.87328 11.4234 6.99938 11.5495 7.15453 11.5495H11.3316C11.4867 11.5495 11.6128 11.4234 11.6128 11.2683C11.6128 11.1131 11.4867 10.987 11.3316 10.987ZM5.00109 10.7152L4.07906 11.6798L3.93656 11.5373C3.82687 11.4277 3.64875 11.4277 3.53859 11.5373C3.42891 11.647 3.42891 11.8252 3.53859 11.9353L3.88453 12.2813C3.9375 12.3338 4.00875 12.3638 4.08328 12.3638H4.08656C4.16203 12.3628 4.23422 12.3314 4.28672 12.277L5.40797 11.1042C5.51531 10.9917 5.51109 10.8141 5.39906 10.7067C5.28656 10.5989 5.10844 10.6027 5.00109 10.7152ZM6.10359 12.7294H11.3311C11.4862 12.7294 11.6123 12.6033 11.6123 12.4481C11.6123 12.293 11.4862 12.1669 11.3311 12.1669H6.10359C5.94844 12.1669 5.82234 12.293 5.82234 12.4481C5.82234 12.6033 5.94844 12.7294 6.10359 12.7294ZM5.18437 15.5273C5.02922 15.5273 4.90312 15.6534 4.90312 15.8086V16.6411H3.31219V15.0502H4.39547C4.55062 15.0502 4.67672 14.9241 4.67672 14.7689C4.67672 14.6138 4.55062 14.4877 4.39547 14.4877H3.03094C2.87578 14.4877 2.74969 14.6138 2.74969 14.7689V16.9223C2.74969 17.0775 2.87578 17.2036 3.03094 17.2036H5.18437C5.33953 17.2036 5.46562 17.0775 5.46562 16.9223V15.8086C5.46562 15.6534 5.33953 15.5273 5.18437 15.5273ZM7.15453 14.9653C6.99938 14.9653 6.87328 15.0914 6.87328 15.2466C6.87328 15.4017 6.99938 15.5278 7.15453 15.5278H10.0284C10.1836 15.5278 10.3097 15.4017 10.3097 15.2466C10.3097 15.0914 10.1836 14.9653 10.0284 14.9653H7.15453ZM5.00109 14.6934L4.07906 15.6581L3.93656 15.5156C3.82687 15.4059 3.64875 15.4059 3.53859 15.5156C3.42891 15.6253 3.42891 15.8034 3.53859 15.9136L3.88453 16.2595C3.9375 16.3125 4.00875 16.342 4.08328 16.342H4.08656C4.16203 16.3411 4.23422 16.3097 4.28672 16.2553L5.40797 15.0825C5.51531 14.97 5.51109 14.7923 5.39906 14.685C5.28656 14.5772 5.10844 14.5814 5.00109 14.6934ZM6.10359 16.7077H10.4695C10.6247 16.7077 10.7508 16.5816 10.7508 16.4264C10.7508 16.2713 10.6247 16.1452 10.4695 16.1452H6.10359C5.94844 16.1452 5.82234 16.2713 5.82234 16.4264C5.82234 16.5816 5.94844 16.7077 6.10359 16.7077ZM15.6066 12.9591C15.6066 12.105 16.3013 11.4103 17.1553 11.4103C18.0094 11.4103 18.7041 12.105 18.7041 12.9591C18.7041 13.8131 18.0094 14.5078 17.1553 14.5078C16.3013 14.5083 15.6066 13.8131 15.6066 12.9591ZM16.1691 12.9591C16.1691 13.5028 16.6116 13.9453 17.1553 13.9453C17.6991 13.9453 18.1416 13.5028 18.1416 12.9591C18.1416 12.4153 17.6991 11.9728 17.1553 11.9728C16.6116 11.9728 16.1691 12.4153 16.1691 12.9591ZM23.2969 13.0036C23.2969 13.1588 23.1708 13.2848 23.0156 13.2848H22.5394C22.2811 13.2848 22.0641 13.4353 21.9736 13.6772L21.4683 15.0263L19.5544 20.1389V21.1795C19.5544 21.5841 19.2253 21.9131 18.8208 21.9131H18.1378C18.0183 22.2909 17.6644 22.5661 17.2472 22.5661C16.83 22.5661 16.4761 22.2914 16.3566 21.9131H15.5062C15.3867 22.2909 15.0328 22.5661 14.6156 22.5661C14.1984 22.5661 13.8445 22.2914 13.725 21.9131H13.0636C12.9084 21.9131 12.7823 21.787 12.7823 21.6319C12.7823 21.4767 12.9084 21.3506 13.0636 21.3506H13.725C13.8445 20.9728 14.1984 20.6977 14.6156 20.6977C15.0328 20.6977 15.3867 20.9723 15.5062 21.3506H16.3566C16.4761 20.9728 16.83 20.6977 17.2472 20.6977C17.6644 20.6977 18.0183 20.9723 18.1378 21.3506H18.8208C18.915 21.3506 18.9919 21.2738 18.9919 21.1795V20.3691H13.0214C12.907 20.3691 12.8048 20.2997 12.7617 20.1942V20.2008H0.984375C0.829219 20.2008 0.703125 20.0747 0.703125 19.9195V3.81422C0.703125 3.65907 0.829219 3.53297 0.984375 3.53297H3.73266V3.01875C3.73266 2.8636 3.85875 2.7375 4.01391 2.7375H5.62078C5.75391 1.99688 6.40266 1.43344 7.18125 1.43344C7.95984 1.43344 8.60859 1.99688 8.74172 2.7375H10.3486C10.5037 2.7375 10.6298 2.8636 10.6298 3.01875V3.5325H13.3781C13.5333 3.5325 13.6594 3.6586 13.6594 3.81375V14.6466H14.3827C14.4014 14.5556 14.4459 14.4689 14.5162 14.3981L14.8439 14.0705C14.8027 13.9852 14.7661 13.897 14.7347 13.8075H14.2716C13.9997 13.8075 13.7789 13.5867 13.7789 13.3148V12.6033C13.7789 12.3314 14.0002 12.1106 14.2716 12.1106H14.7347C14.7661 12.0216 14.8027 11.9334 14.8439 11.8477L14.5162 11.52C14.4234 11.4272 14.3723 11.3034 14.3723 11.1717C14.3723 11.04 14.4234 10.9163 14.5167 10.8234L15.0197 10.3205C15.1125 10.2277 15.2363 10.1761 15.368 10.1761C15.4997 10.1761 15.6234 10.2272 15.7162 10.3205L16.0439 10.6481C16.1292 10.6069 16.2173 10.5703 16.3069 10.5389V10.0758C16.3069 9.80391 16.5281 9.58313 16.7995 9.58313H17.5111C17.783 9.58313 18.0037 9.80391 18.0037 10.0758V10.5389C18.0933 10.5703 18.1814 10.6069 18.2667 10.6481L18.5944 10.3205C18.6872 10.2277 18.8109 10.1761 18.9427 10.1761C19.0744 10.1761 19.1981 10.2272 19.2909 10.3205L19.7939 10.8239C19.8867 10.9167 19.9378 11.0405 19.9378 11.1722C19.9378 11.3039 19.8867 11.4277 19.7939 11.5205L19.4662 11.8481C19.5075 11.9334 19.5441 12.0216 19.5755 12.1111H20.0386C20.3105 12.1111 20.5312 12.3319 20.5312 12.6038V13.3153C20.5312 13.5872 20.31 13.808 20.0386 13.808H19.5755C19.5441 13.897 19.5075 13.9852 19.4662 14.0709L19.7939 14.3986C19.8642 14.4689 19.9088 14.5561 19.9275 14.647H21.0094L21.4462 13.4803C21.6187 13.02 22.0472 12.7228 22.5389 12.7228H23.0156C23.1708 12.7223 23.2969 12.8484 23.2969 13.0036ZM14.9869 21.6323C14.9869 21.4275 14.82 21.2606 14.6152 21.2606C14.4103 21.2606 14.2434 21.4275 14.2434 21.6323C14.2434 21.8372 14.4103 22.0041 14.6152 22.0041C14.8205 22.0041 14.9869 21.8372 14.9869 21.6323ZM17.6189 21.6323C17.6189 21.4275 17.452 21.2606 17.2472 21.2606C17.0423 21.2606 16.8755 21.4275 16.8755 21.6323C16.8755 21.8372 17.0423 22.0041 17.2472 22.0041C17.452 22.0041 17.6189 21.8372 17.6189 21.6323ZM15.277 14.4328L15.0633 14.6466H19.2469L19.0331 14.4328C18.8822 14.2819 18.8456 14.0522 18.9422 13.8619C18.9877 13.7723 19.0261 13.6791 19.0575 13.5844C19.1241 13.3814 19.3125 13.2455 19.5258 13.2455H19.9692V12.6736H19.5258C19.3125 12.6736 19.1245 12.5372 19.0575 12.3347C19.0261 12.24 18.9877 12.1463 18.9422 12.0572C18.8456 11.8664 18.8822 11.6372 19.0331 11.4863L19.3467 11.1727L18.9422 10.7681L18.6286 11.0817C18.4777 11.2327 18.248 11.2692 18.0577 11.1727C17.9686 11.1277 17.8748 11.0888 17.7797 11.0573C17.5772 10.9908 17.4408 10.8028 17.4408 10.5891V10.1456H16.8689V10.5891C16.8689 10.8023 16.7325 10.9903 16.53 11.0573C16.4348 11.0888 16.3416 11.1272 16.2525 11.1727C16.0617 11.2692 15.8325 11.2327 15.6816 11.0817L15.368 10.7681L14.9634 11.1727L15.277 11.4863C15.428 11.6372 15.4645 11.8669 15.368 12.0572C15.3225 12.1467 15.2841 12.24 15.2527 12.3347C15.1861 12.5377 14.9977 12.6736 14.7844 12.6736H14.3409V13.2455H14.7844C14.9977 13.2455 15.1856 13.3819 15.2527 13.5844C15.2841 13.6795 15.3225 13.7728 15.368 13.8623C15.4645 14.0527 15.428 14.2819 15.277 14.4328ZM10.6298 4.09547V4.37953H12.5869C12.742 4.37953 12.8681 4.50563 12.8681 4.66078V14.647H13.0969V4.09547H10.6298ZM4.29516 4.71985H10.0669V3.3H8.48484C8.32969 3.3 8.20359 3.17391 8.20359 3.01875C8.20359 2.45485 7.74469 1.99594 7.18078 1.99594C6.61688 1.99594 6.15797 2.45485 6.15797 3.01875C6.15797 3.17391 6.03188 3.3 5.87672 3.3H4.29516V4.71985ZM4.01391 5.28235C3.85875 5.28235 3.73266 5.15625 3.73266 5.0011V4.94203H2.05687V18.7927H12.2358L10.8258 15.0267C10.7934 14.9405 10.8056 14.8434 10.8581 14.768C10.9106 14.6925 10.9969 14.647 11.0892 14.647H12.3052V4.94157H10.6294V5.00063C10.6294 5.15578 10.5033 5.28188 10.3481 5.28188L4.01391 5.28235ZM1.26562 19.6392H12.5527L12.4462 19.3552H1.77562C1.62047 19.3552 1.49437 19.2291 1.49437 19.0739V4.66032C1.49437 4.50516 1.62047 4.37907 1.77562 4.37907H3.73266V4.095H1.26562V19.6392ZM20.7994 15.2091H11.4952L12.2006 17.0939H15.2077C15.3628 17.0939 15.4889 17.22 15.4889 17.3752C15.4889 17.5303 15.3628 17.6564 15.2077 17.6564H12.4111L13.2164 19.8075H19.0781L19.8834 17.6564H17.1234C16.9683 17.6564 16.8422 17.5303 16.8422 17.3752C16.8422 17.22 16.9683 17.0939 17.1234 17.0939H20.0939L20.7994 15.2091Z" fill="#383839" fill-opacity="0.6"/>
</svg>
