<svg width="25" height="25" viewBox="0 0 25 25" fill="none" xmlns="http://www.w3.org/2000/svg">
<path d="M8.75016 17.7085L12.5002 13.9585L16.2502 17.7085L17.7085 16.2502L13.9585 12.5002L17.7085 8.75016L16.2502 7.29183L12.5002 11.0418L8.75016 7.29183L7.29183 8.75016L11.0418 12.5002L7.29183 16.2502L8.75016 17.7085ZM12.5002 22.9168C11.0592 22.9168 9.70502 22.6434 8.43766 22.0965C7.1703 21.5496 6.06787 20.8075 5.13037 19.87C4.19287 18.9325 3.45068 17.83 2.90381 16.5627C2.35693 15.2953 2.0835 13.9411 2.0835 12.5002C2.0835 11.0592 2.35693 9.70502 2.90381 8.43766C3.45068 7.1703 4.19287 6.06787 5.13037 5.13037C6.06787 4.19287 7.1703 3.45068 8.43766 2.90381C9.70502 2.35693 11.0592 2.0835 12.5002 2.0835C13.9411 2.0835 15.2953 2.35693 16.5627 2.90381C17.83 3.45068 18.9325 4.19287 19.87 5.13037C20.8075 6.06787 21.5496 7.1703 22.0965 8.43766C22.6434 9.70502 22.9168 11.0592 22.9168 12.5002C22.9168 13.9411 22.6434 15.2953 22.0965 16.5627C21.5496 17.83 20.8075 18.9325 19.87 19.87C18.9325 20.8075 17.83 21.5496 16.5627 22.0965C15.2953 22.6434 13.9411 22.9168 12.5002 22.9168ZM12.5002 20.8335C14.8266 20.8335 16.797 20.0262 18.4116 18.4116C20.0262 16.797 20.8335 14.8266 20.8335 12.5002C20.8335 10.1738 20.0262 8.20329 18.4116 6.5887C16.797 4.97412 14.8266 4.16683 12.5002 4.16683C10.1738 4.16683 8.20329 4.97412 6.5887 6.5887C4.97412 8.20329 4.16683 10.1738 4.16683 12.5002C4.16683 14.8266 4.97412 16.797 6.5887 18.4116C8.20329 20.0262 10.1738 20.8335 12.5002 20.8335Z" fill="#383838" fill-opacity="0.65"/>
</svg>
