<svg width="25" height="24" viewBox="0 0 25 24" fill="none" xmlns="http://www.w3.org/2000/svg">
<path d="M7.8335 12H16.8335V13.5H7.8335V12ZM7.8335 7.5H16.8335V9H7.8335V7.5Z" fill="#6945FB"/>
<path d="M12.3335 22.5L7.7015 20.0303C6.38089 19.3279 5.27653 18.2791 4.50698 16.9964C3.73743 15.7138 3.33175 14.2458 3.3335 12.75V3C3.3335 2.60218 3.49154 2.22064 3.77284 1.93934C4.05415 1.65804 4.43568 1.5 4.8335 1.5H19.8335C20.2313 1.5 20.6129 1.65804 20.8942 1.93934C21.1755 2.22064 21.3335 2.60218 21.3335 3V12.75C21.3353 14.2458 20.9296 15.7138 20.16 16.9964C19.3905 18.2791 18.2861 19.3279 16.9655 20.0303L12.3335 22.5ZM4.8335 3V12.75C4.83267 13.9738 5.16491 15.1747 5.79461 16.224C6.42431 17.2733 7.32773 18.1315 8.408 18.7065L12.3335 20.7997L16.259 18.7073C17.3394 18.1322 18.2429 17.2739 18.8726 16.2244C19.5023 15.175 19.8345 13.9739 19.8335 12.75V3H4.8335Z" fill="#6945FB"/>
</svg>
