<svg width="25" height="24" viewBox="0 0 25 24" fill="none" xmlns="http://www.w3.org/2000/svg">
<path d="M3.3335 12H12.3335V13.5H3.3335V12ZM1.8335 8.25H9.3335V9.75H1.8335V8.25Z" fill="#7C3AED"/>
<path d="M22.7728 12.4545L20.5228 7.2045C20.4649 7.06962 20.3688 6.95466 20.2463 6.87387C20.1238 6.79309 19.9803 6.75002 19.8335 6.75H17.5835V5.25C17.5835 5.05109 17.5045 4.86032 17.3638 4.71967C17.2232 4.57902 17.0324 4.5 16.8335 4.5H4.8335V6H16.0835V15.417C15.742 15.6157 15.443 15.8799 15.2039 16.1945C14.9648 16.509 14.7901 16.8678 14.69 17.25H9.977C9.79446 16.543 9.36033 15.9269 8.756 15.517C8.15166 15.1072 7.41861 14.9319 6.69425 15.0239C5.96989 15.1159 5.30395 15.4689 4.82126 16.0168C4.33857 16.5647 4.07227 17.2698 4.07227 18C4.07227 18.7302 4.33857 19.4353 4.82126 19.9832C5.30395 20.5311 5.96989 20.8841 6.69425 20.9761C7.41861 21.0681 8.15166 20.8928 8.756 20.483C9.36033 20.0731 9.79446 19.457 9.977 18.75H14.69C14.8532 19.3937 15.2263 19.9646 15.7503 20.3724C16.2744 20.7802 16.9195 21.0016 17.5835 21.0016C18.2475 21.0016 18.8926 20.7802 19.4167 20.3724C19.9407 19.9646 20.3139 19.3937 20.477 18.75H22.0835C22.2824 18.75 22.4732 18.671 22.6138 18.5303C22.7545 18.3897 22.8335 18.1989 22.8335 18V12.75C22.8335 12.6484 22.8128 12.5479 22.7728 12.4545ZM7.0835 19.5C6.78683 19.5 6.49682 19.412 6.25015 19.2472C6.00347 19.0824 5.81122 18.8481 5.69768 18.574C5.58415 18.2999 5.55445 17.9983 5.61232 17.7074C5.6702 17.4164 5.81306 17.1491 6.02284 16.9393C6.23262 16.7296 6.4999 16.5867 6.79087 16.5288C7.08184 16.4709 7.38344 16.5006 7.65753 16.6142C7.93162 16.7277 8.16588 16.92 8.33071 17.1666C8.49553 17.4133 8.5835 17.7033 8.5835 18C8.5835 18.3978 8.42547 18.7794 8.14416 19.0607C7.86286 19.342 7.48133 19.5 7.0835 19.5ZM17.5835 8.25H19.3385L20.9465 12H17.5835V8.25ZM17.5835 19.5C17.2868 19.5 16.9968 19.412 16.7501 19.2472C16.5035 19.0824 16.3112 18.8481 16.1977 18.574C16.0842 18.2999 16.0544 17.9983 16.1123 17.7074C16.1702 17.4164 16.3131 17.1491 16.5228 16.9393C16.7326 16.7296 16.9999 16.5867 17.2909 16.5288C17.5818 16.4709 17.8834 16.5006 18.1575 16.6142C18.4316 16.7277 18.6659 16.92 18.8307 17.1666C18.9955 17.4133 19.0835 17.7033 19.0835 18C19.0835 18.3978 18.9255 18.7794 18.6442 19.0607C18.3629 19.342 17.9813 19.5 17.5835 19.5ZM21.3335 17.25H20.477C20.3118 16.6076 19.9381 16.0381 19.4144 15.6309C18.8908 15.2238 18.2468 15.0018 17.5835 15V13.5H21.3335V17.25Z" fill="#7C3AED"/>
</svg>
