<svg width="25" height="24" viewBox="0 0 25 24" fill="none" xmlns="http://www.w3.org/2000/svg">
<g clip-path="url(#clip0_24_4015)">
<path d="M22.667 2.25001H19.417V0.750012C19.4171 0.551099 19.3382 0.360281 19.1977 0.219535C19.0571 0.0787893 18.8664 -0.000355495 18.6675 -0.000488103C18.4686 -0.000620711 18.2778 0.0782697 18.137 0.218828C17.9963 0.359387 17.9171 0.550099 17.917 0.749012V2.25001H13.417V0.750012C13.4171 0.65152 13.3977 0.553981 13.3601 0.462961C13.3225 0.371942 13.2673 0.289226 13.1977 0.219535C13.1281 0.149845 13.0454 0.0945453 12.9545 0.0567936C12.8635 0.0190419 12.766 -0.000422453 12.6675 -0.000488114C12.4686 -0.000620723 12.2778 0.0782697 12.137 0.218828C11.9963 0.359387 11.9171 0.550099 11.917 0.749012V2.25001H7.41699V0.750012C7.41706 0.65152 7.39772 0.553981 7.36009 0.462961C7.32246 0.371942 7.26727 0.289226 7.19768 0.219535C7.12808 0.149845 7.04544 0.0945453 6.95447 0.0567936C6.8635 0.0190419 6.76598 -0.000422453 6.66749 -0.000488114C6.46858 -0.000620723 6.27776 0.0782697 6.13702 0.218828C5.99627 0.359387 5.91712 0.550099 5.91699 0.749012V2.25001H2.66699C2.13673 2.25001 1.62818 2.46059 1.25313 2.83544C0.878088 3.2103 0.667257 3.71875 0.666992 4.24901V21.999C0.666992 22.5294 0.877706 23.0382 1.25278 23.4132C1.62785 23.7883 2.13656 23.999 2.66699 23.999H22.667C23.1974 23.999 23.7061 23.7883 24.0812 23.4132C24.4563 23.0382 24.667 22.5294 24.667 21.999V4.24901C24.6667 3.71875 24.4559 3.2103 24.0809 2.83544C23.7058 2.46059 23.1973 2.25001 22.667 2.25001ZM23.167 22C23.167 22.1324 23.1145 22.2595 23.0209 22.3532C22.9273 22.447 22.8004 22.4997 22.668 22.5H2.66699C2.53438 22.5 2.40721 22.4473 2.31344 22.3536C2.21967 22.2598 2.16699 22.1326 2.16699 22V4.25001C2.16726 4.11758 2.22005 3.99066 2.31379 3.8971C2.40753 3.80355 2.53456 3.75101 2.66699 3.75101H5.91699V5.25101C5.91686 5.44992 5.99575 5.64074 6.13631 5.78149C6.27687 5.92223 6.46758 6.00138 6.66649 6.00151C6.8654 6.00164 7.05622 5.92275 7.19697 5.7822C7.33771 5.64164 7.41686 5.45092 7.41699 5.25201V3.75101H11.917V5.25101C11.9169 5.44992 11.9958 5.64074 12.1363 5.78149C12.2769 5.92223 12.4676 6.00138 12.6665 6.00151C12.8654 6.00164 13.0562 5.92275 13.197 5.7822C13.3377 5.64164 13.4169 5.45092 13.417 5.25201V3.75101H17.917V5.25101C17.9169 5.44992 17.9958 5.64074 18.1363 5.78149C18.2769 5.92223 18.4676 6.00138 18.6665 6.00151C18.8654 6.00164 19.0562 5.92275 19.197 5.7822C19.3377 5.64164 19.4169 5.45092 19.417 5.25201V3.75101H22.667C22.7993 3.75128 22.926 3.80393 23.0195 3.89746C23.1131 3.99098 23.1657 4.11775 23.166 4.25001L23.167 22Z" fill="#34C759"/>
<path d="M5.91699 9H8.91699V11.25H5.91699V9ZM5.91699 12.75H8.91699V15H5.91699V12.75ZM5.91699 16.5H8.91699V18.75H5.91699V16.5ZM11.167 16.5H14.167V18.75H11.167V16.5ZM11.167 12.75H14.167V15H11.167V12.75ZM11.167 9H14.167V11.25H11.167V9ZM16.417 16.5H19.417V18.75H16.417V16.5ZM16.417 12.75H19.417V15H16.417V12.75ZM16.417 9H19.417V11.25H16.417V9Z" fill="#34C759"/>
</g>
<defs>
<clipPath id="clip0_24_4015">
<rect width="24" height="24" fill="white" transform="translate(0.666992)"/>
</clipPath>
</defs>
</svg>
