<svg width="13" height="14" viewBox="0 0 13 14" fill="none" xmlns="http://www.w3.org/2000/svg">
<path d="M6 1.5H1.33333C0.979711 1.5 0.640573 1.64048 0.390524 1.89052C0.140476 2.14057 0 2.47971 0 2.83333V12.1667C0 12.5203 0.140476 12.8594 0.390524 13.1095C0.640573 13.3595 0.979711 13.5 1.33333 13.5H10.6667C11.0203 13.5 11.3594 13.3595 11.6095 13.1095C11.8595 12.8594 12 12.5203 12 12.1667V7.5" stroke="#383838" stroke-opacity="0.6" stroke-width="1.33333" stroke-linecap="round" stroke-linejoin="round"/>
<path d="M10.2504 1.24991C10.5156 0.98469 10.8753 0.835693 11.2504 0.835693C11.6255 0.835693 11.9852 0.98469 12.2504 1.24991C12.5156 1.51512 12.6646 1.87483 12.6646 2.24991C12.6646 2.62498 12.5156 2.98469 12.2504 3.24991L6.24172 9.25924C6.08342 9.4174 5.88786 9.53318 5.67305 9.59591L3.75772 10.1559C3.70036 10.1726 3.63955 10.1736 3.58166 10.1588C3.52377 10.144 3.47094 10.1139 3.42869 10.0716C3.38643 10.0294 3.35631 9.97652 3.34148 9.91863C3.32665 9.86075 3.32766 9.79994 3.34439 9.74257L3.90439 7.82724C3.96741 7.61261 4.08341 7.41728 4.24172 7.25924L10.2504 1.24991Z" stroke="#383838" stroke-opacity="0.6" stroke-width="1.33333" stroke-linecap="round" stroke-linejoin="round"/>
</svg>
