<svg width="12" height="13" viewBox="0 0 12 13" fill="none" xmlns="http://www.w3.org/2000/svg">
<path d="M10.6667 12.5H2.66667C1.95942 12.5 1.28115 12.219 0.781048 11.719C0.280951 11.2189 0 10.5406 0 9.83333V1.83333C0 1.47971 0.140476 1.14057 0.390524 0.890524C0.640573 0.640476 0.979711 0.5 1.33333 0.5H8C8.35362 0.5 8.69276 0.640476 8.94281 0.890524C9.19286 1.14057 9.33333 1.47971 9.33333 1.83333V10.5C9.33333 11.6047 9.562 12.5 10.6667 12.5Z" stroke="#383838" stroke-opacity="0.6" stroke-width="1.33333" stroke-linecap="round" stroke-linejoin="round"/>
<path d="M12.0002 5.16665C12.0002 4.81302 11.8597 4.47389 11.6096 4.22384C11.3596 3.97379 11.0205 3.83331 10.6668 3.83331H9.3335V10.8333C9.3335 11.7533 9.74683 12.5 10.6668 12.5C11.5868 12.5 12.0002 11.7533 12.0002 10.8333V5.16665Z" stroke="#383838" stroke-opacity="0.6" stroke-width="1.33333" stroke-linecap="round" stroke-linejoin="round"/>
<path d="M6.6665 5.83335H2.6665M6.6665 3.16669H2.6665M4.6665 8.50002H2.6665" stroke="#383838" stroke-opacity="0.6" stroke-width="1.33333" stroke-linecap="round"/>
</svg>
