<svg width="13" height="13" viewBox="0 0 13 13" fill="none" xmlns="http://www.w3.org/2000/svg">
<path d="M6 0.664062H1.33333C0.979711 0.664063 0.640573 0.804538 0.390524 1.05459C0.140476 1.30464 0 1.64377 0 1.9974V11.3307C0 11.6844 0.140476 12.0235 0.390524 12.2735C0.640573 12.5236 0.979711 12.6641 1.33333 12.6641H10.6667C11.0203 12.6641 11.3594 12.5236 11.6095 12.2735C11.8595 12.0235 12 11.6844 12 11.3307V6.66406" stroke="#383838" stroke-opacity="0.6" stroke-width="1.33333" stroke-linecap="round" stroke-linejoin="round"/>
<path d="M10.2499 0.414214C10.5151 0.148997 10.8748 0 11.2499 0C11.625 0 11.9847 0.148997 12.2499 0.414214C12.5151 0.67943 12.6641 1.03914 12.6641 1.41421C12.6641 1.78929 12.5151 2.149 12.2499 2.41421L6.24123 8.42355C6.08293 8.58171 5.88737 8.69749 5.67257 8.76021L3.75723 9.32021C3.69987 9.33695 3.63906 9.33795 3.58117 9.32312C3.52329 9.30829 3.47045 9.27817 3.4282 9.23592C3.38594 9.19366 3.35583 9.14083 3.341 9.08294C3.32617 9.02505 3.32717 8.96425 3.3439 8.90688L3.9039 6.99155C3.96692 6.77691 4.08292 6.58159 4.24123 6.42355L10.2499 0.414214Z" stroke="#383838" stroke-opacity="0.6" stroke-width="1.33333" stroke-linecap="round" stroke-linejoin="round"/>
</svg>
