<svg width="18" height="20" viewBox="0 0 18 20" fill="none" xmlns="http://www.w3.org/2000/svg">
<path d="M16 11V3.749C16.0001 3.67006 15.9845 3.59189 15.9543 3.51896C15.9241 3.44603 15.8798 3.37978 15.824 3.324L12.676 0.176C12.5636 0.0634461 12.4111 0.000140042 12.252 0H0.6C0.44087 0 0.288258 0.0632141 0.175736 0.175736C0.0632141 0.288258 0 0.44087 0 0.6V19.4C0 19.5591 0.0632141 19.7117 0.175736 19.8243C0.288258 19.9368 0.44087 20 0.6 20H10" stroke="#383838" stroke-opacity="0.6" stroke-width="1.5" stroke-linecap="round" stroke-linejoin="round"/>
<path d="M12 0V3.4C12 3.55913 12.0632 3.71174 12.1757 3.82426C12.2883 3.93679 12.4409 4 12.6 4H16M12 17H18M18 17L15 14M18 17L15 20" stroke="#383838" stroke-opacity="0.6" stroke-width="1.5" stroke-linecap="round" stroke-linejoin="round"/>
</svg>
