<svg width="15" height="15" viewBox="0 0 15 15" fill="none" xmlns="http://www.w3.org/2000/svg">
<path d="M6.75 0.74707H1.5C1.10218 0.74707 0.720644 0.905106 0.43934 1.18641C0.158035 1.46771 0 1.84925 0 2.24707V12.7471C0 13.1449 0.158035 13.5264 0.43934 13.8077C0.720644 14.089 1.10218 14.2471 1.5 14.2471H12C12.3978 14.2471 12.7794 14.089 13.0607 13.8077C13.342 13.5264 13.5 13.1449 13.5 12.7471V7.49707" stroke="#383838" stroke-opacity="0.6" stroke-width="1.5" stroke-linecap="round" stroke-linejoin="round"/>
<path d="M11.5313 0.46599C11.8297 0.167622 12.2344 0 12.6563 0C13.0783 0 13.483 0.167622 13.7813 0.46599C14.0797 0.764359 14.2473 1.16903 14.2473 1.59099C14.2473 2.01295 14.0797 2.41762 13.7813 2.71599L7.02157 9.47649C6.84348 9.65443 6.62347 9.78468 6.38182 9.85524L4.22707 10.4852C4.16253 10.5041 4.09412 10.5052 4.029 10.4885C3.96388 10.4718 3.90444 10.4379 3.85691 10.3904C3.80937 10.3429 3.77549 10.2834 3.7588 10.2183C3.74212 10.1532 3.74325 10.0848 3.76207 10.0202L4.39207 7.86549C4.46297 7.62403 4.59347 7.40428 4.77157 7.22649L11.5313 0.46599Z" stroke="#383838" stroke-opacity="0.6" stroke-width="1.5" stroke-linecap="round" stroke-linejoin="round"/>
</svg>
