<svg width="14" height="15" viewBox="0 0 14 15" fill="none" xmlns="http://www.w3.org/2000/svg">
<path d="M0.333008 6.16683C0.853008 3.62283 2.77967 1.58683 5.27034 0.893496C5.47967 0.835496 5.58367 0.806163 5.64034 0.868163C5.69701 0.930829 5.65501 1.0335 5.57234 1.24016L4.99967 2.50016M8.33301 0.833496C10.877 1.3535 12.913 3.28016 13.6063 5.77083C13.6643 5.98016 13.6937 6.08416 13.6317 6.14083C13.569 6.1975 13.4663 6.1555 13.2597 6.07283L11.9997 5.50016M13.6663 8.8335C13.1463 11.3775 11.2197 13.4135 8.72901 14.1068C8.51967 14.1648 8.41567 14.1942 8.35901 14.1322C8.30234 14.0695 8.34434 13.9668 8.42701 13.7602L8.99967 12.5002M5.66634 14.1668C3.12234 13.6468 1.08634 11.7202 0.393008 9.2295C0.335008 9.02016 0.305675 8.91616 0.367675 8.8595C0.430341 8.80283 0.533008 8.84483 0.739674 8.9275L1.99967 9.50016" stroke="#383838" stroke-opacity="0.6" stroke-linecap="round"/>
<path d="M4.74141 7.27697L7.07407 4.2823C7.25674 4.0483 7.59874 4.1943 7.59874 4.5063V6.82363C7.59874 7.0103 7.73207 7.1623 7.89807 7.1623H9.03274C9.29007 7.1623 9.42741 7.50497 9.25741 7.72363L6.92474 10.7183C6.74207 10.9523 6.40007 10.8063 6.40007 10.4943V8.17697C6.40007 7.9903 6.26674 7.8383 6.10074 7.8383H4.96607C4.70874 7.8383 4.57074 7.49563 4.74141 7.27697Z" stroke="#383838" stroke-opacity="0.6" stroke-linecap="round" stroke-linejoin="round"/>
</svg>
