<svg width="20" height="20" viewBox="0 0 20 20" fill="none" xmlns="http://www.w3.org/2000/svg">
<path d="M16 4C15.953 2.447 15.78 1.52 15.138 0.879C14.258 -5.96046e-08 12.842 0 10.01 0H6.007C3.175 0 1.759 -5.96046e-08 0.88 0.879C1.19209e-07 1.757 0 3.172 0 6V14C0 16.828 1.19209e-07 18.243 0.88 19.121C1.76 19.999 3.175 20 6.007 20H10.011C12.842 20 14.258 20 15.138 19.121C15.78 18.48 15.953 17.554 16 16" stroke="#BAAA03" stroke-width="1.5" stroke-linecap="round" stroke-linejoin="round"/>
<path d="M18.242 9.742L19.419 8.565C19.689 8.295 19.825 8.159 19.897 8.013C19.9641 7.87603 19.999 7.72553 19.999 7.573C19.999 7.42047 19.9641 7.26997 19.897 7.133C19.825 6.987 19.689 6.851 19.419 6.581C19.149 6.311 19.013 6.175 18.867 6.103C18.73 6.03589 18.5795 6.001 18.427 6.001C18.2745 6.001 18.124 6.03589 17.987 6.103C17.841 6.175 17.706 6.311 17.435 6.581L16.258 7.758M18.242 9.742L12.976 15.008L10 16L10.992 13.024L16.258 7.758M18.242 9.742L16.258 7.758M3 17H4L5.25 14.5L6.5 17H7.5M4 4H12M4 8H10" stroke="#BAAA03" stroke-width="1.5" stroke-linecap="round" stroke-linejoin="round"/>
</svg>
