<svg width="16" height="17" viewBox="0 0 16 17" fill="none" xmlns="http://www.w3.org/2000/svg">
<path d="M14.75 5.75H1.25C1.05109 5.75 0.860322 5.67098 0.71967 5.53033C0.579018 5.38968 0.5 5.19891 0.5 5C0.5 4.80109 0.579018 4.61032 0.71967 4.46967C0.860322 4.32902 1.05109 4.25 1.25 4.25H14.75C14.9489 4.25 15.1397 4.32902 15.2803 4.46967C15.421 4.61032 15.5 4.80109 15.5 5C15.5 5.19891 15.421 5.38968 15.2803 5.53033C15.1397 5.67098 14.9489 5.75 14.75 5.75ZM12.25 9.25H3.75C3.55109 9.25 3.36032 9.17098 3.21967 9.03033C3.07902 8.88968 3 8.69891 3 8.5C3 8.30109 3.07902 8.11032 3.21967 7.96967C3.36032 7.82902 3.55109 7.75 3.75 7.75H12.25C12.4489 7.75 12.6397 7.82902 12.7803 7.96967C12.921 8.11032 13 8.30109 13 8.5C13 8.69891 12.921 8.88968 12.7803 9.03033C12.6397 9.17098 12.4489 9.25 12.25 9.25ZM9.25 12.75H6.75C6.55109 12.75 6.36032 12.671 6.21967 12.5303C6.07902 12.3897 6 12.1989 6 12C6 11.8011 6.07902 11.6103 6.21967 11.4697C6.36032 11.329 6.55109 11.25 6.75 11.25H9.25C9.44891 11.25 9.63968 11.329 9.78033 11.4697C9.92098 11.6103 10 11.8011 10 12C10 12.1989 9.92098 12.3897 9.78033 12.5303C9.63968 12.671 9.44891 12.75 9.25 12.75Z" fill="#383838" fill-opacity="0.6"/>
</svg>
