<svg width="24" height="24" viewBox="0 0 24 24" fill="none" xmlns="http://www.w3.org/2000/svg">
<path fill-rule="evenodd" clip-rule="evenodd" d="M15.7579 13.1478H16.8437V9.19197H15.7579V13.1478ZM12.5798 13.1478H13.6656V8.22634H12.5798V13.1478ZM9.40174 13.1478H10.4876V10.1721H9.40174V13.1478ZM18.2513 13.1478C18.4167 13.1478 18.5508 13.2819 18.5508 13.4472C18.5508 13.6126 18.4167 13.7467 18.2513 13.7467H7.99409C7.82871 13.7467 7.69465 13.6126 7.69465 13.4472C7.69465 13.2819 7.82871 13.1478 7.99409 13.1478H8.80291V9.87264C8.80291 9.70726 8.93698 9.5732 9.10235 9.5732H10.787C10.9524 9.5732 11.0865 9.70726 11.0865 9.87264V13.1478H11.981V7.9269C11.981 7.76153 12.1151 7.62747 12.2804 7.62747H13.9651C14.1304 7.62747 14.2645 7.76153 14.2645 7.9269V13.1478H15.159V8.89253C15.159 8.72715 15.2931 8.59309 15.4585 8.59309H17.1431C17.3085 8.59309 17.4426 8.72715 17.4426 8.89253V13.1478H18.2514H18.2513ZM10.1708 7.38278C10.1129 7.32494 10.0329 7.28912 9.9446 7.28912C9.85629 7.28912 9.77632 7.32494 9.71843 7.38278C9.66054 7.44062 9.62477 7.52059 9.62477 7.60895C9.62477 7.69731 9.66059 7.77728 9.71843 7.83512C9.77627 7.89297 9.85624 7.92878 9.9446 7.92878C10.033 7.92878 10.1129 7.89297 10.1708 7.83512C10.2286 7.77728 10.2644 7.69731 10.2644 7.60895C10.2644 7.52059 10.2286 7.44062 10.1708 7.38278ZM13.3489 4.85561C13.291 4.79776 13.211 4.76195 13.1227 4.76195C13.0344 4.76195 12.9544 4.79776 12.8965 4.85561C12.8387 4.91345 12.8029 4.99347 12.8029 5.08178C12.8029 5.17009 12.8387 5.25011 12.8965 5.30795C12.9544 5.3658 13.0343 5.40161 13.1227 5.40161C13.211 5.40161 13.291 5.3658 13.3489 5.30795C13.4067 5.25011 13.4425 5.17014 13.4425 5.08178C13.4425 4.99342 13.4067 4.91345 13.3489 4.85561ZM16.5269 6.76356C16.4691 6.70572 16.3891 6.6699 16.3008 6.6699C16.2124 6.6699 16.1324 6.70572 16.0746 6.76356C16.0167 6.8214 15.9809 6.90137 15.9809 6.98973C15.9809 7.07809 16.0167 7.15806 16.0746 7.2159C16.1324 7.27375 16.2124 7.30956 16.3008 7.30956C16.3891 7.30956 16.4691 7.27375 16.5269 7.2159C16.5848 7.15806 16.6206 7.07805 16.6206 6.98973C16.6206 6.90142 16.5848 6.82145 16.5269 6.76356ZM7.87043 6.95176C7.72123 6.8807 7.65785 6.70211 7.72891 6.5529C7.79998 6.4037 7.97857 6.34033 8.12777 6.41139L9.28938 6.96508L9.29506 6.95931C9.46132 6.79305 9.69101 6.6902 9.94465 6.6902C10.1265 6.6902 10.296 6.74303 10.4386 6.8342L12.2566 5.38862C12.2225 5.29267 12.204 5.18936 12.204 5.08173C12.204 4.82809 12.3069 4.5984 12.4731 4.43214C12.6394 4.26587 12.8691 4.16303 13.1227 4.16303C13.3764 4.16303 13.6061 4.26587 13.7723 4.43214C13.9385 4.5984 14.0414 4.82809 14.0414 5.08173C14.0414 5.14736 14.0345 5.21139 14.0214 5.27312L15.7095 6.28656C15.8693 6.15203 16.0756 6.07098 16.3008 6.07098C16.4622 6.07098 16.6139 6.11265 16.7457 6.18578L17.4342 5.56361C17.5563 5.45317 17.7448 5.46259 17.8553 5.58465C17.9658 5.70672 17.9563 5.89525 17.8343 6.00573L17.1456 6.62809C17.1932 6.73905 17.2195 6.8613 17.2195 6.98969C17.2195 7.24333 17.1167 7.47301 16.9504 7.63928C16.7841 7.80555 16.5545 7.90839 16.3008 7.90839C16.0471 7.90839 15.8175 7.80555 15.6512 7.63928C15.4849 7.47301 15.3821 7.24333 15.3821 6.98969C15.3821 6.92406 15.389 6.86003 15.4021 6.7983L13.714 5.78486C13.5542 5.91934 13.3479 6.00044 13.1227 6.00044C12.9409 6.00044 12.7714 5.94756 12.6287 5.85639L10.8108 7.30197C10.8448 7.39797 10.8634 7.50128 10.8634 7.6089C10.8634 7.86255 10.7605 8.09223 10.5942 8.2585C10.428 8.42476 10.1983 8.52761 9.94465 8.52761C9.69101 8.52761 9.46132 8.42476 9.29506 8.2585C9.12879 8.09223 9.02595 7.86259 9.02595 7.6089C9.02595 7.57389 9.02792 7.5393 9.03171 7.50531L7.87038 6.95176H7.87043ZM2.51941 21.8683C2.35404 21.8683 2.21998 21.7342 2.21998 21.5688C2.21998 21.4035 2.35404 21.2694 2.51941 21.2694H4.0481C4.21348 21.2694 4.34754 21.4035 4.34754 21.5688C4.34754 21.7342 4.21348 21.8683 4.0481 21.8683H2.51941ZM4.68827 15.1807V16.7138L5.10509 16.2098C5.1177 16.194 5.13213 16.1792 5.14835 16.1658C5.27562 16.0605 5.46415 16.0783 5.56943 16.2055L5.98976 16.7138V15.1806H4.68827V15.1807ZM6.58859 15.1807V17.5452C6.58859 17.7106 6.45452 17.8446 6.28915 17.8446C6.19085 17.8446 6.10362 17.7973 6.04906 17.7241L5.33899 16.8655L4.61923 17.7358C4.51395 17.863 4.32541 17.8809 4.19815 17.7755C4.12671 17.7164 4.08977 17.6311 4.08973 17.5451H4.08935V15.1806H1.6894C1.66615 15.1806 1.64477 15.1904 1.62912 15.206C1.61346 15.2217 1.60371 15.2431 1.60371 15.2663V22.5654C1.60371 22.5887 1.61346 22.61 1.62912 22.6257C1.64477 22.6413 1.66615 22.6511 1.6894 22.6511H8.98849C9.01174 22.6511 9.03312 22.6413 9.04877 22.6257C9.06443 22.61 9.07418 22.5887 9.07418 22.5654V15.2663C9.07418 15.2431 9.06443 15.2217 9.04877 15.206C9.03312 15.1904 9.01174 15.1806 8.98849 15.1806H6.58854L6.58859 15.1807ZM6.02665 3.55548H7.1944C7.27231 3.55548 7.34341 3.52337 7.39507 3.47172C7.44673 3.42001 7.47884 3.34895 7.47884 3.27105V1.79598L6.02665 3.55548ZM8.07771 1.34889H20.2687C20.3466 1.34889 20.4177 1.381 20.4694 1.4327C20.473 1.43631 20.4766 1.43978 20.4804 1.44315C20.5256 1.49369 20.5532 1.56044 20.5532 1.63337V20.0233C20.5532 20.1012 20.5211 20.1722 20.4694 20.224C20.4177 20.2757 20.3466 20.3077 20.2687 20.3077H9.67306V15.2663C9.67306 15.0777 9.59613 14.9065 9.4722 14.7826C9.34826 14.6587 9.17707 14.5817 8.98849 14.5817H5.6921V4.15436H7.19431C7.43754 4.15436 7.65846 4.05508 7.8184 3.89514C7.97834 3.7352 8.07762 3.51428 8.07762 3.27105V1.34889H8.07771ZM9.6731 21.909V20.9066H20.2687C20.5119 20.9066 20.7328 20.8073 20.8928 20.6474C21.0528 20.4874 21.1521 20.2665 21.1521 20.0233V2.95019H22.1115C22.1894 2.95019 22.2604 2.9823 22.3121 3.034C22.3638 3.0857 22.3959 3.15681 22.3959 3.23467V21.6246C22.3959 21.7025 22.3638 21.7735 22.3121 21.8252C22.2604 21.877 22.1893 21.909 22.1114 21.909H9.6731ZM21.1521 2.35131H22.1115C22.3547 2.35131 22.5756 2.45064 22.7355 2.61058C22.8955 2.77056 22.9948 2.99153 22.9948 3.23467V21.6246C22.9948 21.8678 22.8955 22.0887 22.7355 22.2487C22.5756 22.4086 22.3547 22.5079 22.1114 22.5079H9.6731V22.5655C9.6731 22.754 9.59618 22.9252 9.47224 23.0492C9.34831 23.173 9.17712 23.25 8.98854 23.25H1.68945C1.50087 23.25 1.32963 23.1731 1.20574 23.0492C1.0818 22.9252 1.00488 22.754 1.00488 22.5655V15.2664C1.00488 15.0778 1.0818 14.9066 1.20574 14.7827C1.32968 14.6587 1.50087 14.5818 1.68945 14.5818H5.09332V3.85492L5.09341 3.84733V3.84723V3.8469L5.0937 3.83964V3.8395L5.09416 3.83214V3.8319C5.09454 3.82698 5.09505 3.82211 5.09566 3.81728V3.81681C5.10415 3.75039 5.13434 3.69081 5.17891 3.64534L7.47776 0.86003C7.53668 0.788358 7.62209 0.751233 7.7082 0.751186V0.750061H20.2688C20.512 0.750061 20.7329 0.849389 20.8928 1.00933C20.8993 1.0158 20.9054 1.0225 20.9111 1.02939C21.0604 1.18764 21.1521 1.40045 21.1521 1.63347V2.35131ZM10.9495 15.6361H18.2513C18.4167 15.6361 18.5508 15.502 18.5508 15.3366C18.5508 15.1712 18.4167 15.0372 18.2513 15.0372H10.9495C10.7841 15.0372 10.65 15.1712 10.65 15.3366C10.65 15.502 10.7841 15.6361 10.9495 15.6361ZM10.9495 17.4554H18.2513C18.4167 17.4554 18.5508 17.3214 18.5508 17.156C18.5508 16.9906 18.4167 16.8565 18.2513 16.8565H10.9495C10.7841 16.8565 10.65 16.9906 10.65 17.156C10.65 17.3214 10.7841 17.4554 10.9495 17.4554Z" fill="#383839" fill-opacity="0.6"/>
</svg>
