<svg width="24" height="24" viewBox="0 0 24 24" fill="none" xmlns="http://www.w3.org/2000/svg">
<g clip-path="url(#clip0_365_2713)">
<path d="M13.0946 12.9562C12.907 13.1495 12.7315 13.3543 12.5692 13.5692L12.5287 13.6218H1.90627C1.818 13.6218 1.73335 13.5867 1.67093 13.5243C1.60852 13.4619 1.57345 13.3772 1.57345 13.289C1.57345 13.2007 1.60852 13.116 1.67093 13.0536C1.73335 12.9912 1.818 12.9562 1.90627 12.9562L13.0946 12.9562ZM5.33616 5.69924V11.0772H10.7141V5.69924H9.02878V7.64859C9.02892 7.69233 9.02041 7.73567 9.00374 7.77612C8.98706 7.81656 8.96255 7.8533 8.93162 7.88424C8.90069 7.91517 8.86394 7.93968 8.8235 7.95636C8.78306 7.97303 8.73971 7.98154 8.69597 7.9814H7.35291C7.26464 7.9814 7.17999 7.94633 7.11757 7.88392C7.05516 7.82151 7.02009 7.73685 7.02009 7.64859V5.69924H5.33616ZM15.246 3.12187C15.29 3.16516 15.3249 3.21675 15.3487 3.27365C15.3725 3.33054 15.3848 3.3916 15.3848 3.45327V12.6291C15.6001 12.5189 15.8225 12.423 16.0504 12.3422V3.45346C16.05 3.15274 15.9303 2.86447 15.7177 2.65183C15.505 2.43919 15.2168 2.31953 14.916 2.31909H12.8413V2.98471H14.916C14.9773 2.98476 15.038 2.9969 15.0947 3.02044C15.1513 3.04397 15.2027 3.07844 15.246 3.12187ZM12.9437 15.0567H1.90627C1.818 15.0567 1.73335 15.0918 1.67093 15.1542C1.60852 15.2166 1.57345 15.3013 1.57345 15.3895C1.57345 15.4778 1.60852 15.5624 1.67093 15.6249C1.73335 15.6873 1.818 15.7223 1.90627 15.7223H12.654C12.7364 15.4945 12.8331 15.2722 12.9437 15.0567ZM1.90627 17.1583C1.818 17.1583 1.73335 17.1934 1.67093 17.2558C1.60852 17.3182 1.57345 17.4029 1.57345 17.4911C1.57345 17.5794 1.60852 17.664 1.67093 17.7265C1.73335 17.7889 1.818 17.8239 1.90627 17.8239H11.2072C11.2005 17.6016 11.2058 17.3807 11.2207 17.1583H1.90627ZM12.3644 19.2599H1.90627C1.818 19.2599 1.73335 19.295 1.67093 19.3574C1.60852 19.4198 1.57345 19.5045 1.57345 19.5928C1.57345 19.681 1.60852 19.7657 1.67093 19.8281C1.73335 19.8905 1.818 19.9256 1.90627 19.9256H12.8076C12.7191 19.7262 12.6417 19.522 12.5759 19.3139L12.3644 19.2599ZM12.297 21.3386L12.3456 21.2592H1.13438C1.01028 21.2584 0.891471 21.2088 0.803721 21.1211C0.71597 21.0333 0.666351 20.9145 0.665625 20.7904V3.45346C0.665712 3.32917 0.715126 3.20999 0.803015 3.1221C0.890904 3.03421 1.01008 2.9848 1.13438 2.98471H3.20766V2.31909H1.13438C0.833657 2.31953 0.545384 2.43919 0.332744 2.65183C0.120104 2.86447 0.000446354 3.15274 0 3.45346L0 20.7903C0.000471081 21.091 0.120137 21.3793 0.332771 21.5919C0.545406 21.8046 0.833665 21.9242 1.13438 21.9247H12.75C12.688 21.8493 12.6274 21.7738 12.5694 21.697L12.297 21.3386ZM3.87314 3.2002V1.93926C3.87335 1.86107 3.9045 1.78615 3.95979 1.73087C4.01507 1.67559 4.08999 1.64444 4.16817 1.64423H6.68334C6.68334 1.28836 6.82471 0.947068 7.07635 0.695432C7.32798 0.443797 7.66927 0.302429 8.02514 0.302429C8.38101 0.302429 8.7223 0.443797 8.97393 0.695432C9.22557 0.947068 9.36694 1.28836 9.36694 1.64423H11.8808C11.9195 1.64422 11.9579 1.65185 11.9937 1.66667C12.0295 1.6815 12.062 1.70323 12.0894 1.73063C12.1168 1.75803 12.1385 1.79055 12.1534 1.82635C12.1682 1.86215 12.1758 1.90051 12.1758 1.93926V3.2002C12.1758 3.23894 12.1682 3.27731 12.1534 3.31311C12.1385 3.34891 12.1168 3.38144 12.0894 3.40884C12.062 3.43624 12.0295 3.45797 11.9937 3.47279C11.9579 3.48762 11.9195 3.49524 11.8808 3.49523H4.16817C4.08999 3.49503 4.01506 3.46388 3.95977 3.40859C3.90449 3.35331 3.87334 3.27838 3.87314 3.2002ZM7.6897 1.44487C7.6897 1.53313 7.72477 1.61779 7.78718 1.6802C7.8496 1.74262 7.93425 1.77768 8.02252 1.77768H8.02786C8.07156 1.77768 8.11484 1.76907 8.15522 1.75235C8.1956 1.73562 8.23229 1.71111 8.26319 1.6802C8.2941 1.6493 8.31861 1.61261 8.33534 1.57223C8.35206 1.53185 8.36067 1.48857 8.36067 1.44487C8.36067 1.40116 8.35206 1.35788 8.33534 1.3175C8.31861 1.27713 8.2941 1.24044 8.26319 1.20953C8.23229 1.17863 8.1956 1.15411 8.15522 1.13739C8.11484 1.12066 8.07156 1.11205 8.02786 1.11205H8.02252C7.97877 1.11191 7.93543 1.12042 7.89499 1.1371C7.85454 1.15377 7.8178 1.17828 7.78686 1.20922C7.75593 1.24015 7.73142 1.27689 7.71475 1.31734C7.69807 1.35778 7.68956 1.40112 7.6897 1.44487ZM7.68567 5.69924V7.31718H8.3633V5.69924H7.68567ZM20.4179 9.22748L19.5072 9.24623L21.3218 11.379L23.0489 9.17343L22.1423 9.19218C21.9698 5.71406 19.3792 3.19752 16.8855 3.21773C18.7204 4.2254 20.4234 6.4927 20.4179 9.22748ZM23.9434 18.4638L23.29 18.6281L22.7539 18.7628C22.6328 19.2862 22.4261 19.786 22.1423 20.242L22.4251 20.7162L22.7714 21.2942C22.6031 21.5153 22.4204 21.725 22.2244 21.9219C22.0278 22.1183 21.8181 22.301 21.5966 22.4689L21.0187 22.124L20.5445 21.8411C20.0881 22.1243 19.5884 22.3309 19.0653 22.4527L18.9306 22.9876L18.7649 23.641C18.2138 23.7164 17.655 23.7164 17.1038 23.641L16.9395 22.9875L16.8047 22.4527C16.2815 22.3303 15.7819 22.1232 15.3255 21.8397L14.8513 22.1239L14.2734 22.4689C13.8298 22.1331 13.4346 21.7378 13.0987 21.2942L13.4449 20.7162L13.7278 20.242C13.4443 19.7856 13.2372 19.286 13.1148 18.7628L12.58 18.6281L11.9266 18.4638C11.8512 17.9126 11.8512 17.3538 11.9266 16.8027L12.58 16.6383L13.1148 16.5024C13.2372 15.9792 13.4443 15.4796 13.7278 15.0232L13.4448 14.55L13.0987 13.9707C13.2662 13.7494 13.4489 13.5401 13.6456 13.3443C13.8422 13.148 14.052 12.9653 14.2734 12.7975L14.8514 13.1424L15.3255 13.4253C15.7817 13.1416 16.2814 12.935 16.8047 12.8137L16.9395 12.2775L17.1038 11.6241C17.6549 11.5487 18.2137 11.5487 18.7649 11.6241L18.9306 12.2775L19.0653 12.8137C19.5886 12.935 20.0883 13.1416 20.5445 13.4253L21.0187 13.1424L21.5966 12.7975C22.0393 13.134 22.4344 13.5287 22.7714 13.9709L22.425 14.55L22.1421 15.0229C22.4256 15.4792 22.6327 15.9789 22.755 16.5021L23.2899 16.638L23.9433 16.8023C24.0188 17.3536 24.0188 17.9125 23.9434 18.4638ZM21.346 17.6325C21.3457 16.958 21.1454 16.2986 20.7705 15.7379C20.3955 15.1771 19.8626 14.7401 19.2393 14.4822C18.616 14.2242 17.9302 14.1569 17.2686 14.2887C16.607 14.4204 15.9994 14.7454 15.5225 15.2225C15.0456 15.6996 14.7209 16.3074 14.5894 16.9691C14.4579 17.6307 14.5255 18.3165 14.7837 18.9397C15.0419 19.5629 15.4791 20.0955 16.0401 20.4703C16.601 20.845 17.2604 21.045 17.935 21.045C18.8394 21.0433 19.7062 20.6831 20.3455 20.0435C20.9849 19.4039 21.3446 18.5369 21.346 17.6325Z" fill="#383839" fill-opacity="0.6"/>
</g>
<defs>
<clipPath id="clip0_365_2713">
<rect width="24" height="24" fill="white"/>
</clipPath>
</defs>
</svg>
