<svg width="18" height="18" viewBox="0 0 18 18" fill="none" xmlns="http://www.w3.org/2000/svg">
<path d="M6.25084 7.50058C6.25861 6.90626 6.49816 6.33846 6.91844 5.91818C7.33873 5.49789 7.90652 5.25835 8.50084 5.25058C9.09516 5.25835 9.66296 5.49789 10.0832 5.91818C10.5035 6.33846 10.7431 6.90626 10.7508 7.50058C10.7431 8.0949 10.5035 8.66269 10.0832 9.08298C9.66296 9.50326 9.09516 9.74281 8.50084 9.75058C7.90652 9.74281 7.33873 9.50326 6.91844 9.08298C6.49816 8.66269 6.25861 8.0949 6.25084 7.50058ZM8.50084 14.2506L11.5008 15.0006V12.6906C10.5961 13.2354 9.55686 13.516 8.50084 13.5006C7.44482 13.516 6.40558 13.2354 5.50084 12.6906V15.0006M8.50084 3.00058C7.90982 2.98979 7.32283 3.1 6.77597 3.32442C6.2291 3.54884 5.73392 3.88273 5.32084 4.30558C4.89343 4.7191 4.55567 5.21615 4.32858 5.76581C4.1015 6.31546 3.98994 6.90596 4.00084 7.50058C3.99303 8.09143 4.10609 8.67764 4.33309 9.2232C4.56008 9.76876 4.89622 10.2622 5.32084 10.6731C5.73199 11.1 6.22631 11.4381 6.77327 11.6664C7.32023 11.8947 7.90819 12.0085 8.50084 12.0006C9.09349 12.0085 9.68146 11.8947 10.2284 11.6664C10.7754 11.4381 11.2697 11.1 11.6808 10.6731C12.1055 10.2622 12.4416 9.76876 12.6686 9.2232C12.8956 8.67764 13.0087 8.09143 13.0008 7.50058C13.0117 6.90596 12.9002 6.31546 12.6731 5.76581C12.446 5.21615 12.1083 4.7191 11.6808 4.30558C11.2678 3.88273 10.7726 3.54884 10.2257 3.32442C9.67885 3.1 9.09187 2.98979 8.50084 3.00058ZM14.5008 7.50058C14.4855 8.22056 14.3407 8.9319 14.0733 9.60058C13.8337 10.2814 13.47 10.9121 13.0008 11.4606V17.2506L8.50084 15.7506L4.00084 17.2506V11.4606C3.03011 10.3704 2.49597 8.96028 2.50084 7.50058C2.48762 6.71352 2.63587 5.9321 2.93643 5.20456C3.23699 4.47703 3.68348 3.81882 4.24834 3.27058C4.79862 2.70065 5.45987 2.24955 6.19126 1.94512C6.92266 1.6407 7.7087 1.4894 8.50084 1.50058C9.29299 1.4894 10.079 1.6407 10.8104 1.94512C11.5418 2.24955 12.2031 2.70065 12.7533 3.27058C13.3182 3.81882 13.7647 4.47703 14.0653 5.20456C14.3658 5.9321 14.5141 6.71352 14.5008 7.50058Z" fill="#383838" fill-opacity="0.6"/>
</svg>
