<svg width="24" height="24" viewBox="0 0 24 24" fill="none" xmlns="http://www.w3.org/2000/svg">
<path d="M9.00001 9.99979C9.01037 9.20736 9.32977 8.45031 9.89015 7.88993C10.4505 7.32955 11.2076 7.01015 12 6.99979C12.7924 7.01015 13.5495 7.32955 14.1099 7.88993C14.6703 8.45031 14.9897 9.20736 15 9.99979C14.9897 10.7922 14.6703 11.5493 14.1099 12.1097C13.5495 12.67 12.7924 12.9894 12 12.9998C11.2076 12.9894 10.4505 12.67 9.89015 12.1097C9.32977 11.5493 9.01037 10.7922 9.00001 9.99979ZM12 18.9998L16 19.9998V16.9198C14.7937 17.6463 13.408 18.0204 12 17.9998C10.592 18.0204 9.20634 17.6463 8.00001 16.9198V19.9998M12 3.99979C11.212 3.98541 10.4293 4.13236 9.70018 4.43158C8.97103 4.73081 8.31078 5.176 7.76002 5.73979C7.19013 6.29116 6.73979 6.95389 6.437 7.68676C6.13422 8.41964 5.98547 9.20697 6.00001 9.99979C5.9896 10.7876 6.14035 11.5692 6.44301 12.2966C6.74567 13.024 7.19385 13.6819 7.76002 14.2298C8.30821 14.799 8.96731 15.2498 9.69658 15.5542C10.4259 15.8586 11.2098 16.0103 12 15.9998C12.7902 16.0103 13.5742 15.8586 14.3034 15.5542C15.0327 15.2498 15.6918 14.799 16.24 14.2298C16.8062 13.6819 17.2544 13.024 17.557 12.2966C17.8597 11.5692 18.0104 10.7876 18 9.99979C18.0146 9.20697 17.8658 8.41964 17.563 7.68676C17.2602 6.95389 16.8099 6.29116 16.24 5.73979C15.6893 5.176 15.029 4.73081 14.2998 4.43158C13.5707 4.13236 12.788 3.98541 12 3.99979ZM20 9.99979C19.9796 10.9598 19.7865 11.9082 19.43 12.7998C19.1104 13.7076 18.6256 14.5484 18 15.2798V22.9998L12 20.9998L6.00001 22.9998V15.2798C4.7057 13.8262 3.99352 11.9461 4.00001 9.99979C3.98239 8.95038 4.18005 7.90849 4.5808 6.93844C4.98154 5.9684 5.57687 5.09079 6.33001 4.35979C7.06372 3.59989 7.94538 2.99843 8.92058 2.59252C9.89578 2.18662 10.9438 1.98489 12 1.99979C13.0562 1.98489 14.1043 2.18662 15.0795 2.59252C16.0547 2.99843 16.9363 3.59989 17.67 4.35979C18.4232 5.09079 19.0185 5.9684 19.4192 6.93844C19.82 7.90849 20.0176 8.95038 20 9.99979Z" fill="#34C759"/>
</svg>
