<svg width="17" height="17" viewBox="0 0 17 17" fill="none" xmlns="http://www.w3.org/2000/svg">
<path d="M6.30665 5.64001L7.83331 4.10668V10.5C7.83331 10.6768 7.90355 10.8464 8.02858 10.9714C8.1536 11.0964 8.32317 11.1667 8.49998 11.1667C8.67679 11.1667 8.84636 11.0964 8.97138 10.9714C9.09641 10.8464 9.16665 10.6768 9.16665 10.5V4.10668L10.6933 5.64001C10.7553 5.7025 10.829 5.75209 10.9103 5.78594C10.9915 5.81979 11.0786 5.83721 11.1666 5.83721C11.2547 5.83721 11.3418 5.81979 11.423 5.78594C11.5043 5.75209 11.578 5.7025 11.64 5.64001C11.7025 5.57804 11.7521 5.5043 11.7859 5.42306C11.8198 5.34182 11.8372 5.25469 11.8372 5.16668C11.8372 5.07867 11.8198 4.99153 11.7859 4.91029C11.7521 4.82906 11.7025 4.75532 11.64 4.69335L8.97331 2.02668C8.90991 1.96599 8.83515 1.91841 8.75331 1.88668C8.59101 1.82 8.40895 1.82 8.24665 1.88668C8.16481 1.91841 8.09005 1.96599 8.02665 2.02668L5.35998 4.69335C5.29782 4.7555 5.24851 4.8293 5.21487 4.91051C5.18123 4.99173 5.16392 5.07877 5.16392 5.16668C5.16392 5.25459 5.18123 5.34163 5.21487 5.42285C5.24851 5.50406 5.29782 5.57785 5.35998 5.64001C5.42214 5.70217 5.49593 5.75148 5.57715 5.78512C5.65836 5.81876 5.74541 5.83607 5.83331 5.83607C5.92122 5.83607 6.00827 5.81876 6.08948 5.78512C6.17069 5.75148 6.24449 5.70217 6.30665 5.64001ZM14.5 9.83335C14.3232 9.83335 14.1536 9.90358 14.0286 10.0286C13.9036 10.1536 13.8333 10.3232 13.8333 10.5V13.1667C13.8333 13.3435 13.7631 13.5131 13.6381 13.6381C13.513 13.7631 13.3435 13.8333 13.1666 13.8333H3.83331C3.6565 13.8333 3.48693 13.7631 3.36191 13.6381C3.23688 13.5131 3.16665 13.3435 3.16665 13.1667V10.5C3.16665 10.3232 3.09641 10.1536 2.97138 10.0286C2.84636 9.90358 2.67679 9.83335 2.49998 9.83335C2.32317 9.83335 2.1536 9.90358 2.02858 10.0286C1.90355 10.1536 1.83331 10.3232 1.83331 10.5V13.1667C1.83331 13.6971 2.04403 14.2058 2.4191 14.5809C2.79417 14.956 3.30288 15.1667 3.83331 15.1667H13.1666C13.6971 15.1667 14.2058 14.956 14.5809 14.5809C14.9559 14.2058 15.1666 13.6971 15.1666 13.1667V10.5C15.1666 10.3232 15.0964 10.1536 14.9714 10.0286C14.8464 9.90358 14.6768 9.83335 14.5 9.83335Z" fill="#383838" fill-opacity="0.6"/>
</svg>
