<svg width="16" height="16" viewBox="0 0 16 16" fill="none" xmlns="http://www.w3.org/2000/svg">
<path d="M5.80683 5.13977L7.3335 3.60643V9.99977C7.3335 10.1766 7.40373 10.3461 7.52876 10.4712C7.65378 10.5962 7.82335 10.6664 8.00016 10.6664C8.17697 10.6664 8.34654 10.5962 8.47157 10.4712C8.59659 10.3461 8.66683 10.1766 8.66683 9.99977V3.60643L10.1935 5.13977C10.2555 5.20225 10.3292 5.25185 10.4104 5.2857C10.4917 5.31954 10.5788 5.33697 10.6668 5.33697C10.7548 5.33697 10.842 5.31954 10.9232 5.2857C11.0045 5.25185 11.0782 5.20225 11.1402 5.13977C11.2026 5.07779 11.2522 5.00406 11.2861 4.92282C11.3199 4.84158 11.3374 4.75444 11.3374 4.66644C11.3374 4.57843 11.3199 4.49129 11.2861 4.41005C11.2522 4.32881 11.2026 4.25508 11.1402 4.1931L8.4735 1.52643C8.41009 1.46574 8.33533 1.41816 8.2535 1.38643C8.09119 1.31976 7.90914 1.31976 7.74683 1.38643C7.665 1.41816 7.59023 1.46574 7.52683 1.52643L4.86016 4.1931C4.798 4.25526 4.7487 4.32905 4.71506 4.41027C4.68142 4.49148 4.6641 4.57853 4.6641 4.66644C4.6641 4.75434 4.68142 4.84139 4.71506 4.9226C4.7487 5.00382 4.798 5.07761 4.86016 5.13977C4.92232 5.20193 4.99612 5.25123 5.07733 5.28487C5.15854 5.31851 5.24559 5.33583 5.3335 5.33583C5.4214 5.33583 5.50845 5.31851 5.58966 5.28487C5.67088 5.25123 5.74467 5.20193 5.80683 5.13977ZM14.0002 9.3331C13.8234 9.3331 13.6538 9.40334 13.5288 9.52836C13.4037 9.65339 13.3335 9.82296 13.3335 9.99977V12.6664C13.3335 12.8432 13.2633 13.0128 13.1382 13.1378C13.0132 13.2629 12.8436 13.3331 12.6668 13.3331H3.3335C3.15669 13.3331 2.98712 13.2629 2.86209 13.1378C2.73707 13.0128 2.66683 12.8432 2.66683 12.6664V9.99977C2.66683 9.82296 2.59659 9.65339 2.47157 9.52836C2.34654 9.40334 2.17697 9.3331 2.00016 9.3331C1.82335 9.3331 1.65378 9.40334 1.52876 9.52836C1.40373 9.65339 1.3335 9.82296 1.3335 9.99977V12.6664C1.3335 13.1969 1.54421 13.7056 1.91928 14.0806C2.29436 14.4557 2.80306 14.6664 3.3335 14.6664H12.6668C13.1973 14.6664 13.706 14.4557 14.081 14.0806C14.4561 13.7056 14.6668 13.1969 14.6668 12.6664V9.99977C14.6668 9.82296 14.5966 9.65339 14.4716 9.52836C14.3465 9.40334 14.177 9.3331 14.0002 9.3331Z" fill="#383838" fill-opacity="0.6"/>
</svg>
