<svg width="887" height="93" viewBox="0 0 887 93" fill="none" xmlns="http://www.w3.org/2000/svg">
<path d="M-5.33333 0.5C-5.33333 3.44552 -2.94552 5.83333 0 5.83333C2.94552 5.83333 5.33333 3.44552 5.33333 0.5C5.33333 -2.44552 2.94552 -4.83333 0 -4.83333C-2.94552 -4.83333 -5.33333 -2.44552 -5.33333 0.5ZM217 65.5L216.713 66.4579L216.932 66.5234L217.157 66.4876L217 65.5ZM443.5 29.5L443.656 28.5123L443.5 28.4875L443.343 28.5124L443.5 29.5ZM671 65.5L670.844 66.4877L670.859 66.4901L670.873 66.492L671 65.5ZM881.167 93C881.167 95.9455 883.555 98.3333 886.5 98.3333C889.445 98.3333 891.833 95.9455 891.833 93C891.833 90.0545 889.445 87.6667 886.5 87.6667C883.555 87.6667 881.167 90.0545 881.167 93ZM0 0.5L-0.286943 1.45795L216.713 66.4579L217 65.5L217.287 64.5421L0.286943 -0.457948L0 0.5ZM217 65.5L217.157 66.4876L443.657 30.4876L443.5 29.5L443.343 28.5124L216.843 64.5124L217 65.5ZM443.5 29.5L443.344 30.4877L670.844 66.4877L671 65.5L671.156 64.5123L443.656 28.5123L443.5 29.5ZM671 65.5L670.873 66.492L886.373 93.992L886.5 93L886.627 92.008L671.127 64.508L671 65.5Z" fill="#FF2D55"/>
</svg>
