<svg width="886" height="120" viewBox="0 0 886 120" fill="none" xmlns="http://www.w3.org/2000/svg">
<path d="M-5.33333 86C-5.33333 88.9455 -2.94552 91.3333 0 91.3333C2.94552 91.3333 5.33333 88.9455 5.33333 86C5.33333 83.0545 2.94552 80.6667 0 80.6667C-2.94552 80.6667 -5.33333 83.0545 -5.33333 86ZM219.5 25.5L219.684 24.5171L219.457 24.4746L219.234 24.5359L219.5 25.5ZM441 67L441.228 66.0264L441.206 66.0212L441.184 66.0171L441 67ZM665 119.5L664.772 120.474L665.142 120.56L665.477 120.379L665 119.5ZM880.167 0C880.167 2.94552 882.555 5.33333 885.5 5.33333C888.445 5.33333 890.833 2.94552 890.833 0C890.833 -2.94552 888.445 -5.33333 885.5 -5.33333C882.555 -5.33333 880.167 -2.94552 880.167 0ZM0 86L0.265718 86.9641L219.766 26.4641L219.5 25.5L219.234 24.5359L-0.265718 85.0359L0 86ZM219.5 25.5L219.316 26.4829L440.816 67.9829L441 67L441.184 66.0171L219.684 24.5171L219.5 25.5ZM441 67L440.772 67.9736L664.772 120.474L665 119.5L665.228 118.526L441.228 66.0264L441 67ZM665 119.5L665.477 120.379L885.977 0.879188L885.5 0L885.023 -0.879188L664.523 118.621L665 119.5Z" fill="#007AFF"/>
</svg>
