<svg width="885" height="120" viewBox="0 0 885 120" fill="none" xmlns="http://www.w3.org/2000/svg">
<path d="M-4.83333 43C-4.83333 45.9455 -2.44552 48.3333 0.5 48.3333C3.44552 48.3333 5.83333 45.9455 5.83333 43C5.83333 40.0545 3.44552 37.6667 0.5 37.6667C-2.44552 37.6667 -4.83333 40.0545 -4.83333 43ZM219 119.5L218.67 120.444L219.085 120.589L219.473 120.381L219 119.5ZM440.5 0.5L440.541 -0.499176L440.268 -0.510272L440.027 -0.380918L440.5 0.5ZM662 9.5L662.081 8.50326L662.061 8.50164L662.041 8.50082L662 9.5ZM879.167 27.5C879.167 30.4455 881.555 32.8333 884.5 32.8333C887.445 32.8333 889.833 30.4455 889.833 27.5C889.833 24.5545 887.445 22.1667 884.5 22.1667C881.555 22.1667 879.167 24.5545 879.167 27.5ZM0.5 43L0.169553 43.9438L218.67 120.444L219 119.5L219.33 118.556L0.830447 42.0562L0.5 43ZM219 119.5L219.473 120.381L440.973 1.38092L440.5 0.5L440.027 -0.380918L218.527 118.619L219 119.5ZM440.5 0.5L440.459 1.49918L661.959 10.4992L662 9.5L662.041 8.50082L440.541 -0.499176L440.5 0.5ZM662 9.5L661.919 10.4967L884.419 28.4967L884.5 27.5L884.581 26.5033L662.081 8.50326L662 9.5Z" fill="#FF9500"/>
</svg>
