<svg width="24" height="24" viewBox="0 0 24 24" fill="none" xmlns="http://www.w3.org/2000/svg">
<g clip-path="url(#clip0_619_2913)">
<path d="M9.25748 6.89243H14.7412C14.9224 6.89243 15.0694 6.74548 15.0694 6.56422C15.0694 5.28837 14.2871 4.19206 13.1771 3.72898C13.5953 3.38684 13.8629 2.86695 13.8629 2.28565C13.8629 1.25768 13.0266 0.421387 11.9986 0.421387C10.9707 0.421387 10.1344 1.25768 10.1344 2.28565C10.1344 2.86704 10.402 3.38693 10.8204 3.72907C9.71105 4.19225 8.92922 5.28847 8.92922 6.56417C8.92922 6.74543 9.07617 6.89239 9.25744 6.89239L9.25748 6.89243ZM10.7909 2.2857C10.7909 1.6197 11.3327 1.07787 11.9987 1.07787C12.6647 1.07787 13.2065 1.6197 13.2065 2.2857C13.2065 2.9517 12.6647 3.49353 11.9987 3.49353C11.3327 3.49353 10.7909 2.9517 10.7909 2.2857ZM11.9987 4.14997C13.2186 4.14997 14.2301 5.05948 14.3908 6.23604H9.60792C9.76847 5.05948 10.7794 4.14997 11.9987 4.14997ZM5.097 19.0228C5.51527 18.6807 5.78283 18.1608 5.78283 17.5795C5.78283 16.5515 4.94653 15.7152 3.91856 15.7152C2.89059 15.7152 2.0543 16.5515 2.0543 17.5795C2.0543 18.1608 2.32186 18.6806 2.74012 19.0228C1.63012 19.4859 0.847828 20.5822 0.847828 21.858C0.847828 22.0393 0.994781 22.1862 1.17605 22.1862H6.66108C6.84234 22.1862 6.9893 22.0393 6.9893 21.858C6.9893 20.5822 6.207 19.4859 5.097 19.0228ZM2.71078 17.5795C2.71078 16.9135 3.25261 16.3716 3.91861 16.3716C4.58461 16.3716 5.12644 16.9135 5.12644 17.5795C5.12644 18.2455 4.58461 18.7873 3.91861 18.7873C3.25261 18.7873 2.71078 18.2455 2.71078 17.5795ZM1.52648 21.5298C1.68712 20.3532 2.69864 19.4437 3.91856 19.4437C5.13848 19.4437 6.15 20.3532 6.31064 21.5298H1.52648ZM21.2596 19.0292C21.678 18.6868 21.9457 18.1665 21.9457 17.5848C21.9457 16.5568 21.1094 15.7205 20.0814 15.7205C19.0534 15.7205 18.2171 16.5568 18.2171 17.5848C18.2171 18.1666 18.4848 18.687 18.9033 19.0294C17.7938 19.4923 17.0119 20.5881 17.0119 21.8633C17.0119 22.0446 17.1589 22.1915 17.3401 22.1915H22.8239C23.0051 22.1915 23.1521 22.0446 23.1521 21.8633C23.1521 20.588 22.3697 19.4921 21.2596 19.0292H21.2596ZM18.8736 17.5848C18.8736 16.9188 19.4154 16.3769 20.0814 16.3769C20.7474 16.3769 21.2893 16.9188 21.2893 17.5848C21.2893 18.2508 20.7474 18.7939 20.0814 18.7939C19.4154 18.7939 18.8736 18.2515 18.8736 17.5848ZM17.6906 21.5351C17.8512 20.3592 18.8621 19.4503 20.0814 19.4503C21.3007 19.4503 22.3129 20.3592 22.4735 21.5351H17.6906ZM15.744 5.48422C15.8232 5.32118 16.0194 5.25303 16.1826 5.33206C17.7819 6.10742 19.1344 7.31037 20.0937 8.81089C21.0793 10.3524 21.6002 12.1389 21.6002 13.9773C21.6002 14.2835 21.5854 14.5961 21.5563 14.9062C21.5403 15.0762 21.3973 15.2037 21.2299 15.2037C21.2196 15.2037 21.2092 15.2032 21.1987 15.2022C21.0183 15.1853 20.8858 15.0252 20.9028 14.8447C20.93 14.555 20.9438 14.2632 20.9438 13.9773C20.9438 10.5708 18.9625 7.40923 15.8962 5.92273C15.7332 5.84365 15.665 5.64734 15.7441 5.48426L15.744 5.48422ZM16.4273 16.3837C16.5967 16.0725 16.7326 15.7449 16.8328 15.4059L17.577 15.2176C17.9696 15.119 18.2438 14.7674 18.2438 14.3625V13.5919C18.2438 13.1884 17.9703 12.8364 17.577 12.7355L16.8328 12.5483C16.7327 12.2089 16.5969 11.8809 16.4272 11.5693L16.8208 10.9099C17.0288 10.5612 16.9735 10.1187 16.6879 9.83525L16.1426 9.28854C15.8565 9.00251 15.4138 8.94762 15.066 9.15504L14.4065 9.54861C14.095 9.37906 13.7671 9.24317 13.4275 9.14309L13.24 8.39736C13.1395 8.00572 12.7875 7.73215 12.384 7.73215H11.6133C11.2085 7.73215 10.8569 8.00637 10.7583 8.39848L10.57 9.14323C10.2309 9.2434 9.90333 9.3792 9.59212 9.54865L8.93264 9.15509C8.58492 8.94767 8.14228 9.00256 7.85616 9.28864L7.31222 9.83389C7.02384 10.1201 6.96886 10.5631 7.17764 10.9097L7.57022 11.5692C7.40053 11.8808 7.26459 12.2089 7.16452 12.5485L6.42052 12.7358C6.02241 12.8375 5.75494 13.1815 5.75494 13.592V14.3626C5.75494 14.768 6.0293 15.1197 6.42112 15.2176L7.16456 15.4059C7.26478 15.745 7.40062 16.0727 7.57017 16.3841L7.17853 17.0421C6.96937 17.3894 7.02398 17.8325 7.31133 18.1198L7.85611 18.6646C8.14261 18.9511 8.58544 19.0066 8.93273 18.7994L9.59212 18.4059C9.90337 18.5753 10.2309 18.7112 10.5701 18.8113L10.7581 19.5538C10.8563 19.9467 11.208 20.221 11.6133 20.221H12.384C12.7944 20.221 13.1385 19.9535 13.2404 19.5544L13.4274 18.8114C13.7671 18.7112 14.095 18.5754 14.4065 18.4058L15.066 18.7994C15.4133 19.0066 15.856 18.9511 16.1426 18.6646L16.6874 18.1198C16.9734 17.8337 17.0282 17.3911 16.8208 17.0432L16.4272 16.3838L16.4273 16.3837ZM15.7655 16.5557L16.2571 17.3795C16.3121 17.4717 16.2988 17.58 16.2232 17.6556L15.6784 18.2004C15.6023 18.2765 15.4938 18.2902 15.4023 18.2357L14.5785 17.744C14.4749 17.6823 14.3458 17.6823 14.2421 17.744C13.8781 17.9612 13.4857 18.1238 13.0757 18.2272C12.9586 18.2568 12.8672 18.3482 12.8377 18.4653L12.6041 19.3931C12.5775 19.4973 12.4912 19.5646 12.384 19.5646H11.6134C11.5065 19.5646 11.4208 19.4979 11.3947 19.3937L11.1595 18.4649C11.1299 18.3481 11.0387 18.2569 10.9219 18.2273C10.5124 18.1237 10.1203 17.9611 9.75652 17.7441C9.70477 17.7132 9.64655 17.6977 9.58838 17.6977C9.5302 17.6977 9.47198 17.7132 9.42019 17.7441L8.5965 18.2357C8.50467 18.2904 8.39634 18.2765 8.32026 18.2004L7.77548 17.6556C7.69959 17.5797 7.686 17.4718 7.74173 17.3793L8.23205 16.5554C8.29364 16.4519 8.29359 16.3229 8.23191 16.2194C8.01478 15.8555 7.85217 15.4634 7.74867 15.0541C7.71909 14.9373 7.62787 14.846 7.51106 14.8165L6.5813 14.581C6.47808 14.5552 6.41138 14.4695 6.41138 14.3626V13.592C6.41138 13.4849 6.47869 13.3984 6.58186 13.3722L7.51064 13.1383C7.62773 13.1088 7.71919 13.0174 7.74872 12.9003C7.85203 12.4905 8.01464 12.0981 8.23191 11.7338C8.29359 11.6303 8.29364 11.5014 8.23205 11.3978L7.74084 10.5725C7.68605 10.4816 7.69931 10.3745 7.77605 10.2984L8.32026 9.75284C8.39578 9.67728 8.5042 9.66392 8.59636 9.71886L9.42014 10.2105C9.52378 10.2723 9.65292 10.2723 9.75647 10.2105C10.1204 9.9934 10.5124 9.83084 10.9218 9.72729C11.0387 9.69772 11.1299 9.60645 11.1595 9.48959L11.3948 8.55893C11.4204 8.45703 11.5082 8.38859 11.6133 8.38859H12.384C12.491 8.38859 12.5774 8.45604 12.6038 8.55898L12.8377 9.48912C12.8671 9.60631 12.9585 9.69781 13.0757 9.72734C13.4857 9.83075 13.8781 9.99326 14.2421 10.2105C14.3457 10.2723 14.4749 10.2723 14.5785 10.2105L15.4022 9.71886C15.4943 9.66397 15.6028 9.67718 15.6784 9.75284L16.224 10.2998C16.299 10.3742 16.3119 10.4817 16.2571 10.5737L15.7655 11.3975C15.7037 11.5011 15.7037 11.6302 15.7655 11.7338C15.9827 12.098 16.1453 12.4905 16.2487 12.9003C16.2782 13.0174 16.3697 13.1089 16.4869 13.1383L17.4155 13.3718C17.5199 13.3985 17.5874 13.485 17.5874 13.592V14.3626C17.5874 14.4677 17.5189 14.5555 17.4165 14.5812L16.4864 14.8165C16.3695 14.846 16.2783 14.9373 16.2487 15.0542C16.1452 15.4635 15.9826 15.8555 15.7655 16.2195C15.7037 16.3231 15.7037 16.4522 15.7655 16.5558L15.7655 16.5557ZM2.44266 14.9078C2.41247 14.6037 2.39719 14.2906 2.39719 13.9772C2.39719 12.1397 2.91806 10.3538 3.90352 8.81248C4.86253 7.31257 6.21455 6.10953 7.81331 5.33342C7.9763 5.25434 8.1727 5.32226 8.25187 5.48534C8.331 5.64842 8.26298 5.84478 8.09995 5.9239C4.98727 7.43487 3.05362 10.5207 3.05362 13.9772C3.05362 14.269 3.06783 14.5602 3.09586 14.843C3.11372 15.0234 2.982 15.1841 2.80167 15.202C2.79066 15.203 2.77969 15.2036 2.76891 15.2036C2.60217 15.2036 2.45944 15.0772 2.44266 14.9077V14.9078ZM13.9373 11.3795H10.0601C9.69666 11.3795 9.40097 11.6752 9.40097 12.0386V15.9159C9.40097 16.2792 9.69666 16.5749 10.0601 16.5749H13.9373C14.3007 16.5749 14.5964 16.2792 14.5964 15.9159V12.0386C14.5964 11.6752 14.3007 11.3795 13.9373 11.3795ZM11.5868 12.0359H12.4106V12.8597H11.5868V12.0359ZM13.9373 15.9185L10.0575 15.9158L10.0601 12.0359H10.9304V13.0803C10.9304 13.3206 11.1259 13.5162 11.3662 13.5162H12.6312C12.8715 13.5162 13.0671 13.3206 13.0671 13.0803V12.0359H13.9373L13.94 12.0386L13.9373 15.9185V15.9185ZM16.229 22.2382C16.3059 22.4023 16.2352 22.5977 16.0711 22.6747C14.7915 23.2745 13.4214 23.5787 11.9987 23.5787C10.5761 23.5787 9.20869 23.2746 7.92778 22.6747C7.76362 22.5979 7.69289 22.4024 7.76977 22.2383C7.84664 22.0742 8.04183 22.0034 8.20622 22.0803C9.39933 22.639 10.6753 22.9223 11.9987 22.9223C13.3222 22.9223 14.6008 22.639 15.7925 22.0803C15.9567 22.0034 16.152 22.0741 16.229 22.2382H16.229Z" fill="#383838" fill-opacity="0.6"/>
</g>
<defs>
<clipPath id="clip0_619_2913">
<rect width="24" height="24" fill="white"/>
</clipPath>
</defs>
</svg>
