<svg width="24" height="24" viewBox="0 0 24 24" fill="none" xmlns="http://www.w3.org/2000/svg">
<g clip-path="url(#clip0_619_2921)">
<path d="M13.0946 12.9561C12.907 13.1494 12.7315 13.3541 12.5692 13.569L12.5287 13.6216H1.90627C1.818 13.6216 1.73335 13.5865 1.67093 13.5241C1.60852 13.4617 1.57345 13.377 1.57345 13.2888C1.57345 13.2005 1.60852 13.1159 1.67093 13.0534C1.73335 12.991 1.818 12.956 1.90627 12.956L13.0946 12.9561ZM5.33616 5.69906V11.077H10.7141V5.69906H9.02878V7.6484C9.02892 7.69215 9.02041 7.73549 9.00374 7.77593C8.98706 7.81638 8.96255 7.85312 8.93162 7.88405C8.90069 7.91499 8.86394 7.9395 8.8235 7.95617C8.78306 7.97285 8.73971 7.98136 8.69597 7.98122H7.35291C7.26464 7.98122 7.17999 7.94615 7.11757 7.88374C7.05516 7.82132 7.02009 7.73667 7.02009 7.6484V5.69906H5.33616ZM15.246 3.12168C15.29 3.16498 15.3249 3.21657 15.3487 3.27346C15.3725 3.33035 15.3848 3.39141 15.3848 3.45309V12.6289C15.6001 12.5187 15.8225 12.4228 16.0504 12.342V3.45328C16.05 3.15256 15.9303 2.86429 15.7177 2.65165C15.505 2.43901 15.2168 2.31935 14.916 2.3189H12.8413V2.98453H14.916C14.9773 2.98458 15.038 2.99672 15.0947 3.02025C15.1513 3.04379 15.2027 3.07825 15.246 3.12168ZM12.9437 15.0565H1.90627C1.818 15.0565 1.73335 15.0916 1.67093 15.154C1.60852 15.2164 1.57345 15.3011 1.57345 15.3893C1.57345 15.4776 1.60852 15.5623 1.67093 15.6247C1.73335 15.6871 1.818 15.7222 1.90627 15.7222H12.654C12.7364 15.4944 12.8331 15.272 12.9437 15.0565ZM1.90627 17.1581C1.818 17.1581 1.73335 17.1932 1.67093 17.2556C1.60852 17.318 1.57345 17.4027 1.57345 17.4909C1.57345 17.5792 1.60852 17.6639 1.67093 17.7263C1.73335 17.7887 1.818 17.8237 1.90627 17.8237H11.2072C11.2005 17.6015 11.2058 17.3805 11.2207 17.1581H1.90627ZM12.3644 19.2598H1.90627C1.818 19.2598 1.73335 19.2948 1.67093 19.3572C1.60852 19.4197 1.57345 19.5043 1.57345 19.5926C1.57345 19.6808 1.60852 19.7655 1.67093 19.8279C1.73335 19.8903 1.818 19.9254 1.90627 19.9254H12.8076C12.7191 19.726 12.6417 19.5218 12.5759 19.3138L12.3644 19.2598ZM12.297 21.3384L12.3456 21.259H1.13438C1.01028 21.2583 0.891471 21.2086 0.803721 21.1209C0.71597 21.0331 0.666351 20.9143 0.665625 20.7902V3.45328C0.665712 3.32898 0.715126 3.20981 0.803015 3.12192C0.890904 3.03403 1.01008 2.98461 1.13438 2.98453H3.20766V2.3189H1.13438C0.833657 2.31935 0.545384 2.43901 0.332744 2.65165C0.120104 2.86429 0.000446354 3.15256 0 3.45328L0 20.7901C0.000471081 21.0908 0.120137 21.3791 0.332771 21.5917C0.545406 21.8044 0.833665 21.924 1.13438 21.9245H12.75C12.688 21.8491 12.6274 21.7736 12.5694 21.6968L12.297 21.3384ZM3.87314 3.20001V1.93907C3.87335 1.86089 3.9045 1.78597 3.95979 1.73069C4.01507 1.6754 4.08999 1.64425 4.16817 1.64404H6.68334C6.68334 1.28818 6.82471 0.946885 7.07635 0.695249C7.32798 0.443614 7.66927 0.302246 8.02514 0.302246C8.38101 0.302246 8.7223 0.443614 8.97393 0.695249C9.22557 0.946885 9.36694 1.28818 9.36694 1.64404H11.8808C11.9195 1.64404 11.9579 1.65166 11.9937 1.66649C12.0295 1.68131 12.062 1.70305 12.0894 1.73044C12.1168 1.75784 12.1385 1.79037 12.1534 1.82617C12.1682 1.86196 12.1758 1.90033 12.1758 1.93907V3.20001C12.1758 3.23876 12.1682 3.27713 12.1534 3.31293C12.1385 3.34873 12.1168 3.38126 12.0894 3.40865C12.062 3.43605 12.0295 3.45779 11.9937 3.47261C11.9579 3.48743 11.9195 3.49506 11.8808 3.49504H4.16817C4.08999 3.49485 4.01506 3.4637 3.95977 3.40841C3.90449 3.35313 3.87334 3.2782 3.87314 3.20001ZM7.6897 1.44468C7.6897 1.53295 7.72477 1.6176 7.78718 1.68002C7.8496 1.74243 7.93425 1.7775 8.02252 1.7775H8.02786C8.07156 1.7775 8.11484 1.76889 8.15522 1.75216C8.1956 1.73544 8.23229 1.71092 8.26319 1.68002C8.2941 1.64911 8.31861 1.61242 8.33534 1.57205C8.35206 1.53167 8.36067 1.48839 8.36067 1.44468C8.36067 1.40098 8.35206 1.3577 8.33534 1.31732C8.31861 1.27694 8.2941 1.24025 8.26319 1.20935C8.23229 1.17845 8.1956 1.15393 8.15522 1.13721C8.11484 1.12048 8.07156 1.11187 8.02786 1.11187H8.02252C7.97877 1.11173 7.93543 1.12024 7.89499 1.13692C7.85454 1.15359 7.8178 1.1781 7.78686 1.20903C7.75593 1.23997 7.73142 1.27671 7.71475 1.31715C7.69807 1.3576 7.68956 1.40094 7.6897 1.44468ZM7.68567 5.69906V7.317H8.3633V5.69906H7.68567ZM20.4179 9.22729L19.5072 9.24604L21.3218 11.3789L23.0489 9.17325L22.1423 9.192C21.9698 5.71387 19.3792 3.19734 16.8855 3.21754C18.7204 4.22521 20.4234 6.49251 20.4179 9.22729ZM23.9434 18.4636L23.29 18.6279L22.7539 18.7627C22.6328 19.286 22.4261 19.7858 22.1423 20.2418L22.4251 20.716L22.7714 21.294C22.6031 21.5151 22.4204 21.7248 22.2244 21.9217C22.0278 22.1181 21.8181 22.3009 21.5966 22.4687L21.0187 22.1238L20.5445 21.8409C20.0881 22.1241 19.5884 22.3307 19.0653 22.4526L18.9306 22.9874L18.7649 23.6408C18.2138 23.7162 17.655 23.7162 17.1038 23.6408L16.9395 22.9873L16.8047 22.4525C16.2815 22.3301 15.7819 22.1231 15.3255 21.8395L14.8513 22.1237L14.2734 22.4687C13.8298 22.1329 13.4346 21.7376 13.0987 21.294L13.4449 20.716L13.7278 20.2418C13.4443 19.7855 13.2372 19.2858 13.1148 18.7627L12.58 18.6279L11.9266 18.4636C11.8512 17.9125 11.8512 17.3536 11.9266 16.8025L12.58 16.6381L13.1148 16.5022C13.2372 15.979 13.4443 15.4794 13.7278 15.023L13.4448 14.5498L13.0987 13.9705C13.2662 13.7492 13.4489 13.5399 13.6456 13.3441C13.8422 13.1478 14.052 12.9651 14.2734 12.7973L14.8514 13.1422L15.3255 13.4251C15.7817 13.1415 16.2814 12.9348 16.8047 12.8135L16.9395 12.2773L17.1038 11.6239C17.6549 11.5485 18.2137 11.5485 18.7649 11.6239L18.9306 12.2773L19.0653 12.8135C19.5886 12.9348 20.0883 13.1414 20.5445 13.4251L21.0187 13.1422L21.5966 12.7973C22.0393 13.1338 22.4344 13.5285 22.7714 13.9707L22.425 14.5498L22.1421 15.0227C22.4256 15.4791 22.6327 15.9787 22.755 16.5019L23.2899 16.6378L23.9433 16.8022C24.0188 17.3534 24.0188 17.9123 23.9434 18.4636ZM21.346 17.6324C21.3457 16.9578 21.1454 16.2984 20.7705 15.7377C20.3955 15.1769 19.8626 14.7399 19.2393 14.482C18.616 14.224 17.9302 14.1567 17.2686 14.2885C16.607 14.4203 15.9994 14.7452 15.5225 15.2223C15.0456 15.6995 14.7209 16.3072 14.5894 16.9689C14.4579 17.6305 14.5255 18.3163 14.7837 18.9395C15.0419 19.5627 15.4791 20.0953 16.0401 20.4701C16.601 20.8448 17.2604 21.0449 17.935 21.0449C18.8394 21.0431 19.7062 20.6829 20.3455 20.0433C20.9849 19.4037 21.3446 18.5367 21.346 17.6324Z" fill="#383838" fill-opacity="0.6"/>
</g>
<defs>
<clipPath id="clip0_619_2921">
<rect width="24" height="24" fill="white"/>
</clipPath>
</defs>
</svg>
