<svg width="12" height="13" viewBox="0 0 12 13" fill="none" xmlns="http://www.w3.org/2000/svg">
<g clip-path="url(#clip0_54_2037)">
<path d="M6 0.5C6.55078 0.5 7.08203 0.570312 7.59375 0.710938C8.10547 0.851562 8.58203 1.05469 9.02344 1.32031C9.46484 1.58594 9.86914 1.89844 10.2363 2.25781C10.6035 2.61719 10.918 3.02148 11.1797 3.4707C11.4414 3.91992 11.6426 4.39844 11.7832 4.90625C11.9238 5.41406 11.9961 5.94531 12 6.5C12 7.05078 11.9297 7.58203 11.7891 8.09375C11.6484 8.60547 11.4453 9.08203 11.1797 9.52344C10.9141 9.96484 10.6016 10.3691 10.2422 10.7363C9.88281 11.1035 9.47852 11.418 9.0293 11.6797C8.58008 11.9414 8.10156 12.1426 7.59375 12.2832C7.08594 12.4238 6.55469 12.4961 6 12.5C5.44922 12.5 4.91797 12.4297 4.40625 12.2891C3.89453 12.1484 3.41797 11.9453 2.97656 11.6797C2.53516 11.4141 2.13086 11.1016 1.76367 10.7422C1.39648 10.3828 1.08203 9.97852 0.820312 9.5293C0.558594 9.08008 0.357422 8.60156 0.216797 8.09375C0.0761719 7.58594 0.00390625 7.05469 0 6.5C0 5.94922 0.0703125 5.41797 0.210938 4.90625C0.351562 4.39453 0.554688 3.91797 0.820312 3.47656C1.08594 3.03516 1.39844 2.63086 1.75781 2.26367C2.11719 1.89648 2.52148 1.58203 2.9707 1.32031C3.41992 1.05859 3.89844 0.857422 4.40625 0.716797C4.91406 0.576172 5.44531 0.503906 6 0.5ZM9.5332 4.51367L8.73633 3.7168L4.875 7.57812L3.26367 5.9668L2.4668 6.76367L4.875 9.17188L9.5332 4.51367Z" fill="#10BC4B"/>
</g>
<defs>
<clipPath id="clip0_54_2037">
<rect width="12" height="12" fill="white" transform="translate(0 0.5)"/>
</clipPath>
</defs>
</svg>
