<svg width="24" height="24" viewBox="0 0 24 24" fill="none" xmlns="http://www.w3.org/2000/svg">
<g clip-path="url(#clip0_500_501)">
<path d="M13.0946 12.9563C12.907 13.1496 12.7315 13.3543 12.5692 13.5693L12.5287 13.6218H1.90627C1.818 13.6218 1.73335 13.5868 1.67093 13.5244C1.60852 13.4619 1.57345 13.3773 1.57345 13.289C1.57345 13.2008 1.60852 13.1161 1.67093 13.0537C1.73335 12.9913 1.818 12.9562 1.90627 12.9562L13.0946 12.9563ZM5.33616 5.6993V11.0772H10.7141V5.6993H9.02878V7.64865C9.02892 7.69239 9.02041 7.73573 9.00374 7.77618C8.98706 7.81662 8.96255 7.85337 8.93162 7.8843C8.90069 7.91523 8.86394 7.93974 8.8235 7.95642C8.78306 7.97309 8.73971 7.9816 8.69597 7.98146H7.35291C7.26464 7.98146 7.17999 7.9464 7.11757 7.88398C7.05516 7.82157 7.02009 7.73691 7.02009 7.64865V5.6993H5.33616ZM15.246 3.12193C15.29 3.16522 15.3249 3.21681 15.3487 3.27371C15.3725 3.3306 15.3848 3.39166 15.3848 3.45333V12.6292C15.6001 12.5189 15.8225 12.4231 16.0504 12.3422V3.45352C16.05 3.1528 15.9303 2.86453 15.7177 2.65189C15.505 2.43925 15.2168 2.31959 14.916 2.31915H12.8413V2.98477H14.916C14.9773 2.98482 15.038 2.99696 15.0947 3.0205C15.1513 3.04403 15.2027 3.0785 15.246 3.12193ZM12.9437 15.0568H1.90627C1.818 15.0568 1.73335 15.0918 1.67093 15.1543C1.60852 15.2167 1.57345 15.3013 1.57345 15.3896C1.57345 15.4779 1.60852 15.5625 1.67093 15.6249C1.73335 15.6873 1.818 15.7224 1.90627 15.7224H12.654C12.7364 15.4946 12.8331 15.2723 12.9437 15.0568ZM1.90627 17.1584C1.818 17.1584 1.73335 17.1934 1.67093 17.2558C1.60852 17.3183 1.57345 17.4029 1.57345 17.4912C1.57345 17.5794 1.60852 17.6641 1.67093 17.7265C1.73335 17.7889 1.818 17.824 1.90627 17.824H11.2072C11.2005 17.6017 11.2058 17.3808 11.2207 17.1584H1.90627ZM12.3644 19.26H1.90627C1.818 19.26 1.73335 19.2951 1.67093 19.3575C1.60852 19.4199 1.57345 19.5046 1.57345 19.5928C1.57345 19.6811 1.60852 19.7657 1.67093 19.8282C1.73335 19.8906 1.818 19.9256 1.90627 19.9256H12.8076C12.7191 19.7262 12.6417 19.522 12.5759 19.314L12.3644 19.26ZM12.297 21.3387L12.3456 21.2592H1.13438C1.01028 21.2585 0.891471 21.2089 0.803721 21.1211C0.71597 21.0334 0.666351 20.9146 0.665625 20.7905V3.45352C0.665712 3.32923 0.715126 3.21005 0.803015 3.12216C0.890904 3.03427 1.01008 2.98486 1.13438 2.98477H3.20766V2.31915H1.13438C0.833657 2.31959 0.545384 2.43925 0.332744 2.65189C0.120104 2.86453 0.000446354 3.1528 0 3.45352L0 20.7904C0.000471081 21.0911 0.120137 21.3794 0.332771 21.592C0.545406 21.8046 0.833665 21.9243 1.13438 21.9248H12.75C12.688 21.8493 12.6274 21.7739 12.5694 21.6971L12.297 21.3387ZM3.87314 3.20026V1.93932C3.87335 1.86114 3.9045 1.78622 3.95979 1.73093C4.01507 1.67565 4.08999 1.6445 4.16817 1.64429H6.68334C6.68334 1.28842 6.82471 0.947129 7.07635 0.695493C7.32798 0.443858 7.66927 0.30249 8.02514 0.30249C8.38101 0.30249 8.7223 0.443858 8.97393 0.695493C9.22557 0.947129 9.36694 1.28842 9.36694 1.64429H11.8808C11.9195 1.64428 11.9579 1.65191 11.9937 1.66673C12.0295 1.68156 12.062 1.70329 12.0894 1.73069C12.1168 1.75809 12.1385 1.79061 12.1534 1.82641C12.1682 1.86221 12.1758 1.90057 12.1758 1.93932V3.20026C12.1758 3.239 12.1682 3.27737 12.1534 3.31317C12.1385 3.34897 12.1168 3.3815 12.0894 3.4089C12.062 3.4363 12.0295 3.45803 11.9937 3.47285C11.9579 3.48768 11.9195 3.4953 11.8808 3.49529H4.16817C4.08999 3.49509 4.01506 3.46394 3.95977 3.40866C3.90449 3.35337 3.87334 3.27844 3.87314 3.20026ZM7.6897 1.44493C7.6897 1.5332 7.72477 1.61785 7.78718 1.68026C7.8496 1.74268 7.93425 1.77774 8.02252 1.77774H8.02786C8.07156 1.77774 8.11484 1.76913 8.15522 1.75241C8.1956 1.73568 8.23229 1.71117 8.26319 1.68026C8.2941 1.64936 8.31861 1.61267 8.33534 1.57229C8.35206 1.53191 8.36067 1.48863 8.36067 1.44493C8.36067 1.40122 8.35206 1.35794 8.33534 1.31757C8.31861 1.27719 8.2941 1.2405 8.26319 1.20959C8.23229 1.17869 8.1956 1.15417 8.15522 1.13745C8.11484 1.12072 8.07156 1.11212 8.02786 1.11212H8.02252C7.97877 1.11197 7.93543 1.12048 7.89499 1.13716C7.85454 1.15383 7.8178 1.17834 7.78686 1.20928C7.75593 1.24021 7.73142 1.27695 7.71475 1.3174C7.69807 1.35784 7.68956 1.40118 7.6897 1.44493ZM7.68567 5.6993V7.31724H8.3633V5.6993H7.68567ZM20.4179 9.22754L19.5072 9.24629L21.3218 11.3791L23.0489 9.17349L22.1423 9.19224C21.9698 5.71412 19.3792 3.19758 16.8855 3.21779C18.7204 4.22546 20.4234 6.49276 20.4179 9.22754ZM23.9434 18.4638L23.29 18.6282L22.7539 18.7629C22.6328 19.2863 22.4261 19.786 22.1423 20.2421L22.4251 20.7163L22.7714 21.2942C22.6031 21.5153 22.4204 21.7251 22.2244 21.922C22.0278 22.1184 21.8181 22.3011 21.5966 22.469L21.0187 22.1241L20.5445 21.8412C20.0881 22.1243 19.5884 22.3309 19.0653 22.4528L18.9306 22.9876L18.7649 23.641C18.2138 23.7165 17.655 23.7165 17.1038 23.641L16.9395 22.9876L16.8047 22.4527C16.2815 22.3303 15.7819 22.1233 15.3255 21.8398L14.8513 22.124L14.2734 22.469C13.8298 22.1331 13.4346 21.7378 13.0987 21.2942L13.4449 20.7163L13.7278 20.2421C13.4443 19.7857 13.2372 19.2861 13.1148 18.7629L12.58 18.6282L11.9266 18.4638C11.8512 17.9127 11.8512 17.3539 11.9266 16.8027L12.58 16.6384L13.1148 16.5024C13.2372 15.9793 13.4443 15.4796 13.7278 15.0233L13.4448 14.5501L13.0987 13.9708C13.2662 13.7495 13.4489 13.5402 13.6456 13.3443C13.8422 13.148 14.052 12.9654 14.2734 12.7976L14.8514 13.1424L15.3255 13.4254C15.7817 13.1417 16.2814 12.9351 16.8047 12.8138L16.9395 12.2776L17.1038 11.6242C17.6549 11.5487 18.2137 11.5487 18.7649 11.6242L18.9306 12.2776L19.0653 12.8138C19.5886 12.9351 20.0883 13.1417 20.5445 13.4254L21.0187 13.1424L21.5966 12.7976C22.0393 13.134 22.4344 13.5287 22.7714 13.971L22.425 14.5501L22.1421 15.0229C22.4256 15.4793 22.6327 15.979 22.755 16.5021L23.2899 16.6381L23.9433 16.8024C24.0188 17.3536 24.0188 17.9126 23.9434 18.4638ZM21.346 17.6326C21.3457 16.958 21.1454 16.2987 20.7705 15.7379C20.3955 15.1772 19.8626 14.7402 19.2393 14.4822C18.616 14.2243 17.9302 14.1569 17.2686 14.2887C16.607 14.4205 15.9994 14.7455 15.5225 15.2226C15.0456 15.6997 14.7209 16.3075 14.5894 16.9691C14.4579 17.6308 14.5255 18.3165 14.7837 18.9397C15.0419 19.5629 15.4791 20.0956 16.0401 20.4703C16.601 20.8451 17.2604 21.0451 17.935 21.0451C18.8394 21.0433 19.7062 20.6832 20.3455 20.0435C20.9849 19.4039 21.3446 18.537 21.346 17.6326Z" fill="#383839" fill-opacity="0.6"/>
</g>
<defs>
<clipPath id="clip0_500_501">
<rect width="24" height="24" fill="white"/>
</clipPath>
</defs>
</svg>
