<svg width="16" height="17" viewBox="0 0 16 17" fill="none" xmlns="http://www.w3.org/2000/svg">
<g clip-path="url(#clip0_54_1636)">
<path d="M6.47364 6.96529L10.3638 10.8554M10.3638 6.96529L6.47364 10.8554M14.8374 8.05997V5.23185C14.8374 4.58687 14.3449 4.04848 13.7069 3.95278C12.967 3.8423 12.0108 3.66024 11.3122 3.39105C10.6065 3.11952 9.75845 2.60758 9.16326 2.22012C8.94151 2.07645 8.68292 2 8.41869 2C8.15447 2 7.89588 2.07645 7.67413 2.22012C7.07972 2.60758 6.23089 3.11952 5.52523 3.39105C4.82578 3.66024 3.87037 3.8423 3.13047 3.95278C2.49249 4.04848 2 4.58687 2 5.23185V8.05997C1.9999 9.48852 2.38807 10.8902 3.12302 12.1153C3.85797 13.3403 4.91204 14.3425 6.17254 15.0147L6.35149 15.1104L7.87797 15.8464C8.04662 15.9278 8.23145 15.97 8.41869 15.97C8.60594 15.97 8.79077 15.9278 8.95942 15.8464L10.4851 15.1104L10.6641 15.0147C11.9247 14.3426 12.9789 13.3404 13.714 12.1154C14.4491 10.8904 14.8374 9.4886 14.8374 8.05997Z" stroke="#383838" stroke-opacity="0.6" stroke-linecap="round" stroke-linejoin="round"/>
</g>
<defs>
<clipPath id="clip0_54_1636">
<rect width="16" height="16" fill="white" transform="translate(0 0.5)"/>
</clipPath>
</defs>
</svg>
