<svg width="17" height="17" viewBox="0 0 17 17" fill="none" xmlns="http://www.w3.org/2000/svg">
<path d="M6.30683 5.64001L7.8335 4.10668V10.5C7.8335 10.6768 7.90373 10.8464 8.02876 10.9714C8.15378 11.0964 8.32335 11.1667 8.50016 11.1667C8.67697 11.1667 8.84654 11.0964 8.97157 10.9714C9.09659 10.8464 9.16683 10.6768 9.16683 10.5V4.10668L10.6935 5.64001C10.7555 5.7025 10.8292 5.75209 10.9104 5.78594C10.9917 5.81979 11.0788 5.83721 11.1668 5.83721C11.2548 5.83721 11.342 5.81979 11.4232 5.78594C11.5045 5.75209 11.5782 5.7025 11.6402 5.64001C11.7026 5.57804 11.7522 5.5043 11.7861 5.42306C11.8199 5.34182 11.8374 5.25469 11.8374 5.16668C11.8374 5.07867 11.8199 4.99153 11.7861 4.91029C11.7522 4.82906 11.7026 4.75532 11.6402 4.69335L8.9735 2.02668C8.91009 1.96599 8.83533 1.91841 8.7535 1.88668C8.59119 1.82 8.40914 1.82 8.24683 1.88668C8.165 1.91841 8.09023 1.96599 8.02683 2.02668L5.36016 4.69335C5.298 4.7555 5.2487 4.8293 5.21506 4.91051C5.18142 4.99173 5.1641 5.07877 5.1641 5.16668C5.1641 5.25459 5.18142 5.34163 5.21506 5.42285C5.2487 5.50406 5.298 5.57785 5.36016 5.64001C5.42232 5.70217 5.49612 5.75148 5.57733 5.78512C5.65854 5.81876 5.74559 5.83607 5.8335 5.83607C5.9214 5.83607 6.00845 5.81876 6.08966 5.78512C6.17088 5.75148 6.24467 5.70217 6.30683 5.64001ZM14.5002 9.83335C14.3234 9.83335 14.1538 9.90358 14.0288 10.0286C13.9037 10.1536 13.8335 10.3232 13.8335 10.5V13.1667C13.8335 13.3435 13.7633 13.5131 13.6382 13.6381C13.5132 13.7631 13.3436 13.8333 13.1668 13.8333H3.8335C3.65669 13.8333 3.48712 13.7631 3.36209 13.6381C3.23707 13.5131 3.16683 13.3435 3.16683 13.1667V10.5C3.16683 10.3232 3.09659 10.1536 2.97157 10.0286C2.84654 9.90358 2.67697 9.83335 2.50016 9.83335C2.32335 9.83335 2.15378 9.90358 2.02876 10.0286C1.90373 10.1536 1.8335 10.3232 1.8335 10.5V13.1667C1.8335 13.6971 2.04421 14.2058 2.41928 14.5809C2.79436 14.956 3.30306 15.1667 3.8335 15.1667H13.1668C13.6973 15.1667 14.206 14.956 14.581 14.5809C14.9561 14.2058 15.1668 13.6971 15.1668 13.1667V10.5C15.1668 10.3232 15.0966 10.1536 14.9716 10.0286C14.8465 9.90358 14.677 9.83335 14.5002 9.83335Z" fill="#383838" fill-opacity="0.6"/>
</svg>
