<svg width="25" height="26" viewBox="0 0 25 26" fill="none" xmlns="http://www.w3.org/2000/svg">
<g clip-path="url(#clip0_24_1700)">
<path d="M11.442 25.5C9.289 25.5 7.53577 23.7479 7.53577 21.5938C7.53577 21.1625 7.88577 20.8125 8.31702 20.8125C8.74827 20.8125 9.09827 21.1625 9.09827 21.5938C9.09827 22.8866 10.1504 23.9375 11.442 23.9375C12.7337 23.9375 13.7858 22.8866 13.7858 21.5938C13.7858 21.1625 14.1358 20.8125 14.567 20.8125C14.9983 20.8125 15.3483 21.1625 15.3483 21.5938C15.3483 23.7479 13.5952 25.5 11.442 25.5Z" fill="#FE5C73"/>
<path d="M20.0357 22.375H2.84824C1.84307 22.375 1.02539 21.5573 1.02539 20.5521C1.02539 20.0187 1.25771 19.5136 1.66283 19.1666C1.68896 19.1438 1.717 19.123 1.74618 19.1041C3.2753 17.7697 4.15039 15.85 4.15039 13.8228V10.9166C4.15039 6.89591 7.42226 3.625 11.442 3.625C11.6087 3.625 11.7889 3.62805 11.9556 3.65628C12.3816 3.72704 12.6692 4.13026 12.5982 4.55521C12.5275 4.98017 12.117 5.2678 11.6993 5.19685C11.6159 5.1833 11.5244 5.1875 11.442 5.1875C8.28381 5.1875 5.71289 7.75727 5.71289 10.9166V13.8228C5.71289 16.3396 4.60968 18.7209 2.68898 20.3551C2.67334 20.3677 2.6598 20.3792 2.64301 20.3906C2.61497 20.4261 2.58789 20.4802 2.58789 20.5521C2.58789 20.6937 2.70672 20.8125 2.84824 20.8125H20.0357C20.1775 20.8125 20.2963 20.6937 20.2963 20.5521C20.2963 20.4791 20.2692 20.4261 20.24 20.3906C20.2244 20.3792 20.2108 20.3677 20.1952 20.3551C18.2734 18.7198 17.1713 16.3396 17.1713 13.8228V12.6876C17.1713 12.2563 17.5213 11.9063 17.9525 11.9063C18.3838 11.9063 18.7338 12.2563 18.7338 12.6876V13.8228C18.7338 15.8511 19.6098 17.7718 21.1411 19.1073C21.1691 19.126 21.1962 19.1459 21.2212 19.1678C21.6265 19.5136 21.8588 20.0187 21.8588 20.5521C21.8588 21.5573 21.0411 22.375 20.0357 22.375Z" fill="#FE5C73"/>
<path d="M18.7338 10.9166C15.8619 10.9166 13.5254 8.58029 13.5254 5.7084C13.5254 2.8365 15.8619 0.5 18.7338 0.5C21.6057 0.5 23.942 2.8365 23.942 5.7084C23.942 8.58029 21.6057 10.9166 18.7338 10.9166ZM18.7338 2.0625C16.7233 2.0625 15.0879 3.69786 15.0879 5.7084C15.0879 7.71874 16.7233 9.3541 18.7338 9.3541C20.7441 9.3541 22.3795 7.71874 22.3795 5.7084C22.3795 3.69786 20.7441 2.0625 18.7338 2.0625Z" fill="#FE5C73"/>
</g>
<defs>
<clipPath id="clip0_24_1700">
<rect width="25" height="25" fill="white" transform="translate(0 0.5)"/>
</clipPath>
</defs>
</svg>
