<svg width="24" height="24" viewBox="0 0 24 24" fill="none" xmlns="http://www.w3.org/2000/svg">
<path d="M23.4242 21.9635H23.0606C23.0606 20.2181 22.1879 18.5453 20.6242 17.3453C22.1515 16.1453 23.0242 14.4726 23.0606 12.7272H23.4242C23.6424 12.7272 23.7879 12.5817 23.7879 12.3635C23.7879 12.1453 23.6424 11.9999 23.4242 11.9999C22.1151 11.9999 21.9697 11.9999 19.7151 11.9999V3.78171C19.7151 3.63625 19.6424 3.52716 19.5333 3.45443L14.4061 0.399889C14.3333 0.363525 14.2606 0.363525 14.2242 0.363525H1.24242C1.02424 0.363525 0.878784 0.50898 0.878784 0.727162V23.2726C0.878784 23.4908 1.02424 23.6363 1.24242 23.6363H19.3151C19.5333 23.6363 19.6788 23.4908 19.6788 23.2726V22.6908H23.3879C23.6061 22.6908 23.7515 22.5453 23.7515 22.3272C23.7515 22.109 23.6061 21.9635 23.4242 21.9635ZM20.0788 16.8363C18.6606 15.7453 17.8606 14.2544 17.8242 12.7272H22.297C22.3333 14.2908 21.497 15.7453 20.0788 16.8363ZM14.5879 1.38171L18.0061 3.41807H14.5879V1.38171ZM18.9515 22.909H1.60606V1.0908H13.8242V3.78171C13.8242 3.99989 13.9697 4.14534 14.1879 4.14534H18.9515V11.9999C18.8788 11.9999 16.6242 11.9999 16.7697 11.9999C16.5515 11.9999 16.4061 12.1453 16.4061 12.3635C16.4061 12.5817 16.5515 12.7272 16.7697 12.7272H17.1333C17.1333 14.4726 18.0061 16.1453 19.5697 17.3453C18.0424 18.5453 17.1697 20.2181 17.1333 21.9635H16.7697C16.5515 21.9635 16.4061 22.109 16.4061 22.3272C16.4061 22.5453 16.5515 22.6908 16.7697 22.6908C16.8061 22.6908 18.9879 22.6908 18.9515 22.6908V22.909ZM17.8606 21.9635C17.8606 20.3999 18.6606 18.9453 20.1151 17.8544C21.5333 18.9453 22.3333 20.4363 22.3697 21.9635C21.7879 21.9635 19.2788 21.9635 17.8606 21.9635Z" fill="#BAAA03"/>
<path d="M3.35149 5.78163H12.1515C12.3697 5.78163 12.5151 5.63617 12.5151 5.41799V2.5089C12.5151 2.29072 12.3697 2.14526 12.1515 2.14526H3.35149C3.13331 2.14526 2.98785 2.29072 2.98785 2.5089V5.41799C2.98785 5.59981 3.13331 5.78163 3.35149 5.78163ZM3.71513 2.87254H11.7879V5.05435H3.71513V2.87254Z" fill="#BAAA03"/>
<path d="M6.51515 8.18164H3.42424C3.20606 8.18164 3.06061 8.3271 3.06061 8.54528V11.5635C3.06061 11.7816 3.20606 11.9271 3.42424 11.9271H6.51515C6.73334 11.9271 6.87879 11.7816 6.87879 11.5635V8.54528C6.87879 8.36346 6.73334 8.18164 6.51515 8.18164ZM6.15152 11.1998H3.78788V8.90891H6.15152V11.1998Z" fill="#BAAA03"/>
<path d="M6.51515 12.8362H3.42424C3.20606 12.8362 3.06061 12.9816 3.06061 13.1998V16.218C3.06061 16.4362 3.20606 16.5816 3.42424 16.5816H6.51515C6.73334 16.5816 6.87879 16.4362 6.87879 16.218V13.1998C6.87879 12.9816 6.73334 12.8362 6.51515 12.8362ZM6.15152 15.818H3.78788V13.5271H6.15152V15.818Z" fill="#BAAA03"/>
<path d="M6.51515 17.4543H3.42424C3.20606 17.4543 3.06061 17.5998 3.06061 17.818V20.8362C3.06061 21.0543 3.20606 21.1998 3.42424 21.1998H6.51515C6.73334 21.1998 6.87879 21.0543 6.87879 20.8362V17.818C6.87879 17.5998 6.73334 17.4543 6.51515 17.4543ZM6.15152 20.4362H3.78788V18.1816H6.15152V20.4362Z" fill="#BAAA03"/>
<path d="M4.58789 10.8C4.66062 10.8363 4.73334 10.8727 4.80607 10.8727C4.91516 10.8727 4.98789 10.8363 5.06062 10.7636L5.89698 9.89089C6.04243 9.74543 6.04243 9.52725 5.89698 9.3818C5.75153 9.23634 5.53334 9.23634 5.38789 9.3818L4.76971 10.0363L4.55153 9.89089C4.40607 9.7818 4.15153 9.81816 4.04243 9.96361C3.93334 10.1091 3.96971 10.3636 4.11516 10.4727L4.58789 10.8Z" fill="#BAAA03"/>
<path d="M4.58789 15.4181C4.66062 15.4545 4.73334 15.4909 4.80607 15.4909C4.91516 15.4909 4.98789 15.4545 5.06062 15.3818L5.89698 14.5091C6.04243 14.3636 6.04243 14.1454 5.89698 14C5.75153 13.8545 5.53334 13.8545 5.38789 14L4.76971 14.6545L4.55153 14.5091C4.40607 14.4 4.15153 14.4363 4.04243 14.5818C3.93334 14.7272 3.96971 14.9818 4.11516 15.0909L4.58789 15.4181Z" fill="#BAAA03"/>
<path d="M4.58788 20.0363C4.6606 20.0727 4.73333 20.109 4.80606 20.109C4.91515 20.109 4.98788 20.0727 5.0606 19.9999L5.89697 19.1272C6.04242 18.9818 6.04242 18.7636 5.89697 18.6181C5.75151 18.4727 5.53333 18.4727 5.38788 18.6181L4.73333 19.2727L4.51515 19.1272C4.36969 19.0181 4.11515 19.0545 4.00606 19.1999C3.89697 19.3454 3.93333 19.5999 4.07878 19.709L4.58788 20.0363Z" fill="#BAAA03"/>
<path d="M8.04242 8.90905C8.04242 9.12723 8.18787 9.27268 8.40606 9.27268H17.1333C17.3515 9.27268 17.497 9.12723 17.497 8.90905C17.497 8.69086 17.3515 8.54541 17.1333 8.54541H8.40606C8.22424 8.54541 8.04242 8.69086 8.04242 8.90905Z" fill="#BAAA03"/>
<path d="M17.1697 10.8362H8.44243C8.22425 10.8362 8.0788 10.9816 8.0788 11.1998C8.0788 11.418 8.22425 11.5635 8.44243 11.5635H17.1697C17.3879 11.5635 17.5333 11.418 17.5333 11.1998C17.5333 10.9816 17.3515 10.8362 17.1697 10.8362Z" fill="#BAAA03"/>
<path d="M8.40606 13.8908H15.9697C16.1879 13.8908 16.3333 13.7454 16.3333 13.5272C16.3333 13.309 16.1879 13.1636 15.9697 13.1636H8.40606C8.18787 13.1636 8.04242 13.309 8.04242 13.5272C8.04242 13.7454 8.22424 13.8908 8.40606 13.8908Z" fill="#BAAA03"/>
<path d="M8.04242 15.8544C8.04242 16.0725 8.18787 16.218 8.40606 16.218H17.1333C17.3515 16.218 17.497 16.0725 17.497 15.8544C17.497 15.6362 17.3515 15.4907 17.1333 15.4907H8.40606C8.22424 15.4907 8.04242 15.6362 8.04242 15.8544Z" fill="#BAAA03"/>
<path d="M17.1697 17.7817H8.44243C8.22425 17.7817 8.0788 17.9272 8.0788 18.1454C8.0788 18.3636 8.22425 18.509 8.44243 18.509H17.1697C17.3879 18.509 17.5333 18.3636 17.5333 18.1454C17.5333 17.9272 17.3515 17.7817 17.1697 17.7817Z" fill="#BAAA03"/>
<path d="M15.9333 20.1089H8.40606C8.18787 20.1089 8.04242 20.2543 8.04242 20.4725C8.04242 20.6907 8.18787 20.8362 8.40606 20.8362H15.9333C16.1515 20.8362 16.297 20.6907 16.297 20.4725C16.297 20.2543 16.1515 20.1089 15.9333 20.1089Z" fill="#BAAA03"/>
</svg>
