<svg width="24" height="24" viewBox="0 0 24 24" fill="none" xmlns="http://www.w3.org/2000/svg">
<path d="M23.0909 21.9635H22.7273C22.7273 20.2181 21.8546 18.5453 20.2909 17.3453C21.8182 16.1453 22.6909 14.4726 22.7273 12.7272H23.0909C23.3091 12.7272 23.4546 12.5817 23.4546 12.3635C23.4546 12.1453 23.3091 11.9999 23.0909 11.9999C21.7818 11.9999 21.6364 11.9999 19.3818 11.9999V3.78171C19.3818 3.63625 19.3091 3.52716 19.2 3.45443L14.0727 0.399889C14 0.363525 13.9273 0.363525 13.8909 0.363525H0.909108C0.690926 0.363525 0.545471 0.50898 0.545471 0.727162V23.2726C0.545471 23.4908 0.690926 23.6363 0.909108 23.6363H18.9818C19.2 23.6363 19.3455 23.4908 19.3455 23.2726V22.6908H23.0546C23.2727 22.6908 23.4182 22.5453 23.4182 22.3272C23.4182 22.109 23.2727 21.9635 23.0909 21.9635ZM19.7455 16.8363C18.3273 15.7453 17.5273 14.2544 17.4909 12.7272H21.9637C22 14.2908 21.1637 15.7453 19.7455 16.8363ZM14.2546 1.38171L17.6727 3.41807H14.2546V1.38171ZM18.6182 22.909H1.27274V1.0908H13.4909V3.78171C13.4909 3.99989 13.6364 4.14534 13.8546 4.14534H18.6182V11.9999C18.5455 11.9999 16.2909 11.9999 16.4364 11.9999C16.2182 11.9999 16.0727 12.1453 16.0727 12.3635C16.0727 12.5817 16.2182 12.7272 16.4364 12.7272H16.8C16.8 14.4726 17.6727 16.1453 19.2364 17.3453C17.7091 18.5453 16.8364 20.2181 16.8 21.9635H16.4364C16.2182 21.9635 16.0727 22.109 16.0727 22.3272C16.0727 22.5453 16.2182 22.6908 16.4364 22.6908C16.4727 22.6908 18.6546 22.6908 18.6182 22.6908V22.909ZM17.5273 21.9635C17.5273 20.3999 18.3273 18.9453 19.7818 17.8544C21.2 18.9453 22 20.4363 22.0364 21.9635C21.4546 21.9635 18.9455 21.9635 17.5273 21.9635Z" fill="#34C759"/>
<path d="M3.01818 5.78163H11.8182C12.0364 5.78163 12.1818 5.63617 12.1818 5.41799V2.5089C12.1818 2.29072 12.0364 2.14526 11.8182 2.14526H3.01818C2.8 2.14526 2.65454 2.29072 2.65454 2.5089V5.41799C2.65454 5.59981 2.8 5.78163 3.01818 5.78163ZM3.38181 2.87254H11.4545V5.05435H3.38181V2.87254Z" fill="#34C759"/>
<path d="M6.18184 8.18164H3.09093C2.87275 8.18164 2.72729 8.3271 2.72729 8.54528V11.5635C2.72729 11.7816 2.87275 11.9271 3.09093 11.9271H6.18184C6.40002 11.9271 6.54548 11.7816 6.54548 11.5635V8.54528C6.54548 8.36346 6.40002 8.18164 6.18184 8.18164ZM5.8182 11.1998H3.45457V8.90891H5.8182V11.1998Z" fill="#34C759"/>
<path d="M6.18184 12.8362H3.09093C2.87275 12.8362 2.72729 12.9816 2.72729 13.1998V16.218C2.72729 16.4362 2.87275 16.5816 3.09093 16.5816H6.18184C6.40002 16.5816 6.54548 16.4362 6.54548 16.218V13.1998C6.54548 12.9816 6.40002 12.8362 6.18184 12.8362ZM5.8182 15.818H3.45457V13.5271H5.8182V15.818Z" fill="#34C759"/>
<path d="M6.18184 17.4543H3.09093C2.87275 17.4543 2.72729 17.5998 2.72729 17.818V20.8362C2.72729 21.0543 2.87275 21.1998 3.09093 21.1998H6.18184C6.40002 21.1998 6.54548 21.0543 6.54548 20.8362V17.818C6.54548 17.5998 6.40002 17.4543 6.18184 17.4543ZM5.8182 20.4362H3.45457V18.1816H5.8182V20.4362Z" fill="#34C759"/>
<path d="M4.25458 10.8C4.3273 10.8363 4.40003 10.8727 4.47276 10.8727C4.58185 10.8727 4.65458 10.8363 4.7273 10.7636L5.56367 9.89089C5.70912 9.74543 5.70912 9.52725 5.56367 9.3818C5.41821 9.23634 5.20003 9.23634 5.05458 9.3818L4.43639 10.0363L4.21821 9.89089C4.07276 9.7818 3.81821 9.81816 3.70912 9.96361C3.60003 10.1091 3.63639 10.3636 3.78185 10.4727L4.25458 10.8Z" fill="#34C759"/>
<path d="M4.25458 15.4181C4.3273 15.4545 4.40003 15.4909 4.47276 15.4909C4.58185 15.4909 4.65458 15.4545 4.7273 15.3818L5.56367 14.5091C5.70912 14.3636 5.70912 14.1454 5.56367 14C5.41821 13.8545 5.20003 13.8545 5.05458 14L4.43639 14.6545L4.21821 14.5091C4.07276 14.4 3.81821 14.4363 3.70912 14.5818C3.60003 14.7272 3.63639 14.9818 3.78185 15.0909L4.25458 15.4181Z" fill="#34C759"/>
<path d="M4.25456 20.0363C4.32729 20.0727 4.40002 20.109 4.47274 20.109C4.58184 20.109 4.65456 20.0727 4.72729 19.9999L5.56365 19.1272C5.70911 18.9818 5.70911 18.7636 5.56365 18.6181C5.4182 18.4727 5.20002 18.4727 5.05456 18.6181L4.40002 19.2727L4.18184 19.1272C4.03638 19.0181 3.78184 19.0545 3.67274 19.1999C3.56365 19.3454 3.60002 19.5999 3.74547 19.709L4.25456 20.0363Z" fill="#34C759"/>
<path d="M7.70911 8.90905C7.70911 9.12723 7.85456 9.27268 8.07274 9.27268H16.8C17.0182 9.27268 17.1637 9.12723 17.1637 8.90905C17.1637 8.69086 17.0182 8.54541 16.8 8.54541H8.07274C7.89092 8.54541 7.70911 8.69086 7.70911 8.90905Z" fill="#34C759"/>
<path d="M16.8364 10.8362H8.10912C7.89094 10.8362 7.74548 10.9816 7.74548 11.1998C7.74548 11.418 7.89094 11.5635 8.10912 11.5635H16.8364C17.0546 11.5635 17.2 11.418 17.2 11.1998C17.2 10.9816 17.0182 10.8362 16.8364 10.8362Z" fill="#34C759"/>
<path d="M8.07274 13.8908H15.6364C15.8546 13.8908 16 13.7454 16 13.5272C16 13.309 15.8546 13.1636 15.6364 13.1636H8.07274C7.85456 13.1636 7.70911 13.309 7.70911 13.5272C7.70911 13.7454 7.89092 13.8908 8.07274 13.8908Z" fill="#34C759"/>
<path d="M7.70911 15.8544C7.70911 16.0725 7.85456 16.218 8.07274 16.218H16.8C17.0182 16.218 17.1637 16.0725 17.1637 15.8544C17.1637 15.6362 17.0182 15.4907 16.8 15.4907H8.07274C7.89092 15.4907 7.70911 15.6362 7.70911 15.8544Z" fill="#34C759"/>
<path d="M16.8364 17.7817H8.10912C7.89094 17.7817 7.74548 17.9272 7.74548 18.1454C7.74548 18.3636 7.89094 18.509 8.10912 18.509H16.8364C17.0546 18.509 17.2 18.3636 17.2 18.1454C17.2 17.9272 17.0182 17.7817 16.8364 17.7817Z" fill="#34C759"/>
<path d="M15.6 20.1089H8.07274C7.85456 20.1089 7.70911 20.2543 7.70911 20.4725C7.70911 20.6907 7.85456 20.8362 8.07274 20.8362H15.6C15.8182 20.8362 15.9637 20.6907 15.9637 20.4725C15.9637 20.2543 15.8182 20.1089 15.6 20.1089Z" fill="#34C759"/>
</svg>
