<svg width="23" height="19" viewBox="0 0 23 19" fill="none" xmlns="http://www.w3.org/2000/svg">
<path d="M12.5445 0C9.5317 0 6.6647 1.4578 4.86674 3.88747C3.60332 3.98465 2.33989 4.32481 1.17365 5.00512C0.930683 5.15089 0.833496 5.39386 0.833496 5.58824V5.63683V13.4118C0.833496 13.6547 0.979276 13.8977 1.17365 14.0435C2.33989 14.6752 3.60332 15.0153 4.86674 15.1125C6.6647 17.5422 9.48311 19 12.5445 19C17.7926 19 22.0202 14.7238 22.0202 9.5243C22.0202 4.22762 17.7926 0 12.5445 0ZM8.60843 12.9258C6.6161 13.8491 4.28362 13.8491 2.2913 12.9258C2.2913 12.7315 2.2913 12.4885 2.2913 12.2941C3.16598 12.6343 4.23503 12.9744 5.54705 12.9744C6.32454 12.9744 7.3936 12.8772 8.60843 12.3913V12.9258ZM8.60843 10.7877C7.44219 11.3708 6.32454 11.468 5.54705 11.468C4.13784 11.468 3.0202 11.0307 2.2913 10.6419C2.2913 10.399 2.2913 10.156 2.2913 9.91304C3.11738 10.2532 4.18644 10.5448 5.49846 10.5448C6.27595 10.5448 7.3936 10.4476 8.60843 9.96164V10.7877ZM8.60843 8.35806C7.3936 8.94118 6.27595 9.08696 5.49846 9.08696C4.13784 9.08696 3.06879 8.69821 2.2913 8.30946C2.2913 8.0179 2.2913 7.77494 2.2913 7.48338C3.16598 7.82353 4.23503 8.16368 5.54705 8.16368C6.32454 8.16368 7.3936 8.0665 8.60843 7.58056V8.35806ZM5.54705 6.70588C4.23503 6.70588 3.16598 6.31714 2.43708 5.97698C4.38081 5.05371 6.6647 5.05371 8.60843 6.02558C7.3936 6.6087 6.32454 6.70588 5.54705 6.70588ZM12.5445 17.4936C10.3092 17.4936 8.21968 16.5703 6.71329 14.9668C7.73375 14.821 8.75421 14.4808 9.67749 13.9949C9.92045 13.8977 10.0176 13.6061 10.0176 13.3632C10.0176 10.7877 10.0176 8.16368 10.0176 5.58824C10.0176 5.34527 9.87186 5.1023 9.67749 4.95652C8.75421 4.422 7.73375 4.08184 6.71329 3.93606C8.21968 2.33248 10.3092 1.40921 12.5445 1.40921C16.9665 1.40921 20.5624 5.00512 20.5624 9.42711C20.5624 13.8977 16.9665 17.4936 12.5445 17.4936Z" fill="#6945FB"/>
<path d="M13.2734 9.28136C13.2734 7.96934 13.2734 6.60872 13.2734 5.2967C13.2734 4.37343 11.8156 4.37343 11.8156 5.2967V8.40668V9.62151C11.8641 10.156 12.4473 10.4962 12.7874 10.8363C13.2248 11.2251 13.6135 11.5652 14.0508 11.954C14.3424 12.197 14.7797 12.2456 15.0713 11.954C15.3143 11.711 15.3629 11.1765 15.0713 10.9335C14.4882 10.399 13.9051 9.81589 13.2734 9.28136Z" fill="#6945FB"/>
</svg>
