<svg width="24" height="24" viewBox="0 0 24 24" fill="none" xmlns="http://www.w3.org/2000/svg">
<path fill-rule="evenodd" clip-rule="evenodd" d="M15.758 13.1477H16.8438V9.19191H15.758V13.1477ZM12.58 13.1477H13.6658V8.22628H12.58V13.1477ZM9.40191 13.1477H10.4877V10.172H9.40191V13.1477ZM18.2515 13.1477C18.4169 13.1477 18.5509 13.2818 18.5509 13.4472C18.5509 13.6125 18.4169 13.7466 18.2515 13.7466H7.99425C7.82888 13.7466 7.69481 13.6125 7.69481 13.4472C7.69481 13.2818 7.82888 13.1477 7.99425 13.1477H8.80308V9.87258C8.80308 9.7072 8.93714 9.57314 9.10252 9.57314H10.7872C10.9526 9.57314 11.0866 9.7072 11.0866 9.87258V13.1477H11.9812V7.92684C11.9812 7.76147 12.1152 7.62741 12.2806 7.62741H13.9652C14.1306 7.62741 14.2647 7.76147 14.2647 7.92684V13.1477H15.1592V8.89247C15.1592 8.72709 15.2933 8.59303 15.4586 8.59303H17.1433C17.3087 8.59303 17.4428 8.72709 17.4428 8.89247V13.1477H18.2515H18.2515ZM10.1709 7.38272C10.1131 7.32487 10.0331 7.28906 9.94477 7.28906C9.85645 7.28906 9.77649 7.32487 9.71859 7.38272C9.6607 7.44056 9.62494 7.52053 9.62494 7.60889C9.62494 7.69725 9.66075 7.77722 9.71859 7.83506C9.77644 7.89291 9.85641 7.92872 9.94477 7.92872C10.0331 7.92872 10.1131 7.89291 10.1709 7.83506C10.2288 7.77722 10.2646 7.69725 10.2646 7.60889C10.2646 7.52053 10.2288 7.44056 10.1709 7.38272ZM13.349 4.85555C13.2912 4.7977 13.2112 4.76189 13.1228 4.76189C13.0345 4.76189 12.9545 4.7977 12.8967 4.85555C12.8388 4.91339 12.803 4.99341 12.803 5.08172C12.803 5.17003 12.8388 5.25005 12.8967 5.30789C12.9545 5.36573 13.0345 5.40155 13.1228 5.40155C13.2112 5.40155 13.2911 5.36573 13.349 5.30789C13.4069 5.25005 13.4427 5.17008 13.4427 5.08172C13.4427 4.99336 13.4069 4.91339 13.349 4.85555ZM16.5271 6.7635C16.4693 6.70566 16.3893 6.66984 16.3009 6.66984C16.2126 6.66984 16.1326 6.70566 16.0748 6.7635C16.0169 6.82134 15.9811 6.90131 15.9811 6.98967C15.9811 7.07803 16.0169 7.158 16.0748 7.21584C16.1326 7.27369 16.2126 7.3095 16.3009 7.3095C16.3892 7.3095 16.4693 7.27369 16.5271 7.21584C16.5849 7.158 16.6208 7.07798 16.6208 6.98967C16.6208 6.90136 16.5849 6.82139 16.5271 6.7635ZM7.87059 6.9517C7.72139 6.88064 7.65802 6.70205 7.72908 6.55284C7.80014 6.40364 7.97873 6.34027 8.12794 6.41133L9.28955 6.96502L9.29522 6.95925C9.46149 6.79298 9.69117 6.69014 9.94481 6.69014C10.1266 6.69014 10.2961 6.74297 10.4388 6.83414L12.2567 5.38856C12.2227 5.29261 12.2042 5.1893 12.2042 5.08167C12.2042 4.82803 12.307 4.59834 12.4733 4.43208C12.6396 4.26581 12.8693 4.16297 13.1229 4.16297C13.3765 4.16297 13.6062 4.26581 13.7724 4.43208C13.9387 4.59834 14.0415 4.82803 14.0415 5.08167C14.0415 5.1473 14.0347 5.21133 14.0216 5.27306L15.7097 6.2865C15.8695 6.15197 16.0758 6.07092 16.301 6.07092C16.4624 6.07092 16.614 6.11259 16.7459 6.18572L17.4344 5.56355C17.5565 5.45311 17.745 5.46253 17.8555 5.58459C17.966 5.70666 17.9565 5.89519 17.8344 6.00567L17.1458 6.62803C17.1933 6.73898 17.2197 6.86123 17.2197 6.98962C17.2197 7.24327 17.1168 7.47295 16.9506 7.63922C16.7843 7.80548 16.5547 7.90833 16.301 7.90833C16.0473 7.90833 15.8176 7.80548 15.6514 7.63922C15.4851 7.47295 15.3823 7.24327 15.3823 6.98962C15.3823 6.924 15.3892 6.85997 15.4022 6.79823L13.7141 5.7848C13.5543 5.91928 13.3481 6.00038 13.1229 6.00038C12.9411 6.00038 12.7715 5.9475 12.6289 5.85633L10.811 7.30191C10.845 7.39791 10.8635 7.50122 10.8635 7.60884C10.8635 7.86248 10.7607 8.09217 10.5944 8.25844C10.4281 8.4247 10.1985 8.52755 9.94481 8.52755C9.69117 8.52755 9.46149 8.4247 9.29522 8.25844C9.12895 8.09217 9.02611 7.86253 9.02611 7.60884C9.02611 7.57383 9.02808 7.53923 9.03188 7.50525L7.87055 6.9517H7.87059ZM2.51958 21.8682C2.3542 21.8682 2.22014 21.7342 2.22014 21.5688C2.22014 21.4034 2.3542 21.2693 2.51958 21.2693H4.04827C4.21364 21.2693 4.3477 21.4034 4.3477 21.5688C4.3477 21.7342 4.21364 21.8682 4.04827 21.8682H2.51958ZM4.68844 15.1806V16.7137L5.10525 16.2097C5.11786 16.1939 5.1323 16.1791 5.14852 16.1657C5.27578 16.0605 5.46431 16.0783 5.56959 16.2055L5.98992 16.7137V15.1805H4.68844V15.1806ZM6.58875 15.1806V17.5451C6.58875 17.7105 6.45469 17.8446 6.28931 17.8446C6.19102 17.8446 6.10378 17.7972 6.04922 17.724L5.33916 16.8654L4.61939 17.7357C4.51411 17.863 4.32558 17.8808 4.19831 17.7755C4.12688 17.7164 4.08994 17.631 4.08989 17.545H4.08952V15.1806H1.68956C1.66631 15.1806 1.64494 15.1903 1.62928 15.206C1.61362 15.2216 1.60387 15.243 1.60387 15.2662V22.5653C1.60387 22.5886 1.61362 22.61 1.62928 22.6256C1.64494 22.6413 1.66631 22.651 1.68956 22.651H8.98866C9.01191 22.651 9.03328 22.6413 9.04894 22.6256C9.0646 22.61 9.07434 22.5886 9.07434 22.5653V15.2662C9.07434 15.243 9.0646 15.2216 9.04894 15.206C9.03328 15.1903 9.01191 15.1806 8.98866 15.1806H6.5887L6.58875 15.1806ZM6.02681 3.55542H7.19456C7.27247 3.55542 7.34358 3.52331 7.39524 3.47166C7.44689 3.41995 7.479 3.34889 7.479 3.27098V1.79592L6.02681 3.55542ZM8.07788 1.34883H20.2689C20.3468 1.34883 20.4179 1.38094 20.4695 1.43264C20.4731 1.43625 20.4768 1.43972 20.4805 1.44309C20.5258 1.49363 20.5533 1.56038 20.5533 1.63331V20.0233C20.5533 20.1011 20.5212 20.1722 20.4695 20.2239C20.4178 20.2756 20.3468 20.3077 20.2688 20.3077H9.67322V15.2662C9.67322 15.0777 9.5963 14.9065 9.47236 14.7825C9.34842 14.6587 9.17723 14.5817 8.98866 14.5817H5.69227V4.1543H7.19447C7.4377 4.1543 7.65863 4.05502 7.81856 3.89508C7.9785 3.73514 8.07778 3.51422 8.07778 3.27098V1.34883H8.07788ZM9.67327 21.909V20.9065H20.2689C20.5121 20.9065 20.733 20.8072 20.893 20.6473C21.053 20.4874 21.1523 20.2665 21.1523 20.0233V2.95012H22.1116C22.1895 2.95012 22.2606 2.98223 22.3123 3.03394C22.364 3.08564 22.3961 3.15675 22.3961 3.23461V21.6246C22.3961 21.7024 22.364 21.7735 22.3123 21.8252C22.2606 21.8769 22.1895 21.909 22.1116 21.909H9.67327ZM21.1523 2.35125H22.1116C22.3549 2.35125 22.5758 2.45058 22.7357 2.61052C22.8957 2.7705 22.995 2.99147 22.995 3.23461V21.6246C22.995 21.8678 22.8956 22.0887 22.7357 22.2486C22.5758 22.4085 22.3548 22.5078 22.1116 22.5078H9.67327V22.5654C9.67327 22.754 9.59634 22.9252 9.47241 23.0491C9.34847 23.173 9.17728 23.25 8.9887 23.25H1.68961C1.50103 23.25 1.3298 23.173 1.20591 23.0491C1.08197 22.9252 1.00505 22.754 1.00505 22.5654V15.2663C1.00505 15.0777 1.08197 14.9065 1.20591 14.7826C1.32984 14.6587 1.50103 14.5817 1.68961 14.5817H5.09348V3.85486L5.09358 3.84727V3.84717V3.84684L5.09386 3.83958V3.83944L5.09433 3.83208V3.83184C5.0947 3.82692 5.09522 3.82205 5.09583 3.81722V3.81675C5.10431 3.75033 5.1345 3.69075 5.17908 3.64528L7.47792 0.859969C7.53684 0.788297 7.62225 0.751172 7.70836 0.751125V0.75H20.2689C20.5122 0.75 20.733 0.849328 20.893 1.00927C20.8995 1.01573 20.9055 1.02244 20.9113 1.02933C21.0605 1.18758 21.1523 1.40039 21.1523 1.63341V2.35125ZM10.9496 15.636H18.2515C18.4169 15.636 18.5509 15.5019 18.5509 15.3366C18.5509 15.1712 18.4169 15.0371 18.2515 15.0371H10.9496C10.7843 15.0371 10.6502 15.1712 10.6502 15.3366C10.6502 15.5019 10.7843 15.636 10.9496 15.636ZM10.9496 17.4554H18.2515C18.4169 17.4554 18.5509 17.3213 18.5509 17.1559C18.5509 16.9905 18.4169 16.8565 18.2515 16.8565H10.9496C10.7843 16.8565 10.6502 16.9905 10.6502 17.1559C10.6502 17.3213 10.7843 17.4554 10.9496 17.4554Z" fill="#383839" fill-opacity="0.6"/>
</svg>
