<svg width="20" height="21" viewBox="0 0 20 21" fill="none" xmlns="http://www.w3.org/2000/svg">
<path d="M9.16651 11.3334H4.99984C4.76373 11.3334 4.56595 11.2534 4.40651 11.0934C4.24706 10.9334 4.16706 10.7356 4.16651 10.5001C4.16595 10.2645 4.24595 10.0668 4.40651 9.90675C4.56706 9.74675 4.76484 9.66675 4.99984 9.66675H9.16651V5.50008C9.16651 5.26397 9.24651 5.0662 9.40651 4.90675C9.56651 4.74731 9.76428 4.66731 9.99984 4.66675C10.2354 4.6662 10.4335 4.7462 10.594 4.90675C10.7546 5.06731 10.8343 5.26508 10.8332 5.50008V9.66675H14.9998C15.236 9.66675 15.434 9.74675 15.594 9.90675C15.754 10.0668 15.8337 10.2645 15.8332 10.5001C15.8326 10.7356 15.7526 10.9337 15.5932 11.0943C15.4337 11.2548 15.236 11.3345 14.9998 11.3334H10.8332V15.5001C10.8332 15.7362 10.7532 15.9343 10.5932 16.0943C10.4332 16.2543 10.2354 16.334 9.99984 16.3334C9.76428 16.3329 9.56651 16.2529 9.40651 16.0934C9.24651 15.934 9.16651 15.7362 9.16651 15.5001V11.3334Z" fill="white"/>
</svg>
