<svg width="17" height="17" viewBox="0 0 17 17" fill="none" xmlns="http://www.w3.org/2000/svg">
<path d="M6.30634 5.64001L7.83301 4.10668V10.5C7.83301 10.6768 7.90325 10.8464 8.02827 10.9714C8.15329 11.0964 8.32286 11.1667 8.49967 11.1667C8.67649 11.1667 8.84606 11.0964 8.97108 10.9714C9.0961 10.8464 9.16634 10.6768 9.16634 10.5V4.10668L10.693 5.64001C10.755 5.7025 10.8287 5.75209 10.91 5.78594C10.9912 5.81979 11.0783 5.83721 11.1663 5.83721C11.2543 5.83721 11.3415 5.81979 11.4227 5.78594C11.504 5.75209 11.5777 5.7025 11.6397 5.64001C11.7022 5.57804 11.7518 5.5043 11.7856 5.42306C11.8194 5.34182 11.8369 5.25469 11.8369 5.16668C11.8369 5.07867 11.8194 4.99153 11.7856 4.91029C11.7518 4.82906 11.7022 4.75532 11.6397 4.69335L8.97301 2.02668C8.90961 1.96599 8.83484 1.91841 8.75301 1.88668C8.5907 1.82 8.40865 1.82 8.24634 1.88668C8.16451 1.91841 8.08974 1.96599 8.02634 2.02668L5.35967 4.69335C5.29752 4.7555 5.24821 4.8293 5.21457 4.91051C5.18093 4.99173 5.16361 5.07877 5.16361 5.16668C5.16361 5.25459 5.18093 5.34163 5.21457 5.42285C5.24821 5.50406 5.29752 5.57785 5.35967 5.64001C5.42183 5.70217 5.49563 5.75148 5.57684 5.78512C5.65806 5.81876 5.7451 5.83607 5.83301 5.83607C5.92091 5.83607 6.00796 5.81876 6.08917 5.78512C6.17039 5.75148 6.24418 5.70217 6.30634 5.64001ZM14.4997 9.83335C14.3229 9.83335 14.1533 9.90358 14.0283 10.0286C13.9032 10.1536 13.833 10.3232 13.833 10.5V13.1667C13.833 13.3435 13.7628 13.5131 13.6377 13.6381C13.5127 13.7631 13.3432 13.8333 13.1663 13.8333H3.83301C3.6562 13.8333 3.48663 13.7631 3.3616 13.6381C3.23658 13.5131 3.16634 13.3435 3.16634 13.1667V10.5C3.16634 10.3232 3.0961 10.1536 2.97108 10.0286C2.84605 9.90358 2.67649 9.83335 2.49967 9.83335C2.32286 9.83335 2.15329 9.90358 2.02827 10.0286C1.90325 10.1536 1.83301 10.3232 1.83301 10.5V13.1667C1.83301 13.6971 2.04372 14.2058 2.41879 14.5809C2.79387 14.956 3.30257 15.1667 3.83301 15.1667H13.1663C13.6968 15.1667 14.2055 14.956 14.5806 14.5809C14.9556 14.2058 15.1663 13.6971 15.1663 13.1667V10.5C15.1663 10.3232 15.0961 10.1536 14.9711 10.0286C14.8461 9.90358 14.6765 9.83335 14.4997 9.83335Z" fill="#383838" fill-opacity="0.6"/>
</svg>
