<svg width="887" height="126" viewBox="0 0 887 126" fill="none" xmlns="http://www.w3.org/2000/svg">
<path d="M-4.83333 126C-4.83333 128.946 -2.44552 131.333 0.5 131.333C3.44552 131.333 5.83333 128.946 5.83333 126C5.83333 123.054 3.44552 120.667 0.5 120.667C-2.44552 120.667 -4.83333 123.054 -4.83333 126ZM219.5 70L219.653 69.0117L219.45 68.9805L219.252 69.0312L219.5 70ZM443 104.5L442.847 105.488L443.147 105.535L443.423 105.406L443 104.5ZM666 0.5L666.123 -0.492347L665.838 -0.527867L665.577 -0.406287L666 0.5ZM881.667 28C881.667 30.9455 884.055 33.3333 887 33.3333C889.945 33.3333 892.333 30.9455 892.333 28C892.333 25.0545 889.945 22.6667 887 22.6667C884.055 22.6667 881.667 25.0545 881.667 28ZM0.5 126L0.747737 126.969L219.748 70.9688L219.5 70L219.252 69.0312L0.252263 125.031L0.5 126ZM219.5 70L219.347 70.9883L442.847 105.488L443 104.5L443.153 103.512L219.653 69.0117L219.5 70ZM443 104.5L443.423 105.406L666.423 1.40629L666 0.5L665.577 -0.406287L442.577 103.594L443 104.5ZM666 0.5L665.877 1.49235L886.877 28.9923L887 28L887.123 27.0077L666.123 -0.492347L666 0.5Z" fill="#7C3AED"/>
</svg>
