<svg width="14" height="11" viewBox="0 0 14 11" fill="none" xmlns="http://www.w3.org/2000/svg">
<path d="M13.3623 4.8635C13.565 5.1475 13.6663 5.29016 13.6663 5.50016C13.6663 5.71083 13.565 5.85283 13.3623 6.13683C12.4517 7.41416 10.1257 10.1668 6.99967 10.1668C3.87301 10.1668 1.54767 7.4135 0.637008 6.13683C0.434341 5.85283 0.333008 5.71016 0.333008 5.50016C0.333008 5.2895 0.434341 5.1475 0.637008 4.8635C1.54767 3.58616 3.87367 0.833496 6.99967 0.833496C10.1263 0.833496 12.4517 3.58683 13.3623 4.8635Z" stroke="#383838" stroke-opacity="0.6"/>
<path d="M9 5.5C9 4.96957 8.78929 4.46086 8.41421 4.08579C8.03914 3.71071 7.53043 3.5 7 3.5C6.46957 3.5 5.96086 3.71071 5.58579 4.08579C5.21071 4.46086 5 4.96957 5 5.5C5 6.03043 5.21071 6.53914 5.58579 6.91421C5.96086 7.28929 6.46957 7.5 7 7.5C7.53043 7.5 8.03914 7.28929 8.41421 6.91421C8.78929 6.53914 9 6.03043 9 5.5Z" stroke="#383838" stroke-opacity="0.6"/>
</svg>
