<svg width="20" height="21" viewBox="0 0 20 21" fill="none" xmlns="http://www.w3.org/2000/svg">
<path d="M9.167 11.3332H5.00033C4.76422 11.3332 4.56644 11.2532 4.407 11.0932C4.24755 10.9332 4.16755 10.7354 4.167 10.4998C4.16644 10.2643 4.24644 10.0665 4.407 9.90651C4.56755 9.74651 4.76533 9.66651 5.00033 9.66651H9.167V5.49984C9.167 5.26373 9.24699 5.06595 9.40699 4.90651C9.567 4.74706 9.76477 4.66706 10.0003 4.66651C10.2359 4.66595 10.4339 4.74595 10.5945 4.90651C10.7551 5.06706 10.8348 5.26484 10.8337 5.49984V9.66651H15.0003C15.2364 9.66651 15.4345 9.74651 15.5945 9.90651C15.7545 10.0665 15.8342 10.2643 15.8337 10.4998C15.8331 10.7354 15.7531 10.9335 15.5937 11.094C15.4342 11.2546 15.2364 11.3343 15.0003 11.3332H10.8337V15.4998C10.8337 15.736 10.7537 15.934 10.5937 16.094C10.4337 16.254 10.2359 16.3337 10.0003 16.3332C9.76477 16.3326 9.567 16.2526 9.40699 16.0932C9.24699 15.9337 9.167 15.736 9.167 15.4998V11.3332Z" fill="white"/>
</svg>
