<svg width="24" height="24" viewBox="0 0 24 24" fill="none" xmlns="http://www.w3.org/2000/svg">
<path fill-rule="evenodd" clip-rule="evenodd" d="M15.7579 13.1477H16.8437V9.19191H15.7579V13.1477ZM12.5798 13.1477H13.6656V8.22628H12.5798V13.1477ZM9.40174 13.1477H10.4876V10.172H9.40174V13.1477ZM18.2513 13.1477C18.4167 13.1477 18.5508 13.2818 18.5508 13.4472C18.5508 13.6125 18.4167 13.7466 18.2513 13.7466H7.99409C7.82871 13.7466 7.69465 13.6125 7.69465 13.4472C7.69465 13.2818 7.82871 13.1477 7.99409 13.1477H8.80291V9.87258C8.80291 9.7072 8.93698 9.57314 9.10235 9.57314H10.787C10.9524 9.57314 11.0865 9.7072 11.0865 9.87258V13.1477H11.981V7.92684C11.981 7.76147 12.1151 7.62741 12.2804 7.62741H13.9651C14.1304 7.62741 14.2645 7.76147 14.2645 7.92684V13.1477H15.159V8.89247C15.159 8.72709 15.2931 8.59303 15.4585 8.59303H17.1431C17.3085 8.59303 17.4426 8.72709 17.4426 8.89247V13.1477H18.2514H18.2513ZM10.1708 7.38272C10.1129 7.32487 10.0329 7.28906 9.9446 7.28906C9.85629 7.28906 9.77632 7.32487 9.71843 7.38272C9.66054 7.44056 9.62477 7.52053 9.62477 7.60889C9.62477 7.69725 9.66059 7.77722 9.71843 7.83506C9.77627 7.89291 9.85624 7.92872 9.9446 7.92872C10.033 7.92872 10.1129 7.89291 10.1708 7.83506C10.2286 7.77722 10.2644 7.69725 10.2644 7.60889C10.2644 7.52053 10.2286 7.44056 10.1708 7.38272ZM13.3489 4.85555C13.291 4.7977 13.211 4.76189 13.1227 4.76189C13.0344 4.76189 12.9544 4.7977 12.8965 4.85555C12.8387 4.91339 12.8029 4.99341 12.8029 5.08172C12.8029 5.17003 12.8387 5.25005 12.8965 5.30789C12.9544 5.36573 13.0343 5.40155 13.1227 5.40155C13.211 5.40155 13.291 5.36573 13.3489 5.30789C13.4067 5.25005 13.4425 5.17008 13.4425 5.08172C13.4425 4.99336 13.4067 4.91339 13.3489 4.85555ZM16.5269 6.7635C16.4691 6.70566 16.3891 6.66984 16.3008 6.66984C16.2124 6.66984 16.1324 6.70566 16.0746 6.7635C16.0167 6.82134 15.9809 6.90131 15.9809 6.98967C15.9809 7.07803 16.0167 7.158 16.0746 7.21584C16.1324 7.27369 16.2124 7.3095 16.3008 7.3095C16.3891 7.3095 16.4691 7.27369 16.5269 7.21584C16.5848 7.158 16.6206 7.07798 16.6206 6.98967C16.6206 6.90136 16.5848 6.82139 16.5269 6.7635ZM7.87043 6.9517C7.72123 6.88064 7.65785 6.70205 7.72891 6.55284C7.79998 6.40364 7.97857 6.34027 8.12777 6.41133L9.28938 6.96502L9.29506 6.95925C9.46132 6.79298 9.69101 6.69014 9.94465 6.69014C10.1265 6.69014 10.296 6.74297 10.4386 6.83414L12.2566 5.38856C12.2225 5.29261 12.204 5.1893 12.204 5.08167C12.204 4.82803 12.3069 4.59834 12.4731 4.43208C12.6394 4.26581 12.8691 4.16297 13.1227 4.16297C13.3764 4.16297 13.6061 4.26581 13.7723 4.43208C13.9385 4.59834 14.0414 4.82803 14.0414 5.08167C14.0414 5.1473 14.0345 5.21133 14.0214 5.27306L15.7095 6.2865C15.8693 6.15197 16.0756 6.07092 16.3008 6.07092C16.4622 6.07092 16.6139 6.11259 16.7457 6.18572L17.4342 5.56355C17.5563 5.45311 17.7448 5.46253 17.8553 5.58459C17.9658 5.70666 17.9563 5.89519 17.8343 6.00567L17.1456 6.62803C17.1932 6.73898 17.2195 6.86123 17.2195 6.98962C17.2195 7.24327 17.1167 7.47295 16.9504 7.63922C16.7841 7.80548 16.5545 7.90833 16.3008 7.90833C16.0471 7.90833 15.8175 7.80548 15.6512 7.63922C15.4849 7.47295 15.3821 7.24327 15.3821 6.98962C15.3821 6.924 15.389 6.85997 15.4021 6.79823L13.714 5.7848C13.5542 5.91928 13.3479 6.00038 13.1227 6.00038C12.9409 6.00038 12.7714 5.9475 12.6287 5.85633L10.8108 7.30191C10.8448 7.39791 10.8634 7.50122 10.8634 7.60884C10.8634 7.86248 10.7605 8.09217 10.5942 8.25844C10.428 8.4247 10.1983 8.52755 9.94465 8.52755C9.69101 8.52755 9.46132 8.4247 9.29506 8.25844C9.12879 8.09217 9.02595 7.86253 9.02595 7.60884C9.02595 7.57383 9.02792 7.53923 9.03171 7.50525L7.87038 6.9517H7.87043ZM2.51941 21.8682C2.35404 21.8682 2.21998 21.7342 2.21998 21.5688C2.21998 21.4034 2.35404 21.2693 2.51941 21.2693H4.0481C4.21348 21.2693 4.34754 21.4034 4.34754 21.5688C4.34754 21.7342 4.21348 21.8682 4.0481 21.8682H2.51941ZM4.68827 15.1806V16.7137L5.10509 16.2097C5.1177 16.1939 5.13213 16.1791 5.14835 16.1657C5.27562 16.0605 5.46415 16.0783 5.56943 16.2055L5.98976 16.7137V15.1805H4.68827V15.1806ZM6.58859 15.1806V17.5451C6.58859 17.7105 6.45452 17.8446 6.28915 17.8446C6.19085 17.8446 6.10362 17.7972 6.04906 17.724L5.33899 16.8654L4.61923 17.7357C4.51395 17.863 4.32541 17.8808 4.19815 17.7755C4.12671 17.7164 4.08977 17.631 4.08973 17.545H4.08935V15.1806H1.6894C1.66615 15.1806 1.64477 15.1903 1.62912 15.206C1.61346 15.2216 1.60371 15.243 1.60371 15.2662V22.5653C1.60371 22.5886 1.61346 22.61 1.62912 22.6256C1.64477 22.6413 1.66615 22.651 1.6894 22.651H8.98849C9.01174 22.651 9.03312 22.6413 9.04877 22.6256C9.06443 22.61 9.07418 22.5886 9.07418 22.5653V15.2662C9.07418 15.243 9.06443 15.2216 9.04877 15.206C9.03312 15.1903 9.01174 15.1806 8.98849 15.1806H6.58854L6.58859 15.1806ZM6.02665 3.55542H7.1944C7.27231 3.55542 7.34341 3.52331 7.39507 3.47166C7.44673 3.41995 7.47884 3.34889 7.47884 3.27098V1.79592L6.02665 3.55542ZM8.07771 1.34883H20.2687C20.3466 1.34883 20.4177 1.38094 20.4694 1.43264C20.473 1.43625 20.4766 1.43972 20.4804 1.44309C20.5256 1.49363 20.5532 1.56038 20.5532 1.63331V20.0233C20.5532 20.1011 20.5211 20.1722 20.4694 20.2239C20.4177 20.2756 20.3466 20.3077 20.2687 20.3077H9.67306V15.2662C9.67306 15.0777 9.59613 14.9065 9.4722 14.7825C9.34826 14.6587 9.17707 14.5817 8.98849 14.5817H5.6921V4.1543H7.19431C7.43754 4.1543 7.65846 4.05502 7.8184 3.89508C7.97834 3.73514 8.07762 3.51422 8.07762 3.27098V1.34883H8.07771ZM9.6731 21.909V20.9065H20.2687C20.5119 20.9065 20.7328 20.8072 20.8928 20.6473C21.0528 20.4874 21.1521 20.2665 21.1521 20.0233V2.95012H22.1115C22.1894 2.95012 22.2604 2.98223 22.3121 3.03394C22.3638 3.08564 22.3959 3.15675 22.3959 3.23461V21.6246C22.3959 21.7024 22.3638 21.7735 22.3121 21.8252C22.2604 21.8769 22.1893 21.909 22.1114 21.909H9.6731ZM21.1521 2.35125H22.1115C22.3547 2.35125 22.5756 2.45058 22.7355 2.61052C22.8955 2.7705 22.9948 2.99147 22.9948 3.23461V21.6246C22.9948 21.8678 22.8955 22.0887 22.7355 22.2486C22.5756 22.4085 22.3547 22.5078 22.1114 22.5078H9.6731V22.5654C9.6731 22.754 9.59618 22.9252 9.47224 23.0491C9.34831 23.173 9.17712 23.25 8.98854 23.25H1.68945C1.50087 23.25 1.32963 23.173 1.20574 23.0491C1.0818 22.9252 1.00488 22.754 1.00488 22.5654V15.2663C1.00488 15.0777 1.0818 14.9065 1.20574 14.7826C1.32968 14.6587 1.50087 14.5817 1.68945 14.5817H5.09332V3.85486L5.09341 3.84727V3.84717V3.84684L5.0937 3.83958V3.83944L5.09416 3.83208V3.83184C5.09454 3.82692 5.09505 3.82205 5.09566 3.81722V3.81675C5.10415 3.75033 5.13434 3.69075 5.17891 3.64528L7.47776 0.859969C7.53668 0.788297 7.62209 0.751172 7.7082 0.751125V0.75H20.2688C20.512 0.75 20.7329 0.849328 20.8928 1.00927C20.8993 1.01573 20.9054 1.02244 20.9111 1.02933C21.0604 1.18758 21.1521 1.40039 21.1521 1.63341V2.35125ZM10.9495 15.636H18.2513C18.4167 15.636 18.5508 15.5019 18.5508 15.3366C18.5508 15.1712 18.4167 15.0371 18.2513 15.0371H10.9495C10.7841 15.0371 10.65 15.1712 10.65 15.3366C10.65 15.5019 10.7841 15.636 10.9495 15.636ZM10.9495 17.4554H18.2513C18.4167 17.4554 18.5508 17.3213 18.5508 17.1559C18.5508 16.9905 18.4167 16.8565 18.2513 16.8565H10.9495C10.7841 16.8565 10.65 16.9905 10.65 17.1559C10.65 17.3213 10.7841 17.4554 10.9495 17.4554Z" fill="white"/>
</svg>
