<svg width="24" height="24" viewBox="0 0 24 24" fill="none" xmlns="http://www.w3.org/2000/svg">
<path d="M16 13C16 12.45 15.55 12 15 12H12C11.45 12 11 12.45 11 13C11 13.55 11.45 14 12 14H15C15.55 14 16 13.55 16 13ZM12 6C15.859 6 19 9.141 19 13C19 16.859 15.859 20 12 20C8.141 20 5 16.859 5 13C5 9.141 8.141 6 12 6ZM12 4C7.029 4 3 8.029 3 13C3 17.971 7.029 22 12 22C16.971 22 21 17.971 21 13C21 8.029 16.971 4 12 4ZM13 10C13 9.45 12.55 9 12 9C11.45 9 11 9.45 11 10V13C11 13.55 11.45 14 12 14C12.55 14 13 13.55 13 13V10ZM12 8C14.757 8 17 10.243 17 13C17 15.757 14.757 18 12 18C9.243 18 7 15.757 7 13C7 10.243 9.243 8 12 8ZM12 7C10.4087 7 8.88258 7.63214 7.75736 8.75736C6.63214 9.88258 6 11.4087 6 13C6 14.5913 6.63214 16.1174 7.75736 17.2426C8.88258 18.3679 10.4087 19 12 19C13.5913 19 15.1174 18.3679 16.2426 17.2426C17.3679 16.1174 18 14.5913 18 13C18 11.4087 17.3679 9.88258 16.2426 8.75736C15.1174 7.63214 13.5913 7 12 7Z" fill="#5856D6"/>
</svg>
