<svg width="16" height="16" viewBox="0 0 16 16" fill="none" xmlns="http://www.w3.org/2000/svg">
<path d="M5.80634 5.13977L7.33301 3.60643V9.99977C7.33301 10.1766 7.40325 10.3461 7.52827 10.4712C7.65329 10.5962 7.82286 10.6664 7.99967 10.6664C8.17649 10.6664 8.34606 10.5962 8.47108 10.4712C8.5961 10.3461 8.66634 10.1766 8.66634 9.99977V3.60643L10.193 5.13977C10.255 5.20225 10.3287 5.25185 10.41 5.2857C10.4912 5.31954 10.5783 5.33697 10.6663 5.33697C10.7543 5.33697 10.8415 5.31954 10.9227 5.2857C11.004 5.25185 11.0777 5.20225 11.1397 5.13977C11.2022 5.07779 11.2518 5.00406 11.2856 4.92282C11.3194 4.84158 11.3369 4.75444 11.3369 4.66644C11.3369 4.57843 11.3194 4.49129 11.2856 4.41005C11.2518 4.32881 11.2022 4.25508 11.1397 4.1931L8.47301 1.52643C8.40961 1.46574 8.33484 1.41816 8.25301 1.38643C8.0907 1.31976 7.90865 1.31976 7.74634 1.38643C7.66451 1.41816 7.58974 1.46574 7.52634 1.52643L4.85967 4.1931C4.79752 4.25526 4.74821 4.32905 4.71457 4.41027C4.68093 4.49148 4.66361 4.57853 4.66361 4.66644C4.66361 4.75434 4.68093 4.84139 4.71457 4.9226C4.74821 5.00382 4.79752 5.07761 4.85967 5.13977C4.92183 5.20193 4.99563 5.25123 5.07684 5.28487C5.15806 5.31851 5.2451 5.33583 5.33301 5.33583C5.42091 5.33583 5.50796 5.31851 5.58917 5.28487C5.67039 5.25123 5.74418 5.20193 5.80634 5.13977ZM13.9997 9.3331C13.8229 9.3331 13.6533 9.40334 13.5283 9.52836C13.4032 9.65339 13.333 9.82296 13.333 9.99977V12.6664C13.333 12.8432 13.2628 13.0128 13.1377 13.1378C13.0127 13.2629 12.8432 13.3331 12.6663 13.3331H3.33301C3.1562 13.3331 2.98663 13.2629 2.8616 13.1378C2.73658 13.0128 2.66634 12.8432 2.66634 12.6664V9.99977C2.66634 9.82296 2.5961 9.65339 2.47108 9.52836C2.34605 9.40334 2.17649 9.3331 1.99967 9.3331C1.82286 9.3331 1.65329 9.40334 1.52827 9.52836C1.40325 9.65339 1.33301 9.82296 1.33301 9.99977V12.6664C1.33301 13.1969 1.54372 13.7056 1.91879 14.0806C2.29387 14.4557 2.80257 14.6664 3.33301 14.6664H12.6663C13.1968 14.6664 13.7055 14.4557 14.0806 14.0806C14.4556 13.7056 14.6663 13.1969 14.6663 12.6664V9.99977C14.6663 9.82296 14.5961 9.65339 14.4711 9.52836C14.3461 9.40334 14.1765 9.3331 13.9997 9.3331Z" fill="#383838" fill-opacity="0.6"/>
</svg>
