<svg width="894" height="199" viewBox="0 0 894 199" fill="none" xmlns="http://www.w3.org/2000/svg">
<path d="M-2.66667 195.414C-2.66667 196.887 -1.47276 198.081 0 198.081C1.47276 198.081 2.66667 196.887 2.66667 195.414C2.66667 193.942 1.47276 192.748 0 192.748C-1.47276 192.748 -2.66667 193.942 -2.66667 195.414ZM891.333 90.5C891.333 91.9728 892.527 93.1667 894 93.1667C895.473 93.1667 896.667 91.9728 896.667 90.5C896.667 89.0272 895.473 87.8333 894 87.8333C892.527 87.8333 891.333 89.0272 891.333 90.5ZM546.562 151.604L546.316 152.039L546.562 151.604ZM561.18 150.349L560.864 149.962L561.18 150.349ZM846.001 142.631L845.633 142.292L846.001 142.631ZM832.917 146.34L832.782 146.821L832.917 146.34ZM422.088 100.215L421.603 100.094L422.088 100.215ZM441.09 92.0526L440.844 92.488L441.09 92.0526ZM411.938 131.73L412.273 132.1L411.938 131.73ZM379.374 161.246L379.71 161.617L379.374 161.246ZM334.066 127.692L333.618 127.914L334.066 127.692ZM335.753 130.269L336.136 129.948L335.753 130.269ZM295.365 97.6711L295.823 97.8732L295.365 97.6711ZM318.9 97.1442L319.348 96.9219L318.9 97.1442ZM268.179 159.203L267.721 159.001L268.179 159.203ZM219.998 155.514L219.519 155.372L219.998 155.514ZM194.783 189.764L194.588 190.224L194.783 189.764ZM172.241 183.988L172.411 184.458L172.241 183.988ZM181.699 184.242L181.894 183.781L181.699 184.242ZM145.994 193.437L145.824 192.966L145.994 193.437ZM114.949 62.5998L114.453 62.6566L114.949 62.5998ZM17.079 170.186L17.4931 170.467L17.079 170.186ZM0 195.414L0.414043 195.695L17.4931 170.467L17.079 170.186L16.665 169.906L-0.414043 195.134L0 195.414ZM57.4725 166.723L57.9512 166.867L90.0667 60.4642L89.588 60.3198L89.1093 60.1753L56.9939 166.578L57.4725 166.723ZM114.949 62.5998L114.453 62.6566L128.178 182.738L128.675 182.681L129.171 182.625L115.446 62.543L114.949 62.5998ZM145.994 193.437L146.163 193.907L172.411 184.458L172.241 183.988L172.072 183.517L145.824 192.966L145.994 193.437ZM181.699 184.242L181.505 184.703L194.588 190.224L194.783 189.764L194.977 189.303L181.894 183.781L181.699 184.242ZM212.301 181.481L212.781 181.623L220.478 155.656L219.998 155.514L219.519 155.372L211.822 181.339L212.301 181.481ZM268.179 159.203L268.636 159.405L295.823 97.8732L295.365 97.6711L294.908 97.469L267.721 159.001L268.179 159.203ZM318.9 97.1442L318.452 97.3665L333.618 127.914L334.066 127.692L334.514 127.469L319.348 96.9219L318.9 97.1442ZM335.753 130.269L335.37 130.591L360.303 160.294L360.686 159.972L361.069 159.651L336.136 129.948L335.753 130.269ZM379.374 161.246L379.71 161.617L412.273 132.1L411.938 131.73L411.602 131.359L379.038 160.876L379.374 161.246ZM415.817 125.255L416.302 125.377L422.573 100.336L422.088 100.215L421.603 100.094L415.332 125.134L415.817 125.255ZM846.001 142.631L846.369 142.97L894.368 90.8387L894 90.5L893.632 90.1613L845.633 142.292L846.001 142.631ZM640.914 92.3314L640.779 92.8127L832.782 146.821L832.917 146.34L833.053 145.858L641.05 91.85L640.914 92.3314ZM441.09 92.0526L440.844 92.488L546.316 152.039L546.562 151.604L546.807 151.168L441.336 91.6172L441.09 92.0526ZM561.18 150.349L561.497 150.736L629.484 95.1673L629.167 94.7801L628.851 94.393L560.864 149.962L561.18 150.349ZM546.562 151.604L546.316 152.039C551.161 154.775 557.188 154.258 561.497 150.736L561.18 150.349L560.864 149.962C556.875 153.223 551.294 153.702 546.807 151.168L546.562 151.604ZM640.914 92.3314L641.05 91.85C636.812 90.658 632.259 91.6071 628.851 94.393L629.167 94.7801L629.484 95.1673C632.64 92.5877 636.855 91.7089 640.779 92.8127L640.914 92.3314ZM846.001 142.631L845.633 142.292C842.446 145.755 837.583 147.133 833.053 145.858L832.917 146.34L832.782 146.821C837.675 148.197 842.926 146.709 846.369 142.97L846.001 142.631ZM422.088 100.215L422.573 100.336C424.578 92.3292 433.656 88.4296 440.844 92.488L441.09 92.0526L441.336 91.6172C433.573 87.2341 423.768 91.4457 421.603 100.094L422.088 100.215ZM411.938 131.73L412.273 132.1C414.252 130.307 415.654 127.967 416.302 125.377L415.817 125.255L415.332 125.134C414.732 127.532 413.434 129.699 411.602 131.359L411.938 131.73ZM360.686 159.972L360.303 160.294C365.226 166.158 374.036 166.759 379.71 161.617L379.374 161.246L379.038 160.876C373.785 165.637 365.627 165.081 361.069 159.651L360.686 159.972ZM334.066 127.692L333.618 127.914C334.094 128.873 334.682 129.771 335.37 130.591L335.753 130.269L336.136 129.948C335.499 129.189 334.954 128.357 334.514 127.469L334.066 127.692ZM295.365 97.6711L295.823 97.8732C300.104 88.1835 313.742 87.8782 318.452 97.3665L318.9 97.1442L319.348 96.9219C314.261 86.6744 299.532 87.0042 294.908 97.469L295.365 97.6711ZM244.365 156.605L243.875 156.703C246.391 169.201 263.484 171.066 268.636 159.405L268.179 159.203L267.721 159.001C262.963 169.769 247.179 168.047 244.856 156.506L244.365 156.605ZM219.998 155.514L220.478 155.656C224.053 143.593 241.392 144.369 243.875 156.703L244.365 156.605L244.856 156.506C242.167 143.15 223.391 142.309 219.519 155.372L219.998 155.514ZM194.783 189.764L194.588 190.224C202.004 193.354 210.493 189.341 212.781 181.623L212.301 181.481L211.822 181.339C209.704 188.485 201.843 192.201 194.977 189.303L194.783 189.764ZM172.241 183.988L172.411 184.458C175.365 183.394 178.612 183.482 181.505 184.703L181.699 184.242L181.894 183.781C178.769 182.463 175.263 182.368 172.072 183.517L172.241 183.988ZM128.675 182.681L128.178 182.738C129.167 191.391 137.969 196.857 146.163 193.907L145.994 193.437L145.824 192.966C138.237 195.698 130.087 190.636 129.171 182.625L128.675 182.681ZM89.588 60.3198L90.0667 60.4642C93.9904 47.4645 112.911 49.1655 114.453 62.6566L114.949 62.5998L115.446 62.543C113.781 47.9726 93.3469 46.1356 89.1093 60.1753L89.588 60.3198ZM36.5139 170.056L36.1036 170.342C41.9761 178.77 54.983 176.701 57.9512 166.867L57.4725 166.723L56.9939 166.578C54.2672 175.612 42.3187 177.512 36.9241 169.77L36.5139 170.056ZM17.079 170.186L17.4931 170.467C21.9343 163.906 31.5747 163.842 36.1036 170.342L36.5139 170.056L36.9241 169.77C31.9939 162.694 21.4996 162.765 16.665 169.906L17.079 170.186Z" fill="#1976D2"/>
</svg>
