<svg width="13" height="14" viewBox="0 0 13 14" fill="none" xmlns="http://www.w3.org/2000/svg">
<path d="M6 1.5H1.33333C0.979711 1.5 0.640573 1.64048 0.390524 1.89052C0.140476 2.14057 0 2.47971 0 2.83333V12.1667C0 12.5203 0.140476 12.8594 0.390524 13.1095C0.640573 13.3595 0.979711 13.5 1.33333 13.5H10.6667C11.0203 13.5 11.3594 13.3595 11.6095 13.1095C11.8595 12.8594 12 12.5203 12 12.1667V7.5" stroke="#383838" stroke-opacity="0.6" stroke-width="1.33333" stroke-linecap="round" stroke-linejoin="round"/>
<path d="M10.2499 1.25003C10.5151 0.984812 10.8748 0.835815 11.2499 0.835815C11.625 0.835815 11.9847 0.984812 12.2499 1.25003C12.5151 1.51525 12.6641 1.87496 12.6641 2.25003C12.6641 2.6251 12.5151 2.98481 12.2499 3.25003L6.24123 9.25936C6.08293 9.41753 5.88737 9.5333 5.67257 9.59603L3.75723 10.156C3.69987 10.1728 3.63906 10.1738 3.58117 10.1589C3.52329 10.1441 3.47045 10.114 3.4282 10.0717C3.38594 10.0295 3.35583 9.97664 3.341 9.91876C3.32617 9.86087 3.32717 9.80006 3.3439 9.7427L3.9039 7.82736C3.96692 7.61273 4.08292 7.4174 4.24123 7.25936L10.2499 1.25003Z" stroke="#383838" stroke-opacity="0.6" stroke-width="1.33333" stroke-linecap="round" stroke-linejoin="round"/>
</svg>
