<svg width="24" height="24" viewBox="0 0 24 24" fill="none" xmlns="http://www.w3.org/2000/svg">
<path fill-rule="evenodd" clip-rule="evenodd" d="M15.758 13.1477H16.8438V9.19191H15.758V13.1477ZM12.5799 13.1477H13.6657V8.22628H12.5799V13.1477ZM9.40187 13.1477H10.4877V10.172H9.40187V13.1477ZM18.2514 13.1477C18.4168 13.1477 18.5509 13.2818 18.5509 13.4472C18.5509 13.6125 18.4168 13.7466 18.2514 13.7466H7.99421C7.82883 13.7466 7.69477 13.6125 7.69477 13.4472C7.69477 13.2818 7.82883 13.1477 7.99421 13.1477H8.80304V9.87258C8.80304 9.7072 8.9371 9.57314 9.10247 9.57314H10.7872C10.9525 9.57314 11.0866 9.7072 11.0866 9.87258V13.1477H11.9811V7.92684C11.9811 7.76147 12.1152 7.62741 12.2806 7.62741H13.9652C14.1306 7.62741 14.2646 7.76147 14.2646 7.92684V13.1477H15.1591V8.89247C15.1591 8.72709 15.2932 8.59303 15.4586 8.59303H17.1433C17.3086 8.59303 17.4427 8.72709 17.4427 8.89247V13.1477H18.2515H18.2514ZM10.1709 7.38272C10.1131 7.32487 10.033 7.28906 9.94472 7.28906C9.85641 7.28906 9.77644 7.32487 9.71855 7.38272C9.66066 7.44056 9.6249 7.52053 9.6249 7.60889C9.6249 7.69725 9.66071 7.77722 9.71855 7.83506C9.7764 7.89291 9.85637 7.92872 9.94472 7.92872C10.0331 7.92872 10.1131 7.89291 10.1709 7.83506C10.2287 7.77722 10.2646 7.69725 10.2646 7.60889C10.2646 7.52053 10.2287 7.44056 10.1709 7.38272ZM13.349 4.85555C13.2911 4.7977 13.2111 4.76189 13.1228 4.76189C13.0345 4.76189 12.9545 4.7977 12.8966 4.85555C12.8388 4.91339 12.803 4.99341 12.803 5.08172C12.803 5.17003 12.8388 5.25005 12.8966 5.30789C12.9545 5.36573 13.0344 5.40155 13.1228 5.40155C13.2112 5.40155 13.2911 5.36573 13.349 5.30789C13.4069 5.25005 13.4426 5.17008 13.4426 5.08172C13.4426 4.99336 13.4068 4.91339 13.349 4.85555ZM16.5271 6.7635C16.4692 6.70566 16.3892 6.66984 16.3009 6.66984C16.2125 6.66984 16.1326 6.70566 16.0747 6.7635C16.0169 6.82134 15.9811 6.90131 15.9811 6.98967C15.9811 7.07803 16.0169 7.158 16.0747 7.21584C16.1326 7.27369 16.2126 7.3095 16.3009 7.3095C16.3892 7.3095 16.4692 7.27369 16.5271 7.21584C16.5849 7.158 16.6207 7.07798 16.6207 6.98967C16.6207 6.90136 16.5849 6.82139 16.5271 6.7635ZM7.87055 6.9517C7.72135 6.88064 7.65797 6.70205 7.72904 6.55284C7.8001 6.40364 7.97869 6.34027 8.1279 6.41133L9.28951 6.96502L9.29518 6.95925C9.46144 6.79298 9.69113 6.69014 9.94477 6.69014C10.1266 6.69014 10.2961 6.74297 10.4387 6.83414L12.2567 5.38856C12.2227 5.29261 12.2041 5.1893 12.2041 5.08167C12.2041 4.82803 12.307 4.59834 12.4733 4.43208C12.6395 4.26581 12.8692 4.16297 13.1228 4.16297C13.3765 4.16297 13.6062 4.26581 13.7724 4.43208C13.9387 4.59834 14.0415 4.82803 14.0415 5.08167C14.0415 5.1473 14.0346 5.21133 14.0215 5.27306L15.7096 6.2865C15.8694 6.15197 16.0757 6.07092 16.3009 6.07092C16.4623 6.07092 16.614 6.11259 16.7459 6.18572L17.4344 5.56355C17.5564 5.45311 17.745 5.46253 17.8554 5.58459C17.9659 5.70666 17.9565 5.89519 17.8344 6.00567L17.1457 6.62803C17.1933 6.73898 17.2196 6.86123 17.2196 6.98962C17.2196 7.24327 17.1168 7.47295 16.9505 7.63922C16.7843 7.80548 16.5546 7.90833 16.3009 7.90833C16.0472 7.90833 15.8176 7.80548 15.6513 7.63922C15.4851 7.47295 15.3822 7.24327 15.3822 6.98962C15.3822 6.924 15.3891 6.85997 15.4022 6.79823L13.7141 5.7848C13.5543 5.91928 13.348 6.00038 13.1228 6.00038C12.941 6.00038 12.7715 5.9475 12.6288 5.85633L10.8109 7.30191C10.845 7.39791 10.8635 7.50122 10.8635 7.60884C10.8635 7.86248 10.7606 8.09217 10.5944 8.25844C10.4281 8.4247 10.1984 8.52755 9.94477 8.52755C9.69113 8.52755 9.46144 8.4247 9.29518 8.25844C9.12891 8.09217 9.02607 7.86253 9.02607 7.60884C9.02607 7.57383 9.02804 7.53923 9.03183 7.50525L7.87051 6.9517H7.87055ZM2.51954 21.8682C2.35416 21.8682 2.2201 21.7342 2.2201 21.5688C2.2201 21.4034 2.35416 21.2693 2.51954 21.2693H4.04822C4.2136 21.2693 4.34766 21.4034 4.34766 21.5688C4.34766 21.7342 4.2136 21.8682 4.04822 21.8682H2.51954ZM4.6884 15.1806V16.7137L5.10521 16.2097C5.11782 16.1939 5.13226 16.1791 5.14847 16.1657C5.27574 16.0605 5.46427 16.0783 5.56955 16.2055L5.98988 16.7137V15.1805H4.6884V15.1806ZM6.58871 15.1806V17.5451C6.58871 17.7105 6.45465 17.8446 6.28927 17.8446C6.19097 17.8446 6.10374 17.7972 6.04918 17.724L5.33911 16.8654L4.61935 17.7357C4.51407 17.863 4.32554 17.8808 4.19827 17.7755C4.12683 17.7164 4.0899 17.631 4.08985 17.545H4.08947V15.1806H1.68952C1.66627 15.1806 1.6449 15.1903 1.62924 15.206C1.61358 15.2216 1.60383 15.243 1.60383 15.2662V22.5653C1.60383 22.5886 1.61358 22.61 1.62924 22.6256C1.6449 22.6413 1.66627 22.651 1.68952 22.651H8.98861C9.01186 22.651 9.03324 22.6413 9.0489 22.6256C9.06455 22.61 9.0743 22.5886 9.0743 22.5653V15.2662C9.0743 15.243 9.06455 15.2216 9.0489 15.206C9.03324 15.1903 9.01186 15.1806 8.98861 15.1806H6.58866L6.58871 15.1806ZM6.02677 3.55542H7.19452C7.27243 3.55542 7.34354 3.52331 7.39519 3.47166C7.44685 3.41995 7.47896 3.34889 7.47896 3.27098V1.79592L6.02677 3.55542ZM8.07783 1.34883H20.2689C20.3468 1.34883 20.4178 1.38094 20.4695 1.43264C20.4731 1.43625 20.4767 1.43972 20.4805 1.44309C20.5257 1.49363 20.5533 1.56038 20.5533 1.63331V20.0233C20.5533 20.1011 20.5212 20.1722 20.4695 20.2239C20.4178 20.2756 20.3467 20.3077 20.2688 20.3077H9.67318V15.2662C9.67318 15.0777 9.59626 14.9065 9.47232 14.7825C9.34838 14.6587 9.17719 14.5817 8.98861 14.5817H5.69222V4.1543H7.19443C7.43766 4.1543 7.65858 4.05502 7.81852 3.89508C7.97846 3.73514 8.07774 3.51422 8.07774 3.27098V1.34883H8.07783ZM9.67322 21.909V20.9065H20.2689C20.512 20.9065 20.733 20.8072 20.8929 20.6473C21.0529 20.4874 21.1522 20.2665 21.1522 20.0233V2.95013H22.1116C22.1895 2.95013 22.2606 2.98223 22.3122 3.03394C22.3639 3.08564 22.396 3.15675 22.396 3.23461V21.6246C22.396 21.7024 22.3639 21.7735 22.3122 21.8252C22.2605 21.8769 22.1895 21.909 22.1116 21.909H9.67322ZM21.1522 2.35125H22.1116C22.3548 2.35125 22.5758 2.45058 22.7356 2.61052C22.8956 2.7705 22.9949 2.99147 22.9949 3.23461V21.6246C22.9949 21.8678 22.8956 22.0887 22.7356 22.2486C22.5757 22.4085 22.3548 22.5078 22.1116 22.5078H9.67322V22.5654C9.67322 22.754 9.5963 22.9252 9.47237 23.0491C9.34843 23.173 9.17724 23.25 8.98866 23.25H1.68957C1.50099 23.25 1.32975 23.173 1.20586 23.0491C1.08193 22.9252 1.005 22.754 1.005 22.5654V15.2663C1.005 15.0777 1.08193 14.9065 1.20586 14.7826C1.3298 14.6587 1.50099 14.5817 1.68957 14.5817H5.09344V3.85486L5.09354 3.84727V3.84717V3.84684L5.09382 3.83958V3.83944L5.09429 3.83208V3.83184C5.09466 3.82692 5.09518 3.82205 5.09579 3.81722V3.81675C5.10427 3.75033 5.13446 3.69075 5.17904 3.64528L7.47788 0.859969C7.5368 0.788297 7.62221 0.751172 7.70832 0.751125V0.75H20.2689C20.5121 0.75 20.733 0.849328 20.8929 1.00927C20.8994 1.01573 20.9055 1.02244 20.9113 1.02933C21.0605 1.18758 21.1522 1.40039 21.1522 1.63341V2.35125ZM10.9496 15.636H18.2514C18.4168 15.636 18.5509 15.5019 18.5509 15.3366C18.5509 15.1712 18.4168 15.0371 18.2514 15.0371H10.9496C10.7842 15.0371 10.6501 15.1712 10.6501 15.3366C10.6501 15.5019 10.7842 15.636 10.9496 15.636ZM10.9496 17.4554H18.2514C18.4168 17.4554 18.5509 17.3213 18.5509 17.1559C18.5509 16.9905 18.4168 16.8565 18.2514 16.8565H10.9496C10.7842 16.8565 10.6501 16.9905 10.6501 17.1559C10.6501 17.3213 10.7842 17.4554 10.9496 17.4554Z" fill="#383839" fill-opacity="0.6"/>
</svg>
