<svg width="24" height="24" viewBox="0 0 24 24" fill="none" xmlns="http://www.w3.org/2000/svg">
<g clip-path="url(#clip0_397_119)">
<path d="M9.25743 6.89243H14.7411C14.9224 6.89243 15.0693 6.74548 15.0693 6.56422C15.0693 5.28837 14.287 4.19206 13.177 3.72898C13.5953 3.38684 13.8629 2.86695 13.8629 2.28565C13.8629 1.25768 13.0266 0.421387 11.9986 0.421387C10.9706 0.421387 10.1343 1.25768 10.1343 2.28565C10.1343 2.86704 10.4019 3.38693 10.8203 3.72907C9.711 4.19225 8.92917 5.28847 8.92917 6.56417C8.92917 6.74543 9.07612 6.89239 9.25739 6.89239L9.25743 6.89243ZM10.7908 2.2857C10.7908 1.6197 11.3326 1.07787 11.9986 1.07787C12.6646 1.07787 13.2065 1.6197 13.2065 2.2857C13.2065 2.9517 12.6646 3.49353 11.9986 3.49353C11.3326 3.49353 10.7908 2.9517 10.7908 2.2857ZM11.9986 4.14997C13.2186 4.14997 14.2301 5.05948 14.3907 6.23604H9.60787C9.76842 5.05948 10.7794 4.14997 11.9986 4.14997ZM5.09695 19.0228C5.51522 18.6807 5.78278 18.1608 5.78278 17.5795C5.78278 16.5515 4.94648 15.7152 3.91851 15.7152C2.89054 15.7152 2.05425 16.5515 2.05425 17.5795C2.05425 18.1608 2.32181 18.6806 2.74008 19.0228C1.63008 19.4859 0.847778 20.5822 0.847778 21.858C0.847778 22.0393 0.994731 22.1862 1.176 22.1862H6.66103C6.84229 22.1862 6.98925 22.0393 6.98925 21.858C6.98925 20.5822 6.20695 19.4859 5.09695 19.0228ZM2.71073 17.5795C2.71073 16.9135 3.25256 16.3716 3.91856 16.3716C4.58456 16.3716 5.12639 16.9135 5.12639 17.5795C5.12639 18.2455 4.58456 18.7873 3.91856 18.7873C3.25256 18.7873 2.71073 18.2455 2.71073 17.5795ZM1.52643 21.5298C1.68708 20.3532 2.69859 19.4437 3.91851 19.4437C5.13843 19.4437 6.14995 20.3532 6.31059 21.5298H1.52643ZM21.2596 19.0292C21.678 18.6868 21.9456 18.1665 21.9456 17.5848C21.9456 16.5568 21.1093 15.7205 20.0813 15.7205C19.0534 15.7205 18.2171 16.5568 18.2171 17.5848C18.2171 18.1666 18.4848 18.687 18.9032 19.0294C17.7938 19.4923 17.0119 20.5881 17.0119 21.8633C17.0119 22.0446 17.1588 22.1915 17.3401 22.1915H22.8238C23.0051 22.1915 23.152 22.0446 23.152 21.8633C23.152 20.588 22.3696 19.4921 21.2595 19.0292H21.2596ZM18.8736 17.5848C18.8736 16.9188 19.4154 16.3769 20.0814 16.3769C20.7474 16.3769 21.2892 16.9188 21.2892 17.5848C21.2892 18.2508 20.7474 18.7939 20.0814 18.7939C19.4154 18.7939 18.8736 18.2515 18.8736 17.5848ZM17.6906 21.5351C17.8512 20.3592 18.8621 19.4503 20.0814 19.4503C21.3007 19.4503 22.3128 20.3592 22.4734 21.5351H17.6906ZM15.744 5.48422C15.8231 5.32118 16.0194 5.25303 16.1825 5.33206C17.7818 6.10742 19.1343 7.31037 20.0937 8.81089C21.0792 10.3524 21.6002 12.1389 21.6002 13.9773C21.6002 14.2835 21.5854 14.5961 21.5562 14.9062C21.5402 15.0762 21.3972 15.2037 21.2298 15.2037C21.2196 15.2037 21.2092 15.2032 21.1987 15.2022C21.0182 15.1853 20.8857 15.0252 20.9027 14.8447C20.93 14.555 20.9438 14.2632 20.9438 13.9773C20.9438 10.5708 18.9625 7.40923 15.8962 5.92273C15.7331 5.84365 15.665 5.64734 15.744 5.48426L15.744 5.48422ZM16.4272 16.3837C16.5967 16.0725 16.7326 15.7449 16.8327 15.4059L17.577 15.2176C17.9695 15.119 18.2437 14.7674 18.2437 14.3625V13.5919C18.2437 13.1884 17.9702 12.8364 17.577 12.7355L16.8328 12.5483C16.7327 12.2089 16.5968 11.8809 16.4272 11.5693L16.8208 10.9099C17.0287 10.5612 16.9735 10.1187 16.6879 9.83525L16.1425 9.28854C15.8564 9.00251 15.4138 8.94762 15.0659 9.15504L14.4065 9.54861C14.095 9.37906 13.767 9.24317 13.4275 9.14309L13.24 8.39736C13.1394 8.00572 12.7874 7.73215 12.3839 7.73215H11.6133C11.2084 7.73215 10.8568 8.00637 10.7583 8.39848L10.5699 9.14323C10.2308 9.2434 9.90328 9.3792 9.59208 9.54865L8.93259 9.15509C8.58487 8.94767 8.14223 9.00256 7.85611 9.28864L7.31217 9.83389C7.02379 10.1201 6.96881 10.5631 7.17759 10.9097L7.57017 11.5692C7.40048 11.8808 7.26454 12.2089 7.16447 12.5485L6.42047 12.7358C6.02236 12.8375 5.75489 13.1815 5.75489 13.592V14.3626C5.75489 14.768 6.02925 15.1197 6.42107 15.2176L7.16451 15.4059C7.26473 15.745 7.40057 16.0727 7.57012 16.3841L7.17848 17.0421C6.96932 17.3894 7.02393 17.8325 7.31128 18.1198L7.85606 18.6646C8.14256 18.9511 8.58539 19.0066 8.93268 18.7994L9.59208 18.4059C9.90333 18.5753 10.2309 18.7112 10.57 18.8113L10.758 19.5538C10.8562 19.9467 11.208 20.221 11.6133 20.221H12.3839C12.7944 20.221 13.1385 19.9535 13.2404 19.5544L13.4274 18.8114C13.767 18.7112 14.095 18.5754 14.4065 18.4058L15.0659 18.7994C15.4133 19.0066 15.8559 18.9511 16.1425 18.6646L16.6873 18.1198C16.9733 17.8337 17.0282 17.3911 16.8208 17.0432L16.4272 16.3838L16.4272 16.3837ZM15.7655 16.5557L16.2571 17.3795C16.3121 17.4717 16.2988 17.58 16.2232 17.6556L15.6784 18.2004C15.6023 18.2765 15.4938 18.2902 15.4023 18.2357L14.5784 17.744C14.4748 17.6823 14.3457 17.6823 14.2421 17.744C13.8781 17.9612 13.4857 18.1238 13.0756 18.2272C12.9585 18.2568 12.8672 18.3482 12.8377 18.4653L12.6041 19.3931C12.5775 19.4973 12.4911 19.5646 12.384 19.5646H11.6133C11.5064 19.5646 11.4207 19.4979 11.3947 19.3937L11.1594 18.4649C11.1299 18.3481 11.0386 18.2569 10.9218 18.2273C10.5124 18.1237 10.1203 17.9611 9.75647 17.7441C9.70472 17.7132 9.6465 17.6977 9.58833 17.6977C9.53015 17.6977 9.47193 17.7132 9.42014 17.7441L8.59645 18.2357C8.50462 18.2904 8.39629 18.2765 8.32022 18.2004L7.77543 17.6556C7.69954 17.5797 7.68595 17.4718 7.74168 17.3793L8.232 16.5554C8.29359 16.4519 8.29354 16.3229 8.23186 16.2194C8.01473 15.8555 7.85212 15.4634 7.74862 15.0541C7.71904 14.9373 7.62782 14.846 7.51101 14.8165L6.58125 14.581C6.47803 14.5552 6.41133 14.4695 6.41133 14.3626V13.592C6.41133 13.4849 6.47864 13.3984 6.58181 13.3722L7.51059 13.1383C7.62768 13.1088 7.71914 13.0174 7.74867 12.9003C7.85198 12.4905 8.01459 12.0981 8.23186 11.7338C8.29354 11.6303 8.29359 11.5014 8.232 11.3978L7.74079 10.5725C7.686 10.4816 7.69926 10.3745 7.776 10.2984L8.32022 9.75284C8.39573 9.67728 8.50415 9.66392 8.59631 9.71886L9.42009 10.2105C9.52373 10.2723 9.65287 10.2723 9.75642 10.2105C10.1203 9.9934 10.5124 9.83084 10.9217 9.72729C11.0386 9.69772 11.1299 9.60645 11.1594 9.48959L11.3947 8.55893C11.4204 8.45703 11.5082 8.38859 11.6133 8.38859H12.3839C12.4909 8.38859 12.5774 8.45604 12.6037 8.55898L12.8376 9.48912C12.867 9.60631 12.9585 9.69781 13.0756 9.72734C13.4856 9.83075 13.878 9.99326 14.242 10.2105C14.3457 10.2723 14.4749 10.2723 14.5784 10.2105L15.4022 9.71886C15.4943 9.66397 15.6027 9.67718 15.6783 9.75284L16.224 10.2998C16.299 10.3742 16.3119 10.4817 16.257 10.5737L15.7654 11.3975C15.7036 11.5011 15.7036 11.6302 15.7654 11.7338C15.9827 12.098 16.1452 12.4905 16.2486 12.9003C16.2781 13.0174 16.3696 13.1089 16.4868 13.1383L17.4154 13.3718C17.5199 13.3985 17.5873 13.485 17.5873 13.592V14.3626C17.5873 14.4677 17.5189 14.5555 17.4165 14.5812L16.4864 14.8165C16.3695 14.846 16.2782 14.9373 16.2487 15.0542C16.1452 15.4635 15.9825 15.8555 15.7654 16.2195C15.7036 16.3231 15.7036 16.4522 15.7654 16.5558L15.7655 16.5557ZM2.44261 14.9078C2.41242 14.6037 2.39714 14.2906 2.39714 13.9772C2.39714 12.1397 2.91801 10.3538 3.90347 8.81248C4.86248 7.31257 6.2145 6.10953 7.81326 5.33342C7.97625 5.25434 8.17265 5.32226 8.25182 5.48534C8.33095 5.64842 8.26293 5.84478 8.0999 5.9239C4.98722 7.43487 3.05358 10.5207 3.05358 13.9772C3.05358 14.269 3.06778 14.5602 3.09581 14.843C3.11367 15.0234 2.98195 15.1841 2.80162 15.202C2.79061 15.203 2.77964 15.2036 2.76886 15.2036C2.60212 15.2036 2.45939 15.0772 2.44261 14.9077V14.9078ZM13.9373 11.3795H10.06C9.69661 11.3795 9.40092 11.6752 9.40092 12.0386V15.9159C9.40092 16.2792 9.69661 16.5749 10.06 16.5749H13.9373C14.3007 16.5749 14.5964 16.2792 14.5964 15.9159V12.0386C14.5964 11.6752 14.3007 11.3795 13.9373 11.3795ZM11.5867 12.0359H12.4105V12.8597H11.5867V12.0359ZM13.9373 15.9185L10.0574 15.9158L10.0601 12.0359H10.9304V13.0803C10.9304 13.3206 11.1259 13.5162 11.3662 13.5162H12.6312C12.8715 13.5162 13.067 13.3206 13.067 13.0803V12.0359H13.9373L13.9399 12.0386L13.9373 15.9185V15.9185ZM16.2289 22.2382C16.3058 22.4023 16.2352 22.5977 16.071 22.6747C14.7915 23.2745 13.4213 23.5787 11.9987 23.5787C10.576 23.5787 9.20864 23.2746 7.92773 22.6747C7.76358 22.5979 7.69284 22.4024 7.76972 22.2383C7.84659 22.0742 8.04178 22.0034 8.20617 22.0803C9.39928 22.639 10.6753 22.9223 11.9987 22.9223C13.3221 22.9223 14.6007 22.639 15.7925 22.0803C15.9567 22.0034 16.152 22.0741 16.229 22.2382H16.2289Z" fill="#383839" fill-opacity="0.6"/>
</g>
<defs>
<clipPath id="clip0_397_119">
<rect width="24" height="24" fill="white"/>
</clipPath>
</defs>
</svg>
