<svg width="22" height="22" viewBox="0 0 22 22" fill="none" xmlns="http://www.w3.org/2000/svg">
<path d="M5.998 12C6.27533 12 6.51167 11.903 6.707 11.709C6.90233 11.515 7 11.2793 7 11.002C7 10.7247 6.903 10.4883 6.709 10.293C6.515 10.0977 6.27933 10 6.002 10C5.72467 10 5.48833 10.097 5.293 10.291C5.09767 10.485 5 10.7207 5 10.998C5 11.2753 5.097 11.5117 5.291 11.707C5.485 11.9023 5.72067 12 5.998 12ZM10.998 12C11.2753 12 11.5117 11.903 11.707 11.709C11.9023 11.515 12 11.2793 12 11.002C12 10.7247 11.903 10.4883 11.709 10.293C11.515 10.0977 11.2793 10 11.002 10C10.7247 10 10.4883 10.097 10.293 10.291C10.0977 10.485 10 10.7207 10 10.998C10 11.2753 10.097 11.5117 10.291 11.707C10.485 11.9023 10.7207 12 10.998 12ZM15.998 12C16.2753 12 16.5117 11.903 16.707 11.709C16.9023 11.515 17 11.2793 17 11.002C17 10.7247 16.903 10.4883 16.709 10.293C16.515 10.0977 16.2793 10 16.002 10C15.7247 10 15.4883 10.097 15.293 10.291C15.0977 10.485 15 10.7207 15 10.998C15 11.2753 15.097 11.5117 15.291 11.707C15.485 11.9023 15.7207 12 15.998 12ZM11.003 20C9.759 20 8.589 19.764 7.493 19.292C6.39767 18.8193 5.44467 18.178 4.634 17.368C3.82333 16.558 3.18167 15.606 2.709 14.512C2.23633 13.418 2 12.2483 2 11.003C2 9.75767 2.23633 8.58767 2.709 7.493C3.181 6.39767 3.82133 5.44467 4.63 4.634C5.43867 3.82333 6.391 3.18167 7.487 2.709C8.583 2.23633 9.753 2 10.997 2C12.241 2 13.411 2.23633 14.507 2.709C15.6023 3.181 16.5553 3.82167 17.366 4.631C18.1767 5.44033 18.8183 6.39267 19.291 7.488C19.7637 8.58333 20 9.753 20 10.997C20 12.241 19.764 13.411 19.292 14.507C18.82 15.603 18.1787 16.556 17.368 17.366C16.5573 18.176 15.6053 18.8177 14.512 19.291C13.4187 19.7643 12.249 20.0007 11.003 20Z" fill="white"/>
</svg>
