<svg width="24" height="24" viewBox="0 0 24 24" fill="none" xmlns="http://www.w3.org/2000/svg">
<path d="M12.8838 2.532C12.5378 1.878 11.4618 1.878 11.1158 2.532L2.11578 19.532C2.03507 19.6844 1.99515 19.8551 1.99989 20.0275C2.00463 20.1999 2.05388 20.3681 2.14284 20.5159C2.23181 20.6636 2.35747 20.7858 2.50763 20.8707C2.65778 20.9555 2.82732 21.0001 2.99978 21H20.9998C21.1722 21.0004 21.3418 20.956 21.4921 20.8713C21.6423 20.7866 21.768 20.6644 21.8569 20.5167C21.9458 20.3689 21.995 20.2006 21.9995 20.0282C22.004 19.8559 21.9638 19.6852 21.8828 19.533L12.8838 2.532ZM12.9998 18H10.9998V16H12.9998V18ZM10.9998 14V9H12.9998L13.0008 14H10.9998Z" fill="#DD2222"/>
</svg>
