<svg width="19" height="19" viewBox="0 0 19 19" fill="none" xmlns="http://www.w3.org/2000/svg">
<path d="M18.5 8.903H18.324L16.501 3.57L0.854 8.903L0.5 8.9M0 8.904H0.5L11.646 0L14.463 3.95" stroke="#10BC4B" stroke-width="2" stroke-linecap="square"/>
<path d="M12 13.8999C12 14.5629 11.7366 15.1988 11.2678 15.6677C10.7989 16.1365 10.163 16.3999 9.5 16.3999C8.83696 16.3999 8.20107 16.1365 7.73223 15.6677C7.26339 15.1988 7 14.5629 7 13.8999C7 13.2369 7.26339 12.601 7.73223 12.1321C8.20107 11.6633 8.83696 11.3999 9.5 11.3999C10.163 11.3999 10.7989 11.6633 11.2678 12.1321C11.7366 12.601 12 13.2369 12 13.8999Z" stroke="#10BC4B" stroke-width="2" stroke-linecap="square"/>
<path d="M19 8.8999V18.8999H0V8.8999H19Z" stroke="#10BC4B" stroke-width="2" stroke-linecap="square"/>
<path d="M0 8.8999H2C2 9.43034 1.78929 9.93904 1.41421 10.3141C1.03914 10.6892 0.530433 10.8999 0 10.8999V8.8999ZM19 8.8999H17C17 9.43034 17.2107 9.93904 17.5858 10.3141C17.9609 10.6892 18.4696 10.8999 19 10.8999V8.8999ZM0 18.8999H2.002C2.00226 18.6369 1.95066 18.3765 1.85014 18.1335C1.74963 17.8904 1.60217 17.6696 1.41621 17.4837C1.23026 17.2977 1.00946 17.1503 0.766443 17.0498C0.523431 16.9492 0.26298 16.8976 0 16.8979V18.8999ZM19 18.8999H17C17 18.3695 17.2107 17.8608 17.5858 17.4857C17.9609 17.1106 18.4696 16.8999 19 16.8999V18.8999Z" stroke="#10BC4B" stroke-width="2" stroke-linecap="square"/>
</svg>
