<svg width="24" height="24" viewBox="0 0 24 24" fill="none" xmlns="http://www.w3.org/2000/svg">
<g clip-path="url(#clip0_669_3368)">
<path d="M9.25731 6.89243H14.741C14.9222 6.89243 15.0692 6.74548 15.0692 6.56422C15.0692 5.28837 14.2869 4.19206 13.1769 3.72898C13.5952 3.38684 13.8627 2.86695 13.8627 2.28565C13.8627 1.25768 13.0264 0.421387 11.9985 0.421387C10.9705 0.421387 10.1342 1.25768 10.1342 2.28565C10.1342 2.86704 10.4018 3.38693 10.8202 3.72907C9.71087 4.19225 8.92905 5.28847 8.92905 6.56417C8.92905 6.74543 9.076 6.89239 9.25727 6.89239L9.25731 6.89243ZM10.7907 2.2857C10.7907 1.6197 11.3325 1.07787 11.9985 1.07787C12.6645 1.07787 13.2063 1.6197 13.2063 2.2857C13.2063 2.9517 12.6645 3.49353 11.9985 3.49353C11.3325 3.49353 10.7907 2.9517 10.7907 2.2857ZM11.9985 4.14997C13.2184 4.14997 14.23 5.05948 14.3906 6.23604H9.60775C9.7683 5.05948 10.7793 4.14997 11.9985 4.14997ZM5.09683 19.0228C5.51509 18.6807 5.78266 18.1608 5.78266 17.5795C5.78266 16.5515 4.94636 15.7152 3.91839 15.7152C2.89042 15.7152 2.05413 16.5515 2.05413 17.5795C2.05413 18.1608 2.32169 18.6806 2.73995 19.0228C1.62995 19.4859 0.847656 20.5822 0.847656 21.858C0.847656 22.0393 0.994609 22.1862 1.17588 22.1862H6.66091C6.84217 22.1862 6.98912 22.0393 6.98912 21.858C6.98912 20.5822 6.20683 19.4859 5.09683 19.0228ZM2.71061 17.5795C2.71061 16.9135 3.25244 16.3716 3.91844 16.3716C4.58444 16.3716 5.12627 16.9135 5.12627 17.5795C5.12627 18.2455 4.58444 18.7873 3.91844 18.7873C3.25244 18.7873 2.71061 18.2455 2.71061 17.5795ZM1.52631 21.5298C1.68695 20.3532 2.69847 19.4437 3.91839 19.4437C5.13831 19.4437 6.14983 20.3532 6.31047 21.5298H1.52631ZM21.2595 19.0292C21.6779 18.6868 21.9455 18.1665 21.9455 17.5848C21.9455 16.5568 21.1092 15.7205 20.0812 15.7205C19.0533 15.7205 18.217 16.5568 18.217 17.5848C18.217 18.1666 18.4847 18.687 18.9031 19.0294C17.7937 19.4923 17.0117 20.5881 17.0117 21.8633C17.0117 22.0446 17.1587 22.1915 17.34 22.1915H22.8237C23.005 22.1915 23.1519 22.0446 23.1519 21.8633C23.1519 20.588 22.3695 19.4921 21.2594 19.0292H21.2595ZM18.8734 17.5848C18.8734 16.9188 19.4153 16.3769 20.0813 16.3769C20.7473 16.3769 21.2891 16.9188 21.2891 17.5848C21.2891 18.2508 20.7473 18.7939 20.0813 18.7939C19.4153 18.7939 18.8734 18.2515 18.8734 17.5848ZM17.6905 21.5351C17.851 20.3592 18.862 19.4503 20.0813 19.4503C21.3006 19.4503 22.3127 20.3592 22.4733 21.5351H17.6905ZM15.7439 5.48422C15.823 5.32118 16.0193 5.25303 16.1824 5.33206C17.7817 6.10742 19.1342 7.31037 20.0935 8.81089C21.0791 10.3524 21.6001 12.1389 21.6001 13.9773C21.6001 14.2835 21.5853 14.5961 21.5561 14.9062C21.5401 15.0762 21.3971 15.2037 21.2297 15.2037C21.2194 15.2037 21.2091 15.2032 21.1986 15.2022C21.0181 15.1853 20.8856 15.0252 20.9026 14.8447C20.9298 14.555 20.9437 14.2632 20.9437 13.9773C20.9437 10.5708 18.9624 7.40923 15.8961 5.92273C15.733 5.84365 15.6648 5.64734 15.7439 5.48426L15.7439 5.48422ZM16.4271 16.3837C16.5966 16.0725 16.7325 15.7449 16.8326 15.4059L17.5768 15.2176C17.9694 15.119 18.2436 14.7674 18.2436 14.3625V13.5919C18.2436 13.1884 17.9701 12.8364 17.5769 12.7355L16.8326 12.5483C16.7326 12.2089 16.5967 11.8809 16.4271 11.5693L16.8206 10.9099C17.0286 10.5612 16.9734 10.1187 16.6877 9.83525L16.1424 9.28854C15.8563 9.00251 15.4136 8.94762 15.0658 9.15504L14.4063 9.54861C14.0949 9.37906 13.7669 9.24317 13.4274 9.14309L13.2399 8.39736C13.1393 8.00572 12.7873 7.73215 12.3838 7.73215H11.6132C11.2083 7.73215 10.8567 8.00637 10.7582 8.39848L10.5698 9.14323C10.2307 9.2434 9.90316 9.3792 9.59195 9.54865L8.93247 9.15509C8.58475 8.94767 8.14211 9.00256 7.85598 9.28864L7.31205 9.83389C7.02367 10.1201 6.96869 10.5631 7.17747 10.9097L7.57005 11.5692C7.40036 11.8808 7.26442 12.2089 7.16434 12.5485L6.42034 12.7358C6.02223 12.8375 5.75477 13.1815 5.75477 13.592V14.3626C5.75477 14.768 6.02912 15.1197 6.42095 15.2176L7.16439 15.4059C7.26461 15.745 7.40045 16.0727 7.57 16.3841L7.17836 17.0421C6.9692 17.3894 7.02381 17.8325 7.31116 18.1198L7.85594 18.6646C8.14244 18.9511 8.58527 19.0066 8.93256 18.7994L9.59195 18.4059C9.9032 18.5753 10.2308 18.7112 10.5699 18.8113L10.7579 19.5538C10.8561 19.9467 11.2078 20.221 11.6132 20.221H12.3838C12.7943 20.221 13.1383 19.9535 13.2402 19.5544L13.4273 18.8114C13.7669 18.7112 14.0949 18.5754 14.4063 18.4058L15.0658 18.7994C15.4132 19.0066 15.8558 18.9511 16.1424 18.6646L16.6872 18.1198C16.9732 17.8337 17.0281 17.3911 16.8206 17.0432L16.4271 16.3838L16.4271 16.3837ZM15.7653 16.5557L16.257 17.3795C16.312 17.4717 16.2986 17.58 16.223 17.6556L15.6782 18.2004C15.6022 18.2765 15.4937 18.2902 15.4022 18.2357L14.5783 17.744C14.4747 17.6823 14.3456 17.6823 14.242 17.744C13.878 17.9612 13.4855 18.1238 13.0755 18.2272C12.9584 18.2568 12.8671 18.3482 12.8375 18.4653L12.604 19.3931C12.5774 19.4973 12.491 19.5646 12.3839 19.5646H11.6132C11.5063 19.5646 11.4206 19.4979 11.3945 19.3937L11.1593 18.4649C11.1297 18.3481 11.0385 18.2569 10.9217 18.2273C10.5122 18.1237 10.1201 17.9611 9.75634 17.7441C9.70459 17.7132 9.64637 17.6977 9.5882 17.6977C9.53003 17.6977 9.47181 17.7132 9.42002 17.7441L8.59633 18.2357C8.5045 18.2904 8.39617 18.2765 8.32009 18.2004L7.77531 17.6556C7.69942 17.5797 7.68583 17.4718 7.74156 17.3793L8.23187 16.5554C8.29347 16.4519 8.29342 16.3229 8.23173 16.2194C8.01461 15.8555 7.852 15.4634 7.7485 15.0541C7.71892 14.9373 7.6277 14.846 7.51089 14.8165L6.58113 14.581C6.47791 14.5552 6.4112 14.4695 6.4112 14.3626V13.592C6.4112 13.4849 6.47852 13.3984 6.58169 13.3722L7.51047 13.1383C7.62756 13.1088 7.71902 13.0174 7.74855 12.9003C7.85186 12.4905 8.01447 12.0981 8.23173 11.7338C8.29342 11.6303 8.29347 11.5014 8.23187 11.3978L7.74067 10.5725C7.68587 10.4816 7.69914 10.3745 7.77588 10.2984L8.32009 9.75284C8.39561 9.67728 8.50403 9.66392 8.59619 9.71886L9.41997 10.2105C9.52361 10.2723 9.65275 10.2723 9.7563 10.2105C10.1202 9.9934 10.5122 9.83084 10.9216 9.72729C11.0385 9.69772 11.1297 9.60645 11.1593 9.48959L11.3946 8.55893C11.4203 8.45703 11.5081 8.38859 11.6132 8.38859H12.3838C12.4908 8.38859 12.5772 8.45604 12.6036 8.55898L12.8375 9.48912C12.8669 9.60631 12.9584 9.69781 13.0755 9.72734C13.4855 9.83075 13.8779 9.99326 14.2419 10.2105C14.3455 10.2723 14.4747 10.2723 14.5783 10.2105L15.4021 9.71886C15.4942 9.66397 15.6026 9.67718 15.6782 9.75284L16.2239 10.2998C16.2988 10.3742 16.3118 10.4817 16.2569 10.5737L15.7653 11.3975C15.7035 11.5011 15.7035 11.6302 15.7653 11.7338C15.9826 12.098 16.1451 12.4905 16.2485 12.9003C16.278 13.0174 16.3695 13.1089 16.4867 13.1383L17.4153 13.3718C17.5197 13.3985 17.5872 13.485 17.5872 13.592V14.3626C17.5872 14.4677 17.5187 14.5555 17.4164 14.5812L16.4862 14.8165C16.3694 14.846 16.2781 14.9373 16.2485 15.0542C16.145 15.4635 15.9824 15.8555 15.7653 16.2195C15.7035 16.3231 15.7035 16.4522 15.7653 16.5558L15.7653 16.5557ZM2.44248 14.9078C2.4123 14.6037 2.39702 14.2906 2.39702 13.9772C2.39702 12.1397 2.91789 10.3538 3.90334 8.81248C4.86236 7.31257 6.21438 6.10953 7.81314 5.33342C7.97613 5.25434 8.17253 5.32226 8.2517 5.48534C8.33083 5.64842 8.26281 5.84478 8.09978 5.9239C4.98709 7.43487 3.05345 10.5207 3.05345 13.9772C3.05345 14.269 3.06766 14.5602 3.09569 14.843C3.11355 15.0234 2.98183 15.1841 2.8015 15.202C2.79048 15.203 2.77952 15.2036 2.76873 15.2036C2.602 15.2036 2.45927 15.0772 2.44248 14.9077V14.9078ZM13.9372 11.3795H10.0599C9.69648 11.3795 9.4008 11.6752 9.4008 12.0386V15.9159C9.4008 16.2792 9.69648 16.5749 10.0599 16.5749H13.9372C14.3005 16.5749 14.5962 16.2792 14.5962 15.9159V12.0386C14.5962 11.6752 14.3005 11.3795 13.9372 11.3795ZM11.5866 12.0359H12.4104V12.8597H11.5866V12.0359ZM13.9372 15.9185L10.0573 15.9158L10.06 12.0359H10.9302V13.0803C10.9302 13.3206 11.1257 13.5162 11.3661 13.5162H12.631C12.8714 13.5162 13.0669 13.3206 13.0669 13.0803V12.0359H13.9372L13.9398 12.0386L13.9372 15.9185V15.9185ZM16.2288 22.2382C16.3057 22.4023 16.2351 22.5977 16.0709 22.6747C14.7914 23.2745 13.4212 23.5787 11.9986 23.5787C10.5759 23.5787 9.20852 23.2746 7.92761 22.6747C7.76345 22.5979 7.69272 22.4024 7.76959 22.2383C7.84647 22.0742 8.04166 22.0034 8.20605 22.0803C9.39916 22.639 10.6751 22.9223 11.9986 22.9223C13.322 22.9223 14.6006 22.639 15.7923 22.0803C15.9565 22.0034 16.1519 22.0741 16.2288 22.2382H16.2288Z" fill="#383838" fill-opacity="0.6"/>
</g>
<defs>
<clipPath id="clip0_669_3368">
<rect width="24" height="24" fill="white"/>
</clipPath>
</defs>
</svg>
